<?xml version="1.0" encoding="utf-8"?>
<!-- Generator: Adobe Illustrator 24.1.0, SVG Export Plug-In . SVG Version: 6.00 Build 0)  -->
<svg version="1.1" id="pictos" xmlns="http://www.w3.org/2000/svg" xmlns:xlink="http://www.w3.org/1999/xlink" x="0px" y="0px"
	 viewBox="0 0 1772 1653" style="enable-background:new 0 0 1772 1653;" xml:space="preserve">
<style type="text/css">
	.st0{fill:#121830;}
	.st1{fill:#FDC300;}
	.st2{fill:#112954;}
	.st3{fill:#15306B;}
	.st4{fill:#47509D;}
	.st5{fill:#D4C5FF;}
	.st6{fill:none;stroke:#FFFFFF;stroke-width:18.6461;stroke-linecap:round;stroke-miterlimit:10;}
	.st7{fill:#FFFFFF;}
	.st8{fill:#8784A5;}
	.st9{fill:#B3B2B1;}
	.st10{fill:#B2A9D8;}
	.st11{fill:#208473;}
	.st12{fill:#6F7070;}
	.st13{fill:#27A491;}
	.st14{fill:#826DAF;}
	.st15{fill:#DE3E4F;}
	.st16{fill:#192144;}
	.st17{fill:none;stroke:#B2A9D8;stroke-width:22.039;stroke-linecap:round;stroke-miterlimit:10;}
	.st18{filter:url(#Adobe_OpacityMaskFilter);}
	.st19{mask:url(#SVGID_1_);}
	.st20{fill:#C5C5C5;}
	.st21{fill:#FDC303;}
	.st22{filter:url(#Adobe_OpacityMaskFilter_1_);}
	.st23{mask:url(#SVGID_2_);}
	.st24{fill:none;stroke:#FDC300;stroke-width:3.6732;stroke-miterlimit:10;}
	.st25{fill:#FDC303;stroke:#FDC300;stroke-width:0.9183;stroke-miterlimit:10;}
	.st26{fill:#27A491;stroke:#FDC300;stroke-width:0.9183;stroke-miterlimit:10;}
	.st27{fill:none;stroke:#B2A9D8;stroke-width:24.2248;stroke-linecap:round;stroke-miterlimit:10;}
	.st28{fill:none;stroke:#826DAF;stroke-width:20.0371;stroke-linecap:round;stroke-miterlimit:10;}
	.st29{fill:#FDC300;stroke:#112954;stroke-width:11.9381;stroke-linecap:round;stroke-linejoin:round;stroke-miterlimit:10;}
	.st30{fill:none;stroke:#121830;stroke-width:5.9816;stroke-linecap:round;stroke-miterlimit:10;}
	.st31{opacity:0.74;fill:#D4C5FF;}
	.st32{fill:none;stroke:#CE9800;stroke-width:13.4488;stroke-linecap:round;stroke-linejoin:round;stroke-miterlimit:10;}
	.st33{fill:none;stroke:#FDC300;stroke-width:17.8163;stroke-linecap:round;stroke-linejoin:round;stroke-miterlimit:10;}
	.st34{fill:none;stroke:#DE3E4F;stroke-width:17.8163;stroke-linecap:round;stroke-linejoin:round;stroke-miterlimit:10;}
	.st35{fill:none;stroke:#27A491;stroke-width:17.8163;stroke-linecap:round;stroke-linejoin:round;stroke-miterlimit:10;}
	.st36{fill:none;stroke:#B2A9D8;stroke-width:22.8116;stroke-linecap:round;stroke-miterlimit:10;}
	.st37{opacity:0.7;fill:#DE3E4F;}
</style>
<g>
	<polygon class="st4" points="1433,1218.98 376.28,1218.98 473.33,978.79 1335.95,978.79 	"/>
	<path class="st3" d="M1302.91,1008.72H504.98c-22.47,0-40.86-18.38-40.86-40.86V463.25c0-22.47,18.38-40.86,40.86-40.86h797.93
		c22.47,0,40.86,18.38,40.86,40.86v504.61C1343.77,990.33,1325.38,1008.72,1302.91,1008.72z"/>
	<rect x="517.55" y="509.74" class="st13" width="772.33" height="441.56"/>
	<polygon class="st0" points="822.02,950.49 1289.74,950.92 1289.74,551.46 1289.88,508.93 	"/>
	<circle class="st5" cx="903.95" cy="467.03" r="21.96"/>
	<defs>
		<filter id="Adobe_OpacityMaskFilter" filterUnits="userSpaceOnUse" x="415.98" y="363.49" width="998.44" height="611.57">
			<feColorMatrix  type="matrix" values="1 0 0 0 0  0 1 0 0 0  0 0 1 0 0  0 0 0 1 0"/>
		</filter>
	</defs>
	<mask maskUnits="userSpaceOnUse" x="415.98" y="363.49" width="998.44" height="611.57" id="SVGID_1_">
		<g class="st18">
			<polygon class="st7" points="822.02,950.49 517.55,950.49 517.55,508.93 1289.88,508.93 			"/>
		</g>
	</mask>
	<g class="st19">
		<path class="st20" d="M596.31,682.93c7.78-1.39,15.42-3.58,23.09-5.57c2.78-0.72,5.24-1.97,4.17-5.71
			c-0.99-3.43-2.59-4.66-6.5-3.54c-21.77,6.26-43.82,11.53-65.36,18.56c-25.15,8.2-49.63,6.95-73.83-3.63
			c-6.06-2.65-11.88-6.23-18.79-6.5c-1.76-0.92-3.59-1.66-5.58-1.9c-5.11-4.92-9.64-4.75-13.75,0.53c-1.01,1.3-2.01,2.6-2.97,3.94
			c-4.86,6.7-10.31,12.85-16.66,18.18c0.11-6.59,0.21-13.18,0.32-19.76c1.16-1.31,2.33-2.6,3.46-3.93
			c6.39-7.53,6.36-7.61-3.24-10.07c0.08-4.67,0.15-9.33,0.23-14c7.89,1.59,15.31,5.1,23.51,5.82c-7.57-6.39-15.07-12.75-23.31-18.17
			c0.09-5.76,0.19-11.53,0.28-17.29c2.88,2.02,5.77,4.03,8.65,6.05c1.49,1.27,2.75,2.86,4.7,3.51c3.64,2.73,7.29,5.47,10.93,8.2
			c1.15,1.32,2.22,2.78,4.31,2.41l-0.05-0.1c-0.56,1.26,0.47,1.71,1.2,2.25c6.63,4.89,12.4,10.7,18.25,16.47
			c4.35,4.3,8.42,9.14,14.02,11.89c16.74,8.23,34.34,11.12,52.57,6.52c21.83-5.52,43.54-11.55,65.25-17.56
			c5.52-1.53,11.2-2.53,16.47-4.98c2.1-0.97,2.9-1.89,1.82-4.3c-1.34-2.97-2.16-6.18-3.22-9.28
			c-4.85-14.32-59.61-141.96-60.58-145.6c-2.51-3.56-3.18-7.95-5.29-11.69c0.06-0.97,0.67-2.12-0.87-2.54l-0.05,0.17
			c-0.3-5.93-4-10.62-5.9-15.96c-1.18-3.74-2.64-7.37-4.51-10.82c0.14-1.63-0.39-3.08-1.2-4.45c-0.15-3.06-1.52-5.7-2.93-8.32
			c-0.64-1.79-0.57-3.8-1.75-5.41c0.58-3.36,0.02-6.36-2.71-8.69c0.28-1.66-0.56-3.05-1.08-4.52c0.44-3.88-1.13-7.23-2.83-10.54
			c0.12-2.12-0.85-3.8-2.19-5.32c0.5-2.1-1.07-3.71-1.35-5.62c-0.08-5.75-2.93-10.77-4.32-16.17c-0.9-3.48-1.89-3.53-4.66-0.62
			c-1.97,0.41-3.93,0.94-5.92,1.23c-7.72,1.11-14.95,4.15-22.56,5.71c-2.22-0.73-4.22,0.49-6.34,0.73
			c-2.35,0.26-4.39-0.38-5.77-2.33c-1.25-1.76-1.63-3.72-0.62-5.8c1.28-2.62,3.83-2.81,6.21-3.26c9.64-1.83,19.33-3.46,28.61-6.82
			c6.43-2.33,6.47-2.28,4.24-8.46c-0.28-0.77-0.47-1.57-0.7-2.35c5.22,0.08,10.44,0.17,15.65,0.25c0.39,2.79,0.66,5.59,1.77,8.24
			c3.22,7.67,4.99,15.86,6.95,23.83c2.28,9.26,4.96,18.38,7.76,27.47c5.69,18.41,12.94,36.26,19.75,54.28
			c2.41,6.37,4.54,12.87,8.03,18.82c1.55,2.64,2.83,2.91,5.37,1.44c3.42-1.98,7.11-3.48,10.64-5.27c6.57-3.33,13.14-6.66,19.66-10.1
			c2.82-1.49,3.75-3.58,2.15-6.76c-1.27-2.53-1.96-5.37-2.88-8.08c-9.38-27.49-18.91-54.93-29.22-82.1
			c-0.56-1.48-0.65-3.3-2.65-3.76l0.05,0.06c1.14-1.84-0.09-3.4-0.67-4.98c-1.51-4.16-3.13-8.28-4.71-12.42
			c4.39,0.07,8.79,0.14,13.18,0.21c3.48,8.29,7.01,16.55,10.38,24.89c0.77,1.9,1.47,2.86,3.46,1.49
			c12.41-8.52,24.82-17.03,37.23-25.55c7.41,0.12,14.83,0.24,22.24,0.36c-0.1,0.77-0.7,1.08-1.26,1.48
			c-7.5,5.35-14.98,10.72-22.47,16.09c-4.34,2.16-7.79,5.61-11.82,8.22c-0.63-0.04-1.19,0-1.15,0.85l0.07-0.05
			c-0.81-0.13-1.47-0.01-1.68,0.94l0.17-0.04c-5.33,1.89-9.4,5.83-14.16,8.63c-3.73,2.2-4.34,4.61-2.86,8.68
			c6.57,18.06,12.85,36.23,19.16,54.39c0.75,2.17,1.77,2.99,4.15,2.52c21.08-4.16,39.64-13.16,54.64-28.75
			c10.04-10.44,20.53-20.38,31.15-30.21c14.34-13.27,28.39-26.84,41.65-41.22c11.81,0.19,23.62,0.38,35.43,0.57
			c9.89,9.01,19.9,17.91,29.64,27.07c14.47,13.61,28,28.12,40.88,43.24c9.89,11.62,20.78,22.18,34,29.93
			c12.87,7.55,25.82,14.88,37.8,23.87c9.28,6.96,15.93,15.34,17.68,26.95c2.27,15.02,2.89,30.22,4.42,45.32
			c1.51,14.94,2.57,29.93,4.91,44.79c0.68,4.31,2.43,4.84,6.09,4.43c8.3-0.92,16.55-2.12,24.8-3.4c8.05-1.25,15.53-4.48,23.45-6.17
			c9.61-2.05,9.55-2.33,7.4-11.71c-1.31-11.01-18.06-51.39-23.53-58.01c-0.93-1.12-6.55-10.56-7.8-12.23
			c-3.68-4.93-7.68-9.64-11.21-14.67c-1.63-2.31-3.16-2.54-5.36-1.33c-0.57-0.88-1.14-1.75-1.71-2.63c0.84-1.18,2.49-1.82,0.78-3.94
			c-8.4-10.45-16.93-20.79-25.72-30.9c-1.26-1.45-2.39-1.51-3.82-0.51c-0.74-0.96-1.49-1.91-2.23-2.87c1.39-1.3,1.53-2.49,0.37-4.21
			c-3.77-5.58-8.32-10.44-13.06-15.16c-1.46-1.46-2.6-0.92-3.97-0.24c-3.54-4.01-7.08-8.02-10.62-12.03
			c0.19-1.72-0.92-2.06-2.28-2.11c-0.93-1.06-1.86-2.13-2.79-3.19c-0.75-3.17-2.72-5.15-5.84-6.02c-1.07-1.22-2.13-2.43-3.2-3.65
			c-0.32-0.35-0.64-0.71-0.97-1.06c-1.16-1.23-1.82-3.03-3.78-3.36c-3.11-6.85-8.45-11.59-14.67-15.5
			c-0.68-0.75-1.36-1.51-2.03-2.26c-0.57-5.28-4.87-7.67-8.3-10.75c-0.9-0.81-1.79-0.12-2.68,0c-0.73-0.89-1.46-1.78-2.19-2.66
			c0.27-4.25-2.26-6.79-7.07-7.09c-0.84-0.76-1.68-1.51-2.52-2.27c-1.17-1.68-3.16-2.67-3.92-4.7c5.49,0.09,10.98,0.18,16.48,0.26
			c6.79,7.96,14.41,15.12,21.91,22.4c10.95,10.63,21.82,21.36,33.88,30.78c1.39,1.08,2.39,2.29,4.48,0.48
			c10.6-9.23,21.24-18.43,32.19-27.24c3.39-2.73,2.71-4.4,0.46-7.09c-4.98-5.94-9.77-12.04-14.64-18.07
			c13.46,0.22,26.91,0.43,40.37,0.65c6.48,10.87,13.14,21.64,20.6,31.86c11.11,15.2,25.06,28.16,35.26,44.09
			c1.14,1.79,2.16,1.46,3.68,0.52c8.51-5.23,16.62-11.04,24.56-17.09c14.01-10.69,27.04-22.54,40.17-34.27
			c9.5-8.49,20.24-15.31,30.61-22.62c4.12,0.07,8.24,0.13,12.36,0.2c-0.07,1.01-0.95,1.22-1.62,1.63
			c-15.94,9.63-31,20.46-44.73,33.08c-17.34,15.93-35.41,30.93-55.4,43.48c-4.58,2.87-4.57,2.88-1.11,7.65
			c-0.14,1.24-0.02,2.34,0.72,3.49c4.14,6.4,8.18,12.86,12.25,19.3c-0.72,0.56-0.37,1.12-0.09,1.77c1.67,3.88,3.36,7.76,4.93,11.68
			c8.87,22.24,15.06,45.35,21.8,68.28c1.8,6.11,1.65,6.04,7.6,4.32c21.42-6.18,42.67-12.89,63.81-19.96
			c4.54-1.52,21.62-7.25,23.45-7.83c9.99-3.12,45.7-18.9,53.95-22.64c10.96-4.97,21.52-10.61,32.16-16.15
			c2.4-1.25,3.21-2.24,1.62-4.98c-3.58-6.13-6.73-12.51-10.05-18.8c-12.36-23.45-24.79-46.85-37.03-70.36
			c-5.73-11-11.99-21.74-17.06-33.08c4.94,0.08,9.89,0.16,14.83,0.24c5.87,13.25,13.38,25.64,19.88,38.56
			c0.86,1.72,1.84,1.04,2.98,0.59c2.97-1.15,5.56-3.16,8.15-4.78c13.06-8.16,27.96-12.5,41.11-20.36c1.8-1.08,3.41-1.32,4.68,0.46
			c1.34,1.88,0.74,3.79-0.94,5.09c-1.93,1.51-3.96,2.93-6.32,3.79c-14.96,5.5-28.46,13.93-42.52,21.23
			c-2.23,1.16-3.05,2.17-1.65,4.6c2.54,4.38,4.82,8.9,7.19,13.38c0.96,1.81,1.75,2.59,4.07,1.23c9.16-5.38,18.47-10.51,27.79-15.63
			c14.02-7.7,26.92-17.1,40.23-25.89c10.54-6.96,21.36-13.32,33.62-16.87c10.72-3.1,18.18-0.93,25.07,7.8
			c2.08,2.64,3.71,5.67,5.4,8.6c7.28,12.58,15.79,24.3,24.82,35.66c-0.13,8.24-0.26,16.47-0.4,24.71c-0.63,0.18-1.33,0.23-1.89,0.54
			c-14.93,8.31-29.79,16.76-44.79,24.95c-22.89,12.5-45.86,24.86-69.24,36.43c-26.47,13.1-53.07,25.92-80.26,37.52
			c-23.79,10.14-47.98,19.22-72.27,28.02c-14.54,5.27-29.12,10.44-43.74,15.49c-2.23,0.77-2.36,1.67-1.53,3.48
			c1.13,2.48,2.17,5.01,3.24,7.52c8.55,20.13,16.7,40.41,24.25,60.93c7.12,19.37,14.69,38.58,20.75,58.34
			c2.2,7.17,3.53,14.66,7.09,21.37c7.75,14.62,20.77,24.93,30.87,37.64c1.2,1.52,2.07,0.76,3.26-0.38c5.3-5.09,10.67-10.13,16.17-15
			c21.31-18.87,80.68-68.61,84.38-71.9c4.8-1.43,7.63-5.4,11.06-8.6c1.8,0.64,2.76-0.8,3.93-1.64c8.2-5.9,16.38-11.82,24.56-17.73
			c0.32-0.25,0.64-0.5,0.97-0.75l0.23-0.15c0.54-0.08,1.16-0.06,1.23-0.83l-0.07,0.05c0.84,0.2,1.57,0.19,1.67-0.94l-0.18,0.01
			c1.4,0.41,2.34-0.63,3.37-1.17c12.96-6.86,25.88-13.79,38.83-20.68c11.77-6.27,23.55-12.52,35.33-18.77
			c-0.08,5.22-0.17,10.43-0.25,15.65c-3.81,0.55-6.2,3.85-9.51,5.07c-4.52,1.67-8.57,4.11-12.81,6.26c-1.83,0.93-2.49,1.81-1.3,3.74
			c1.57,2.55,2.94,5.23,4.39,7.85c1.68,2.96,3.35,5.93,5.03,8.89c4.76,8.41,4.76,8.41,13.62,4.43c-0.04,2.47-0.08,4.94-0.12,7.41
			c-1.31,0.67-2.68,1.24-3.91,2.03c-0.67,0.43-2.05,0.83-1.28,2.05c1.61,2.52,1.97,5.88,5,7.45c-0.33,20.59-0.66,41.18-0.99,61.76
			c-3.9,3.22-7.91,6.31-11.68,9.68c-16.54,14.78-34.28,28.07-53.05,39.76c-16.12,10.04-33.11,18.66-49.68,27.96
			c-8.72,4.9-17.12,10.31-24.88,16.66c-1.64,1.34-2.49,2.46-0.65,4.58c10.42,11.98,20.53,24.23,31.05,36.12
			c8.04,9.09,14.59,18.95,19.05,30.29c3.1,7.87,6.71,15.55,12.07,22.25c0.95,1.18,1.49,2.11,3.17,0.85
			c15.12-11.36,31.24-21.18,47.61-30.59c8.24-4.74,16.11-10.12,24.69-14.27c-0.04,2.47-0.08,4.94-0.12,7.41
			c-10.45,6.18-20.9,12.36-31.36,18.53c-13.03,7.68-25.65,15.99-37.76,25.07c-1.18,0.88-2.32,1.85-2.16,3.23
			c0.51,4.32-0.31,8.76,1.1,13c-2.2-0.04-4.39-0.07-6.59-0.11c-0.45-2.96-0.9-5.92-1.25-8.27c-3.17,2.71-6.31,5.41-9.46,8.1
			c-6.87-0.11-13.73-0.22-20.6-0.33c0.29-0.27,0.57-0.54,0.87-0.8c2.26-1.91,6.89-2.02,7.13-4.49c0.2-2.15-3.11-4.71-5.01-6.97
			c-1.07-1.27-1.14-3.69-3.67-3.41l0.05,0.05c0.69-1.63,0.24-2.52-1.61-2.5l0.01,0.01c0.45-1.47,0.11-2.44-1.62-2.52l0.03,0.03
			c0.38-1.45-0.12-2.32-1.64-2.54l0.05,0.06c0.14-0.8-0.02-1.45-0.89-1.71l0.08,0.09c-0.17-1.12-13.94-23.16-14.38-23.93
			c-2.16-3.79-4.26-7.62-6.52-11.35c-6.24-10.26-12.45-20.54-19.81-30.06c-0.67-0.87-1.62-3.59-2.94-0.59
			c-3.48,7.87-7.16,15.84-6.6,24.68c0.41,6.53,1.03,12.92-1.8,19.09c-0.99,2.17-0.29,3.59,1.93,4.51c3.77,1.58,7.49,3.3,11.22,4.97
			c0.39,2.98-1.37,4.66-3.66,6c-3.2-1.52-6.49-2.89-9.58-4.6c-2.2-1.22-2.9-0.17-3.5,1.63c-0.81,2.46-1.68,4.9-2.48,7.37
			c-2.9,9-7.84,17.08-11.44,25.77c-23.07-0.37-46.14-0.74-69.2-1.11c0.87-1.2,1.64-2.5,2.64-3.6c4.56-5.01,3.05-11.2,3.5-17.03
			c0.26-3.35-3.14-4.18-4.17-6.59c-3.2-21.18-1.24-42.05,4.42-62.81c-2.18,0.31-3.2,1.5-4.26,2.53
			c-7.93,7.69-15.88,15.36-23.72,23.15c-15,14.89-30.01,29.77-44.83,44.83c-5.91,6.01-12.64,11.25-17.61,18.18
			c-8.51-0.14-17.03-0.27-25.54-0.41c0.11-1.75-1.29-2.64-2.19-3.78c-10.68-13.49-22.23-26.2-34.27-38.49
			c-6.1-6.22-6.2-6.36-12.63-0.49c-15,13.68-29.89,27.49-44.83,41.24c-10.16-0.16-20.32-0.33-30.48-0.49
			c-0.55-1.24-1.06-2.5-1.66-3.71c-7.95-16.1-15.98-32.16-23.86-48.3c-10.29-21.08-20.46-42.21-30.7-63.32
			c-0.65-1.34-1.25-2.91-3.31-2.08c-3.19-1.07-44.83,11.62-61.7,14.13c-0.45,0.09-0.91,0.17-1.36,0.26
			c-0.59-0.02-1.19-0.03-1.78-0.05c-0.48,0.03-0.95,0.07-1.43,0.1c-6.36-0.64-12.82-0.79-19.06-2.03
			c-13.37-2.64-26.68-5.54-40.2-7.37c-4.22-0.57-5.52,0.54-5.29,4.88c0.2,3.68,0.68,7.35,1.08,11.02
			c2.06,18.86,4.03,37.73,6.25,56.57c1.46,12.34,2.12,24.76,4.23,37.02c-4.67-0.08-9.34-0.15-14.01-0.23
			c-0.21-11.76-2.12-23.38-3.23-35.06c-1.77-18.64-3.95-37.25-6.05-55.86c-2.19-19.42-4.5-38.83-6.68-58.25
			c-0.21-1.89-1.02-2.52-2.82-2.74c-17.35-2.08-34.7-4.13-52.02-6.45c-3.47-0.47-4.38,0.63-5.03,3.8
			c-4.89,23.99-8.71,48.22-15.17,71.87c-2.73,10.01-6.03,19.87-9.4,29.69c-4.69,13.7-9.65,27.31-14.57,40.93
			c-0.9,2.47-0.79,4.02,1.78,5.59c2.36,1.44,5.25,2.27,6.91,4.77c-8.79-0.14-17.58-0.28-26.36-0.42c0.98-3.12,1.82-6.3,2.97-9.36
			c8.96-23.9,17.69-47.88,25.09-72.31c2.17-7.14,4.5-14.26,5.78-21.65c0,0,11.03-55.8,9.06-58.39c0.05-1.93-1.63-1.63-2.66-1.86
			c-18.24-4.21-36.5-8.33-54.74-12.53c-2.42-0.56-3.55-0.27-4.24,2.55c-5.89,24-11.98,47.96-18.03,71.92
			c-6.99,27.69-13.99,55.37-21.03,83.04c-0.47,1.86-0.35,3,1.72,3.77c2.94,1.09,5.77,2.48,8.59,3.87
			c7.06,3.46,14.42,6.34,21.12,10.53c-10.44-0.17-20.87-0.34-31.31-0.5c-13.72-7.17-27.4-14.39-39.57-24.11
			c-4.89-3.91-5-3.78-7.38,1.73c-0.16,0.38-0.39,0.72-0.56,1.1c-3.11,6.79-6.22,13.58-9.33,20.37c-2.47-0.04-4.94-0.08-7.41-0.12
			c4.05-8.91,8.8-17.49,12.04-26.79c1.05-3.01,0.34-4.02-2.19-5.27c-11.94-5.94-23.78-12.07-35.69-18.08
			c-9.43-4.76-18.9-9.44-28.35-14.15c0.08-4.94,0.16-9.88,0.24-14.82c0.31-0.41,0.72-0.79,0.92-1.25
			c7.6-17.58,15.15-35.19,21.22-53.36c1.53-4.58,3.94-6.04,8.61-6c9.73,0.07,19.43,0.66,29.14,1.05c5.95,0.23,11.97,1.06,17.97-0.56
			c6.99-1.88,8.98-3.99,7.86-11.15c-1.99-12.74,0.84-24.68,4.76-36.64c4.1-12.47,11.89-20.39,25.07-22.97
			c6.92-1.36,13.65-3.68,20.52-5.35c2.98-0.72,4.08-2.23,4.07-5.27c-0.03-6.93-2.32-13.74-1.07-20.72
			C556.87,704.16,564.97,691.16,596.31,682.93z M1157.1,863.8c-2.28-17.77-8.83-34.26-15.37-50.75c-0.53-1.35-1.14-2.03-2.75-1.42
			c-8.86,3.37-17.9,6.33-26.6,10.08c-8.61,3.7-15.84,9.6-22.67,16.03c-11.41,10.72-23.03,21.19-34.55,31.79
			c-1.04,0.96-2.63,1.76-1.01,3.62c8.52,9.79,16.95,19.65,25.49,29.42c5.59,6.39,13.69,9.47,20.02,14.9
			c0.61,0.52,1.28,0.98,2.06,0.03c2.39-2.92,9.09-9.6,9.68-9.99C1111.39,907.5,1157.46,866.6,1157.1,863.8z M1028.92,940.62
			c0.61,0.75,15.96,18.9,22.5,27.87c15.16-14.24,29.39-28.99,43.58-43.79c1.07-1.12,0.94-1.85-0.1-2.62
			c-1.4-1.03-8.05-4.45-13.67-9.6c-10.18-9.33-21.81-22.99-26.99-28.84c-1.22-1.47-2.52-2.88-3.63-4.42
			c-1.78-2.47-3.14-2.87-5.69-0.45c-12.49,11.85-25.17,23.49-37.88,35.1c-1.51,1.38-1.61,2.08-0.17,3.51
			C1011.12,921.61,1028.35,940.06,1028.92,940.62z M806.44,403.67c0.04-0.8-0.49-1.17-1.11-1.47l0.08-0.2l0.21,0.06
			c-0.61-0.5-1.23-1-1.84-1.5c-8.82-8.17-17.11-16.86-25.44-25.51c-1.82-1.89-3.76-3.57-6.09-4.79c-1.12-0.59-2.12-0.94-3.27,0.23
			c-4.86,4.96-10.83,8.76-15.09,14.36c-0.26,0.25-0.53,0.49-0.79,0.74l0.12-0.05c-2.06,1.6-4.73,2.65-5.15,5.73l0.06-0.05
			c-2.13-0.52-2.33,0.99-2.57,2.45l0.06-0.05c-0.85-0.2-1.51-0.07-1.67,0.95l0.1-0.08c-3.03,1.95-5.64,4.33-7.65,7.34
			c-0.8,0.77-1.6,1.55-2.39,2.32c-2.16,0.1-2.79,2.04-3.97,3.31c-2.09,2.58-5.79,3.39-7.3,6.61c-1.15,1.12-2.31,2.25-3.46,3.37
			c-3.47,1.64-6.4,3.84-7.89,7.56c-0.96,0.9-1.92,1.79-2.88,2.69c-4.28,1.45-6.75,4.68-8.47,8.63c-1.46,0.58-2.69,1.37-3.06,3.04
			c-4.52,1.96-7.72,5.33-10.17,9.5c-1.5,0.51-2.31,1.65-2.81,3.07c-5.14,1.71-7.45,6.58-11.09,9.95c-0.61,0.29-1.03,0.71-0.99,1.45
			l0.03-0.07c-3.74,1.24-4.93,3.44-2.85,7.08c1.15,2.01,2.09,4.14,3.08,6.24c11.45,24.39,23.17,48.63,36.06,72.31
			c8.97,16.48,17.32,33.26,23.47,51.05c2.37,6.85,4.13,13.86,6.07,20.82c0.94,3.35,2.59,5.21,6.63,4.96
			c7.78-0.48,15.6-0.31,23.4-0.5c26.39-0.65,52.8-1.02,79.17-2.13c16.5-0.69,33.01-0.92,49.49-2.69c13.45-1.44,26.99-2.2,40.43-3.91
			c6.84-0.87,6.84-0.93,5.58-7.75c1.96-0.57-4.07-79.01-6.44-90.5c-0.54-2.64-1.77-3.76-4.18-4.09c-0.47-0.98-0.95-1.96-1.42-2.94
			c0.94-0.51,2.23-0.83,0.54-2.12c-4.69-3.59-9.07-7.63-14.72-9.76c-1.13-1.27-2.42-2.29-4.09-2.75c-4.88-4.26-9.66-8.68-16.2-10.34
			c-1.4-0.87-2.8-1.74-4.21-2.61c-1.68-3.96-4.58-6.11-8.98-6.02c-0.98-0.65-1.96-1.29-2.94-1.94c-0.52-2.97-2.2-4.2-5.19-3.48
			c-1.09-0.8-2.19-1.59-3.28-2.39c0.59-1.99,0.23-3.49-1.56-4.89c-2.21-1.72-4.54-2.94-7.29-3.38c-1.12-0.96-1.77-2.46-3.37-2.85
			c-0.64-0.54-1.28-1.07-1.92-1.61c-0.95-2.95-3.87-4.19-5.59-6.48c1.25-4.81-2.78-4.98-5.53-6.27c-0.9-0.83-1.79-1.65-2.69-2.48
			c-0.15-2.95-3.54-6.68-6.55-7.2c-0.78-0.85-1.57-1.7-2.35-2.55c0.56-2.03-1.2-2.88-2.22-3.91c-2.54-2.56-5.31-4.9-7.99-7.32
			c-0.66-0.92-0.94-2.31-2.54-2.11l0.06,0.05c-0.61-2.13-1.97-3.58-4-4.42c-2.29-1.17-2.87-4.28-5.62-4.93
			c-0.57-2.26-1.98-3.64-4.28-4.09l0.06,0.06c0.63-1.63-0.72-1.49-1.59-1.78L806.44,403.67z M1087.55,821.87
			c2.9-2.41-1.02-5.06-1.02-5.06c-0.25-0.31-0.5-0.62-0.75-0.93c-1.05-1.02-11.36-9.51-17.49-20.66
			c-13.09-23.8-26.58-59.74-26.93-61.17c-0.75-3.1-2.68-4.04-5.73-3.72c-6.41,0.69-12.64,1.88-18.51,4.78
			c-5.05,2.49-9.02,6.64-14.31,8.77c-10.15,4.08-20.05,8.74-29.2,14.78c-12.93,8.55-23.16,19.8-32.13,32.34
			c-6.87,9.6-16.27,16.06-27.84,18.19c-16.97,3.12-33.51,7.87-50.27,11.81c-1.84,0.43-2.51,1.12-1.53,3.08
			c8.84,17.71,17.68,35.41,26.37,53.19c11.27,23.05,22.39,46.17,33.6,69.24c3.06,6.3,6.24,12.55,9.37,18.84
			c3.96-2.3,5.98-6.02,9.59-7.84c1.21,2.15,2.39,1.8,4.02,0.26c7.86-7.44,47.66-45.01,52.7-50.92c0.83-0.98,6.2-7.19,2.92-12.53
			c-0.64-1.04-1.15-2.16-1.75-3.23c-4.69-8.3-8.76-17.02-15.96-23.61c-1.83-1.68-2.93-3.45-0.8-5.53c1.98-1.94,3.86-1.28,5.71,0.5
			c3.88,3.73,17.62,25.36,19.72,30c1.24,2.73,6.74-0.3,7.95-1.47C1028.18,878.52,1084.38,824.51,1087.55,821.87z M1026.08,534.11
			c-0.38,0.2-12.4,5.31-9.95,11.68c0.44,1.14,0.78,2.32,1.16,3.49c4.94,15.01,9.92,30,14.8,45.03c0.78,2.41,1.81,3.25,4.46,2.41
			c6.5-2.06,13.09-3.82,19.66-5.68c8.04-2.28,6.37-15.53,5.6-17.49c-2.89-7.32-5.65-14.7-8.31-22.11
			c-1.86-5.19-6.98-21.67-7.74-24.69c-0.39-1.55-1.16-2.36-2.91-1.38C1037.31,528.48,1026.08,534.11,1026.08,534.11z M559.34,796.27
			c0.67-2.3-0.42-3.14-2.54-3.5c-3.75-0.64-7.47-1.47-11.21-2.17c-6.96-1.3-7.27,9.63-7.53,11.72c-0.28,2.37-0.57,4.75-0.85,7.12
			c-0.94,5.6-3.92,28.28-4.38,30.42c-1.27,9.95-4.5,19.45-6.9,29.13c-1.2,4.84-7.61,23.18-9.43,27.57
			c-4.19,8.86-8.18,17.83-13.06,26.35c-1.01,1.76-0.31,2.66,1.11,3.62c4.74,3.22,9.59,6.32,14.09,9.86
			c2.86,2.25,4.65,0.71,5.26-1.46c2.86-10.1,6.48-20.01,8.21-30.42c0,0-0.04,0.12-0.04,0.12c0.3-0.86,0.59-1.72,0.89-2.58
			c0.9-3.59,3.3-12.01,3.46-12.67c3.56-14.41,7.23-28.8,10.57-43.26C548.59,839.26,558.58,798.91,559.34,796.27z M575.41,761.9
			c-0.24-0.02-0.63,0.42-0.78,0.72c-2.49,4.92,0.33,10.09,5.8,10.63c1.09,0.11,12.23,1.91,12.23,1.91
			c0.36,0.17,10.83,2.74,14.76,3.61c5.31,0.85,20.42,4.69,22.8,5.08c5.7,0.93,6.31,0.28,5.8-5.41c-0.06-0.65,0.09-1.32,0.15-1.98
			c-0.57-5.79,0.5-11.78-2.1-17.32c-0.07-0.43-0.17-0.83-0.75-0.73l0.05,0.09C633.66,752.62,579.02,762.25,575.41,761.9z
			 M739.42,842.54c6.45,1.23,12.91,2.45,19.36,3.68c5.9,1.08,11.82,2.1,17.71,3.26c10.93,2.16,21.82,3.3,32.58-0.83
			c5.17-2.07,31.98-8.12,35.78-9.25c8.39-2.49,9.14-5.63,2.94-11.85c-1.39-1.4-3.02-2.32-4.85-2.99
			c-5.05-1.86-10.27-1.18-15.45-1.19c-11.05-0.33-56.13-2.74-66.7-4.9c-11.51-2.36-23.03-4.33-34.83-4.38
			c-2.41-0.01-3.09,0.51-2.76,2.94c0.77,5.55,1.24,11.14,1.94,16.7c0.67,5.25,3.44,7.75,8.71,7.81
			C735.81,841.57,737.62,841.91,739.42,842.54z M630,743.7c3.67-1.21,2.74-3.55,2.32-6.17c-1.72-10.76-3.3-21.55-4.93-32.33
			c0.4-4.27-0.93-8.39-1.12-12.61c-0.13-2.85-0.89-4.03-4.25-3.07c-9.77,2.79-19.72,4.85-29.47,7.87
			c-11.35,3.52-18.92,10.03-21.83,21.49c-2.25,8.9-1.35,17.98-0.68,27.03c0.14,1.94,1.34,1.59,2.48,1.84
			C581.95,749.83,626.64,744.82,630,743.7z M823,639.46c-0.05-3.2-1.27-4.39-4.62-4.22c-9.98,0.5-19.94,1.42-29.97,1.3
			c-9.83-0.12-19.68,0.55-29.5,1.07c-21.41,1.13-42.44,4.26-62.57,12.16c-3.36,1.32-4.7,2.63-3.87,6.52
			c3.11,14.69,5.83,29.46,8.7,44.2c5.8,29.76,11.83,59.47,17.21,89.31c1.22,6.75,12.51,11.15,13.45,11.29
			c11.62,1.72,23.24,3.37,34.85,5.17c10.41,1.61,20.8,3.54,31.33,3.92c12.14,0.44,24.31,0.34,36.46,0.47
			C839.88,810.71,823.05,642.71,823,639.46z M578.45,518.96c6.19,14.59,12.39,29.17,18.65,43.72c11.5,26.74,23.07,53.44,34.55,80.19
			c3.38,7.88,3.28,7.98,11.46,6.04c9.58-2.26,19.14-4.6,28.68-6.99c0.51-0.13,0.67-5.68-0.34-7.9
			c-6.05-13.3-11.75-26.75-17.73-40.08c-1.82-4.07-38.85-90.78-42.14-95.77c-1.77-2.69-3.35-3.69-6.49-1.64
			c-4.33,2.82-9.1,4.96-13.52,7.65C588.35,506.14,575.92,513.01,578.45,518.96z M656.25,474.46c-0.38-2.24-1.52-2.29-3.5-1.64
			c-9.33,3.09-18.7,6.07-28.11,8.94c-2.07,0.63-2.43,1.39-1.88,3.48c2.83,10.87,6.5,21.43,11.11,31.65
			c6.42,14.24,13.29,28.29,19.35,42.68c10.71,25.42,22.24,50.48,33.21,75.79c1,2.32,2.21,3.41,5.01,2.39
			c3.55-1.29,7.31-2.01,10.95-3.07c6.39-1.85,12.8-3.59,19.13-5.71c5.9-1.98,4.21-10.92,3.68-12.15
			c-2.01-4.61-13.34-33.97-18.15-43.54C704.32,567.9,664.8,488.11,656.25,474.46z M897.55,644.74c-0.77-3.39-8.01-11.12-13.63-10.82
			c-3.51,0.19-7.03,0.37-10.55,0.45c-11.06,0.26-22.12,0.54-33.19,0.64c-2.95,0.02-4.13,0.76-3.75,3.96
			c0.65,5.41,0.83,10.88,1.31,16.32c2.11,24.35,4.27,48.7,6.37,73.06c0.19,2.24,1.55,15.11,2,17.88c0.52,3.23,4.34,39.93,5.92,55.03
			c0.79,7.59,0.75,7.62,8.65,6.32c2.15-0.35,4.28-0.84,6.41-1.33c14.09-3.21,27.86-7.7,42.16-10.1c8.92-1.5,16.69-5.24,21.42-13.54
			c0.73-1.28,1.9-2.71,1.08-4.18c-3.13-5.59-21.8-44.21-25.12-61.42c-3.32-17.21-4.3-29.21-6.14-43.86
			C900.09,669.9,898.83,650.38,897.55,644.74z M679,795.43c8.24,2.07,16.75,1.38,25.09,2.48c2.43,0.32,2.24-1.45,1.96-2.99
			c-0.61-3.36-1.33-6.69-1.97-10.05c-4.68-24.54-9.3-49.09-14.06-73.61c-3.47-17.86-7.15-35.67-10.73-53.51
			c-0.47-2.35-1.35-3.4-4.2-2.67c-9.54,2.44-19.2,4.4-28.75,6.81c-3.15,0.79-7.51,0.16-9.16,2.68c-1.69,2.58-0.31,6.54,0.08,9.92
			c2.75,23.47,5.36,46.96,8.08,70.44c1.58,13.71,3.33,27.4,4.88,41.12c0.65,5.8,0.51,5.81,6.53,6.36
			C664.18,793.33,671.5,795.02,679,795.43z M1007.77,726.11c2.52-0.86,3.29-2.08,2.13-4.9c-1.56-3.8-2.39-7.89-3.54-11.86
			c-2.66-9.18-5.3-18.37-8.07-27.52c-5.5-18.17-10.56-36.47-15.69-54.75c-0.73-2.59-1.71-3.47-4.55-3.04
			c-8.24,1.23-16.53,2.09-24.8,3.11c-15.11,1.87-30.22,3.79-45.33,5.62c-2.71,0.33-3.95,1.1-3.42,4.33
			c2.78,17.14,5.14,34.34,8,51.46c1.51,9.02,3.41,17.99,6.61,26.63c3.88,10.48,7.92,20.91,11.46,31.5c2.36,7.06,6.24,13,11.21,18.36
			c0.73,0.79,1.55,1.83,2.67,0.49C948.42,760.78,1005.87,726.76,1007.77,726.11z M508.21,881.5c4.77-11.64,9.03-23.48,10.87-35.95
			c2.75-18.65,4.74-37.41,7.6-56.04c1.42-9.27,3.49-13.49,14.72-12.85c0.95,0.05,22,3.68,21.38,0.48
			c-1.07-5.5-2.29-10.97-3.29-16.48c-0.37-2.01-1.06-2.6-3.25-2.45c-9.6,0.65-18.82,2.86-27.94,5.8c-3.16,1.02-4.98,2.99-6.48,5.69
			c-3.23,5.79-4.88,12.14-6.77,18.42c-1.85,6.11-2.06,12.21-1.31,18.61c0.81,6.99,1.29,14.29-5.07,19.73
			c-6.17,5.28-13.66,6.19-21.18,6.15c-10.92-0.06-21.85-0.74-32.76-1.38c-3.05-0.18-4.47,0.9-5.26,3.72
			c-2.58,9.29-6.46,18.14-9.41,27.33c-2.33,7.25-5.21,14.56-8.4,21.61c-1.28,2.82-0.51,3.95,2.13,5.21
			c9.1,4.37,18.18,8.84,27.08,13.57c9.02,4.8,18.22,9.28,27.19,14.17c1.29,0.7,3.3,2.46,4.25,0.34
			C495.26,910.51,506.34,886.05,508.21,881.5z M1406.72,727.43c-0.3-0.6-0.77-1.58-1.28-2.53c-2.81-5.31-6.01-10.37-8.65-15.81
			c-6.85-14.14-14.41-27.93-21.51-41.95c-1.27-2.51-1.97-3.27-4.64-1.47c-4.31,2.89-8.96,5.26-13.5,7.8
			c-16.15,9.03-32.75,17.14-47.03,29.4c-21.13,18.14-43.06,35.36-64.55,53.08c-8,6.59-15.67,13.62-23.59,20.27
			c-8.73,7.33-16.31,15.65-24.32,23.61c-1.18,1.18-1.04,2.31-0.27,3.65c4.16,7.22,9.3,13.69,14.99,19.76
			c1.3,1.39,1.95,1.53,2.94-0.23c1.19-2.14,2.66-4.12,3.95-6.2c1.2-1.93,2.86-2.74,4.84-1.51c2.19,1.36,2,3.4,0.8,5.39
			c-1.41,2.33-2.84,4.65-4.34,6.92c-1.09,1.66-0.89,2.73,0.76,4.1c4.92,4.11,9.79,8.27,14.88,12.18c2.06,1.59,2.83,1.91,4.86-0.08
			c5.95-5.84,12.5-11.01,19.35-15.79c16.87-11.77,35.25-20.97,53.08-31.1c18.7-10.63,36.57-22.45,53.12-36.2
			c12.62-10.48,24.6-21.75,38.4-30.76C1405.79,729.45,1406.69,729.05,1406.72,727.43z M1104.66,810.37
			c0.25-0.05,0.81-0.07,1.31-0.26c9.59-3.57,19.16-7.19,28.76-10.71c1.78-0.65,1.33-1.6,0.92-2.88c-1.25-3.9-2.5-7.81-3.53-11.77
			c-6.88-26.28-13.27-52.7-23.18-78.07c-2.22-5.69-5.14-11.24-6.82-16.98c-2.85-9.71-6.53-19.09-10-28.54
			c-7.16-19.51-15.69-38.48-23.55-57.72c-0.86-2.11-1.77-2.08-3.7-1.63c-23.12,5.33-45.22,14.42-68.65,18.56
			c-1.94,0.34-1.82,1.32-1.32,2.92c1.66,5.31,3,10.72,4.65,16.03c4.92,15.87,9.24,31.91,14.34,47.73c3.02,9.38,5.38,19.1,7.98,28.68
			c0.68,2.52,1.74,2.75,4.02,2.57c4.34-0.34,8.57-1.32,12.98-1.32c7.49-0.01,9.6,0.76,12.21,7.67
			c4.21,11.14,10.07,21.57,13.62,33.01c1.98,6.36,5.19,12.33,7.75,18.52c4.13,9.98,9.58,19.08,17.88,26.14
			C1094.46,805.81,1098.61,809.54,1104.66,810.37z M1365.4,385.47c-3.1,0.38-7.95,1.66-12.6,3.77
			c-12.38,5.63-23.66,13.07-34.83,20.73c-18.08,12.39-37.39,22.73-56.43,33.53c-4.74,2.69-4.73,2.68-2.15,7.55
			c9.55,18.01,19.15,36,28.56,54.08c1.48,2.84,2.65,3.14,5.43,1.65c20.03-10.76,40.24-21.18,60.21-32.04
			c18.62-10.14,37.31-20.18,55.53-31.05c1.83-1.09,2.22-1.6,0.77-3.59c-11.38-15.54-23.4-30.65-32.01-48.06
			C1375.88,388.01,1372.43,385.12,1365.4,385.47z M1039.44,509.65c-0.03-0.1-0.23-1.03-0.61-1.89c-1.86-4.25-3.41-8.68-5.71-12.67
			c-10.29-17.85-21.21-35.31-33.86-51.63c-10.09-13.02-20.26-25.98-30.35-38.99c-1.06-1.37-1.86-1.05-2.96-0.11
			c-10.79,9.21-21.48,18.54-32.47,27.5c-3.37,2.75-2.76,4.39-0.37,7.33c15.41,19.02,30.64,38.19,45.91,57.32
			c7.85,9.83,15.7,19.65,23.46,29.54c1.84,2.34,3.42,3.1,6.39,1.53c9.55-5.06,19.28-9.78,28.95-14.61
			C1038.85,512.43,1039.73,511.86,1039.44,509.65z M1260.35,864.9c-0.15,0.21-0.52,0.79-0.96,1.32c-1.65,2.02-3.17,4.16-5.01,5.98
			c-1.75,1.73-1.62,3.08-0.15,4.89c6.62,8.15,12.08,17.09,17.62,25.97c5.32,8.53,10.54,17.16,15.59,25.83
			c6.76,11.59,14.5,22.41,22.48,33.12c1.42,1.9,2.67,1.69,4.22-0.04c2.45-2.74,4.72-5.73,8.16-7.4c1.9-0.92,0.67-1.88,0.03-2.91
			c-2.82-4.61-5.85-9.06-7.73-14.25c-5-13.74-12.43-26.08-22.14-37.06c-9.96-11.27-19.76-22.67-29.65-33.99
			C1262.29,865.78,1261.92,864.92,1260.35,864.9z M1095.18,584.78c1.97-0.38,3.73-0.66,5.47-1.05
			c22.79-5.17,44.67-13.25,66.52-21.32c27.01-9.97,53.59-21.05,79.71-33.19c9.38-4.36,18.31-9.55,27.35-14.55
			c1.12-0.62,2.95-1.01,2.4-3.23c-1.15-4.59-2.8-5.43-6.87-3.23c-0.96,0.52-1.92,1.06-2.87,1.6
			c-33.78,19.16-69.61,33.52-106.59,45.14c-22.39,7.04-44.59,14.71-67.3,20.73c-1.19,0.31-3.12,0.42-2.02,2.56
			C1092.17,580.57,1091.38,584.28,1095.18,584.78z M1191.87,840.3c-1.03,5.87-2.94,10.16-4.28,14.63c-0.5,1.66-0.23,3.02,0.83,4.56
			c2.57,3.74,5.95,6.75,8.74,10.27c2.23,2.81,4.75,4.43,8.7,4.08c3.9-0.35,7.87-0.17,11.8-0.55c1.71-0.17,3.26-0.19,3.91-2.17
			c0.71-2.13-0.95-2.92-2.17-3.9c-3.38-2.69-6.82-5.31-10.24-7.95C1202.58,854.22,1196.33,848.83,1191.87,840.3z M1181.69,915.06
			c2.06-3.02,10.68-12.42,10.54-14.59c-0.16-2.48-3.58-4.75-5.58-7.1c-0.35-0.41-0.64-0.98-1.1-1.19c-1.17-0.55-1.65-2.69-3.21-1.92
			c-1.22,0.6-0.65,2.25-0.57,3.39C1181.99,897.06,1181.57,910.65,1181.69,915.06z"/>
		<path class="st21" d="M1404.96,948.7c-14.03,8.3-27.96,16.78-41.62,25.69c-4.67-0.08-9.34-0.15-14.01-0.23
			c8.31-4.96,16.65-9.88,24.94-14.89c10.3-6.23,20.55-12.54,30.82-18.81C1405.05,943.21,1405,945.95,1404.96,948.7z"/>
		<g>
			<path class="st13" d="M1038.3,447.02c1.14,1.79,2.16,1.46,3.68,0.52c8.51-5.23,16.62-11.04,24.56-17.09
				c14.01-10.69,27.04-22.54,40.17-34.27c9.5-8.49,20.24-15.31,30.61-22.62c-37.07-0.6-74.15-1.19-111.22-1.79
				c-6.87-0.11-13.73-0.22-20.6-0.33c-7.69-0.12-15.38-0.25-23.07-0.37c6.48,10.87,13.14,21.64,20.6,31.86
				C1014.15,418.13,1028.09,431.09,1038.3,447.02z"/>
			<path class="st13" d="M1336.39,957.71c-1.18,0.88-2.32,1.85-2.16,3.23c0.51,4.32-0.31,8.76,1.1,13
				c4.67,0.08,9.34,0.15,14.01,0.23c8.31-4.96,16.65-9.88,24.94-14.89c10.3-6.23,20.55-12.54,30.82-18.81
				c0.14-8.78,0.28-17.57,0.42-26.35c-10.45,6.18-20.9,12.36-31.36,18.53C1361.12,940.33,1348.5,948.63,1336.39,957.71z"/>
			<path class="st13" d="M480.95,927.98c-11.94-5.94-23.78-12.07-35.69-18.08c-9.43-4.76-18.9-9.44-28.35-14.15
				c-0.09,5.49-0.18,10.98-0.26,16.47c-0.08,4.67-0.15,9.33-0.23,14c-0.04,2.2-0.07,4.39-0.11,6.59c-0.04,2.47-0.08,4.94-0.12,7.41
				c-0.07,4.12-0.13,8.23-0.2,12.35c-0.11,6.59-0.11,6.59,6.48,6.69c4.67,0.08,9.34,0.15,14.01,0.23c1.92,0.03,3.84,0.06,5.77,0.09
				c5.22,0.08,10.44,0.17,15.65,0.25c2.2,0.04,4.39,0.07,6.59,0.11c2.2,0.04,4.39,0.07,6.59,0.11c4.05-8.91,8.8-17.49,12.04-26.79
				C484.19,930.24,483.48,929.23,480.95,927.98z"/>
			<path class="st13" d="M535.56,395.82c2.28,9.26,4.96,18.38,7.76,27.47c5.69,18.41,12.94,36.26,19.75,54.28
				c2.41,6.37,4.54,12.87,8.03,18.82c1.55,2.64,2.83,2.91,5.37,1.44c3.42-1.98,7.11-3.48,10.64-5.27
				c6.57-3.33,13.14-6.66,19.66-10.1c2.82-1.49,3.75-3.58,2.15-6.76c-1.27-2.53-1.96-5.37-2.88-8.08
				c-9.38-27.49-18.91-54.93-29.22-82.1c-0.56-1.46-0.65-3.25-2.58-3.74c1.1-1.82-0.12-3.37-0.69-4.95
				c-1.51-4.16-3.13-8.28-4.71-12.42c-1.1-0.02-2.2-0.04-3.3-0.05c-12.36-0.2-24.72-0.4-37.07-0.6c-0.55-0.01-1.1-0.02-1.65-0.03
				c0.39,2.79,0.66,5.59,1.77,8.24C531.82,379.66,533.59,387.85,535.56,395.82z"/>
			<path class="st13" d="M885.7,391.56c10.95,10.63,21.82,21.36,33.88,30.78c1.39,1.08,2.39,2.29,4.48,0.48
				c10.6-9.23,21.24-18.43,32.19-27.24c3.39-2.73,2.71-4.4,0.46-7.09c-4.98-5.94-9.77-12.04-14.64-18.07
				c-2.2-0.04-4.39-0.07-6.59-0.11c-18.67-0.3-37.35-0.6-56.02-0.9c-5.22-0.08-10.44-0.17-15.65-0.25
				C870.59,377.13,878.2,384.28,885.7,391.56z"/>
			<path class="st13" d="M1402.06,975.07c2.06,0.05,2.57-0.42,2.57-2.49c-0.01-7.96,0.2-15.92,0.33-23.88
				c-14.03,8.3-27.96,16.78-41.62,25.69C1376.25,974.6,1389.16,974.75,1402.06,975.07z"/>
			<path class="st13" d="M595.88,391c12.41-8.52,24.82-17.03,37.23-25.55c-3.3-0.05-6.59-0.11-9.89-0.16
				c-8.24-0.13-16.48-0.26-24.72-0.4c-5.49-0.09-10.98-0.18-16.48-0.26c3.48,8.29,7.01,16.55,10.38,24.89
				C593.19,391.42,593.89,392.37,595.88,391z"/>
			<path class="st13" d="M488.41,938.7c-0.16,0.38-0.39,0.72-0.56,1.1c-3.11,6.79-6.22,13.58-9.33,20.37
				c1.65,0.03,3.3,0.05,4.94,0.08c7.69,0.12,15.38,0.25,23.07,0.37c1.1,0.02,2.2,0.04,3.3,0.05c4.39,0.07,8.79,0.14,13.18,0.21
				c4.12,0.07,8.24,0.13,12.36,0.2c-13.72-7.17-27.4-14.39-39.57-24.11C490.9,933.06,490.8,933.19,488.41,938.7z"/>
			<path class="st13" d="M1387.5,657.8c-1.83,0.93-2.49,1.81-1.3,3.74c1.57,2.55,2.94,5.23,4.39,7.85c1.68,2.96,3.35,5.93,5.03,8.89
				c4.76,8.41,4.76,8.41,13.62,4.43c0.16-10.16,0.33-20.31,0.49-30.47c0.03-1.92,0.06-3.84,0.09-5.76c-3.81,0.55-6.2,3.85-9.51,5.07
				C1395.78,653.21,1391.74,655.65,1387.5,657.8z"/>
			<path class="st13" d="M421.08,637.17c-0.07,4.12-0.13,8.23-0.2,12.35c7.89,1.59,15.31,5.1,23.51,5.82
				C436.82,648.95,429.32,642.58,421.08,637.17z"/>
			<path class="st13" d="M1413.58,378.33c-1.34-1.62-6.09-0.42-9.33-0.48c-17.85-0.29-35.7-0.57-53.55-0.86
				c-20.05-0.32-40.09-0.64-60.14-0.97c-17.85-0.29-35.7-0.57-53.55-0.86c-3.84-0.06-7.69-0.12-11.53-0.19
				c-1.92-0.03-3.84-0.06-5.77-0.09c5.87,13.25,13.38,25.64,19.88,38.56c0.86,1.72,1.84,1.04,2.98,0.59
				c2.97-1.15,5.56-3.16,8.15-4.78c13.06-8.16,27.96-12.5,41.11-20.36c1.8-1.08,3.41-1.32,4.68,0.46c1.34,1.88,0.74,3.79-0.94,5.09
				c-1.93,1.51-3.96,2.93-6.32,3.79c-14.96,5.5-28.46,13.93-42.52,21.23c-2.23,1.16-3.05,2.17-1.65,4.6
				c2.54,4.38,4.82,8.9,7.19,13.38c0.96,1.81,1.75,2.59,4.07,1.23c9.16-5.38,18.47-10.51,27.79-15.63
				c14.02-7.7,26.92-17.1,40.23-25.89c10.54-6.96,21.36-13.32,33.62-16.87c10.72-3.1,18.18-0.93,25.07,7.8
				c2.08,2.64,3.71,5.67,5.4,8.6c7.28,12.58,15.79,24.3,24.82,35.66c0.06-3.57,0.11-7.14,0.17-10.71
				c0.13-7.96,0.26-15.92,0.38-23.88c0.03-1.92,0.06-3.84,0.09-5.76c0.02-1.35,0.06-2.7,0.06-4.05
				C1413.98,384.65,1415.21,380.3,1413.58,378.33z"/>
			<path class="st13" d="M420.65,663.52c-0.08,4.67-0.15,9.33-0.23,14c1.16-1.31,2.33-2.6,3.46-3.93
				C430.28,666.06,430.25,665.98,420.65,663.52z"/>
			<path class="st13" d="M1318.03,973.66c3.57,0.06,7.14,0.11,10.71,0.17c-0.45-2.96-0.9-5.92-1.25-8.27
				C1324.32,968.28,1321.17,970.97,1318.03,973.66z"/>
			<path class="st13" d="M1403.93,694.2c1.61,2.52,1.97,5.88,5,7.45c0.06-3.84,0.12-7.69,0.19-11.53c-1.31,0.67-2.68,1.24-3.91,2.03
				C1404.54,692.58,1403.15,692.98,1403.93,694.2z"/>
			<path class="st13" d="M1293.38,506.79c20.03-10.76,40.24-21.18,60.21-32.04c18.62-10.14,37.31-20.18,55.53-31.05
				c1.83-1.09,2.22-1.6,0.77-3.59c-11.38-15.54-23.4-30.65-32.01-48.06c-1.99-4.03-5.45-6.92-12.47-6.57
				c-3.1,0.38-7.95,1.66-12.6,3.77c-12.38,5.63-23.66,13.07-34.83,20.73c-18.08,12.39-37.39,22.73-56.43,33.53
				c-4.74,2.69-4.73,2.68-2.15,7.55c9.55,18.01,19.15,36,28.56,54.08C1289.43,507.98,1290.6,508.28,1293.38,506.79z"/>
			<path class="st13" d="M619.8,391.6c-0.61-0.04-1.16,0-1.15,0.79c-0.78-0.11-1.41,0.03-1.61,0.95c0.02,0,0.03,0,0.05,0.01
				c-5.27,1.91-9.32,5.81-14.04,8.59c-3.73,2.2-4.34,4.61-2.86,8.68c6.57,18.06,12.85,36.23,19.16,54.39
				c0.75,2.17,1.77,2.99,4.15,2.52c21.08-4.16,39.64-13.16,54.64-28.75c10.04-10.44,20.53-20.38,31.15-30.21
				c14.34-13.27,28.39-26.84,41.65-41.22c-2.47-0.04-4.94-0.08-7.41-0.12c-3.3-0.05-6.59-0.11-9.89-0.16
				c-1.37-0.02-2.75-0.04-4.12-0.07c-8.51-0.14-17.03-0.27-25.54-0.41c-1.65-0.03-3.3-0.05-4.94-0.08
				c-2.47-0.04-4.94-0.08-7.41-0.12c-1.37-0.02-2.75-0.04-4.12-0.07c-3.02-0.05-6.04-0.1-9.06-0.15c-1.37-0.02-2.75-0.04-4.12-0.07
				c-1.65-0.03-3.3-0.05-4.94-0.08c-1.65-0.03-3.3-0.05-4.94-0.08c-0.82-0.01-1.65-0.03-2.47-0.04c-2.2-0.04-4.39-0.07-6.59-0.11
				c-0.1,0.77-0.7,1.08-1.26,1.48c-7.5,5.35-14.98,10.72-22.47,16.09C627.28,385.55,623.83,388.99,619.8,391.6z M672.86,373.87
				l0.03,0.06C672.89,373.94,672.86,373.87,672.86,373.87c-2.08,0.72-2.92-0.92-3.89-2.07C669.94,372.96,670.77,374.6,672.86,373.87
				z"/>
		</g>
	</g>
	<defs>
		<filter id="Adobe_OpacityMaskFilter_1_" filterUnits="userSpaceOnUse" x="415.06" y="361.62" width="1000.04" height="614.2">
			<feColorMatrix  type="matrix" values="1 0 0 0 0  0 1 0 0 0  0 0 1 0 0  0 0 0 1 0"/>
		</filter>
	</defs>
	<mask maskUnits="userSpaceOnUse" x="415.06" y="361.62" width="1000.04" height="614.2" id="SVGID_2_">
		<g class="st22">
			<polygon class="st7" points="822.02,950.49 1289.74,950.92 1289.74,551.46 1289.88,508.93 			"/>
		</g>
	</mask>
	<g class="st23">
		<path class="st24" d="M596.31,682.93c7.78-1.39,15.42-3.58,23.09-5.57c2.78-0.72,5.24-1.97,4.17-5.71
			c-0.99-3.43-2.59-4.66-6.5-3.54c-21.77,6.26-43.82,11.53-65.36,18.56c-25.15,8.2-49.63,6.95-73.83-3.63
			c-6.06-2.65-11.88-6.23-18.79-6.5c-1.76-0.92-3.59-1.66-5.58-1.9c-5.11-4.92-9.64-4.75-13.75,0.53c-1.01,1.3-2.01,2.6-2.97,3.94
			c-4.86,6.7-10.31,12.85-16.66,18.18c0.11-6.59,0.21-13.18,0.32-19.76c1.16-1.31,2.33-2.6,3.46-3.93
			c6.39-7.53,6.36-7.61-3.24-10.07c0.08-4.67,0.15-9.33,0.23-14c7.89,1.59,15.31,5.1,23.51,5.82c-7.57-6.39-15.07-12.75-23.31-18.17
			c0.09-5.76,0.19-11.53,0.28-17.29c2.88,2.02,5.77,4.03,8.65,6.05c1.49,1.27,2.75,2.86,4.7,3.51c3.64,2.73,7.29,5.47,10.93,8.2
			c1.15,1.32,2.22,2.78,4.31,2.41l-0.05-0.1c-0.56,1.26,0.47,1.71,1.2,2.25c6.63,4.89,12.4,10.7,18.25,16.47
			c4.35,4.3,8.42,9.14,14.02,11.89c16.74,8.23,34.34,11.12,52.57,6.52c21.83-5.52,43.54-11.55,65.25-17.56
			c5.52-1.53,11.2-2.53,16.47-4.98c2.1-0.97,2.9-1.89,1.82-4.3c-1.34-2.97-2.16-6.18-3.22-9.28
			c-4.85-14.32-59.61-141.96-60.58-145.6c-2.51-3.56-3.18-7.95-5.29-11.69c0.06-0.97,0.67-2.12-0.87-2.54l-0.05,0.17
			c-0.3-5.93-4-10.62-5.9-15.96c-1.18-3.74-2.64-7.37-4.51-10.82c0.14-1.63-0.39-3.08-1.2-4.45c-0.15-3.06-1.52-5.7-2.93-8.32
			c-0.64-1.79-0.57-3.8-1.75-5.41c0.58-3.36,0.02-6.36-2.71-8.69c0.28-1.66-0.56-3.05-1.08-4.52c0.44-3.88-1.13-7.23-2.83-10.54
			c0.12-2.12-0.85-3.8-2.19-5.32c0.5-2.1-1.07-3.71-1.35-5.62c-0.08-5.75-2.93-10.77-4.32-16.17c-0.9-3.48-1.89-3.53-4.66-0.62
			c-1.97,0.41-3.93,0.94-5.92,1.23c-7.72,1.11-14.95,4.15-22.56,5.71c-2.22-0.73-4.22,0.49-6.34,0.73
			c-2.35,0.26-4.39-0.38-5.77-2.33c-1.25-1.76-1.63-3.72-0.62-5.8c1.28-2.62,3.83-2.81,6.21-3.26c9.64-1.83,19.33-3.46,28.61-6.82
			c6.43-2.33,6.47-2.28,4.24-8.46c-0.28-0.77-0.47-1.57-0.7-2.35c5.22,0.08,10.44,0.17,15.65,0.25c0.39,2.79,0.66,5.59,1.77,8.24
			c3.22,7.67,4.99,15.86,6.95,23.83c2.28,9.26,4.96,18.38,7.76,27.47c5.69,18.41,12.94,36.26,19.75,54.28
			c2.41,6.37,4.54,12.87,8.03,18.82c1.55,2.64,2.83,2.91,5.37,1.44c3.42-1.98,7.11-3.48,10.64-5.27c6.57-3.33,13.14-6.66,19.66-10.1
			c2.82-1.49,3.75-3.58,2.15-6.76c-1.27-2.53-1.96-5.37-2.88-8.08c-9.38-27.49-18.91-54.93-29.22-82.1
			c-0.56-1.48-0.65-3.3-2.65-3.76l0.05,0.06c1.14-1.84-0.09-3.4-0.67-4.98c-1.51-4.16-3.13-8.28-4.71-12.42
			c4.39,0.07,8.79,0.14,13.18,0.21c3.48,8.29,7.01,16.55,10.38,24.89c0.77,1.9,1.47,2.86,3.46,1.49
			c12.41-8.52,24.82-17.03,37.23-25.55c7.41,0.12,14.83,0.24,22.24,0.36c-0.1,0.77-0.7,1.08-1.26,1.48
			c-7.5,5.35-14.98,10.72-22.47,16.09c-4.34,2.16-7.79,5.61-11.82,8.22c-0.63-0.04-1.19,0-1.15,0.85l0.07-0.05
			c-0.81-0.13-1.47-0.01-1.68,0.94l0.17-0.04c-5.33,1.89-9.4,5.83-14.16,8.63c-3.73,2.2-4.34,4.61-2.86,8.68
			c6.57,18.06,12.85,36.23,19.16,54.39c0.75,2.17,1.77,2.99,4.15,2.52c21.08-4.16,39.64-13.16,54.64-28.75
			c10.04-10.44,20.53-20.38,31.15-30.21c14.34-13.27,28.39-26.84,41.65-41.22c11.81,0.19,23.62,0.38,35.43,0.57
			c9.89,9.01,19.9,17.91,29.64,27.07c14.47,13.61,28,28.12,40.88,43.24c9.89,11.62,20.78,22.18,34,29.93
			c12.87,7.55,25.82,14.88,37.8,23.87c9.28,6.96,15.93,15.34,17.68,26.95c2.27,15.02,2.89,30.22,4.42,45.32
			c1.51,14.94,2.57,29.93,4.91,44.79c0.68,4.31,2.43,4.84,6.09,4.43c8.3-0.92,16.55-2.12,24.8-3.4c8.05-1.25,15.53-4.48,23.45-6.17
			c9.61-2.05,9.55-2.33,7.4-11.71c-1.31-11.01-18.06-51.39-23.53-58.01c-0.93-1.12-6.55-10.56-7.8-12.23
			c-3.68-4.93-7.68-9.64-11.21-14.67c-1.63-2.31-3.16-2.54-5.36-1.33c-0.57-0.88-1.14-1.75-1.71-2.63c0.84-1.18,2.49-1.82,0.78-3.94
			c-8.4-10.45-16.93-20.79-25.72-30.9c-1.26-1.45-2.39-1.51-3.82-0.51c-0.74-0.96-1.49-1.91-2.23-2.87c1.39-1.3,1.53-2.49,0.37-4.21
			c-3.77-5.58-8.32-10.44-13.06-15.16c-1.46-1.46-2.6-0.92-3.97-0.24c-3.54-4.01-7.08-8.02-10.62-12.03
			c0.19-1.72-0.92-2.06-2.28-2.11c-0.93-1.06-1.86-2.13-2.79-3.19c-0.75-3.17-2.72-5.15-5.84-6.02c-1.07-1.22-2.13-2.43-3.2-3.65
			c-0.32-0.35-0.64-0.71-0.97-1.06c-1.16-1.23-1.82-3.03-3.78-3.36c-3.11-6.85-8.45-11.59-14.67-15.5
			c-0.68-0.75-1.36-1.51-2.03-2.26c-0.57-5.28-4.87-7.67-8.3-10.75c-0.9-0.81-1.79-0.12-2.68,0c-0.73-0.89-1.46-1.78-2.19-2.66
			c0.27-4.25-2.26-6.79-7.07-7.09c-0.84-0.76-1.68-1.51-2.52-2.27c-1.17-1.68-3.16-2.67-3.92-4.7c5.49,0.09,10.98,0.18,16.48,0.26
			c6.79,7.96,14.41,15.12,21.91,22.4c10.95,10.63,21.82,21.36,33.88,30.78c1.39,1.08,2.39,2.29,4.48,0.48
			c10.6-9.23,21.24-18.43,32.19-27.24c3.39-2.73,2.71-4.4,0.46-7.09c-4.98-5.94-9.77-12.04-14.64-18.07
			c13.46,0.22,26.91,0.43,40.37,0.65c6.48,10.87,13.14,21.64,20.6,31.86c11.11,15.2,25.06,28.16,35.26,44.09
			c1.14,1.79,2.16,1.46,3.68,0.52c8.51-5.23,16.62-11.04,24.56-17.09c14.01-10.69,27.04-22.54,40.17-34.27
			c9.5-8.49,20.24-15.31,30.61-22.62c4.12,0.07,8.24,0.13,12.36,0.2c-0.07,1.01-0.95,1.22-1.62,1.63
			c-15.94,9.63-31,20.46-44.73,33.08c-17.34,15.93-35.41,30.93-55.4,43.48c-4.58,2.87-4.57,2.88-1.11,7.65
			c-0.14,1.24-0.02,2.34,0.72,3.49c4.14,6.4,8.18,12.86,12.25,19.3c-0.72,0.56-0.37,1.12-0.09,1.77c1.67,3.88,3.36,7.76,4.93,11.68
			c8.87,22.24,15.06,45.35,21.8,68.28c1.8,6.11,1.65,6.04,7.6,4.32c21.42-6.18,42.67-12.89,63.81-19.96
			c4.54-1.52,21.62-7.25,23.45-7.83c9.99-3.12,45.7-18.9,53.95-22.64c10.96-4.97,21.52-10.61,32.16-16.15
			c2.4-1.25,3.21-2.24,1.62-4.98c-3.58-6.13-6.73-12.51-10.05-18.8c-12.36-23.45-24.79-46.85-37.03-70.36
			c-5.73-11-11.99-21.74-17.06-33.08c4.94,0.08,9.89,0.16,14.83,0.24c5.87,13.25,13.38,25.64,19.88,38.56
			c0.86,1.72,1.84,1.04,2.98,0.59c2.97-1.15,5.56-3.16,8.15-4.78c13.06-8.16,27.96-12.5,41.11-20.36c1.8-1.08,3.41-1.32,4.68,0.46
			c1.34,1.88,0.74,3.79-0.94,5.09c-1.93,1.51-3.96,2.93-6.32,3.79c-14.96,5.5-28.46,13.93-42.52,21.23
			c-2.23,1.16-3.05,2.17-1.65,4.6c2.54,4.38,4.82,8.9,7.19,13.38c0.96,1.81,1.75,2.59,4.07,1.23c9.16-5.38,18.47-10.51,27.79-15.63
			c14.02-7.7,26.92-17.1,40.23-25.89c10.54-6.96,21.36-13.32,33.62-16.87c10.72-3.1,18.18-0.93,25.07,7.8
			c2.08,2.64,3.71,5.67,5.4,8.6c7.28,12.58,15.79,24.3,24.82,35.66c-0.13,8.24-0.26,16.47-0.4,24.71c-0.63,0.18-1.33,0.23-1.89,0.54
			c-14.93,8.31-29.79,16.76-44.79,24.95c-22.89,12.5-45.86,24.86-69.24,36.43c-26.47,13.1-53.07,25.92-80.26,37.52
			c-23.79,10.14-47.98,19.22-72.27,28.02c-14.54,5.27-29.12,10.44-43.74,15.49c-2.23,0.77-2.36,1.67-1.53,3.48
			c1.13,2.48,2.17,5.01,3.24,7.52c8.55,20.13,16.7,40.41,24.25,60.93c7.12,19.37,14.69,38.58,20.75,58.34
			c2.2,7.17,3.53,14.66,7.09,21.37c7.75,14.62,20.77,24.93,30.87,37.64c1.2,1.52,2.07,0.76,3.26-0.38c5.3-5.09,10.67-10.13,16.17-15
			c21.31-18.87,80.68-68.61,84.38-71.9c4.8-1.43,7.63-5.4,11.06-8.6c1.8,0.64,2.76-0.8,3.93-1.64c8.2-5.9,16.38-11.82,24.56-17.73
			c0.32-0.25,0.64-0.5,0.97-0.75l0.23-0.15c0.54-0.08,1.16-0.06,1.23-0.83l-0.07,0.05c0.84,0.2,1.57,0.19,1.67-0.94l-0.18,0.01
			c1.4,0.41,2.34-0.63,3.37-1.17c12.96-6.86,25.88-13.79,38.83-20.68c11.77-6.27,23.55-12.52,35.33-18.77
			c-0.08,5.22-0.17,10.43-0.25,15.65c-3.81,0.55-6.2,3.85-9.51,5.07c-4.52,1.67-8.57,4.11-12.81,6.26c-1.83,0.93-2.49,1.81-1.3,3.74
			c1.57,2.55,2.94,5.23,4.39,7.85c1.68,2.96,3.35,5.93,5.03,8.89c4.76,8.41,4.76,8.41,13.62,4.43c-0.04,2.47-0.08,4.94-0.12,7.41
			c-1.31,0.67-2.68,1.24-3.91,2.03c-0.67,0.43-2.05,0.83-1.28,2.05c1.61,2.52,1.97,5.88,5,7.45c-0.33,20.59-0.66,41.18-0.99,61.76
			c-3.9,3.22-7.91,6.31-11.68,9.68c-16.54,14.78-34.28,28.07-53.05,39.76c-16.12,10.04-33.11,18.66-49.68,27.96
			c-8.72,4.9-17.12,10.31-24.88,16.66c-1.64,1.34-2.49,2.46-0.65,4.58c10.42,11.98,20.53,24.23,31.05,36.12
			c8.04,9.09,14.59,18.95,19.05,30.29c3.1,7.87,6.71,15.55,12.07,22.25c0.95,1.18,1.49,2.11,3.17,0.85
			c15.12-11.36,31.24-21.18,47.61-30.59c8.24-4.74,16.11-10.12,24.69-14.27c-0.04,2.47-0.08,4.94-0.12,7.41
			c-10.45,6.18-20.9,12.36-31.36,18.53c-13.03,7.68-25.65,15.99-37.76,25.07c-1.18,0.88-2.32,1.85-2.16,3.23
			c0.51,4.32-0.31,8.76,1.1,13c-2.2-0.04-4.39-0.07-6.59-0.11c-0.45-2.96-0.9-5.92-1.25-8.27c-3.17,2.71-6.31,5.41-9.46,8.1
			c-6.87-0.11-13.73-0.22-20.6-0.33c0.29-0.27,0.57-0.54,0.87-0.8c2.26-1.91,6.89-2.02,7.13-4.49c0.2-2.15-3.11-4.71-5.01-6.97
			c-1.07-1.27-1.14-3.69-3.67-3.41l0.05,0.05c0.69-1.63,0.24-2.52-1.61-2.5l0.01,0.01c0.45-1.47,0.11-2.44-1.62-2.52l0.03,0.03
			c0.38-1.45-0.12-2.32-1.64-2.54l0.05,0.06c0.14-0.8-0.02-1.45-0.89-1.71l0.08,0.09c-0.17-1.12-13.94-23.16-14.38-23.93
			c-2.16-3.79-4.26-7.62-6.52-11.35c-6.24-10.26-12.45-20.54-19.81-30.06c-0.67-0.87-1.62-3.59-2.94-0.59
			c-3.48,7.87-7.16,15.84-6.6,24.68c0.41,6.53,1.03,12.92-1.8,19.09c-0.99,2.17-0.29,3.59,1.93,4.51c3.77,1.58,7.49,3.3,11.22,4.97
			c0.39,2.98-1.37,4.66-3.66,6c-3.2-1.52-6.49-2.89-9.58-4.6c-2.2-1.22-2.9-0.17-3.5,1.63c-0.81,2.46-1.68,4.9-2.48,7.37
			c-2.9,9-7.84,17.08-11.44,25.77c-23.07-0.37-46.14-0.74-69.2-1.11c0.87-1.2,1.64-2.5,2.64-3.6c4.56-5.01,3.05-11.2,3.5-17.03
			c0.26-3.35-3.14-4.18-4.17-6.59c-3.2-21.18-1.24-42.05,4.42-62.81c-2.18,0.31-3.2,1.5-4.26,2.53
			c-7.93,7.69-15.88,15.36-23.72,23.15c-15,14.89-30.01,29.77-44.83,44.83c-5.91,6.01-12.64,11.25-17.61,18.18
			c-8.51-0.14-17.03-0.27-25.54-0.41c0.11-1.75-1.29-2.64-2.19-3.78c-10.68-13.49-22.23-26.2-34.27-38.49
			c-6.1-6.22-6.2-6.36-12.63-0.49c-15,13.68-29.89,27.49-44.83,41.24c-10.16-0.16-20.32-0.33-30.48-0.49
			c-0.55-1.24-1.06-2.5-1.66-3.71c-7.95-16.1-15.98-32.16-23.86-48.3c-10.29-21.08-20.46-42.21-30.7-63.32
			c-0.65-1.34-1.25-2.91-3.31-2.08c-3.19-1.07-44.83,11.62-61.7,14.13c-0.45,0.09-0.91,0.17-1.36,0.26
			c-0.59-0.02-1.19-0.03-1.78-0.05c-0.48,0.03-0.95,0.07-1.43,0.1c-6.36-0.64-12.82-0.79-19.06-2.03
			c-13.37-2.64-26.68-5.54-40.2-7.37c-4.22-0.57-5.52,0.54-5.29,4.88c0.2,3.68,0.68,7.35,1.08,11.02
			c2.06,18.86,4.03,37.73,6.25,56.57c1.46,12.34,2.12,24.76,4.23,37.02c-4.67-0.08-9.34-0.15-14.01-0.23
			c-0.21-11.76-2.12-23.38-3.23-35.06c-1.77-18.64-3.95-37.25-6.05-55.86c-2.19-19.42-4.5-38.83-6.68-58.25
			c-0.21-1.89-1.02-2.52-2.82-2.74c-17.35-2.08-34.7-4.13-52.02-6.45c-3.47-0.47-4.38,0.63-5.03,3.8
			c-4.89,23.99-8.71,48.22-15.17,71.87c-2.73,10.01-6.03,19.87-9.4,29.69c-4.69,13.7-9.65,27.31-14.57,40.93
			c-0.9,2.47-0.79,4.02,1.78,5.59c2.36,1.44,5.25,2.27,6.91,4.77c-8.79-0.14-17.58-0.28-26.36-0.42c0.98-3.12,1.82-6.3,2.97-9.36
			c8.96-23.9,17.69-47.88,25.09-72.31c2.17-7.14,4.5-14.26,5.78-21.65c0,0,11.03-55.8,9.06-58.39c0.05-1.93-1.63-1.63-2.66-1.86
			c-18.24-4.21-36.5-8.33-54.74-12.53c-2.42-0.56-3.55-0.27-4.24,2.55c-5.89,24-11.98,47.96-18.03,71.92
			c-6.99,27.69-13.99,55.37-21.03,83.04c-0.47,1.86-0.35,3,1.72,3.77c2.94,1.09,5.77,2.48,8.59,3.87
			c7.06,3.46,14.42,6.34,21.12,10.53c-10.44-0.17-20.87-0.34-31.31-0.5c-13.72-7.17-27.4-14.39-39.57-24.11
			c-4.89-3.91-5-3.78-7.38,1.73c-0.16,0.38-0.39,0.72-0.56,1.1c-3.11,6.79-6.22,13.58-9.33,20.37c-2.47-0.04-4.94-0.08-7.41-0.12
			c4.05-8.91,8.8-17.49,12.04-26.79c1.05-3.01,0.34-4.02-2.19-5.27c-11.94-5.94-23.78-12.07-35.69-18.08
			c-9.43-4.76-18.9-9.44-28.35-14.15c0.08-4.94,0.16-9.88,0.24-14.82c0.31-0.41,0.72-0.79,0.92-1.25
			c7.6-17.58,15.15-35.19,21.22-53.36c1.53-4.58,3.94-6.04,8.61-6c9.73,0.07,19.43,0.66,29.14,1.05c5.95,0.23,11.97,1.06,17.97-0.56
			c6.99-1.88,8.98-3.99,7.86-11.15c-1.99-12.74,0.84-24.68,4.76-36.64c4.1-12.47,11.89-20.39,25.07-22.97
			c6.92-1.36,13.65-3.68,20.52-5.35c2.98-0.72,4.08-2.23,4.07-5.27c-0.03-6.93-2.32-13.74-1.07-20.72
			C556.87,704.16,564.97,691.16,596.31,682.93z M1157.1,863.8c-2.28-17.77-8.83-34.26-15.37-50.75c-0.53-1.35-1.14-2.03-2.75-1.42
			c-8.86,3.37-17.9,6.33-26.6,10.08c-8.61,3.7-15.84,9.6-22.67,16.03c-11.41,10.72-23.03,21.19-34.55,31.79
			c-1.04,0.96-2.63,1.76-1.01,3.62c8.52,9.79,16.95,19.65,25.49,29.42c5.59,6.39,13.69,9.47,20.02,14.9
			c0.61,0.52,1.28,0.98,2.06,0.03c2.39-2.92,9.09-9.6,9.68-9.99C1111.39,907.5,1157.46,866.6,1157.1,863.8z M1028.92,940.62
			c0.61,0.75,15.96,18.9,22.5,27.87c15.16-14.24,29.39-28.99,43.58-43.79c1.07-1.12,0.94-1.85-0.1-2.62
			c-1.4-1.03-8.05-4.45-13.67-9.6c-10.18-9.33-21.81-22.99-26.99-28.84c-1.22-1.47-2.52-2.88-3.63-4.42
			c-1.78-2.47-3.14-2.87-5.69-0.45c-12.49,11.85-25.17,23.49-37.88,35.1c-1.51,1.38-1.61,2.08-0.17,3.51
			C1011.12,921.61,1028.35,940.06,1028.92,940.62z M806.44,403.67c0.04-0.8-0.49-1.17-1.11-1.47l0.08-0.2l0.21,0.06
			c-0.61-0.5-1.23-1-1.84-1.5c-8.82-8.17-17.11-16.86-25.44-25.51c-1.82-1.89-3.76-3.57-6.09-4.79c-1.12-0.59-2.12-0.94-3.27,0.23
			c-4.86,4.96-10.83,8.76-15.09,14.36c-0.26,0.25-0.53,0.49-0.79,0.74l0.12-0.05c-2.06,1.6-4.73,2.65-5.15,5.73l0.06-0.05
			c-2.13-0.52-2.33,0.99-2.57,2.45l0.06-0.05c-0.85-0.2-1.51-0.07-1.67,0.95l0.1-0.08c-3.03,1.95-5.64,4.33-7.65,7.34
			c-0.8,0.77-1.6,1.55-2.39,2.32c-2.16,0.1-2.79,2.04-3.97,3.31c-2.09,2.58-5.79,3.39-7.3,6.61c-1.15,1.12-2.31,2.25-3.46,3.37
			c-3.47,1.64-6.4,3.84-7.89,7.56c-0.96,0.9-1.92,1.79-2.88,2.69c-4.28,1.45-6.75,4.68-8.47,8.63c-1.46,0.58-2.69,1.37-3.06,3.04
			c-4.52,1.96-7.72,5.33-10.17,9.5c-1.5,0.51-2.31,1.65-2.81,3.07c-5.14,1.71-7.45,6.58-11.09,9.95c-0.61,0.29-1.03,0.71-0.99,1.45
			l0.03-0.07c-3.74,1.24-4.93,3.44-2.85,7.08c1.15,2.01,2.09,4.14,3.08,6.24c11.45,24.39,23.17,48.63,36.06,72.31
			c8.97,16.48,17.32,33.26,23.47,51.05c2.37,6.85,4.13,13.86,6.07,20.82c0.94,3.35,2.59,5.21,6.63,4.96
			c7.78-0.48,15.6-0.31,23.4-0.5c26.39-0.65,52.8-1.02,79.17-2.13c16.5-0.69,33.01-0.92,49.49-2.69c13.45-1.44,26.99-2.2,40.43-3.91
			c6.84-0.87,6.84-0.93,5.58-7.75c1.96-0.57-4.07-79.01-6.44-90.5c-0.54-2.64-1.77-3.76-4.18-4.09c-0.47-0.98-0.95-1.96-1.42-2.94
			c0.94-0.51,2.23-0.83,0.54-2.12c-4.69-3.59-9.07-7.63-14.72-9.76c-1.13-1.27-2.42-2.29-4.09-2.75c-4.88-4.26-9.66-8.68-16.2-10.34
			c-1.4-0.87-2.8-1.74-4.21-2.61c-1.68-3.96-4.58-6.11-8.98-6.02c-0.98-0.65-1.96-1.29-2.94-1.94c-0.52-2.97-2.2-4.2-5.19-3.48
			c-1.09-0.8-2.19-1.59-3.28-2.39c0.59-1.99,0.23-3.49-1.56-4.89c-2.21-1.72-4.54-2.94-7.29-3.38c-1.12-0.96-1.77-2.46-3.37-2.85
			c-0.64-0.54-1.28-1.07-1.92-1.61c-0.95-2.95-3.87-4.19-5.59-6.48c1.25-4.81-2.78-4.98-5.53-6.27c-0.9-0.83-1.79-1.65-2.69-2.48
			c-0.15-2.95-3.54-6.68-6.55-7.2c-0.78-0.85-1.57-1.7-2.35-2.55c0.56-2.03-1.2-2.88-2.22-3.91c-2.54-2.56-5.31-4.9-7.99-7.32
			c-0.66-0.92-0.94-2.31-2.54-2.11l0.06,0.05c-0.61-2.13-1.97-3.58-4-4.42c-2.29-1.17-2.87-4.28-5.62-4.93
			c-0.57-2.26-1.98-3.64-4.28-4.09l0.06,0.06c0.63-1.63-0.72-1.49-1.59-1.78L806.44,403.67z M1087.55,821.87
			c2.9-2.41-1.02-5.06-1.02-5.06c-0.25-0.31-0.5-0.62-0.75-0.93c-1.05-1.02-11.36-9.51-17.49-20.66
			c-13.09-23.8-26.58-59.74-26.93-61.17c-0.75-3.1-2.68-4.04-5.73-3.72c-6.41,0.69-12.64,1.88-18.51,4.78
			c-5.05,2.49-9.02,6.64-14.31,8.77c-10.15,4.08-20.05,8.74-29.2,14.78c-12.93,8.55-23.16,19.8-32.13,32.34
			c-6.87,9.6-16.27,16.06-27.84,18.19c-16.97,3.12-33.51,7.87-50.27,11.81c-1.84,0.43-2.51,1.12-1.53,3.08
			c8.84,17.71,17.68,35.41,26.37,53.19c11.27,23.05,22.39,46.17,33.6,69.24c3.06,6.3,6.24,12.55,9.37,18.84
			c3.96-2.3,5.98-6.02,9.59-7.84c1.21,2.15,2.39,1.8,4.02,0.26c7.86-7.44,47.66-45.01,52.7-50.92c0.83-0.98,6.2-7.19,2.92-12.53
			c-0.64-1.04-1.15-2.16-1.75-3.23c-4.69-8.3-8.76-17.02-15.96-23.61c-1.83-1.68-2.93-3.45-0.8-5.53c1.98-1.94,3.86-1.28,5.71,0.5
			c3.88,3.73,17.62,25.36,19.72,30c1.24,2.73,6.74-0.3,7.95-1.47C1028.18,878.52,1084.38,824.51,1087.55,821.87z M1026.08,534.11
			c-0.38,0.2-12.4,5.31-9.95,11.68c0.44,1.14,0.78,2.32,1.16,3.49c4.94,15.01,9.92,30,14.8,45.03c0.78,2.41,1.81,3.25,4.46,2.41
			c6.5-2.06,13.09-3.82,19.66-5.68c8.04-2.28,6.37-15.53,5.6-17.49c-2.89-7.32-5.65-14.7-8.31-22.11
			c-1.86-5.19-6.98-21.67-7.74-24.69c-0.39-1.55-1.16-2.36-2.91-1.38C1037.31,528.48,1026.08,534.11,1026.08,534.11z M559.34,796.27
			c0.67-2.3-0.42-3.14-2.54-3.5c-3.75-0.64-7.47-1.47-11.21-2.17c-6.96-1.3-7.27,9.63-7.53,11.72c-0.28,2.37-0.57,4.75-0.85,7.12
			c-0.94,5.6-3.92,28.28-4.38,30.42c-1.27,9.95-4.5,19.45-6.9,29.13c-1.2,4.84-7.61,23.18-9.43,27.57
			c-4.19,8.86-8.18,17.83-13.06,26.35c-1.01,1.76-0.31,2.66,1.11,3.62c4.74,3.22,9.59,6.32,14.09,9.86
			c2.86,2.25,4.65,0.71,5.26-1.46c2.86-10.1,6.48-20.01,8.21-30.42c0,0-0.04,0.12-0.04,0.12c0.3-0.86,0.59-1.72,0.89-2.58
			c0.9-3.59,3.3-12.01,3.46-12.67c3.56-14.41,7.23-28.8,10.57-43.26C548.59,839.26,558.58,798.91,559.34,796.27z M575.41,761.9
			c-0.24-0.02-0.63,0.42-0.78,0.72c-2.49,4.92,0.33,10.09,5.8,10.63c1.09,0.11,12.23,1.91,12.23,1.91
			c0.36,0.17,10.83,2.74,14.76,3.61c5.31,0.85,20.42,4.69,22.8,5.08c5.7,0.93,6.31,0.28,5.8-5.41c-0.06-0.65,0.09-1.32,0.15-1.98
			c-0.57-5.79,0.5-11.78-2.1-17.32c-0.07-0.43-0.17-0.83-0.75-0.73l0.05,0.09C633.66,752.62,579.02,762.25,575.41,761.9z
			 M739.42,842.54c6.45,1.23,12.91,2.45,19.36,3.68c5.9,1.08,11.82,2.1,17.71,3.26c10.93,2.16,21.82,3.3,32.58-0.83
			c5.17-2.07,31.98-8.12,35.78-9.25c8.39-2.49,9.14-5.63,2.94-11.85c-1.39-1.4-3.02-2.32-4.85-2.99
			c-5.05-1.86-10.27-1.18-15.45-1.19c-11.05-0.33-56.13-2.74-66.7-4.9c-11.51-2.36-23.03-4.33-34.83-4.38
			c-2.41-0.01-3.09,0.51-2.76,2.94c0.77,5.55,1.24,11.14,1.94,16.7c0.67,5.25,3.44,7.75,8.71,7.81
			C735.81,841.57,737.62,841.91,739.42,842.54z M630,743.7c3.67-1.21,2.74-3.55,2.32-6.17c-1.72-10.76-3.3-21.55-4.93-32.33
			c0.4-4.27-0.93-8.39-1.12-12.61c-0.13-2.85-0.89-4.03-4.25-3.07c-9.77,2.79-19.72,4.85-29.47,7.87
			c-11.35,3.52-18.92,10.03-21.83,21.49c-2.25,8.9-1.35,17.98-0.68,27.03c0.14,1.94,1.34,1.59,2.48,1.84
			C581.95,749.83,626.64,744.82,630,743.7z M823,639.46c-0.05-3.2-1.27-4.39-4.62-4.22c-9.98,0.5-19.94,1.42-29.97,1.3
			c-9.83-0.12-19.68,0.55-29.5,1.07c-21.41,1.13-42.44,4.26-62.57,12.16c-3.36,1.32-4.7,2.63-3.87,6.52
			c3.11,14.69,5.83,29.46,8.7,44.2c5.8,29.76,11.83,59.47,17.21,89.31c1.22,6.75,12.51,11.15,13.45,11.29
			c11.62,1.72,23.24,3.37,34.85,5.17c10.41,1.61,20.8,3.54,31.33,3.92c12.14,0.44,24.31,0.34,36.46,0.47
			C839.88,810.71,823.05,642.71,823,639.46z M578.45,518.96c6.19,14.59,12.39,29.17,18.65,43.72c11.5,26.74,23.07,53.44,34.55,80.19
			c3.38,7.88,3.28,7.98,11.46,6.04c9.58-2.26,19.14-4.6,28.68-6.99c0.51-0.13,0.67-5.68-0.34-7.9
			c-6.05-13.3-11.75-26.75-17.73-40.08c-1.82-4.07-38.85-90.78-42.14-95.77c-1.77-2.69-3.35-3.69-6.49-1.64
			c-4.33,2.82-9.1,4.96-13.52,7.65C588.35,506.14,575.92,513.01,578.45,518.96z M656.25,474.46c-0.38-2.24-1.52-2.29-3.5-1.64
			c-9.33,3.09-18.7,6.07-28.11,8.94c-2.07,0.63-2.43,1.39-1.88,3.48c2.83,10.87,6.5,21.43,11.11,31.65
			c6.42,14.24,13.29,28.29,19.35,42.68c10.71,25.42,22.24,50.48,33.21,75.79c1,2.32,2.21,3.41,5.01,2.39
			c3.55-1.29,7.31-2.01,10.95-3.07c6.39-1.85,12.8-3.59,19.13-5.71c5.9-1.98,4.21-10.92,3.68-12.15
			c-2.01-4.61-13.34-33.97-18.15-43.54C704.32,567.9,664.8,488.11,656.25,474.46z M897.55,644.74c-0.77-3.39-8.01-11.12-13.63-10.82
			c-3.51,0.19-7.03,0.37-10.55,0.45c-11.06,0.26-22.12,0.54-33.19,0.64c-2.95,0.02-4.13,0.76-3.75,3.96
			c0.65,5.41,0.83,10.88,1.31,16.32c2.11,24.35,4.27,48.7,6.37,73.06c0.19,2.24,1.55,15.11,2,17.88c0.52,3.23,4.34,39.93,5.92,55.03
			c0.79,7.59,0.75,7.62,8.65,6.32c2.15-0.35,4.28-0.84,6.41-1.33c14.09-3.21,27.86-7.7,42.16-10.1c8.92-1.5,16.69-5.24,21.42-13.54
			c0.73-1.28,1.9-2.71,1.08-4.18c-3.13-5.59-21.8-44.21-25.12-61.42c-3.32-17.21-4.3-29.21-6.14-43.86
			C900.09,669.9,898.83,650.38,897.55,644.74z M679,795.43c8.24,2.07,16.75,1.38,25.09,2.48c2.43,0.32,2.24-1.45,1.96-2.99
			c-0.61-3.36-1.33-6.69-1.97-10.05c-4.68-24.54-9.3-49.09-14.06-73.61c-3.47-17.86-7.15-35.67-10.73-53.51
			c-0.47-2.35-1.35-3.4-4.2-2.67c-9.54,2.44-19.2,4.4-28.75,6.81c-3.15,0.79-7.51,0.16-9.16,2.68c-1.69,2.58-0.31,6.54,0.08,9.92
			c2.75,23.47,5.36,46.96,8.08,70.44c1.58,13.71,3.33,27.4,4.88,41.12c0.65,5.8,0.51,5.81,6.53,6.36
			C664.18,793.33,671.5,795.02,679,795.43z M1007.77,726.11c2.52-0.86,3.29-2.08,2.13-4.9c-1.56-3.8-2.39-7.89-3.54-11.86
			c-2.66-9.18-5.3-18.37-8.07-27.52c-5.5-18.17-10.56-36.47-15.69-54.75c-0.73-2.59-1.71-3.47-4.55-3.04
			c-8.24,1.23-16.53,2.09-24.8,3.11c-15.11,1.87-30.22,3.79-45.33,5.62c-2.71,0.33-3.95,1.1-3.42,4.33
			c2.78,17.14,5.14,34.34,8,51.46c1.51,9.02,3.41,17.99,6.61,26.63c3.88,10.48,7.92,20.91,11.46,31.5c2.36,7.06,6.24,13,11.21,18.36
			c0.73,0.79,1.55,1.83,2.67,0.49C948.42,760.78,1005.87,726.76,1007.77,726.11z M508.21,881.5c4.77-11.64,9.03-23.48,10.87-35.95
			c2.75-18.65,4.74-37.41,7.6-56.04c1.42-9.27,3.49-13.49,14.72-12.85c0.95,0.05,22,3.68,21.38,0.48
			c-1.07-5.5-2.29-10.97-3.29-16.48c-0.37-2.01-1.06-2.6-3.25-2.45c-9.6,0.65-18.82,2.86-27.94,5.8c-3.16,1.02-4.98,2.99-6.48,5.69
			c-3.23,5.79-4.88,12.14-6.77,18.42c-1.85,6.11-2.06,12.21-1.31,18.61c0.81,6.99,1.29,14.29-5.07,19.73
			c-6.17,5.28-13.66,6.19-21.18,6.15c-10.92-0.06-21.85-0.74-32.76-1.38c-3.05-0.18-4.47,0.9-5.26,3.72
			c-2.58,9.29-6.46,18.14-9.41,27.33c-2.33,7.25-5.21,14.56-8.4,21.61c-1.28,2.82-0.51,3.95,2.13,5.21
			c9.1,4.37,18.18,8.84,27.08,13.57c9.02,4.8,18.22,9.28,27.19,14.17c1.29,0.7,3.3,2.46,4.25,0.34
			C495.26,910.51,506.34,886.05,508.21,881.5z M1406.72,727.43c-0.3-0.6-0.77-1.58-1.28-2.53c-2.81-5.31-6.01-10.37-8.65-15.81
			c-6.85-14.14-14.41-27.93-21.51-41.95c-1.27-2.51-1.97-3.27-4.64-1.47c-4.31,2.89-8.96,5.26-13.5,7.8
			c-16.15,9.03-32.75,17.14-47.03,29.4c-21.13,18.14-43.06,35.36-64.55,53.08c-8,6.59-15.67,13.62-23.59,20.27
			c-8.73,7.33-16.31,15.65-24.32,23.61c-1.18,1.18-1.04,2.31-0.27,3.65c4.16,7.22,9.3,13.69,14.99,19.76
			c1.3,1.39,1.95,1.53,2.94-0.23c1.19-2.14,2.66-4.12,3.95-6.2c1.2-1.93,2.86-2.74,4.84-1.51c2.19,1.36,2,3.4,0.8,5.39
			c-1.41,2.33-2.84,4.65-4.34,6.92c-1.09,1.66-0.89,2.73,0.76,4.1c4.92,4.11,9.79,8.27,14.88,12.18c2.06,1.59,2.83,1.91,4.86-0.08
			c5.95-5.84,12.5-11.01,19.35-15.79c16.87-11.77,35.25-20.97,53.08-31.1c18.7-10.63,36.57-22.45,53.12-36.2
			c12.62-10.48,24.6-21.75,38.4-30.76C1405.79,729.45,1406.69,729.05,1406.72,727.43z M1104.66,810.37
			c0.25-0.05,0.81-0.07,1.31-0.26c9.59-3.57,19.16-7.19,28.76-10.71c1.78-0.65,1.33-1.6,0.92-2.88c-1.25-3.9-2.5-7.81-3.53-11.77
			c-6.88-26.28-13.27-52.7-23.18-78.07c-2.22-5.69-5.14-11.24-6.82-16.98c-2.85-9.71-6.53-19.09-10-28.54
			c-7.16-19.51-15.69-38.48-23.55-57.72c-0.86-2.11-1.77-2.08-3.7-1.63c-23.12,5.33-45.22,14.42-68.65,18.56
			c-1.94,0.34-1.82,1.32-1.32,2.92c1.66,5.31,3,10.72,4.65,16.03c4.92,15.87,9.24,31.91,14.34,47.73c3.02,9.38,5.38,19.1,7.98,28.68
			c0.68,2.52,1.74,2.75,4.02,2.57c4.34-0.34,8.57-1.32,12.98-1.32c7.49-0.01,9.6,0.76,12.21,7.67
			c4.21,11.14,10.07,21.57,13.62,33.01c1.98,6.36,5.19,12.33,7.75,18.52c4.13,9.98,9.58,19.08,17.88,26.14
			C1094.46,805.81,1098.61,809.54,1104.66,810.37z M1365.4,385.47c-3.1,0.38-7.95,1.66-12.6,3.77
			c-12.38,5.63-23.66,13.07-34.83,20.73c-18.08,12.39-37.39,22.73-56.43,33.53c-4.74,2.69-4.73,2.68-2.15,7.55
			c9.55,18.01,19.15,36,28.56,54.08c1.48,2.84,2.65,3.14,5.43,1.65c20.03-10.76,40.24-21.18,60.21-32.04
			c18.62-10.14,37.31-20.18,55.53-31.05c1.83-1.09,2.22-1.6,0.77-3.59c-11.38-15.54-23.4-30.65-32.01-48.06
			C1375.88,388.01,1372.43,385.12,1365.4,385.47z M1039.44,509.65c-0.03-0.1-0.23-1.03-0.61-1.89c-1.86-4.25-3.41-8.68-5.71-12.67
			c-10.29-17.85-21.21-35.31-33.86-51.63c-10.09-13.02-20.26-25.98-30.35-38.99c-1.06-1.37-1.86-1.05-2.96-0.11
			c-10.79,9.21-21.48,18.54-32.47,27.5c-3.37,2.75-2.76,4.39-0.37,7.33c15.41,19.02,30.64,38.19,45.91,57.32
			c7.85,9.83,15.7,19.65,23.46,29.54c1.84,2.34,3.42,3.1,6.39,1.53c9.55-5.06,19.28-9.78,28.95-14.61
			C1038.85,512.43,1039.73,511.86,1039.44,509.65z M1260.35,864.9c-0.15,0.21-0.52,0.79-0.96,1.32c-1.65,2.02-3.17,4.16-5.01,5.98
			c-1.75,1.73-1.62,3.08-0.15,4.89c6.62,8.15,12.08,17.09,17.62,25.97c5.32,8.53,10.54,17.16,15.59,25.83
			c6.76,11.59,14.5,22.41,22.48,33.12c1.42,1.9,2.67,1.69,4.22-0.04c2.45-2.74,4.72-5.73,8.16-7.4c1.9-0.92,0.67-1.88,0.03-2.91
			c-2.82-4.61-5.85-9.06-7.73-14.25c-5-13.74-12.43-26.08-22.14-37.06c-9.96-11.27-19.76-22.67-29.65-33.99
			C1262.29,865.78,1261.92,864.92,1260.35,864.9z M1095.18,584.78c1.97-0.38,3.73-0.66,5.47-1.05
			c22.79-5.17,44.67-13.25,66.52-21.32c27.01-9.97,53.59-21.05,79.71-33.19c9.38-4.36,18.31-9.55,27.35-14.55
			c1.12-0.62,2.95-1.01,2.4-3.23c-1.15-4.59-2.8-5.43-6.87-3.23c-0.96,0.52-1.92,1.06-2.87,1.6
			c-33.78,19.16-69.61,33.52-106.59,45.14c-22.39,7.04-44.59,14.71-67.3,20.73c-1.19,0.31-3.12,0.42-2.02,2.56
			C1092.17,580.57,1091.38,584.28,1095.18,584.78z M1191.87,840.3c-1.03,5.87-2.94,10.16-4.28,14.63c-0.5,1.66-0.23,3.02,0.83,4.56
			c2.57,3.74,5.95,6.75,8.74,10.27c2.23,2.81,4.75,4.43,8.7,4.08c3.9-0.35,7.87-0.17,11.8-0.55c1.71-0.17,3.26-0.19,3.91-2.17
			c0.71-2.13-0.95-2.92-2.17-3.9c-3.38-2.69-6.82-5.31-10.24-7.95C1202.58,854.22,1196.33,848.83,1191.87,840.3z M1181.69,915.06
			c2.06-3.02,10.68-12.42,10.54-14.59c-0.16-2.48-3.58-4.75-5.58-7.1c-0.35-0.41-0.64-0.98-1.1-1.19c-1.17-0.55-1.65-2.69-3.21-1.92
			c-1.22,0.6-0.65,2.25-0.57,3.39C1181.99,897.06,1181.57,910.65,1181.69,915.06z"/>
		<path class="st25" d="M1404.96,948.7c-14.03,8.3-27.96,16.78-41.62,25.69c-4.67-0.08-9.34-0.15-14.01-0.23
			c8.31-4.96,16.65-9.88,24.94-14.89c10.3-6.23,20.55-12.54,30.82-18.81C1405.05,943.21,1405,945.95,1404.96,948.7z"/>
		<g>
			<path class="st26" d="M1038.3,447.02c1.14,1.79,2.16,1.46,3.68,0.52c8.51-5.23,16.62-11.04,24.56-17.09
				c14.01-10.69,27.04-22.54,40.17-34.27c9.5-8.49,20.24-15.31,30.61-22.62c-37.07-0.6-74.15-1.19-111.22-1.79
				c-6.87-0.11-13.73-0.22-20.6-0.33c-7.69-0.12-15.38-0.25-23.07-0.37c6.48,10.87,13.14,21.64,20.6,31.86
				C1014.15,418.13,1028.09,431.09,1038.3,447.02z"/>
			<path class="st26" d="M1336.39,957.71c-1.18,0.88-2.32,1.85-2.16,3.23c0.51,4.32-0.31,8.76,1.1,13
				c4.67,0.08,9.34,0.15,14.01,0.23c8.31-4.96,16.65-9.88,24.94-14.89c10.3-6.23,20.55-12.54,30.82-18.81
				c0.14-8.78,0.28-17.57,0.42-26.35c-10.45,6.18-20.9,12.36-31.36,18.53C1361.12,940.33,1348.5,948.63,1336.39,957.71z"/>
			<path class="st26" d="M480.95,927.98c-11.94-5.94-23.78-12.07-35.69-18.08c-9.43-4.76-18.9-9.44-28.35-14.15
				c-0.09,5.49-0.18,10.98-0.26,16.47c-0.08,4.67-0.15,9.33-0.23,14c-0.04,2.2-0.07,4.39-0.11,6.59c-0.04,2.47-0.08,4.94-0.12,7.41
				c-0.07,4.12-0.13,8.23-0.2,12.35c-0.11,6.59-0.11,6.59,6.48,6.69c4.67,0.08,9.34,0.15,14.01,0.23c1.92,0.03,3.84,0.06,5.77,0.09
				c5.22,0.08,10.44,0.17,15.65,0.25c2.2,0.04,4.39,0.07,6.59,0.11c2.2,0.04,4.39,0.07,6.59,0.11c4.05-8.91,8.8-17.49,12.04-26.79
				C484.19,930.24,483.48,929.23,480.95,927.98z"/>
			<path class="st26" d="M535.56,395.82c2.28,9.26,4.96,18.38,7.76,27.47c5.69,18.41,12.94,36.26,19.75,54.28
				c2.41,6.37,4.54,12.87,8.03,18.82c1.55,2.64,2.83,2.91,5.37,1.44c3.42-1.98,7.11-3.48,10.64-5.27
				c6.57-3.33,13.14-6.66,19.66-10.1c2.82-1.49,3.75-3.58,2.15-6.76c-1.27-2.53-1.96-5.37-2.88-8.08
				c-9.38-27.49-18.91-54.93-29.22-82.1c-0.56-1.46-0.65-3.25-2.58-3.74c1.1-1.82-0.12-3.37-0.69-4.95
				c-1.51-4.16-3.13-8.28-4.71-12.42c-1.1-0.02-2.2-0.04-3.3-0.05c-12.36-0.2-24.72-0.4-37.07-0.6c-0.55-0.01-1.1-0.02-1.65-0.03
				c0.39,2.79,0.66,5.59,1.77,8.24C531.82,379.66,533.59,387.85,535.56,395.82z"/>
			<path class="st26" d="M885.7,391.56c10.95,10.63,21.82,21.36,33.88,30.78c1.39,1.08,2.39,2.29,4.48,0.48
				c10.6-9.23,21.24-18.43,32.19-27.24c3.39-2.73,2.71-4.4,0.46-7.09c-4.98-5.94-9.77-12.04-14.64-18.07
				c-2.2-0.04-4.39-0.07-6.59-0.11c-18.67-0.3-37.35-0.6-56.02-0.9c-5.22-0.08-10.44-0.17-15.65-0.25
				C870.59,377.13,878.2,384.28,885.7,391.56z"/>
			<path class="st26" d="M1402.06,975.07c2.06,0.05,2.57-0.42,2.57-2.49c-0.01-7.96,0.2-15.92,0.33-23.88
				c-14.03,8.3-27.96,16.78-41.62,25.69C1376.25,974.6,1389.16,974.75,1402.06,975.07z"/>
			<path class="st26" d="M595.88,391c12.41-8.52,24.82-17.03,37.23-25.55c-3.3-0.05-6.59-0.11-9.89-0.16
				c-8.24-0.13-16.48-0.26-24.72-0.4c-5.49-0.09-10.98-0.18-16.48-0.26c3.48,8.29,7.01,16.55,10.38,24.89
				C593.19,391.42,593.89,392.37,595.88,391z"/>
			<path class="st26" d="M488.41,938.7c-0.16,0.38-0.39,0.72-0.56,1.1c-3.11,6.79-6.22,13.58-9.33,20.37
				c1.65,0.03,3.3,0.05,4.94,0.08c7.69,0.12,15.38,0.25,23.07,0.37c1.1,0.02,2.2,0.04,3.3,0.05c4.39,0.07,8.79,0.14,13.18,0.21
				c4.12,0.07,8.24,0.13,12.36,0.2c-13.72-7.17-27.4-14.39-39.57-24.11C490.9,933.06,490.8,933.19,488.41,938.7z"/>
			<path class="st26" d="M1387.5,657.8c-1.83,0.93-2.49,1.81-1.3,3.74c1.57,2.55,2.94,5.23,4.39,7.85c1.68,2.96,3.35,5.93,5.03,8.89
				c4.76,8.41,4.76,8.41,13.62,4.43c0.16-10.16,0.33-20.31,0.49-30.47c0.03-1.92,0.06-3.84,0.09-5.76c-3.81,0.55-6.2,3.85-9.51,5.07
				C1395.78,653.21,1391.74,655.65,1387.5,657.8z"/>
			<path class="st26" d="M421.08,637.17c-0.07,4.12-0.13,8.23-0.2,12.35c7.89,1.59,15.31,5.1,23.51,5.82
				C436.82,648.95,429.32,642.58,421.08,637.17z"/>
			<path class="st26" d="M1413.58,378.33c-1.34-1.62-6.09-0.42-9.33-0.48c-17.85-0.29-35.7-0.57-53.55-0.86
				c-20.05-0.32-40.09-0.64-60.14-0.97c-17.85-0.29-35.7-0.57-53.55-0.86c-3.84-0.06-7.69-0.12-11.53-0.19
				c-1.92-0.03-3.84-0.06-5.77-0.09c5.87,13.25,13.38,25.64,19.88,38.56c0.86,1.72,1.84,1.04,2.98,0.59
				c2.97-1.15,5.56-3.16,8.15-4.78c13.06-8.16,27.96-12.5,41.11-20.36c1.8-1.08,3.41-1.32,4.68,0.46c1.34,1.88,0.74,3.79-0.94,5.09
				c-1.93,1.51-3.96,2.93-6.32,3.79c-14.96,5.5-28.46,13.93-42.52,21.23c-2.23,1.16-3.05,2.17-1.65,4.6
				c2.54,4.38,4.82,8.9,7.19,13.38c0.96,1.81,1.75,2.59,4.07,1.23c9.16-5.38,18.47-10.51,27.79-15.63
				c14.02-7.7,26.92-17.1,40.23-25.89c10.54-6.96,21.36-13.32,33.62-16.87c10.72-3.1,18.18-0.93,25.07,7.8
				c2.08,2.64,3.71,5.67,5.4,8.6c7.28,12.58,15.79,24.3,24.82,35.66c0.06-3.57,0.11-7.14,0.17-10.71
				c0.13-7.96,0.26-15.92,0.38-23.88c0.03-1.92,0.06-3.84,0.09-5.76c0.02-1.35,0.06-2.7,0.06-4.05
				C1413.98,384.65,1415.21,380.3,1413.58,378.33z"/>
			<path class="st26" d="M420.65,663.52c-0.08,4.67-0.15,9.33-0.23,14c1.16-1.31,2.33-2.6,3.46-3.93
				C430.28,666.06,430.25,665.98,420.65,663.52z"/>
			<path class="st26" d="M1318.03,973.66c3.57,0.06,7.14,0.11,10.71,0.17c-0.45-2.96-0.9-5.92-1.25-8.27
				C1324.32,968.28,1321.17,970.97,1318.03,973.66z"/>
			<path class="st26" d="M1403.93,694.2c1.61,2.52,1.97,5.88,5,7.45c0.06-3.84,0.12-7.69,0.19-11.53c-1.31,0.67-2.68,1.24-3.91,2.03
				C1404.54,692.58,1403.15,692.98,1403.93,694.2z"/>
			<path class="st26" d="M1293.38,506.79c20.03-10.76,40.24-21.18,60.21-32.04c18.62-10.14,37.31-20.18,55.53-31.05
				c1.83-1.09,2.22-1.6,0.77-3.59c-11.38-15.54-23.4-30.65-32.01-48.06c-1.99-4.03-5.45-6.92-12.47-6.57
				c-3.1,0.38-7.95,1.66-12.6,3.77c-12.38,5.63-23.66,13.07-34.83,20.73c-18.08,12.39-37.39,22.73-56.43,33.53
				c-4.74,2.69-4.73,2.68-2.15,7.55c9.55,18.01,19.15,36,28.56,54.08C1289.43,507.98,1290.6,508.28,1293.38,506.79z"/>
			<path class="st26" d="M619.8,391.6c-0.61-0.04-1.16,0-1.15,0.79c-0.78-0.11-1.41,0.03-1.61,0.95c0.02,0,0.03,0,0.05,0.01
				c-5.27,1.91-9.32,5.81-14.04,8.59c-3.73,2.2-4.34,4.61-2.86,8.68c6.57,18.06,12.85,36.23,19.16,54.39
				c0.75,2.17,1.77,2.99,4.15,2.52c21.08-4.16,39.64-13.16,54.64-28.75c10.04-10.44,20.53-20.38,31.15-30.21
				c14.34-13.27,28.39-26.84,41.65-41.22c-2.47-0.04-4.94-0.08-7.41-0.12c-3.3-0.05-6.59-0.11-9.89-0.16
				c-1.37-0.02-2.75-0.04-4.12-0.07c-8.51-0.14-17.03-0.27-25.54-0.41c-1.65-0.03-3.3-0.05-4.94-0.08
				c-2.47-0.04-4.94-0.08-7.41-0.12c-1.37-0.02-2.75-0.04-4.12-0.07c-3.02-0.05-6.04-0.1-9.06-0.15c-1.37-0.02-2.75-0.04-4.12-0.07
				c-1.65-0.03-3.3-0.05-4.94-0.08c-1.65-0.03-3.3-0.05-4.94-0.08c-0.82-0.01-1.65-0.03-2.47-0.04c-2.2-0.04-4.39-0.07-6.59-0.11
				c-0.1,0.77-0.7,1.08-1.26,1.48c-7.5,5.35-14.98,10.72-22.47,16.09C627.28,385.55,623.83,388.99,619.8,391.6z M672.86,373.87
				l0.03,0.06C672.89,373.94,672.86,373.87,672.86,373.87c-2.08,0.72-2.92-0.92-3.89-2.07C669.94,372.96,670.77,374.6,672.86,373.87
				z"/>
		</g>
	</g>
</g>
<path class="st16" d="M1431.01,1218.59v27.47c0,22.47-18.39,40.86-40.86,40.86H417.54c-22.47,0-40.86-18.39-40.86-40.86v-27.47"/>
<line class="st27" x1="853.39" y1="1252.6" x2="954.5" y2="1252.6"/>
<line class="st28" x1="517.96" y1="1059.26" x2="1301.61" y2="1059.26"/>
<line class="st28" x1="501.78" y1="1109.6" x2="1317.78" y2="1109.6"/>
<line class="st28" x1="478.33" y1="1159.95" x2="1343.66" y2="1159.95"/>
<g>
	<rect x="1114.35" y="706.65" class="st29" width="151.52" height="202.03"/>
	<line class="st30" x1="1140.89" y1="746.15" x2="1238.02" y2="746.15"/>
	<line class="st30" x1="1140.89" y1="765.58" x2="1169.39" y2="765.58"/>
	<line class="st30" x1="1140.89" y1="785" x2="1206.94" y2="785"/>
	<line class="st30" x1="1140.89" y1="804.43" x2="1225.07" y2="804.43"/>
	<line class="st30" x1="1140.89" y1="823.86" x2="1238.02" y2="823.86"/>
	<line class="st30" x1="1140.89" y1="843.28" x2="1190.11" y2="843.28"/>
	<line class="st30" x1="1140.89" y1="862.71" x2="1169.39" y2="862.71"/>
</g>
<g>
	<path class="st15" d="M673.26,270.96c-77.02,0-139.45,62.44-139.45,139.45c0,77.02,139.45,261.61,139.45,261.61
		s139.45-184.59,139.45-261.61C812.71,333.4,750.28,270.96,673.26,270.96z M673.26,504.1c-46.84,0-84.82-37.97-84.82-84.82
		c0-46.84,37.97-84.82,84.82-84.82s84.82,37.97,84.82,84.82C758.08,466.12,720.1,504.1,673.26,504.1z"/>
	<circle class="st31" cx="672.9" cy="418.79" r="84.98"/>
</g>
</svg>
