<?xml version="1.0" encoding="utf-8"?>
<!-- Generator: Adobe Illustrator 24.1.0, SVG Export Plug-In . SVG Version: 6.00 Build 0)  -->
<svg version="1.1" id="pictos" xmlns="http://www.w3.org/2000/svg" xmlns:xlink="http://www.w3.org/1999/xlink" x="0px" y="0px"
	 viewBox="0 0 1772 1653" style="enable-background:new 0 0 1772 1653;" xml:space="preserve">
<style type="text/css">
	.st0{fill:#121830;}
	.st1{fill:#FDC300;}
	.st2{fill:#112954;}
	.st3{fill:#15306B;}
	.st4{fill:#47509D;}
	.st5{fill:#D4C5FF;}
	.st6{fill:none;stroke:#FFFFFF;stroke-width:18.6461;stroke-linecap:round;stroke-miterlimit:10;}
	.st7{fill:#FFFFFF;}
	.st8{fill:#8784A5;}
	.st9{fill:#B3B2B1;}
	.st10{fill:#B2A9D8;}
	.st11{fill:#208473;}
	.st12{fill:#6F7070;}
	.st13{fill:#27A491;}
	.st14{fill:#826DAF;}
	.st15{fill:#DE3E4F;}
	.st16{fill:#192144;}
	.st17{fill:none;stroke:#B2A9D8;stroke-width:22.039;stroke-linecap:round;stroke-miterlimit:10;}
	.st18{filter:url(#Adobe_OpacityMaskFilter);}
	.st19{mask:url(#SVGID_1_);}
	.st20{fill:#C5C5C5;}
	.st21{fill:#FDC303;}
	.st22{filter:url(#Adobe_OpacityMaskFilter_1_);}
	.st23{mask:url(#SVGID_2_);}
	.st24{fill:none;stroke:#FDC300;stroke-width:3.6732;stroke-miterlimit:10;}
	.st25{fill:#FDC303;stroke:#FDC300;stroke-width:0.9183;stroke-miterlimit:10;}
	.st26{fill:#27A491;stroke:#FDC300;stroke-width:0.9183;stroke-miterlimit:10;}
	.st27{fill:none;stroke:#B2A9D8;stroke-width:24.2248;stroke-linecap:round;stroke-miterlimit:10;}
	.st28{fill:none;stroke:#826DAF;stroke-width:20.0371;stroke-linecap:round;stroke-miterlimit:10;}
	.st29{fill:#FDC300;stroke:#112954;stroke-width:11.9381;stroke-linecap:round;stroke-linejoin:round;stroke-miterlimit:10;}
	.st30{fill:none;stroke:#121830;stroke-width:5.9816;stroke-linecap:round;stroke-miterlimit:10;}
	.st31{opacity:0.74;fill:#D4C5FF;}
	.st32{fill:none;stroke:#CE9800;stroke-width:13.4488;stroke-linecap:round;stroke-linejoin:round;stroke-miterlimit:10;}
	.st33{fill:none;stroke:#FDC300;stroke-width:17.8163;stroke-linecap:round;stroke-linejoin:round;stroke-miterlimit:10;}
	.st34{fill:none;stroke:#DE3E4F;stroke-width:17.8163;stroke-linecap:round;stroke-linejoin:round;stroke-miterlimit:10;}
	.st35{fill:none;stroke:#27A491;stroke-width:17.8163;stroke-linecap:round;stroke-linejoin:round;stroke-miterlimit:10;}
	.st36{fill:none;stroke:#B2A9D8;stroke-width:22.8116;stroke-linecap:round;stroke-miterlimit:10;}
	.st37{opacity:0.7;fill:#DE3E4F;}
</style>
<g>
	<polygon class="st0" points="1316.81,898.13 1052.08,957.49 1072.07,833.58 1245.82,794.62 	"/>
	
		<rect x="1103.96" y="846.68" transform="matrix(0.9758 -0.2188 0.2188 0.9758 -158.4765 276.1814)" class="st1" width="127.73" height="13.98"/>
	<path class="st2" d="M1527.79,1187.15l-543.1,121.77c-12.51,2.8-25.04-5.14-27.84-17.64l-70.37-313.85
		c-2.8-12.51,5.14-25.04,17.64-27.84l543.1-121.77c12.51-2.8,25.04,5.14,27.84,17.64l70.37,313.85
		C1548.24,1171.81,1540.3,1184.34,1527.79,1187.15z"/>
	
		<rect x="913.85" y="980.32" transform="matrix(0.9758 -0.2188 0.2188 0.9758 -203.7965 291.7478)" class="st3" width="603.2" height="171.54"/>
	<circle class="st4" cx="1215.4" cy="1068.01" r="160.36"/>
	<circle class="st5" cx="1215.4" cy="1068.01" r="102.55"/>
	<path class="st6" d="M1166.2,1063.98c0,0,8.41-26.69,32.92-38.25"/>
	<circle class="st7" cx="1228.26" cy="1018.36" r="7.46"/>
	
		<rect x="921.12" y="901.02" transform="matrix(0.9758 -0.2188 0.2188 0.9758 -177.7276 232.4525)" class="st4" width="79.25" height="35.43"/>
</g>
<g>
	
		<rect x="342.06" y="323.07" transform="matrix(0.9644 -0.2646 0.2646 0.9644 -106.1745 176.9135)" class="st8" width="523.08" height="318.99"/>
	
		<rect x="382.5" y="363.89" transform="matrix(0.9644 -0.2646 0.2646 0.9644 -106.1745 176.9135)" class="st9" width="442.2" height="237.35"/>
	<polygon class="st3" points="825.2,446.31 374.48,483.9 358.88,427.04 785.42,310.01 	"/>
</g>
<g>
	
		<rect x="330.36" y="509.26" transform="matrix(0.9788 0.205 -0.205 0.9788 149.6666 -107.1368)" class="st10" width="523.08" height="318.99"/>
	
		<rect x="370.8" y="550.08" transform="matrix(0.9788 0.205 -0.205 0.9788 149.6666 -107.1368)" class="st11" width="442.2" height="237.35"/>
	
		<rect x="388.8" y="552.31" transform="matrix(0.9788 0.205 -0.205 0.9788 132.2223 -112.6848)" class="st4" width="442.3" height="58.96"/>
</g>
<g>
	
		<rect x="348.62" y="724.61" transform="matrix(0.9554 -0.2952 0.2952 0.9554 -233.8218 219.5532)" class="st5" width="523.08" height="318.99"/>
	
		<rect x="389.07" y="765.43" transform="matrix(0.9554 -0.2952 0.2952 0.9554 -233.8218 219.5532)" class="st12" width="442.2" height="237.35"/>
	
		<rect x="552.8" y="836.38" transform="matrix(0.9554 -0.2952 0.2952 0.9554 -225.8037 236.1709)" class="st1" width="232.82" height="58.96"/>
	
		<rect x="526.58" y="751.52" transform="matrix(0.9554 -0.2952 0.2952 0.9554 -201.919 224.6464)" class="st1" width="232.82" height="58.96"/>
	
		<rect x="579.02" y="921.24" transform="matrix(0.9554 -0.2952 0.2952 0.9554 -249.6884 247.6954)" class="st1" width="232.82" height="58.96"/>
</g>
<g>
	<path class="st16" d="M1089.16,1238.55H688.09c-21.16,0-38.47-17.31-38.47-38.47V479.69c0-21.16,17.31-38.47,38.47-38.47h401.07
		c21.16,0,38.47,17.31,38.47,38.47v720.39C1127.63,1221.24,1110.32,1238.55,1089.16,1238.55z"/>
	<rect x="699.15" y="572.99" class="st13" width="378.95" height="533.8"/>
	<circle class="st5" cx="810.88" cy="511.43" r="20.68"/>
	<line class="st36" x1="870.99" y1="510.95" x2="966.21" y2="510.95"/>
	<circle class="st4" cx="888.62" cy="1170.27" r="38.95"/>
	<polygon class="st20" points="1077.78,958.19 1078.74,1106.31 1027.76,1107.27 740.18,573.47 870.99,573.47 	"/>
	<polygon class="st20" points="1035.22,882.54 698.83,1076.49 698.83,945.69 978.48,784.25 	"/>
</g>
<rect x="699.25" y="718.13" class="st15" width="379.76" height="41.32"/>
<rect x="699.25" y="573.08" class="st37" width="379.76" height="157.35"/>
</svg>
