<svg width="58" height="66" viewBox="0 0 58 66" fill="none" xmlns="http://www.w3.org/2000/svg">
<path d="M50.3395 38.0691L53.0546 30.9726C53.4419 29.9601 52.6909 28.875 51.6028 28.875H44.0683C45.0329 26.7821 45.5714 24.4539 45.5714 22C45.5714 21.532 45.5507 21.0688 45.5124 20.6107C50.6313 19.6033 53.8571 18.135 53.8571 16.5C53.8571 14.7903 50.3317 13.2629 44.8015 12.2542C43.6124 8.02543 41.2829 3.77255 39.5305 1.57431C38.3068 0.0392967 36.1809 -0.441008 34.4204 0.435555L30.8528 2.21175C30.2775 2.49818 29.6432 2.6473 29 2.6473C28.3568 2.6473 27.7225 2.49818 27.1472 2.21175L23.5796 0.435426C21.819 -0.441008 19.6931 0.0391677 18.4695 1.57418C16.7171 3.77242 14.3876 8.0253 13.1985 12.2541C7.6683 13.2629 4.14286 14.7903 4.14286 16.5C4.14286 18.135 7.36872 19.6033 12.4876 20.6107C12.4485 21.0728 12.4288 21.5363 12.4286 22C12.4286 24.454 12.967 26.7822 13.9314 28.875H6.49885C5.38351 28.875 4.63158 30.0104 5.07099 31.0312L8.0365 37.9209C3.34005 39.6879 0 44.2052 0 49.5V59.8125C0 63.2298 2.78219 66 6.21429 66H51.7857C55.2178 66 58 63.2298 58 59.8125V49.5C58 44.3476 54.8372 39.9312 50.3395 38.0691ZM23.8214 62.9063L17.6071 38.1562L23.8214 41.25L26.9286 46.4062L23.8214 62.9063ZM34.1786 62.9063L31.0714 46.4062L34.1786 41.25L40.3929 38.1562L34.1786 62.9063ZM41.2704 23.7515C41.2693 23.757 40.7138 24.168 40.6069 24.4954C40.107 26.0247 39.6972 27.6629 38.4689 28.7956C37.1651 29.9979 32.2602 31.6837 30.1837 25.5692C29.8164 24.487 28.1839 24.4866 27.8164 25.5692C25.6203 32.0362 20.564 29.7479 19.5312 28.7956C18.3029 27.663 17.8931 26.0247 17.3933 24.4954C17.2863 24.168 16.7307 23.757 16.7298 23.7515C16.658 23.3744 16.6028 22.993 16.5718 22.6107C16.5318 22.1146 17.8766 22.1391 18.006 22.1276C21.4113 21.8278 24.7774 22.053 28.1072 22.8362C28.439 22.9144 29.6029 22.9044 29.8929 22.8362C33.2227 22.053 36.5888 21.8277 39.9941 22.1276C40.1238 22.1391 41.4683 22.1145 41.4283 22.6107C41.3974 22.993 41.3421 23.3744 41.2704 23.7515Z" fill="#787878"/>
</svg>
