<svg width="32" height="34" viewBox="0 0 32 34" fill="none" xmlns="http://www.w3.org/2000/svg">
<path d="M32 16.9415C32 26.2783 24.8366 33.8471 16 33.8471C7.16342 33.8471 0 26.2783 0 16.9415C0 7.60472 7.16342 0.0358276 16 0.0358276C24.8366 0.0358276 32 7.60472 32 16.9415ZM14.1493 25.8929L26.0203 13.35C26.4234 12.9241 26.4234 12.2335 26.0203 11.8076L24.5605 10.2651C24.1574 9.83913 23.5037 9.83913 23.1006 10.2651L13.4194 20.4943L8.89942 15.7185C8.49632 15.2926 7.84271 15.2926 7.43955 15.7185L5.97974 17.2609C5.57664 17.6868 5.57664 18.3774 5.97974 18.8034L12.6894 25.8928C13.0926 26.3188 13.7461 26.3188 14.1493 25.8929Z" fill="#024700"/>
</svg>
