<svg width="31" height="28" viewBox="0 0 31 28" fill="none" xmlns="http://www.w3.org/2000/svg">
<path d="M30.6511 24.0632C31.6445 25.8129 30.3976 28 28.4134 28H2.58625C0.598326 28 -0.642858 25.8095 0.348604 24.0632L13.2624 1.31168C14.2562 -0.438812 16.7456 -0.43564 17.7377 1.31168L30.6511 24.0632ZM15.5 19.3594C14.1327 19.3594 13.0243 20.4857 13.0243 21.875C13.0243 23.2643 14.1327 24.3906 15.5 24.3906C16.8673 24.3906 17.9757 23.2643 17.9757 21.875C17.9757 20.4857 16.8673 19.3594 15.5 19.3594ZM13.1496 10.317L13.5488 17.7545C13.5675 18.1025 13.8507 18.375 14.1937 18.375H16.8064C17.1494 18.375 17.4326 18.1025 17.4512 17.7545L17.8505 10.317C17.8706 9.94109 17.5761 9.625 17.2056 9.625H13.7944C13.4239 9.625 13.1294 9.94109 13.1496 10.317Z" fill="#BF0000"/>
</svg>
