<svg width="48" height="48" viewBox="0 0 48 48" fill="none" xmlns="http://www.w3.org/2000/svg">
<circle cx="24" cy="24" r="24" fill="white"/>
<path d="M28.5 10.5L31.95 13.95L27.615 18.255L29.745 20.385L34.05 16.05L37.5 19.5V10.5H28.5ZM10.5 19.5L13.95 16.05L18.255 20.385L20.385 18.255L16.05 13.95L19.5 10.5H10.5V19.5ZM19.5 37.5L16.05 34.05L20.385 29.745L18.255 27.615L13.95 31.95L10.5 28.5V37.5H19.5ZM37.5 28.5L34.05 31.95L29.745 27.615L27.615 29.745L31.95 34.05L28.5 37.5H37.5V28.5Z" fill="#826DAE"/>
</svg>
