<svg width="23" height="17" viewBox="0 0 23 17" fill="none" xmlns="http://www.w3.org/2000/svg">
<path d="M18.6875 16.6513H14.9141C14.6176 16.6513 14.375 16.4171 14.375 16.1309V14.3964C14.375 14.1102 14.6176 13.876 14.9141 13.876H18.6875C19.4826 13.876 20.125 13.256 20.125 12.4884V4.16281C20.125 3.39529 19.4826 2.77521 18.6875 2.77521H14.9141C14.6176 2.77521 14.375 2.54105 14.375 2.25486V0.520352C14.375 0.234158 14.6176 0 14.9141 0H18.6875C21.0684 0 23 1.86459 23 4.16281V12.4884C23 14.7867 21.0684 16.6513 18.6875 16.6513ZM16.5762 7.93536L9.0293 0.65044C8.35547 0 7.1875 0.455308 7.1875 1.3876V5.55042H1.07812C0.480664 5.55042 0 6.0144 0 6.59112V10.7539C0 11.3307 0.480664 11.7946 1.07812 11.7946H7.1875V15.9575C7.1875 16.8897 8.35547 17.3451 9.0293 16.6946L16.5762 9.40969C16.9939 9.00208 16.9939 8.34297 16.5762 7.93536Z" fill="white"/>
</svg>
