<svg width="24" height="28" viewBox="0 0 24 28" fill="none" xmlns="http://www.w3.org/2000/svg">
<path d="M20.8301 16.1505L21.9536 13.1399C22.1139 12.7104 21.8031 12.25 21.3529 12.25H18.2352C18.6343 11.3621 18.8571 10.3744 18.8571 9.33335C18.8571 9.13478 18.8486 8.93828 18.8327 8.74392C20.9509 8.31654 22.2857 7.69365 22.2857 6.99999C22.2857 6.27467 20.8269 5.62668 18.5386 5.19875C18.0465 3.40473 17.0826 1.60048 16.3574 0.66789C15.8511 0.0166713 14.9714 -0.187094 14.2429 0.184781L12.7667 0.93832C12.5286 1.05983 12.2661 1.1231 12 1.1231C11.7339 1.1231 11.4714 1.05983 11.2333 0.93832L9.75707 0.184726C9.02855 -0.187094 8.14886 0.0166166 7.64255 0.667836C6.91741 1.60042 5.9535 3.40467 5.46145 5.1987C3.17309 5.62668 1.71429 6.27467 1.71429 6.99999C1.71429 7.69365 3.04912 8.31654 5.16729 8.74392C5.15112 8.93997 5.14297 9.13661 5.14286 9.33335C5.14286 10.3744 5.36566 11.3621 5.76471 12.25H2.68918C2.22766 12.25 1.91652 12.7317 2.09834 13.1648L3.32545 16.0876C1.38209 16.8373 0 18.7537 0 21V25.375C0 26.8248 1.15125 28 2.57143 28H21.4286C22.8488 28 24 26.8248 24 25.375V21C24 18.8141 22.6913 16.9405 20.8301 16.1505ZM9.85714 26.6875L7.28571 16.1875L9.85714 17.5L11.1429 19.6875L9.85714 26.6875ZM14.1429 26.6875L12.8571 19.6875L14.1429 17.5L16.7143 16.1875L14.1429 26.6875ZM17.0774 10.0764C17.077 10.0787 16.8471 10.2531 16.8028 10.392C16.596 11.0408 16.4264 11.7358 15.9182 12.2163C15.3786 12.7264 13.349 13.4416 12.4898 10.8475C12.3378 10.3884 11.6623 10.3883 11.5103 10.8475C10.6015 13.5911 8.50923 12.6203 8.08189 12.2163C7.57361 11.7358 7.40405 11.0408 7.19721 10.392C7.15296 10.2531 6.92304 10.0787 6.92266 10.0764C6.89298 9.91642 6.87011 9.7546 6.8573 9.5924C6.84075 9.38196 7.3972 9.39235 7.45077 9.38749C8.85986 9.26028 10.2527 9.35582 11.6306 9.6881C11.7679 9.72124 12.2495 9.71703 12.3695 9.6881C13.7473 9.35582 15.1402 9.26023 16.5493 9.38749C16.603 9.39235 17.1593 9.38191 17.1427 9.5924C17.1299 9.7546 17.1071 9.91642 17.0774 10.0764Z" fill="#192145"/>
</svg>
