<svg width="32" height="35" viewBox="0 0 32 35" fill="none" xmlns="http://www.w3.org/2000/svg">
<path d="M15.8752 0.205627C24.5344 0.205627 31.5503 7.77227 31.5503 17.1113C31.5503 26.4503 24.5344 34.0169 15.8752 34.0169C7.21596 34.0169 0.200073 26.4503 0.200073 17.1113C0.200073 7.77227 7.21596 0.205627 15.8752 0.205627ZM23.0744 15.9524L14.5099 6.71567C13.9158 6.07489 12.9551 6.07489 12.3673 6.71567L11.2928 7.87453C10.6986 8.5153 10.6986 9.55146 11.2928 10.1854L17.7145 17.1113L11.2928 24.0372C10.6986 24.6779 10.6986 25.7141 11.2928 26.348L12.3673 27.5069C12.9614 28.1477 13.9221 28.1477 14.5099 27.5069L23.0744 18.2701C23.6685 17.6294 23.6685 16.5932 23.0744 15.9524Z" fill="#ffffff"/>
</svg>
