<svg width="67" height="67" viewBox="0 0 67 67" fill="none" xmlns="http://www.w3.org/2000/svg">
<path d="M0 33.5C0 14.9984 14.9984 0 33.5 0C52.0016 0 67 14.9984 67 33.5C67 52.0016 52.0016 67 33.5 67C14.9984 67 0 52.0016 0 33.5ZM9.78727 50.5023C15.0827 57.8748 23.73 62.6774 33.5 62.6774C43.27 62.6774 51.9173 57.8748 57.2127 50.5023C56.7884 46.8565 54.1509 43.7958 50.5211 42.8884L46.148 41.7952C42.6267 44.8184 38.1903 46.4677 33.5 46.4677C28.8097 46.4677 24.3733 44.8184 20.8519 41.7952L16.4788 42.8884C12.8491 43.7958 10.2116 46.8565 9.78727 50.5023ZM18.371 27.0161C18.371 35.3717 25.1445 42.1452 33.5 42.1452C41.8555 42.1452 48.629 35.3717 48.629 27.0161C48.629 18.6606 41.8555 11.8871 33.5 11.8871C25.1445 11.8871 18.371 18.6606 18.371 27.0161Z" fill="#787878"/>
</svg>
