<svg width="1343" height="296" viewBox="0 0 1343 296" fill="none" xmlns="http://www.w3.org/2000/svg">
<path d="M1300.64 146.604C1374.11 84.3986 1321.33 -116.587 1285.76 -209.304L121.639 -226.243C91.331 -221.261 16.4646 -203.006 -40.5353 -169.849C-111.785 -128.401 13.8555 168.104 76.1658 201.552C138.476 234.999 299.897 170.458 365.433 222.031C430.968 273.604 859.527 251.819 902.347 246.114C945.167 240.41 1208.8 224.36 1300.64 146.604Z" stroke="white" stroke-width="2"/>
<path d="M1260.54 165.531C1334.09 97.9221 1281.56 -120.162 1246.1 -220.753L81.9869 -237.692C51.6721 -232.246 -23.2184 -212.34 -80.2605 -176.28C-151.563 -131.204 -26.2887 190.466 35.9812 226.693C98.2512 262.919 259.755 192.666 325.228 248.562C390.7 304.457 819.294 280.279 862.122 274.034C904.949 267.79 1168.61 250.041 1260.54 165.531Z" stroke="white" stroke-width="2"/>
<path d="M1222.42 163.445C1304.77 98.4511 1280.83 -120.555 1258.56 -221.933L97.4505 -276.403C66.4433 -271.956 -11.0022 -254.538 -72.7265 -220.448C-149.882 -177.835 -66.803 146.738 -9.3177 184.847C48.1674 222.956 218.759 158.167 276.869 215.979C334.98 273.79 766.448 263.537 810.064 258.698C853.68 253.858 1119.48 244.687 1222.42 163.445Z" stroke="white" stroke-width="2"/>
<path d="M1200.82 164.92C1274.29 102.715 1221.52 -98.2704 1185.94 -190.988L21.8257 -207.927C-8.48243 -202.944 -83.3488 -184.69 -140.349 -151.532C-211.599 -110.085 -85.958 186.42 -23.6476 219.868C38.6628 253.316 200.084 188.775 265.619 240.348C331.155 291.921 759.713 270.135 802.533 264.431C845.353 258.727 1108.99 242.677 1200.82 164.92Z" stroke="white" stroke-width="2"/>
<path d="M1240.93 145.238C1314.43 81.1876 1261.73 -125.636 1226.2 -221.042L62.0817 -237.981C31.7713 -232.841 -43.1033 -214.022 -100.118 -179.873C-171.386 -137.187 -45.8699 167.911 16.4266 202.307C78.7233 236.704 240.172 170.213 305.687 223.262C371.2 276.311 799.771 253.708 842.594 247.819C885.416 241.93 1149.06 225.301 1240.93 145.238Z" fill="white"/>
</svg>
