<?xml version="1.0" encoding="utf-8"?>
<!-- Generator: Adobe Illustrator 24.1.0, SVG Export Plug-In . SVG Version: 6.00 Build 0)  -->
<svg version="1.1" id="illustrations" xmlns="http://www.w3.org/2000/svg" xmlns:xlink="http://www.w3.org/1999/xlink" x="0px"
	 y="0px" viewBox="0 0 4983.65 3605.74" style="enable-background:new 0 0 4983.65 3605.74;" xml:space="preserve">
<style type="text/css">
	.st0{fill:none;stroke:#112954;stroke-width:10;stroke-linecap:round;stroke-linejoin:round;}
	.st1{fill:none;stroke:#112954;stroke-width:10;stroke-linecap:round;stroke-linejoin:round;stroke-dasharray:13.4025,19.1464;}
	.st2{fill:#112954;}
	.st3{opacity:0.5;}
	.st4{fill:none;stroke:#C5C5C5;stroke-width:9.6483;stroke-linecap:round;stroke-linejoin:round;stroke-miterlimit:10;}
	.st5{opacity:0.6;fill:#CECECE;}
	.st6{opacity:0.3;}
	.st7{fill:none;stroke:#192144;stroke-width:9.6483;stroke-linecap:round;stroke-linejoin:round;stroke-miterlimit:10;}
	.st8{fill:#192144;}
	.st9{fill:none;stroke:#112954;stroke-width:10;stroke-linecap:round;stroke-linejoin:round;stroke-dasharray:13.9221,19.8887;}
	.st10{fill:none;stroke:#C5C5C5;stroke-width:10;stroke-linecap:round;stroke-linejoin:round;}
	.st11{fill:none;stroke:#C5C5C5;stroke-width:10;stroke-linecap:round;stroke-linejoin:round;stroke-dasharray:13.9984,19.9978;}
	.st12{fill:none;stroke:#112954;stroke-width:10;stroke-linecap:round;stroke-linejoin:round;stroke-dasharray:13.7401,19.6288;}
	.st13{fill:#E6E2EF;}
	.st14{fill:#FFF3CC;}
	.st15{fill:#826DAF;}
	.st16{fill:none;stroke:#645689;stroke-width:11.6902;stroke-linecap:round;stroke-linejoin:round;stroke-miterlimit:10;}
	.st17{fill:#FDC300;}
	.st18{fill:none;stroke:#CE9800;stroke-width:11.6902;stroke-linecap:round;stroke-linejoin:round;stroke-miterlimit:10;}
	.st19{fill:none;stroke:#A53248;stroke-width:19.1233;stroke-linecap:round;stroke-linejoin:round;stroke-miterlimit:10;}
	.st20{font-family:'GothamPro-Bold';}
	.st21{font-size:70px;}
	.st22{font-size:106.8785px;}
	.st23{font-family:'GothamPro-MediumItalic';}
	.st24{font-size:80px;}
	.st25{fill:#FFFFFF;}
	.st26{fill:#D8EFF5;}
	.st27{fill:#D4EDE9;}
	.st28{fill:#3EB0CF;}
	.st29{fill:none;stroke:#328BA0;stroke-width:11.6902;stroke-linecap:round;stroke-linejoin:round;stroke-miterlimit:10;}
	.st30{fill:#27A491;}
	.st31{fill:none;stroke:#208473;stroke-width:11.6902;stroke-linecap:round;stroke-linejoin:round;stroke-miterlimit:10;}
	.st32{fill:#DE3E4F;}
	.st33{fill:none;stroke:#112954;stroke-width:10;stroke-linecap:round;stroke-linejoin:round;stroke-dasharray:14.0974,20.1391;}
	.st34{fill:none;stroke:#112954;stroke-width:10;stroke-linecap:round;stroke-linejoin:round;stroke-dasharray:13.8669,19.8098;}
</style>
<g>
	<g>
		<g>
			<line class="st0" x1="2478.46" y1="2322.39" x2="2478.46" y2="2315.39"/>
			<line class="st1" x1="2478.46" y1="2296.24" x2="2478.46" y2="2045.42"/>
			<line class="st0" x1="2478.46" y1="2035.85" x2="2478.46" y2="2028.85"/>
			<g>
				<polygon class="st2" points="2519.36,2061.98 2512.04,2068.81 2478.47,2032.69 2444.9,2068.81 2437.57,2061.98 2478.47,2018 
									"/>
			</g>
		</g>
	</g>
	<g class="st3">
		<path class="st4" d="M2774.94,2692.79c0-8.05-0.33-16.03-0.96-23.92l52.77-4.09c-1.76-22.22-5.61-43.84-11.34-64.69l-50.66,15.44
			c-4.31-16.02-9.92-31.5-16.73-46.32l48.2-21.89c-9.19-20.04-20.21-39.08-32.86-56.87l-42.32,31.84
			c-9.48-13.46-20.05-26.09-31.58-37.77l37.79-37.05c-15.38-15.59-32.21-29.74-50.28-42.24l-28.87,44.38
			c-13.42-9.38-27.65-17.68-42.56-24.76l22.85-47.75c-19.63-9.34-40.27-16.91-61.72-22.49l-11.96,51.6
			c-15.69-4.16-31.89-7.07-48.48-8.61l5.14-52.68c-10.83-1.01-21.8-1.55-32.9-1.55c-11.05,0-21.98,0.54-32.77,1.54l6.41,52.56
			c-16.6,1.46-32.82,4.28-48.53,8.37l-13.19-51.27c-21.45,5.57-42.09,13.13-61.72,22.47l24.01,47.21
			c-14.95,7.02-29.22,15.24-42.68,24.56l-29.92-43.66c-18.07,12.49-34.91,26.63-50.3,42.22l38.68,36.13
			c-11.59,11.63-22.22,24.21-31.76,37.63l-43.05-30.79c-12.66,17.78-23.69,36.81-32.89,56.85l48.74,20.74
			c-6.88,14.79-12.57,30.24-16.96,46.23l-50.99-14.21c-5.73,20.85-9.59,42.47-11.36,64.69l52.88,2.81
			c-0.71,8.35-1.09,16.79-1.09,25.32c0,8.05,0.33,16.03,0.96,23.92l-52.77,4.09c1.76,22.22,5.61,43.84,11.34,64.69l50.66-15.44
			c4.31,16.02,9.92,31.5,16.73,46.32l-48.2,21.89c9.19,20.04,20.21,39.08,32.86,56.87l42.33-31.84
			c9.48,13.46,20.05,26.09,31.58,37.77l-37.79,37.05c15.38,15.59,32.21,29.74,50.28,42.24l28.87-44.38
			c13.42,9.38,27.65,17.68,42.56,24.76l-22.85,47.75c19.63,9.34,40.27,16.91,61.72,22.49l11.96-51.6
			c15.69,4.16,31.89,7.07,48.48,8.61l-5.14,52.68c10.83,1.01,21.8,1.55,32.9,1.55c11.05,0,21.98-0.54,32.77-1.54l-6.41-52.56
			c16.6-1.46,32.82-4.28,48.53-8.37l13.19,51.27c21.45-5.57,42.09-13.13,61.72-22.47l-24.01-47.21
			c14.95-7.02,29.22-15.24,42.68-24.56l29.92,43.66c18.07-12.49,34.91-26.63,50.29-42.22l-38.68-36.13
			c11.59-11.63,22.22-24.21,31.76-37.63l43.05,30.79c12.66-17.78,23.69-36.81,32.89-56.85l-48.74-20.74
			c6.88-14.79,12.57-30.24,16.96-46.23l50.99,14.21c5.73-20.85,9.59-42.47,11.36-64.69l-52.88-2.82
			C2774.56,2709.76,2774.94,2701.32,2774.94,2692.79z"/>
	</g>
	<circle class="st5" cx="2478.46" cy="2692.79" r="260.42"/>
	<g class="st6">
		<path class="st7" d="M2774.94,1600.15c0-8.05-0.33-16.03-0.96-23.92l52.77-4.09c-1.76-22.22-5.61-43.84-11.34-64.69l-50.66,15.44
			c-4.31-16.02-9.92-31.49-16.73-46.32l48.2-21.89c-9.19-20.04-20.21-39.08-32.86-56.87l-42.32,31.84
			c-9.48-13.46-20.05-26.09-31.58-37.78l37.79-37.05c-15.38-15.59-32.21-29.74-50.28-42.24l-28.87,44.38
			c-13.42-9.38-27.65-17.68-42.56-24.76l22.85-47.75c-19.63-9.34-40.27-16.91-61.72-22.49l-11.96,51.6
			c-15.69-4.16-31.89-7.07-48.48-8.61l5.14-52.68c-10.83-1.01-21.8-1.55-32.9-1.55c-11.05,0-21.98,0.54-32.77,1.54l6.41,52.56
			c-16.6,1.46-32.82,4.28-48.53,8.37l-13.19-51.27c-21.45,5.57-42.09,13.13-61.72,22.47l24.01,47.21
			c-14.95,7.02-29.22,15.24-42.68,24.56l-29.92-43.66c-18.07,12.49-34.91,26.63-50.3,42.22l38.68,36.13
			c-11.59,11.63-22.22,24.21-31.76,37.63l-43.05-30.79c-12.66,17.78-23.69,36.81-32.89,56.85l48.74,20.74
			c-6.88,14.79-12.57,30.24-16.96,46.23l-50.99-14.21c-5.73,20.85-9.59,42.47-11.36,64.69l52.88,2.81
			c-0.71,8.35-1.09,16.79-1.09,25.32c0,8.05,0.33,16.03,0.96,23.92l-52.77,4.09c1.76,22.22,5.61,43.84,11.34,64.69l50.66-15.44
			c4.31,16.02,9.92,31.5,16.73,46.32l-48.2,21.89c9.19,20.04,20.21,39.08,32.86,56.87l42.33-31.84
			c9.48,13.46,20.05,26.09,31.58,37.77l-37.79,37.05c15.38,15.59,32.21,29.74,50.28,42.24l28.87-44.38
			c13.42,9.38,27.65,17.68,42.56,24.76l-22.85,47.75c19.63,9.34,40.27,16.91,61.72,22.49l11.96-51.6
			c15.69,4.16,31.89,7.07,48.48,8.61l-5.14,52.68c10.83,1.01,21.8,1.55,32.9,1.55c11.05,0,21.98-0.54,32.77-1.54l-6.41-52.56
			c16.6-1.46,32.82-4.28,48.53-8.37l13.19,51.27c21.45-5.57,42.09-13.13,61.72-22.47l-24.01-47.21
			c14.95-7.02,29.22-15.24,42.68-24.56l29.92,43.66c18.07-12.49,34.91-26.63,50.29-42.22l-38.68-36.13
			c11.59-11.63,22.22-24.21,31.76-37.63l43.05,30.79c12.66-17.78,23.69-36.81,32.89-56.85l-48.74-20.74
			c6.88-14.79,12.57-30.24,16.96-46.23l50.99,14.21c5.73-20.85,9.59-42.47,11.36-64.69l-52.88-2.82
			C2774.56,1617.12,2774.94,1608.68,2774.94,1600.15z"/>
	</g>
	<circle class="st8" cx="2478.46" cy="1600.15" r="260.42"/>
	<g>
		<g>
			<line class="st0" x1="1652.26" y1="1576.03" x2="1659.26" y2="1576.03"/>
			<line class="st9" x1="1679.15" y1="1576.03" x2="2041.12" y2="1576.03"/>
			<line class="st0" x1="2051.07" y1="1576.03" x2="2058.07" y2="1576.03"/>
			<g>
				<polygon class="st2" points="2024.93,1616.93 2018.11,1609.61 2054.23,1576.04 2018.11,1542.47 2024.93,1535.14 
					2068.91,1576.04 				"/>
			</g>
		</g>
	</g>
	<g>
		<g>
			<line class="st10" x1="316.07" y1="524.9" x2="323.07" y2="524.9"/>
			<line class="st11" x1="343.07" y1="524.9" x2="4650.58" y2="524.9"/>
			<line class="st10" x1="4660.58" y1="524.9" x2="4667.58" y2="524.9"/>
		</g>
	</g>
	<g>
		<g>
			<line class="st10" x1="316.07" y1="905.05" x2="323.07" y2="905.05"/>
			<line class="st11" x1="343.07" y1="905.05" x2="4650.58" y2="905.05"/>
			<line class="st10" x1="4660.58" y1="905.05" x2="4667.58" y2="905.05"/>
		</g>
	</g>
	<g>
		<g>
			<line class="st0" x1="1618.09" y1="2544.78" x2="1623.04" y2="2539.83"/>
			<line class="st12" x1="1636.92" y1="2525.95" x2="2172.67" y2="1990.2"/>
			<line class="st0" x1="2179.61" y1="1983.26" x2="2184.56" y2="1978.31"/>
			<g>
				<polygon class="st2" points="2190.05,2030.66 2180.05,2030.3 2181.85,1981.03 2132.57,1982.83 2132.22,1972.83 2192.24,1970.65 
									"/>
			</g>
		</g>
	</g>
	<g>
		<g>
			<line class="st0" x1="3344.8" y1="2544.78" x2="3339.85" y2="2539.83"/>
			<line class="st12" x1="3325.97" y1="2525.95" x2="2790.21" y2="1990.2"/>
			<line class="st0" x1="2783.27" y1="1983.26" x2="2778.32" y2="1978.31"/>
			<g>
				<polygon class="st2" points="2830.67,1972.82 2830.32,1982.82 2781.04,1981.02 2782.84,2030.3 2772.84,2030.65 2770.66,1970.63 
									"/>
			</g>
		</g>
	</g>
	<g>
		<g>
			<line class="st0" x1="2819.81" y1="1576.03" x2="2826.81" y2="1576.03"/>
			<line class="st9" x1="2846.7" y1="1576.03" x2="3208.67" y2="1576.03"/>
			<line class="st0" x1="3218.62" y1="1576.03" x2="3225.62" y2="1576.03"/>
			<g>
				<polygon class="st2" points="3192.48,1616.93 3185.66,1609.61 3221.78,1576.04 3185.66,1542.47 3192.48,1535.14 
					3236.46,1576.04 				"/>
			</g>
		</g>
	</g>
	<rect x="413.2" y="1375.85" class="st13" width="1239.06" height="400.37"/>
	<rect x="3304.66" y="1375.85" class="st14" width="1249.06" height="400.37"/>
	<g>
		<circle class="st15" cx="678.18" cy="1283.33" r="66.12"/>
		<path class="st15" d="M681.4,1363.79c-63.76,0-118.36,47.94-118.36,130.05c0,15.59,1.46,48.22,2.2,63c0,0-0.2,41.85,48.75,36.74
			h0.52l2.07,210.42h-0.2c0,17.96,14.56,32.51,32.51,32.51s32.51-14.56,32.51-32.51c0,17.96,14.56,32.51,32.51,32.51
			s32.51-14.56,32.51-32.51h-0.2l2.07-210.42h0.52c48.95,5.11,48.75-36.74,48.75-36.74c0.74-14.77,2.2-47.41,2.2-63
			C799.76,1411.72,745.16,1363.79,681.4,1363.79z"/>
		<line class="st16" x1="681.4" y1="1798.15" x2="681.4" y2="1644.35"/>
		<line class="st16" x1="615.28" y1="1579.69" x2="615.28" y2="1456.21"/>
		<line class="st16" x1="747.52" y1="1579.69" x2="747.52" y2="1456.21"/>
	</g>
	<g>
		<circle class="st17" cx="4287.3" cy="1283.33" r="66.12"/>
		<path class="st17" d="M4290.52,1363.79c-63.76,0-118.36,47.94-118.36,130.05c0,15.59,1.46,48.22,2.2,63c0,0-0.2,41.85,48.75,36.74
			h0.52l2.07,210.42h-0.2c0,17.96,14.56,32.51,32.51,32.51c17.96,0,32.51-14.56,32.51-32.51c0,17.96,14.56,32.51,32.51,32.51
			s32.51-14.56,32.51-32.51h-0.2l2.07-210.42h0.52c48.95,5.11,48.75-36.74,48.75-36.74c0.74-14.77,2.2-47.41,2.2-63
			C4408.89,1411.72,4354.28,1363.79,4290.52,1363.79z"/>
		<line class="st18" x1="4290.52" y1="1798.15" x2="4290.52" y2="1644.35"/>
		<line class="st18" x1="4224.4" y1="1579.69" x2="4224.4" y2="1456.21"/>
		<line class="st18" x1="4356.65" y1="1579.69" x2="4356.65" y2="1456.21"/>
	</g>
	<path class="st19" d="M4412.79,1819.7v-212.94v0.01c0-18.8-15.24-34.03-34.03-34.03s-34.03,15.24-34.03,34.03"/>
	<text transform="matrix(1 0 0 1 519.8739 1973.4736)"><tspan x="0" y="0" class="st8 st20 st21">Engaged </tspan><tspan x="39.69" y="84" class="st8 st20 st21">citizen</tspan></text>
	<text transform="matrix(1 0 0 1 2011.6302 417.8035)" class="st8 st20 st22">User Engagement</text>
	<text transform="matrix(1 0 0 1 1013.4541 700.0315)"><tspan x="0" y="0" class="st8 st23 st24">Mapping Party </tspan><tspan x="42.88" y="96" class="st8 st23 st24">(in the field)</tspan></text>
	<text transform="matrix(1 0 0 1 2164.6924 700.0315)"><tspan x="0" y="0" class="st8 st23 st24">Weighting Party </tspan><tspan x="57.68" y="96" class="st8 st23 st24">(in your sofa)</tspan></text>
	<text transform="matrix(1 0 0 1 3406.2014 700.0315)"><tspan x="0" y="0" class="st8 st23 st24">Walking Party </tspan><tspan x="33.36" y="96" class="st8 st23 st24">(in the field)</tspan></text>
	<text transform="matrix(1 0 0 1 4117.9424 1973.4736)"><tspan x="0" y="0" class="st8 st20 st21">Final user </tspan><tspan x="27.33" y="84" class="st8 st20 st21">(Senior)</tspan></text>
	<text transform="matrix(1 0 0 1 1163.3141 1555.9521)"><tspan x="0" y="0" class="st2 st20 st21">Citizen </tspan><tspan x="-109.34" y="84" class="st2 st20 st21">surveyor app</tspan></text>
	<text transform="matrix(1 0 0 1 2318.8293 1540.9102)"><tspan x="0" y="0" class="st25 st20 st21">GeoDB &amp; </tspan><tspan x="29.44" y="84" class="st25 st20 st21">routing </tspan><tspan x="38.92" y="168" class="st25 st20 st21">engine</tspan></text>
	<text transform="matrix(1 0 0 1 2433.9182 2657.6887)"><tspan x="0" y="0" class="st8 st20 st21">ML </tspan><tspan x="-68.67" y="84" class="st8 st20 st21">engine</tspan></text>
	<text transform="matrix(1 0 0 1 3420.6753 1555.9521)"><tspan x="0" y="0" class="st2 st20 st21">Cartographic &amp; </tspan><tspan x="1.72" y="84" class="st2 st20 st21">navigation app</tspan></text>
	<rect x="413.2" y="2501.05" class="st26" width="1239.06" height="400.37"/>
	<rect x="3304.66" y="2501.05" class="st27" width="1249.06" height="400.37"/>
	<g>
		<circle class="st28" cx="678.18" cy="2408.53" r="66.12"/>
		<path class="st28" d="M681.4,2488.99c-63.76,0-118.36,47.94-118.36,130.05c0,15.59,1.46,48.22,2.2,63c0,0-0.2,41.85,48.75,36.74
			h0.52l2.07,210.42h-0.2c0,17.96,14.56,32.51,32.51,32.51s32.51-14.56,32.51-32.51c0,17.96,14.56,32.51,32.51,32.51
			s32.51-14.56,32.51-32.51h-0.2l2.07-210.42h0.52c48.95,5.11,48.75-36.74,48.75-36.74c0.74-14.77,2.2-47.41,2.2-63
			C799.76,2536.93,745.16,2488.99,681.4,2488.99z"/>
		<line class="st29" x1="681.4" y1="2923.35" x2="681.4" y2="2769.55"/>
		<line class="st29" x1="615.28" y1="2704.89" x2="615.28" y2="2581.41"/>
		<line class="st29" x1="747.52" y1="2704.89" x2="747.52" y2="2581.41"/>
	</g>
	<g>
		<circle class="st30" cx="4287.3" cy="2408.53" r="66.12"/>
		<path class="st30" d="M4290.52,2488.99c-63.76,0-118.36,47.94-118.36,130.05c0,15.59,1.46,48.22,2.2,63c0,0-0.2,41.85,48.75,36.74
			h0.52l2.07,210.42h-0.2c0,17.96,14.56,32.51,32.51,32.51c17.96,0,32.51-14.56,32.51-32.51c0,17.96,14.56,32.51,32.51,32.51
			s32.51-14.56,32.51-32.51h-0.2l2.07-210.42h0.52c48.95,5.11,48.75-36.74,48.75-36.74c0.74-14.77,2.2-47.41,2.2-63
			C4408.89,2536.93,4354.28,2488.99,4290.52,2488.99z"/>
		<line class="st31" x1="4290.52" y1="2923.35" x2="4290.52" y2="2769.55"/>
		<line class="st31" x1="4224.4" y1="2704.89" x2="4224.4" y2="2581.41"/>
		<line class="st31" x1="4356.65" y1="2704.89" x2="4356.65" y2="2581.41"/>
	</g>
	<text transform="matrix(1 0 0 1 464.0135 3098.6741)"><tspan x="0" y="0" class="st8 st20 st21">MoDoS R&amp;D </tspan><tspan x="-59.67" y="84" class="st8 st20 st21">Team members</tspan></text>
	<text transform="matrix(1 0 0 1 3954.9844 3098.6741)"><tspan x="0" y="0" class="st8 st20 st21">From trained turke </tspan><tspan x="1.75" y="84" class="st8 st20 st21">or engaged citizen </tspan><tspan x="139.93" y="168" class="st8 st20 st21">to mobility</tspan></text>
	<text transform="matrix(1 0 0 1 1054.2887 2681.1523)"><tspan x="0" y="0" class="st2 st20 st21">Mass capture </tspan><tspan x="2.07" y="84" class="st2 st20 st21">device &amp; app</tspan></text>
	<text transform="matrix(1 0 0 1 3502.1909 2681.1523)"><tspan x="0" y="0" class="st2 st20 st21">Weighting </tspan><tspan x="119.28" y="84" class="st2 st20 st21">app</tspan></text>
	<path class="st32" d="M4287.3,1018.46c-30.3,0-54.86,24.56-54.86,54.86c0,30.3,54.86,102.92,54.86,102.92s54.86-72.62,54.86-102.92
		C4342.16,1043.03,4317.6,1018.46,4287.3,1018.46z M4287.3,1110.18c-18.43,0-33.37-14.94-33.37-33.37
		c0-18.43,14.94-33.37,33.37-33.37c18.43,0,33.37,14.94,33.37,33.37C4320.67,1095.24,4305.73,1110.18,4287.3,1110.18z"/>
</g>
</svg>
