<?xml version="1.0" encoding="utf-8"?>
<!-- Generator: Adobe Illustrator 24.1.0, SVG Export Plug-In . SVG Version: 6.00 Build 0)  -->
<svg version="1.1" xmlns="http://www.w3.org/2000/svg" xmlns:xlink="http://www.w3.org/1999/xlink" x="0px" y="0px"
	 viewBox="0 0 3568.33 2992.26" style="enable-background:new 0 0 3568.33 2992.26;" xml:space="preserve">
<style type="text/css">
	.st0{fill:#FFFFFF;}
	.st1{fill:none;stroke:#FFFFFF;stroke-width:8;stroke-miterlimit:10;}
	.st2{fill:none;stroke:#FFFFFF;stroke-width:7.0116;stroke-miterlimit:10;}
	.st3{fill:#CCCCCC;}
	.st4{fill:#826DAF;}
	.st5{fill:#192144;}
	.st6{fill:#15306B;}
	.st7{fill:#47509D;}
	.st8{fill:#3B457F;}
	.st9{fill:#27A491;}
	.st10{fill:#208473;}
	.st11{fill:#FDC300;}
	.st12{fill:none;stroke:#FDC300;stroke-width:6.2011;stroke-linecap:round;stroke-linejoin:round;stroke-miterlimit:10;}
	.st13{fill:#121830;}
	.st14{fill:#9C8BD8;}
	.st15{fill:#3EB0CF;}
	.st16{fill:#2D3760;}
	.st17{fill:#D4C5FF;}
	.st18{fill:#112954;}
	.st19{fill:#B2A9D8;}
	.st20{fill:#6D5F96;}
	.st21{fill:none;stroke:#FDC300;stroke-width:4.5096;stroke-linecap:round;stroke-linejoin:round;stroke-miterlimit:10;}
</style>
<g id="Fond">
	<path class="st0" d="M697.64,636.57c-67.77,159.4,87.53,280.46,53.25,450.61c-78.48,389.5-378.41-90.75-298.12,844.92
		s453.41,1092.1,453.41,1092.1h3002.57V923.91c0,0-91.81,66.07-234.03-78.99c-109.63-111.82-215.61-433.65-540.45-484.87
		C2529.33,264.67,765.41,477.17,697.64,636.57z"/>
	<path class="st1" d="M640.59,575.51c-67.77,157.27,87.53,276.71,53.25,444.59c-74.91,366.81-382.65-138.38-298.12,833.63
		C476,2776.89,849.13,2931.24,849.13,2931.24H3851.7V859.01c0,0-91.81,65.19-234.03-77.93
		c-109.63-110.33-215.61-427.86-540.45-478.39C2472.28,208.58,708.36,418.24,640.59,575.51z"/>
	<path class="st1" d="M640.59,758.51c-67.77,157.27,87.53,276.71,53.25,444.59c-74.91,366.81-382.65-138.38-298.12,833.63
		C476,2959.9,849.13,3114.24,849.13,3114.24H3851.7V1042.02c0,0-91.81,65.19-234.03-77.93
		c-109.63-110.33-215.61-427.86-540.45-478.39C2472.28,391.58,708.36,601.24,640.59,758.51z"/>
	<path class="st1" d="M675.32,470.06c-77.58,152.67,69.85,281.69,25.02,447.07c-97.96,361.34-373.13-162.31-350.26,813.1
		c21.73,926.4,384.34,1104.03,384.34,1104.03l2996.56,189.94l131.09-2068.07c0,0-95.75,59.25-228.63-92.58
		c-102.43-117.04-188.11-440.64-509.1-511.62C2526.56,219.74,752.9,317.39,675.32,470.06z"/>
	<path class="st1" d="M546.19,932.28c-42.01,166.02,130.25,259.35,122.99,430.55c-15.86,374.05-399.74-76.03-162.33,870.32
		c225.48,898.8,618.34,992.1,618.34,992.1l2964.67-475.54l-328.2-2046.07c0,0-80.33,78.91-243.42-39.88
		c-125.72-91.57-280.65-388.31-609.39-386.76C2296.66,279.88,588.2,766.26,546.19,932.28z"/>
	<path class="st1" d="M819.08,1006.96c-42.01,166.02,130.25,259.35,122.99,430.55c-15.86,374.05-399.74-76.03-162.33,870.32
		c225.48,898.8,618.34,992.1,618.34,992.1l2964.67-475.54l-328.2-2046.07c0,0-80.33,78.91-243.42-39.88
		c-125.72-91.57-280.65-388.31-609.39-386.76C2569.54,354.56,861.08,840.94,819.08,1006.96z"/>
</g>
<g id="Personnages">
	<g>
		<g>
			<path class="st3" d="M906.18,2828.36c95-1.95,190-3.33,285-4.73l285,0.05h570h570h285c95,1.42,190,2.81,285,4.69
				c-95,1.88-190,3.26-285,4.69h-285h-570h-570l-285,0.05C1096.18,2831.69,1001.18,2830.31,906.18,2828.36z"/>
		</g>
		<g>
			<g>
				<g>
					<path class="st4" d="M2476.49,965.77c-6.58,0.78-27.24,15.75-45.67,64.24c-24.78,65.2-47.59,168.77-46.48,168.71
						c-10.66,21.28-21.32,42.56-31.99,63.84c-48.57-19.4-92.8-42.7-136.96-65.96c-12.75-6.72-25.65-13.55-34.11-23.19
						c-10.5-11.97-13.6-27.61-21.79-40.8c-4.33-6.98-15.71-9.8-24.31-14c-7.64-3.73-12.05-9.32-23.15-8.33
						c-11.33,1.02-19.92,8.36-30.74,13.68c-14.76,7.25-36.55,15.56-49.25,25.06c11.78,5.46,65.56,33.5,52.6,42.4
						c26,8.4,45.71,3.73,64.86,17.88c49.17,36.33,98.12,91.66,147.29,127.99c16.09,11.89,34.38,24.34,61.98,22.85
						c4.9-0.26,10.39-1.12,14.93-3.79c3.47-2.04,5.86-4.84,8.09-7.52c36.63-44.03,68.44-89.11,94.9-134.49l-1.98-1.09
						c2.52-4.44,4.1-8.92,4.59-13.2l27.87-40.43C2507.19,1159.62,2491.92,963.95,2476.49,965.77z"/>
				</g>
				<g>
					<path class="st4" d="M2775.16,1859.57c-0.86,24.27-32.95,824.64-33.81,848.91c-0.03,0.95-0.11,2.01-0.75,2.64
						c-0.72,0.71-1.8,0.56-2.74,0.37c-13.9-2.86-27.79-5.71-41.69-8.57c-3.12-27.57-127.54-825.11-129.38-852.84L2775.16,1859.57z"
						/>
				</g>
				<g>
					<path class="st4" d="M2563.8,1910.79c5.36,23.31-39.62,773.06-34.26,796.37c-23.55-6.82-13.62,3.23-37.92,0
						c-1.08-0.14-162.18-800.35-83.92-796.37H2563.8z"/>
				</g>
				<g>
					<path class="st4" d="M2682,812.35c5.22-0.19,10.67,0.08,15.29,2.53c6.36,3.38,10.13,10.68,10.18,17.88s-3.26,14.17-8.16,19.45
						c-3.6,3.89-8.23,7.04-13.46,7.9c-5.23,0.87-21.96-4.51-25.09-8.78c0,0-8.56,40.22-9.16,52.35c-0.84,17.04,0.01,42.28,6,58.26
						l3.16,17.38c-8.66,32.61-31.11,64-58.47,83.75c-7.06,5.1-71.85,83.79-80.28,85.96s-14.67-53.51-21.64-58.73
						c-9.93-7.44,13.33-72.18,16.14-84.27c2.81-12.09,11.24-34.31,22.58-39.35c22.6-10.04,42.27-55.03,41.08-63.21
						c0,0-48.86,12.39-71.11,0c-22.25-12.39-27.8-50.55-29.15-58.54c-4.79-28.33,12.83-85.2,18.66-113.33l-0.51-3.17
						c11.67-4.12,21.76-12.97,26.5-24.44c7.67,12.03,25.56,16.02,37.62,8.4c9.56-6.04,14.37-17.2,21.86-25.68
						c1.55-1.75,3.44-3.5,5.77-3.65c2.06-0.13,3.97,1.02,5.67,2.2c11.19,7.72,36.32,18.1,48.27,24.57
						c5.98,3.24,12.52,5.43,18.26,9.07c5.74,3.65,10.82,9.23,11.5,16c0.43,4.25,6.99,48.01,7.21,52.28s-1.78,24.86,2.5,24.88
						L2682,812.35z"/>
				</g>
				<g>
					<g>
						<path class="st5" d="M2563.48,849.5c-0.11,0.17-0.22,0.33-0.33,0.49c-0.19,0.28-0.47,0.35,0.06-0.06
							c-0.26,0.2-0.47,0.55-0.7,0.8c-0.27,0.29-0.55,0.56-0.84,0.82c-0.15,0.13-0.3,0.26-0.45,0.38c-0.36,0.3-0.01-0.05,0.16-0.12
							c-0.33,0.13-0.67,0.48-0.97,0.66c-0.33,0.21-0.68,0.4-1.02,0.59c-0.14,0.07-0.28,0.14-0.42,0.21
							c-0.07,0.03-0.71,0.4-0.22,0.11c0.47-0.28-0.11,0.04-0.24,0.09c-0.18,0.07-0.37,0.13-0.56,0.2c-0.71,0.23-1.44,0.42-2.18,0.55
							c-0.15,0.03-0.31,0.04-0.47,0.07c0.91-0.2,0.36-0.05,0.12-0.03c-0.39,0.03-0.78,0.05-1.18,0.06c-0.35,0-0.71-0.01-1.06-0.03
							c-0.2-0.01-0.39-0.04-0.59-0.05c-0.45-0.03,0.78,0.15,0.12,0.01c-0.78-0.16-1.53-0.34-2.28-0.6c-1.74-0.62-3.94,0.7-4.34,2.47
							c-0.45,1.98,0.6,3.68,2.47,4.34c7.68,2.72,16.63-0.67,21.02-7.4c1.01-1.55,0.36-3.97-1.27-4.83
							C2566.55,847.3,2564.56,847.84,2563.48,849.5L2563.48,849.5z"/>
					</g>
				</g>
				<g>
					<g>
						<path class="st5" d="M2559.5,781.67c-5.32,5.34-9.99,11.35-14.38,17.47c-4.67,6.52-9,13.32-12.77,20.4
							c-1.97,3.69-3.75,7.47-5.28,11.36c-0.7,1.78,0.77,3.88,2.47,4.34c2,0.55,3.65-0.68,4.34-2.47c0.15-0.38,0.3-0.76,0.46-1.14
							c0.02-0.04,0.21-0.52,0.06-0.16c-0.17,0.4,0.09-0.22,0.13-0.31c0.33-0.75,0.66-1.5,1.01-2.25c0.76-1.64,1.57-3.25,2.4-4.85
							c1.79-3.42,3.71-6.76,5.74-10.04c2.07-3.36,4.25-6.66,6.52-9.89c1.15-1.64,2.33-3.27,3.54-4.87c1.12-1.49,1.85-2.44,3.12-4.01
							c2.41-2.98,4.93-5.88,7.63-8.6C2567.71,783.44,2562.72,778.44,2559.5,781.67L2559.5,781.67z"/>
					</g>
				</g>
				<g>
					<g>
						<path class="st5" d="M2538.91,835.08c-4.77-2.4-9.31-5.22-13.57-8.43c-0.68-0.51-1.94-0.57-2.72-0.36
							c-0.82,0.23-1.71,0.86-2.11,1.62c-0.43,0.82-0.65,1.81-0.36,2.72c0.3,0.93,0.85,1.53,1.62,2.11c4.26,3.21,8.8,6.03,13.57,8.43
							c1.65,0.83,3.9,0.49,4.83-1.27C2541.02,838.31,2540.67,835.97,2538.91,835.08L2538.91,835.08z"/>
					</g>
				</g>
				<g>
					<path class="st5" d="M2514.22,791.21c-0.3-1.74,2.29-2.85,3.73-1.83c1.44,1.02,1.67,3.12,1.2,4.82
						c-0.58,2.08-2.58,4.1-4.65,3.47c-1.43-0.44-2.26-2.05-2.22-3.54c0.05-1.5,0.79-2.88,1.65-4.11"/>
					<g>
						<path class="st5" d="M2517.62,790.27c0-0.03-0.01-0.06-0.01-0.09c0.04,0.31,0.08,0.63,0.13,0.94c-0.01-0.12-0.01-0.23,0-0.35
							c-0.04,0.31-0.08,0.63-0.13,0.94c0.02-0.14,0.05-0.27,0.1-0.41c-0.12,0.28-0.24,0.56-0.36,0.84c0.07-0.16,0.15-0.3,0.25-0.43
							c-0.18,0.24-0.37,0.48-0.55,0.71c0.11-0.14,0.23-0.25,0.37-0.36c-0.24,0.18-0.48,0.37-0.71,0.55c0.2-0.15,0.4-0.26,0.63-0.36
							c-0.28,0.12-0.56,0.24-0.84,0.36c0.23-0.09,0.47-0.15,0.72-0.19c-0.31,0.04-0.63,0.08-0.94,0.13c0.25-0.03,0.49-0.03,0.74,0
							c-0.31-0.04-0.63-0.08-0.94-0.13c0.18,0.03,0.36,0.08,0.53,0.14c-0.28-0.12-0.56-0.24-0.84-0.36
							c0.18,0.08,0.34,0.17,0.49,0.29c-0.24-0.18-0.48-0.37-0.71-0.55c0.2,0.16,0.38,0.34,0.54,0.54c-0.18-0.24-0.37-0.48-0.55-0.71
							c0.18,0.24,0.32,0.48,0.44,0.75c-0.12-0.28-0.24-0.56-0.36-0.84c0.16,0.38,0.26,0.78,0.31,1.19
							c-0.04-0.31-0.08-0.63-0.13-0.94c0.06,0.5,0.05,0.99-0.02,1.49c0.04-0.31,0.08-0.63,0.13-0.94c-0.08,0.51-0.21,1-0.41,1.47
							c0.12-0.28,0.24-0.56,0.36-0.84c-0.2,0.46-0.45,0.88-0.76,1.28c0.18-0.24,0.37-0.48,0.55-0.71c-0.26,0.32-0.54,0.61-0.86,0.86
							c0.24-0.18,0.48-0.37,0.71-0.55c-0.28,0.21-0.58,0.39-0.9,0.53c0.28-0.12,0.56-0.24,0.84-0.36c-0.25,0.1-0.49,0.17-0.76,0.21
							c0.31-0.04,0.63-0.08,0.94-0.13c-0.23,0.02-0.45,0.03-0.68,0c0.31,0.04,0.63,0.08,0.94,0.13c-0.23-0.03-0.45-0.09-0.67-0.17
							c0.28,0.12,0.56,0.24,0.84,0.36c-0.25-0.11-0.46-0.24-0.68-0.4c0.24,0.18,0.48,0.37,0.71,0.55c-0.21-0.17-0.38-0.36-0.55-0.57
							c0.18,0.24,0.37,0.48,0.55,0.71c-0.18-0.25-0.33-0.51-0.46-0.8c0.12,0.28,0.24,0.56,0.36,0.84c-0.13-0.33-0.23-0.66-0.28-1.01
							c0.04,0.31,0.08,0.63,0.13,0.94c-0.05-0.42-0.05-0.83,0.01-1.25c-0.04,0.31-0.08,0.63-0.13,0.94
							c0.08-0.51,0.22-0.99,0.42-1.47c-0.12,0.28-0.24,0.56-0.36,0.84c0.31-0.74,0.73-1.42,1.18-2.08c0.5-0.72,0.58-1.91,0.36-2.72
							c-0.23-0.82-0.86-1.71-1.62-2.11c-0.82-0.43-1.81-0.65-2.72-0.36c-0.91,0.3-1.56,0.83-2.11,1.62
							c-1.68,2.41-2.82,5.65-1.68,8.53c0.63,1.61,1.67,3.13,3.3,3.87c0.93,0.42,1.87,0.72,2.91,0.67c1.11-0.05,1.98-0.31,2.97-0.8
							c1.34-0.66,2.48-1.91,3.24-3.18c0.8-1.34,1.17-2.83,1.27-4.37c0.19-3.05-1.57-6.59-4.75-7.32c-1.64-0.38-3.51-0.16-4.91,0.81
							c-0.78,0.53-1.5,1.18-1.93,2.04c-0.21,0.43-0.41,0.86-0.49,1.33c-0.17,1.02-0.13,1.28,0.01,2.32
							c0.12,0.81,0.95,1.72,1.62,2.11c0.76,0.44,1.87,0.63,2.72,0.36c0.85-0.28,1.68-0.81,2.11-1.62c0.12-0.28,0.24-0.56,0.36-0.84
							C2517.79,791.52,2517.79,790.9,2517.62,790.27L2517.62,790.27z"/>
					</g>
				</g>
				<g>
					<path class="st5" d="M2587.36,811.47c0.18-0.95,1.3-1.49,2.25-1.32c0.95,0.17,1.72,0.87,2.3,1.64
						c1.72,2.31,2.02,5.73,0.35,8.07c-1.67,2.34-5.4,3.07-7.59,1.2c-1.63-1.39-2.12-3.81-1.56-5.88s2.01-3.79,3.69-5.12"/>
					<g>
						<path class="st5" d="M2590.77,812.41c0.02-0.09,0.05-0.18,0.08-0.27c-0.12,0.28-0.24,0.56-0.36,0.84
							c0.06-0.13,0.13-0.24,0.21-0.36c-0.18,0.24-0.37,0.48-0.55,0.71c0.1-0.11,0.19-0.2,0.3-0.29c-0.24,0.18-0.48,0.37-0.71,0.55
							c0.16-0.11,0.32-0.2,0.5-0.28c-0.28,0.12-0.56,0.24-0.84,0.36c0.19-0.07,0.37-0.11,0.57-0.14c-0.31,0.04-0.63,0.08-0.94,0.13
							c0.15-0.01,0.29-0.01,0.44,0c-0.31-0.04-0.63-0.08-0.94-0.13c0.28,0.04,0.53,0.11,0.78,0.22c-0.28-0.12-0.56-0.24-0.84-0.36
							c0.26,0.13,0.49,0.27,0.72,0.45c-0.24-0.18-0.48-0.37-0.71-0.55c0.31,0.26,0.58,0.54,0.84,0.86
							c-0.18-0.24-0.37-0.48-0.55-0.71c0.4,0.53,0.73,1.09,0.99,1.7c-0.12-0.28-0.24-0.56-0.36-0.84c0.25,0.61,0.42,1.24,0.51,1.89
							c-0.04-0.31-0.08-0.63-0.13-0.94c0.08,0.65,0.08,1.29,0,1.94c0.04-0.31,0.08-0.63,0.13-0.94c-0.08,0.53-0.22,1.05-0.42,1.55
							c0.12-0.28,0.24-0.56,0.36-0.84c-0.19,0.44-0.42,0.85-0.71,1.24c0.18-0.24,0.37-0.48,0.55-0.71c-0.29,0.37-0.62,0.7-1,0.99
							c0.24-0.18,0.48-0.37,0.71-0.55c-0.38,0.28-0.79,0.51-1.23,0.7c0.28-0.12,0.56-0.24,0.84-0.36c-0.48,0.2-0.98,0.33-1.5,0.41
							c0.31-0.04,0.63-0.08,0.94-0.13c-0.47,0.06-0.93,0.06-1.39,0.01c0.31,0.04,0.63,0.08,0.94,0.13c-0.46-0.06-0.9-0.18-1.33-0.36
							c0.28,0.12,0.56,0.24,0.84,0.36c-0.34-0.16-0.65-0.34-0.95-0.57c0.24,0.18,0.48,0.37,0.71,0.55
							c-0.29-0.23-0.53-0.49-0.77-0.78c0.18,0.24,0.37,0.48,0.55,0.71c-0.26-0.34-0.46-0.7-0.64-1.09c0.12,0.28,0.24,0.56,0.36,0.84
							c-0.21-0.5-0.34-1.01-0.43-1.54c0.04,0.31,0.08,0.63,0.13,0.94c-0.07-0.59-0.07-1.18,0-1.77c-0.04,0.31-0.08,0.63-0.13,0.94
							c0.09-0.61,0.26-1.19,0.5-1.77c-0.12,0.28-0.24,0.56-0.36,0.84c0.3-0.69,0.69-1.33,1.14-1.93c-0.18,0.24-0.37,0.48-0.55,0.71
							c0.64-0.83,1.39-1.56,2.21-2.21c0.66-0.53,1.03-1.69,1.03-2.5c0-0.87-0.38-1.9-1.03-2.5c-0.67-0.62-1.56-1.08-2.5-1.03
							c-0.99,0.04-1.73,0.42-2.5,1.03c-2.8,2.23-4.89,5.55-4.94,9.21c-0.05,3.82,2.29,7.56,6.08,8.57c3.23,0.87,7.12-0.24,9.23-2.89
							c2.58-3.21,2.77-7.37,1.1-11.05c-0.94-2.08-2.69-3.9-4.9-4.6c-2.83-0.89-6.19,0.78-6.92,3.71c-0.44,1.79,0.57,3.91,2.47,4.34
							C2588.25,815.3,2590.29,814.33,2590.77,812.41L2590.77,812.41z"/>
					</g>
				</g>
				<g>
					<g>
						<path class="st5" d="M2617.14,783c-1.76-7.04-7.37-12.8-14.29-14.91c-1.77-0.54-3.93,0.64-4.34,2.47
							c-0.43,1.91,0.57,3.77,2.47,4.34c0.35,0.11,0.69,0.22,1.03,0.35c0.17,0.06,0.34,0.13,0.51,0.2c-1.04-0.4-0.41-0.17-0.18-0.07
							c0.66,0.3,1.29,0.65,1.91,1.04c0.31,0.19,0.61,0.4,0.9,0.61c0.22,0.16,0.67,0.58-0.14-0.12c0.11,0.1,0.24,0.19,0.35,0.28
							c0.56,0.46,1.09,0.96,1.59,1.48c0.23,0.24,0.45,0.49,0.67,0.74c0.12,0.14,0.23,0.28,0.35,0.42c0.42,0.51-0.47-0.64-0.11-0.14
							c0.42,0.59,0.82,1.19,1.18,1.83c0.18,0.32,0.34,0.64,0.5,0.96c0.08,0.16,0.15,0.33,0.23,0.49c0.26,0.57-0.31-0.8-0.08-0.18
							c0.25,0.68,0.48,1.36,0.66,2.07c0.45,1.79,2.56,3.04,4.34,2.47C2616.53,786.75,2617.62,784.92,2617.14,783L2617.14,783z"/>
					</g>
				</g>
				<g>
					<g>
						<path class="st5" d="M2544.48,754.5c-7.36-2.08-15.19-2.16-22.6-0.29c-1.79,0.45-3.05,2.56-2.47,4.34
							c0.6,1.85,2.42,2.95,4.34,2.47c3.34-0.84,5.86-1.15,9.44-1.1c0.83,0.01,1.65,0.05,2.48,0.11c0.38,0.03,0.76,0.06,1.14,0.1
							c0.25,0.03,0.51,0.06,0.76,0.09c-0.25-0.03-0.24-0.03,0.01,0c1.7,0.25,3.37,0.62,5.03,1.09c1.78,0.5,3.92-0.62,4.34-2.47
							C2547.38,756.97,2546.38,755.04,2544.48,754.5L2544.48,754.5z"/>
					</g>
				</g>
				<g>
					<path class="st6" d="M2659.18,833.94c1.58-23.7-10.95-43.09-18.96-55.31c-11.34-17.29-19.81-72.81-22.12-72.69
						c-2.61,0.14-62.02,31.93-72.69,37.92c-13.45,7.56-57.35,25.43-79.01,22.12c-0.52-0.08,3-10.14,1.58-18.96
						c-1.72-10.7-7.36-21.94,6.43-41.58c25.17-35.84,18.85-65.87,93.12-72.19c74.27-6.32,63.97,31.85,86.91,42.66
						c19.15,9.03,60.41,32.16,71.11,48.98c6.98,10.98-8.88,56.29-13.76,64.95C2706.92,798.51,2659.18,833.94,2659.18,833.94z"/>
				</g>
				<g>
					<path class="st7" d="M2754.8,983.65c-18.24,0.33-97.2-21.72-97.2-21.72c9.07,45.72-119.91,162.3-142.21,154.85
						c-8.78-2.93,3.15-95.83,6.11-107.91c2.96-12.08,10.09-22.82,15.24-34.23c0.65-1.45,8.08-11.24,8.67-12.72
						c0,0-41.17,0.82-61.76,1.46c-22,0.69-30.88,57.1-38.89,77.01c-4.64,11.54-26.82,90.94-23.13,106.83
						c4.63,19.94,48.59,98.79,51.14,101.08c3.13,2.8-17.16,143.19-12.85,143.4c60.99,2.98,135.5-54.03,196.55-54.13
						c16.81-55.02,71.79-81.26,64.24-141.89c11.97-26.51,17.03-55.76,14.63-84.53c-1.96-23.46-25.94-52.11-25.39-75.62
						c0.55-23.51,16.33-35.98,38.72-46.52L2754.8,983.65z"/>
				</g>
				<g>
					<g>
						<path class="st8" d="M2561.96,1233.58c18.64,6.62,38.75,9.11,58.45,7.44c1.96-0.17,3.65-1.56,3.65-3.65
							c0-1.85-1.68-3.82-3.65-3.65c-19.22,1.63-38.33-0.72-56.51-7.18c-1.86-0.66-4,0.75-4.49,2.55
							C2558.85,1231.11,2560.09,1232.92,2561.96,1233.58L2561.96,1233.58z"/>
					</g>
				</g>
				<g>
					<path class="st9" d="M2700.08,2699.94c13.32,0.55,26.63,1.1,39.95,1.66c2.15,0.09,4.46,0.23,6.17,1.54
						c1.43,1.09,2.2,2.8,2.89,4.46c3.98,9.64,6.72,19.79,8.15,30.12c0.94,6.85,1.39,14.04,4.84,20.04
						c5.61,9.75,17.37,13.67,26.88,19.69c16.26,10.29,27.08,28.71,28.14,47.92c-22.72-1.81-103.4,1.93-112.36-4.27
						c-6.74-4.66-7.77-14.03-8.18-22.21c-0.77-15.45-1.53-30.89-2.3-46.34c-0.93-18.69-1.71-38.2,5.94-55.27"/>
				</g>
				<g>
					<g>
						<path class="st10" d="M2752.55,2724.5c-7.16-2.27-15.01-2.29-22.17-0.06c-1.76,0.55-3.07,2.49-2.47,4.34
							c0.57,1.77,2.46,3.05,4.34,2.47c6.22-1.93,12.22-1.91,18.42,0.06c1.76,0.56,3.93-0.66,4.34-2.47
							C2755.46,2726.91,2754.44,2725.09,2752.55,2724.5L2752.55,2724.5z"/>
					</g>
				</g>
				<g>
					<g>
						<path class="st10" d="M2757.34,2739.71c-7.44-0.33-14.88-0.66-22.32-1c-1.85-0.08-3.61,1.68-3.53,3.53
							c0.09,1.98,1.55,3.44,3.53,3.53c7.44,0.33,14.88,0.66,22.32,1c1.85,0.08,3.61-1.68,3.53-3.53
							C2760.78,2741.25,2759.32,2739.79,2757.34,2739.71L2757.34,2739.71z"/>
					</g>
				</g>
				<g>
					<path class="st10" d="M2695.31,2762.42c4.58-3.69,11.5-0.34,15.48,3.98c5.32,5.78,8.76,14.19,6.09,21.58
						c-2.68,7.39-13.28,11.49-18.93,6.02L2695.31,2762.42z"/>
				</g>
				<g>
					<path class="st9" d="M2527.84,2699.94c-13.32,0.55-26.63,1.1-39.95,1.66c-2.15,0.09-4.46,0.23-6.17,1.54
						c-1.43,1.09-2.2,2.8-2.89,4.46c-3.98,9.64-6.72,19.79-8.15,30.12c-0.94,6.85-1.39,14.04-4.84,20.04
						c-5.61,9.75-56.01,15.22-65.52,21.23c-16.26,10.29-27.08,28.71-28.14,47.92c22.72-1.81,142.04,0.38,151-5.81
						c6.74-4.66,7.77-14.03,8.18-22.21c0.77-15.45,1.53-30.89,2.3-46.34c0.93-18.69,1.71-38.2-5.94-55.27"/>
				</g>
				<g>
					<g>
						<path class="st10" d="M2477.24,2731.31c6.2-1.97,12.21-1.99,18.42-0.06c1.76,0.55,3.93-0.65,4.34-2.47
							c0.44-1.92-0.58-3.76-2.47-4.34c-7.17-2.23-15.02-2.21-22.17,0.06c-1.76,0.56-3.07,2.48-2.47,4.34
							C2473.47,2730.6,2475.35,2731.91,2477.24,2731.31L2477.24,2731.31z"/>
					</g>
				</g>
				<g>
					<g>
						<path class="st10" d="M2470.58,2746.77c7.44-0.33,14.88-0.66,22.32-1c1.84-0.08,3.62-1.57,3.53-3.53
							c-0.08-1.84-1.55-3.62-3.53-3.53c-7.44,0.33-14.88,0.66-22.32,1c-1.84,0.08-3.62,1.57-3.53,3.53
							C2467.13,2745.08,2468.6,2746.86,2470.58,2746.77L2470.58,2746.77z"/>
					</g>
				</g>
				<g>
					<path class="st10" d="M2532.6,2762.42c-4.58-3.69-11.5-0.34-15.48,3.98c-5.33,5.78-8.76,14.19-6.09,21.58
						c2.68,7.39,13.28,11.49,18.93,6.02L2532.6,2762.42z"/>
				</g>
				<g>
					<path class="st5" d="M2466.4,1306.4c-7.65-9.14-164.04,556.68-210.4,693.63c-25.56,75.51,603.77,113.51,603.08,84
						c-4.48-192.9-43.55-385-98.28-570.69c-23.98-81.37-38.7-147.9-94.57-207.94C2672.51,1318.58,2491.12,1335.95,2466.4,1306.4z"/>
				</g>
				<g>
					<g>
						<path class="st11" d="M2541.58,785.25c0.53,0.04,1.06,0.09,1.59,0.16c-0.52-0.07-0.01,0,0.24,0.04
							c0.28,0.05,0.57,0.09,0.85,0.15c1.19,0.22,2.38,0.48,3.56,0.78c2.47,0.62,4.91,1.36,7.33,2.15c4.63,1.51,9.2,3.23,13.86,4.67
							c1.8,0.55,3.8-0.66,4.29-2.44c0.51-1.87-0.63-3.74-2.44-4.29c-9.63-2.96-19.12-7.43-29.28-8.19c-1.88-0.14-3.49,1.7-3.49,3.49
							C2538.09,783.77,2539.69,785.11,2541.58,785.25L2541.58,785.25z"/>
					</g>
				</g>
				<g>
					<g>
						<path class="st11" d="M2629.71,806.71c13.71,2.02,26.98,2.33,40.12,5.45c4.37,1.04,8.68,2.34,12.92,3.82
							c1.78,0.62,3.82-0.71,4.29-2.44c0.53-1.92-0.65-3.67-2.44-4.29c-7.01-2.44-14.19-4.33-21.52-5.52
							c-6.56-1.06-13.19-1.65-19.8-2.32c-3.99-0.41-7.96-0.86-11.72-1.42c-1.86-0.27-3.75,0.46-4.29,2.44
							C2626.82,804.06,2627.83,806.43,2629.71,806.71L2629.71,806.71z"/>
					</g>
				</g>
				<circle class="st12" cx="2507.86" cy="785.8" r="33.33"/>
				<circle class="st12" cx="2596.08" cy="813.13" r="33.33"/>
				<g>
					<g>
						<path class="st13" d="M2553.85,1544.86c-0.92,6.15-1.35,12.39-1.87,18.59c-0.94,11.31-1.78,22.64-2.6,33.96
							c-1.12,15.5-2.2,31-3.25,46.5c-1.24,18.24-2.46,36.48-3.66,54.73c-1.3,19.8-2.59,39.61-3.88,59.41
							c-1.29,19.97-2.58,39.94-3.86,59.92c-1.2,18.74-2.4,37.49-3.61,56.23c-1.05,16.28-2.1,32.56-3.16,48.84
							c-0.82,12.55-1.64,25.09-2.5,37.64c-0.51,7.41-0.99,14.83-1.6,22.24c-0.07,0.87-0.15,1.75-0.23,2.62
							c-0.18,1.9,1.75,3.53,3.53,3.53c2.06,0,3.35-1.62,3.53-3.53c0.57-5.96,0.94-11.94,1.35-17.91
							c0.79-11.31,1.54-22.63,2.28-33.95c1.02-15.52,2.02-31.05,3.02-46.57c1.18-18.26,2.35-36.51,3.52-54.77
							c1.27-19.73,2.53-39.46,3.81-59.2c1.28-19.9,2.57-39.79,3.88-59.68c1.23-18.75,2.47-37.49,3.73-56.24
							c1.1-16.34,2.22-32.68,3.38-49.02c0.88-12.46,1.79-24.91,2.77-37.36c0.59-7.45,1.15-14.9,1.99-22.33
							c0.05-0.48,0.11-0.95,0.17-1.43c0.13-1.1-0.14,0.95,0.05-0.35c0.28-1.88-0.47-3.8-2.47-4.34
							C2556.53,1541.93,2554.14,1542.96,2553.85,1544.86L2553.85,1544.86z"/>
					</g>
				</g>
				<g>
					<g>
						<path class="st13" d="M2511.19,1647.57c-0.81,5.37-1.55,10.74-2.3,16.12c-1.38,9.84-2.75,19.68-4.11,29.52
							c-1.84,13.28-3.66,26.56-5.48,39.85c-2.12,15.47-4.23,30.93-6.34,46.4c-2.29,16.81-4.57,33.61-6.85,50.42
							c-2.28,16.8-4.55,33.61-6.81,50.41c-2.18,16.17-4.34,32.34-6.5,48.51c-1.85,13.89-3.69,27.78-5.51,41.67
							c-1.41,10.77-2.82,21.55-4.18,32.32c-0.83,6.57-1.67,13.14-2.4,19.72c-0.09,0.84-0.18,1.68-0.26,2.52
							c-0.18,1.9,1.75,3.53,3.53,3.53c2.06,0,3.35-1.63,3.53-3.53c0.52-5.4,1.23-10.78,1.9-16.17c1.23-9.86,2.5-19.71,3.79-29.56
							c1.72-13.18,3.46-26.35,5.21-39.53c2.06-15.52,4.14-31.05,6.22-46.57c1.05-7.8,2.15-16.02,3.26-24.22
							c1.14-8.49,2.29-16.98,3.44-25.47c2.27-16.8,4.55-33.61,6.84-50.41c2.17-15.91,4.34-31.83,6.52-47.74
							c1.9-13.87,3.8-27.75,5.72-41.62c1.48-10.71,2.96-21.43,4.46-32.14c0.92-6.56,1.83-13.12,2.78-19.67
							c0.12-0.84,0.24-1.67,0.37-2.51c0.28-1.88-0.47-3.8-2.47-4.34C2513.87,1644.64,2511.48,1645.67,2511.19,1647.57
							L2511.19,1647.57z"/>
					</g>
				</g>
				<g>
					<g>
						<path class="st13" d="M2653.28,1618.48c0.12,5.32,0.49,10.63,0.82,15.94c0.59,9.62,1.24,19.24,1.9,28.86
							c0.89,12.88,1.81,25.77,2.74,38.65c1.09,15.03,2.19,30.07,3.3,45.1c1.2,16.26,2.42,32.53,3.64,48.79
							c1.23,16.39,2.47,32.78,3.72,49.17c1.17,15.41,2.35,30.82,3.53,46.23c1.03,13.51,2.07,27.02,3.11,40.53
							c0.81,10.5,1.62,21,2.43,31.5c0.5,6.44,0.99,12.89,1.49,19.33c0.06,0.83,0.13,1.66,0.19,2.5c0.15,1.9,1.52,3.53,3.53,3.53
							c1.8,0,3.68-1.62,3.53-3.53c-0.4-5.31-0.82-10.61-1.22-15.92c-0.74-9.62-1.48-19.23-2.22-28.85
							c-0.99-12.88-1.98-25.76-2.97-38.64c-1.15-15.03-2.3-30.06-3.45-45.09c-1.24-16.26-2.47-32.52-3.7-48.79
							c-1.24-16.39-2.47-32.78-3.68-49.17c-1.15-15.41-2.28-30.82-3.4-46.23c-0.98-13.51-1.96-27.03-2.9-40.54
							c-0.73-10.5-1.46-21.01-2.13-31.52c-0.41-6.45-0.84-12.9-1.1-19.35c-0.03-0.83-0.07-1.67-0.08-2.5
							C2660.24,1613.94,2653.17,1613.93,2653.28,1618.48L2653.28,1618.48z"/>
					</g>
				</g>
				<g>
					<g>
						<path class="st14" d="M2652.32,2232.33c-1.37,13.24-1.73,26.57-1.07,39.86c0.09,1.86,1.52,3.45,3.45,3.45
							c1.8,0,3.55-1.58,3.45-3.45c-0.66-13.3-0.3-26.62,1.07-39.86c0.19-1.86-1.73-3.45-3.45-3.45
							C2653.75,2228.88,2652.52,2230.47,2652.32,2232.33L2652.32,2232.33z"/>
					</g>
				</g>
				<g>
					<g>
						<path class="st14" d="M2422.01,2251.6c-0.59,6.11,1.38,11.62,4.29,16.9c1.25,2.27,2.54,4.51,3.63,6.87
							c0.33,0.73-0.11-0.33,0.15,0.36c0.14,0.36,0.28,0.71,0.4,1.07c0.24,0.69,0.46,1.38,0.64,2.09c0.18,0.68,0.31,1.37,0.45,2.06
							c0.14,0.74,0.01-0.16,0.08,0.54c0.05,0.51,0.09,1.02,0.12,1.53c0.11,1.86,1.51,3.46,3.46,3.46c1.79,0,3.56-1.58,3.45-3.46
							c-0.36-6.24-2.81-11.57-5.82-16.94c-0.62-1.11-1.24-2.22-1.8-3.35c-0.29-0.59-0.58-1.19-0.84-1.79
							c0.3,0.69-0.09-0.24-0.11-0.31c-0.11-0.29-0.21-0.58-0.31-0.87c-0.22-0.65-0.41-1.3-0.57-1.96c-0.09-0.37-0.16-0.73-0.23-1.1
							c-0.03-0.14-0.14-1.08-0.07-0.39c-0.17-1.56-0.16-3.12-0.01-4.69c0.18-1.86-1.72-3.45-3.45-3.45
							C2423.45,2248.15,2422.19,2249.74,2422.01,2251.6L2422.01,2251.6z"/>
					</g>
				</g>
			</g>
			<g>
				<g>
					<g>
						<g>
							<g>
								<path class="st4" d="M1413.27,1209.41c-13.96-18.27-18.74-42.25-17.74-65.23c1-22.98,7.29-45.35,13.55-67.48
									c-12.11,8.17-24.22,16.35-36.32,24.52c-3.2,2.16-6.73,4.41-10.58,4.13c-4.55-0.34-8.01-4.06-10.98-7.52
									c-16.25-18.94-32.51-37.89-48.76-56.83c-6.83,9.5-1.14,22.66,5.02,32.61c6.16,9.94,12.93,22.11,7.73,32.59
									c-16.09-22.93-35.12-43.79-56.48-61.91c1.85,29.61,32.27,49.96,39.25,78.8c-3.84,2.3-8.64-0.42-12.26-3.05
									c-21.13-15.37-42.27-30.74-63.4-46.11c-3.12,9.3,1.81,19.48,8.35,26.79c6.54,7.31,14.79,13.08,20.48,21.08
									c2.04,2.88,3.78,6.4,2.93,9.82c-3.08,12.35-26.92,0.66-33.52,11.54c39.3,27.81,78.6,55.62,117.89,83.43
									c4.48,3.17,9.11,6.41,14.46,7.69c4.97,1.19,10.18,0.58,15.19-0.43c17.09-3.45,33.2-11.66,46.02-23.48"/>
							</g>
							<g>
								<path class="st15" d="M1358.88,1259.92c-2.99-5.98-10.51-21.01-13.51-26.99c-0.71-1.42-1.44-3.03-0.95-4.53
									c0.44-1.39,1.78-2.23,3.02-2.96c18.27-10.68,36.54-21.36,54.81-32.04c1.11-0.65,2.28-1.32,3.56-1.4
									c3.87-0.24,5.97,4.48,7.11,8.3c2.58,8.64,5.87,17.06,9.83,25.13l-44.52,36.52L1358.88,1259.92z"/>
							</g>
							<g>
								<path class="st5" d="M1839.55,1223.73c-0.68,24.83-9.91,49.29-22.88,70.33c-12.97,21.04-29.57,39.02-46.58,56.11
									c-68.99,69.32-147.12,126.94-230.52,169.98c-10.74,5.54-21.97,10.95-33.48,10.95c-10.76,0-20.82-4.75-29.86-10.68
									c-39.01-25.59-62.42-72.22-81.52-118.42c-19.98-48.33-37.04-98.36-51.04-149.64c29.14,0.15,58.96-15.84,78.21-41.93
									c32.59,60.42,62.03,123.14,88.11,187.75c6.16,15.25,12.14,33.01,5.65,49.03c1.03-9.67,2.05-19.34,3.08-29.01
									c0.31-2.97,0.65-6.01,1.84-8.74c1.81-4.14,5.33-7.01,8.69-9.71c47.91-38.6,92.56-82.57,132.98-130.97
									c17.97-21.51,35.29-44.09,56.36-61.62c21.07-17.53,46.82-29.82,71.89-26.97c25.07,2.85,48.3,23.88,50.23,52.18"/>
							</g>
							<g>
								<g>
									<path class="st13" d="M1419,1212.49c11.8,23.54,24.37,46.68,36.58,70.01c3.78,7.22,7.52,14.46,11.22,21.72
										c1.65,3.24,6.52,0.38,4.87-2.85c-12.32-24.18-25.27-48.03-37.78-72.11c-3.39-6.52-6.73-13.05-10.02-19.62
										c-0.68-1.36-2.61-1.75-3.86-1.01C1418.63,1209.45,1418.32,1211.13,1419,1212.49L1419,1212.49z"/>
								</g>
							</g>
						</g>
						<g>
							<g>
								<path class="st13" d="M2043,2833.36c-12.22,0-22.96-9.9-24.88-23.75l-129.23-929.26c-17.33-76.23-56.02-90.58-84.26-94.31
									H1499.8c-35.82,7.12-59.86,27.09-75.33,62.6L1280.5,2809c-2.29,15.27-15.28,25.57-29.01,23.04
									c-13.73-2.55-23.01-16.99-20.72-32.25l144.54-964.16c0.36-2.43,1.01-4.79,1.93-7.03c22.65-55.17,61.78-88.22,116.31-98.23
									c1.36-0.25,2.73-0.37,4.11-0.37h308.4c0.92,0,1.84,0.06,2.75,0.17c34.51,4.22,63.25,18.99,85.4,43.9
									c20.32,22.85,35.08,54.48,43.88,94.01c0.18,0.81,0.33,1.63,0.44,2.45l129.41,930.53c2.13,15.3-7.3,29.62-21.06,31.98
									C2045.58,2833.25,2044.28,2833.36,2043,2833.36z"/>
							</g>
							<g>
								<path class="st16" d="M1968.21,2585.78c-12.01,0-22.65-9.58-24.8-23.19l-16.6-105.22c-11.36-45.52-31.85-51.43-52.19-50.98
									c-0.16,0-0.33,0.01-0.49,0.01h-440.34c-0.46,0-0.93-0.01-1.39-0.04c-21.52-1.3-35.21,7.81-46.62,31.33l-17.85,124.47
									c-2.19,15.29-15.12,25.71-28.86,23.27c-13.75-2.44-23.12-16.8-20.93-32.09l18.49-128.93c0.4-2.81,1.19-5.54,2.33-8.09
									c20.68-46.13,52.82-68.29,95.49-65.97h439.46c35.95-0.73,82.81,15.01,101.88,93.6c0.2,0.81,0.36,1.63,0.49,2.46
									l16.81,106.51c2.41,15.25-6.76,29.77-20.48,32.45C1971.13,2585.64,1969.66,2585.78,1968.21,2585.78z"/>
							</g>
							<polygon class="st13" points="1290.25,2833.68 1227.88,2833.68 1218.71,2771.31 1299.42,2771.31 							"/>
							<polygon class="st13" points="2073.88,2833.68 2011.52,2833.68 2002.34,2771.31 2083.05,2771.31 							"/>
						</g>
						<g>
							<path class="st6" d="M2179.69,2519.91c-21.29-88.23-14.3-382.17-20.39-472.73c18.05-84.34-22.05-200.95-48.42-326.28
								l-211.61-21.32l11.71,53.87l-129.38-8.22l-36.2,349.39c9.24,108.29-38.81,365.75-29.57,474.03l132.77,6.72
								c22.32-47.44,107.96-481.78,95.8-532.78c0,0,69.56,418.83,91.18,464.97c10.09,21.53,22.07,49.45,34.87,69.49
								C2091.63,2610.23,2179.69,2519.91,2179.69,2519.91z"/>
						</g>
						<g>
							<path class="st17" d="M1818.95,2622.72c-29.49,1.04-58.98,2.07-88.46,3.11l8.63,87.46l61.43,3.26c0,0,42.02-89.14,38.2-93.31
								S1818.95,2622.72,1818.95,2622.72z"/>
						</g>
						<g>
							<path class="st17" d="M2180.7,2568.44c-28.04,14.46-55.63,29.72-82.71,45.78l50.89,71.55l57.06-30.76l-18.63-87.29
								L2180.7,2568.44z"/>
						</g>
						<g>
							<path class="st6" d="M1804.79,2707.89c7.29,28.79,11.92,58.25,13.81,87.89c0.28,4.39,0.49,8.88-0.68,13.13
								c-3.39,12.31-16.72,18.57-28.6,23.27c-3.33,1.32-7.15,2.62-10.36,1.03c-3.45-1.71-165.01-2.46-189.22-6.6
								c-6.27-1.07-13.42-3.34-15.61-9.31c-2.48-6.76,2.95-13.72,8.36-18.48c10.26-9,22.02-16.29,34.64-21.48
								c17.01-6.99,82.02-10.24,97.81-19.68c15.79-9.44,28.47-28.12,22.97-45.67L1804.79,2707.89z"/>
						</g>
						<g>
							<path class="st6" d="M2203.41,2636.75c1.98,11.06,16.74,31.36,25.04,38.95c8.29,7.58,17.28,15.17,21.45,25.61
								s1.35,24.69-9.02,29.03c-6.77,2.84-93.7,86.77-128.39,107.88c-7.47,4.55-15.39,9.1-24.13,9.62s-18.44-4.33-20.45-12.84
								c-1.27-5.37,0.69-11,3.33-15.84c9.4-17.25,26.83-28.34,40.25-42.69c21.6-23.09,26.15-67.28,22.98-98.74
								C2133.79,2679.9,2203.41,2636.75,2203.41,2636.75z"/>
						</g>
						<g>
							<path class="st18" d="M1716.82,2556.31c46.7,12.26,96.57,13.81,143.53,4.47c-0.43,19.69-1.71,41.34-16.79,55.31
								c-11.67,10.81-29.2,14.57-45.94,16.66c-25.56,3.19-51.62,3.58-77.44,1.18c-3.93-0.37-8.07-0.88-11.21-3.08
								c-5.03-3.54-5.71-10.12-4.87-15.72c0.84-5.6,2.75-11.28,1.28-16.83c-1.08-4.09-3.9-7.65-5.61-11.57
								c-5.51-12.65,3.04-28.42,17.38-32.05"/>
							<g>
								<path class="st18" d="M1715.76,2560.13c18.59,4.87,37.62,8.05,56.77,9.59c18.86,1.52,37.85,1.39,56.68-0.41
									c10.8-1.03,21.54-2.6,32.18-4.71c-1.67-1.28-3.35-2.55-5.02-3.83c-0.09,4.27-0.22,8.54-0.52,12.8
									c-0.15,2.15-0.34,4.29-0.58,6.43c-0.06,0.5-0.12,1-0.18,1.5c0.09-0.71,0.01-0.06-0.01,0.07c-0.04,0.31-0.09,0.62-0.14,0.93
									c-0.16,1.06-0.33,2.11-0.53,3.16c-0.76,4.14-1.82,8.23-3.33,12.16c-0.18,0.46-0.36,0.91-0.54,1.36
									c0.26-0.64,0.02-0.05-0.03,0.06c-0.13,0.28-0.25,0.56-0.38,0.84c-0.43,0.94-0.9,1.87-1.39,2.79
									c-0.99,1.84-2.1,3.61-3.34,5.29c-0.15,0.2-0.29,0.4-0.45,0.59c0.4-0.51,0-0.01-0.07,0.08c-0.36,0.43-0.72,0.87-1.09,1.29
									c-0.71,0.81-1.45,1.6-2.22,2.35c-0.78,0.76-1.59,1.5-2.43,2.2c-0.2,0.16-0.39,0.33-0.59,0.49
									c-0.07,0.06-0.69,0.55-0.35,0.28c0.34-0.26-0.29,0.22-0.36,0.27c-0.26,0.19-0.52,0.38-0.78,0.56
									c-1.79,1.27-3.67,2.41-5.61,3.43c-0.98,0.52-1.98,1.01-2.99,1.47c-0.24,0.11-0.48,0.22-0.72,0.32
									c-0.08,0.03-0.82,0.36-0.43,0.19c0.39-0.17-0.36,0.15-0.44,0.18c-0.31,0.13-0.61,0.25-0.92,0.37
									c-4.27,1.67-8.7,2.94-13.18,3.94c-2.28,0.51-4.57,0.96-6.87,1.35c-1.15,0.2-2.3,0.38-3.46,0.56
									c-0.54,0.08-1.09,0.16-1.63,0.24c-0.27,0.04-0.54,0.08-0.81,0.11c-0.21,0.03-0.93,0.13-0.37,0.05
									c-21.91,2.93-44.15,3.66-66.21,2.43c-2.78-0.16-5.57-0.34-8.35-0.56c-1.39-0.11-2.78-0.23-4.17-0.36
									c-0.59-0.05-1.17-0.11-1.75-0.17c-0.27-0.03-0.55-0.06-0.82-0.09c-0.2-0.02-0.93-0.12-0.38-0.04
									c-1.15-0.16-2.29-0.38-3.41-0.68c-0.52-0.14-1.03-0.31-1.53-0.49c-0.63-0.23,0.44,0.22-0.15-0.06
									c-0.3-0.14-0.59-0.29-0.88-0.45c-0.14-0.08-1.38-0.92-0.78-0.45c-0.42-0.33-0.8-0.7-1.16-1.09
									c-0.07-0.08-0.56-0.63-0.25-0.26c0.31,0.36-0.13-0.19-0.2-0.29c-0.29-0.43-0.52-0.87-0.77-1.32
									c-0.35-0.64-0.08-0.14-0.02,0.02c-0.09-0.21-0.17-0.42-0.24-0.64c-0.17-0.49-0.31-0.98-0.43-1.48
									c-0.11-0.45-0.18-0.9-0.26-1.36c-0.11-0.61,0.03,0.63,0.01,0.02c-0.01-0.29-0.05-0.58-0.07-0.87
									c-0.06-0.99-0.04-1.98,0.02-2.97c0.03-0.46,0.08-0.92,0.13-1.38c0.06-0.64-0.14,0.75,0.01-0.03
									c0.07-0.39,0.13-0.78,0.19-1.17c0.99-5.66,2.5-11.33,1.16-17.07c-0.59-2.56-1.81-4.97-3.08-7.26
									c-0.6-1.07-1.22-2.14-1.8-3.22c-0.27-0.51-0.54-1.02-0.79-1.53c-0.12-0.26-0.24-0.52-0.36-0.78
									c-0.27-0.57,0.2,0.6-0.05-0.14c-0.29-0.86-0.58-1.7-0.79-2.58c-0.09-0.41-0.17-0.82-0.25-1.23
									c-0.02-0.14-0.1-0.81-0.04-0.25c0.06,0.6-0.02-0.28-0.03-0.4c-0.07-0.88-0.09-1.76-0.06-2.65c0.02-0.42,0.05-0.83,0.09-1.24
									c0.01-0.14,0.09-0.81,0.02-0.25c-0.07,0.6,0.05-0.28,0.07-0.4c0.15-0.87,0.36-1.74,0.61-2.59c0.12-0.4,0.25-0.8,0.39-1.2
									c0.08-0.24,0.6-1.51,0.23-0.67c0.72-1.66,1.62-3.24,2.67-4.71c0.12-0.17,0.25-0.35,0.38-0.52
									c-0.47,0.64-0.13,0.17-0.02,0.04c0.32-0.37,0.62-0.74,0.95-1.1c0.62-0.68,1.28-1.33,1.97-1.94c0.33-0.29,0.67-0.56,1-0.84
									c-0.58,0.5-0.16,0.12-0.02,0.02c0.22-0.16,0.44-0.32,0.67-0.48c0.77-0.53,1.58-1.03,2.4-1.47c0.39-0.21,0.79-0.41,1.2-0.6
									c0.2-0.1,0.41-0.19,0.61-0.28c-0.74,0.33-0.04,0.02,0.15-0.05c0.91-0.35,1.84-0.63,2.78-0.88c2.01-0.52,3.42-2.86,2.77-4.88
									c-0.67-2.07-2.73-3.33-4.88-2.77c-8.24,2.15-15.5,8.01-19.15,15.74c-1.8,3.81-2.87,7.93-2.83,12.17
									c0.05,4.7,1.53,8.97,3.78,13.05c0.59,1.08,1.21,2.14,1.8,3.21c0.65,1.2,1.17,2.22,1.48,3.12c0.86,2.46,0.9,4.63,0.6,7.38
									c-0.49,4.5-2.2,9.82-1.92,14.81c0.27,4.8,1.89,9.74,5.72,12.89c4.38,3.6,9.88,4.26,15.33,4.75
									c23.24,2.12,46.69,1.97,69.89-0.46c19.43-2.04,41.37-4.97,56.11-19.13c13.74-13.21,16.5-32.89,17.2-51.02
									c0.08-2.19,0.14-4.37,0.19-6.56c0.06-2.73-2.57-4.31-5.02-3.83c-18.2,3.61-36.34,5.51-55.08,5.84
									c-9.31,0.16-18.63-0.08-27.92-0.72c-9.36-0.64-18.42-1.66-27.42-3.09c-10.43-1.65-20.78-3.83-30.99-6.5
									c-2.01-0.52-4.4,0.66-4.88,2.77C1712.52,2557.33,1713.62,2559.57,1715.76,2560.13L1715.76,2560.13z"/>
							</g>
						</g>
						<g>
							<path class="st18" d="M2094.98,2565.75c-5.8,2.87-11.61,5.73-17.41,8.6c-1.46,0.72-3,1.52-3.85,2.91
								c-1.04,1.72-0.76,3.9-0.44,5.89c2.62,16.37,5.24,32.74,7.85,49.1c0.22,1.39,0.47,2.85,1.33,3.96
								c2.59,3.35,7.87,1.25,11.52-0.89c33.1-19.37,76.06-22.04,102.99-49.35c5.35-5.42,9.94-11.86,11.8-19.25
								c2.55-10.19-0.45-21.18-6.1-30.04c-5.64-8.86-13.7-15.9-22-22.35c-0.99-0.77-2.08-1.57-3.34-1.58
								c-1.21-0.01-2.28,0.72-3.26,1.42c-3.87,2.75-7.75,5.5-11.62,8.24L2094.98,2565.75z"/>
							<g>
								<path class="st18" d="M2093.09,2562.5c-4.61,2.28-9.23,4.56-13.84,6.84c-2.07,1.02-4.32,1.91-6.18,3.3
									c-2.36,1.77-3.6,4.12-3.81,7.06c-0.17,2.44,0.49,4.99,0.88,7.39c0.41,2.54,0.81,5.07,1.22,7.61
									c0.82,5.16,1.65,10.31,2.47,15.47c0.81,5.07,1.62,10.15,2.44,15.22c0.41,2.54,0.81,5.07,1.22,7.61
									c0.37,2.33,1.02,4.65,2.77,6.35c3.54,3.45,8.58,2.49,12.67,0.73c3.48-1.51,6.7-3.66,10.09-5.36
									c1.74-0.87,3.5-1.71,5.28-2.52c0.92-0.42,1.84-0.83,2.77-1.23c0.41-0.18,0.81-0.35,1.22-0.52c0.4-0.17,0.05-0.02-0.02,0.01
									c0.35-0.15,0.7-0.29,1.05-0.44c3.64-1.5,7.31-2.9,11.01-4.24c7.47-2.71,15.03-5.2,22.53-7.84
									c14.71-5.18,29.56-10.97,42.22-20.26c6.85-5.03,13.21-10.9,17.93-18c5.25-7.89,7.34-17,6-26.38
									c-1.3-9.13-5.7-17.4-11.41-24.52c-2.83-3.53-6.03-6.77-9.4-9.79c-1.67-1.5-3.37-2.94-5.11-4.36
									c-1.83-1.49-3.68-3.17-5.69-4.41c-2.6-1.59-5.58-1.52-8.17,0.02c-2.16,1.29-4.17,2.92-6.23,4.38
									c-2.2,1.56-4.36,3.19-6.6,4.67c-1.48,0.98-2.99,1.92-4.48,2.88c-6.98,4.48-13.97,8.97-20.95,13.45
									c-8.47,5.44-16.94,10.88-25.41,16.31c-5.22,3.35-10.45,6.71-15.67,10.06C2093.6,2562.17,2093.35,2562.34,2093.09,2562.5
									c-1.71,1.09-2.4,3.34-1.35,5.14c0.99,1.7,3.43,2.45,5.14,1.35c3.49-2.24,6.98-4.48,10.47-6.72
									c7.69-4.94,15.38-9.87,23.07-14.81c7.72-4.96,15.45-9.92,23.17-14.87c3.59-2.3,7.23-4.54,10.78-6.92
									c3.87-2.6,7.62-5.41,11.43-8.1c0.4-0.28,0.82-0.54,1.22-0.82c0.03-0.02,0.62-0.38,0.19-0.15c0.11-0.06,0.41-0.25,0.27-0.09
									c-0.16,0.19-0.77-0.3-0.05,0.11c0.25,0.14,0.48,0.3,0.71,0.46c0.35,0.24,0.21,0.15,0.43,0.32c1.71,1.32,3.39,2.69,5.05,4.08
									c6.55,5.5,12.61,11.49,16.83,18.73c2.15,3.69,3.54,7,4.56,11.19c0.89,3.67,1.25,7.76,0.73,11.55
									c-0.52,3.8-1.93,7.45-3.9,10.83c-2.13,3.64-4.36,6.36-7.34,9.4c-1.31,1.34-2.67,2.63-4.08,3.87
									c-0.65,0.57-1.31,1.13-1.97,1.69c-0.33,0.27-0.67,0.55-1,0.82c-0.19,0.15-0.39,0.31-0.58,0.46c-0.49,0.4,0.04-0.03-0.26,0.2
									c-2.92,2.23-5.99,4.28-9.15,6.16c-3.17,1.89-6.45,3.61-9.78,5.21c-1.68,0.8-3.37,1.58-5.08,2.32
									c-0.4,0.17-0.8,0.35-1.2,0.52c-0.69,0.3-0.29,0.12-0.14,0.06c-0.23,0.1-0.46,0.19-0.69,0.29c-0.87,0.36-1.73,0.72-2.61,1.06
									c-14.13,5.66-28.78,9.92-42.95,15.48c-7.22,2.83-14.34,5.96-21.11,9.76c-0.8,0.45-1.58,0.92-2.38,1.36
									c-0.36,0.2-0.72,0.39-1.09,0.57c-0.16,0.08-0.32,0.16-0.48,0.23c0.02-0.01-0.9,0.39-0.54,0.25
									c0.21-0.08-0.69,0.24-0.89,0.31c-0.44,0.14-0.89,0.25-1.34,0.36c-0.06,0.01-0.61,0.12-0.16,0.04
									c0.48-0.07-0.2,0.01-0.31,0.02c-0.16,0-0.32,0-0.48,0.01c-0.82,0.05,0.3,0.17-0.07,0.02c-0.17-0.07-0.4-0.13-0.58-0.15
									c-0.38-0.05,0.13,0.03,0.21,0.09c-0.56-0.4-0.09,0,0.01,0.08c-0.16-0.13-0.32-0.29-0.45-0.44c0.05,0.06,0.32,0.4,0.06,0.03
									c-0.34-0.49,0.12,0.42-0.09-0.14c-0.18-0.48-0.29-0.99-0.38-1.5c-0.45-2.35-0.77-4.73-1.15-7.09
									c-1.57-9.82-3.14-19.64-4.71-29.46c-0.39-2.46-0.79-4.91-1.18-7.37c-0.2-1.23-0.39-2.46-0.59-3.68
									c-0.09-0.57-0.18-1.15-0.27-1.72c-0.04-0.25-0.08-0.49-0.12-0.74c-0.22-1.26,0.02,0.32-0.07-0.42
									c-0.05-0.47-0.09-0.95-0.09-1.43c0-0.25-0.01-0.55,0.03-0.8c-0.04,0.26-0.12,0.36,0.09-0.16c-0.09,0.24,0.1-0.21,0.07-0.17
									c0.12-0.14,0.26-0.27,0.39-0.39c-0.39,0.36,0.19-0.13,0.29-0.2c1.91-1.21,4.06-2.09,6.08-3.09
									c4.39-2.17,8.78-4.34,13.17-6.51c1.82-0.9,2.32-3.48,1.35-5.14C2097.14,2562,2094.91,2561.6,2093.09,2562.5z"/>
							</g>
						</g>
						<g>
							<g>
								<path class="st18" d="M1954.75,2060.57c-4.84-14.7-9.69-29.4-14.53-44.09c-1.22-3.71-2.45-7.43-3.67-11.14
									c-1.12-3.39-2.12-6.86-3.38-10.2c-1.4-3.7-3.99-6.75-6.93-9.35c-6.92-6.14-15.1-10.72-22.79-15.79
									c-1.86-1.22-3.7-2.47-5.5-3.78c-0.45-0.33-0.89-0.66-1.34-0.99c-0.27-0.2-1.04-0.86,0.16,0.13
									c-0.14-0.11-0.28-0.22-0.42-0.33c-0.84-0.67-1.67-1.35-2.48-2.07c-1.37-1.22-2.49-2.59-3.76-3.9
									c1.18,1.22,0.33,0.43,0.05,0.02c-0.22-0.33-0.43-0.66-0.63-1c-0.16-0.27-0.3-0.56-0.44-0.84c-0.22-0.43-0.21-0.96,0.21,0.54
									c-0.06-0.23-0.17-0.44-0.24-0.67c-0.5-1.56-0.74-3.21-1.2-4.79c-0.67-2.27-1.43-4.52-2.2-6.77
									c-2.24-6.54-4.63-13.04-7-19.54c-6.23-17.07-12.48-34.13-18.12-51.4c-2.75-8.4-5.36-16.86-7.61-25.41
									c-0.98-3.72-1.89-7.46-2.66-11.23c-0.34-1.63-0.64-3.27-0.91-4.92c-0.12-0.73-0.23-1.46-0.34-2.2c-0.17-1.17,0.18,1.46,0,0
									c-0.05-0.37-0.09-0.74-0.13-1.11c-0.14-1.31-0.24-2.63-0.29-3.95c-0.09-2.63-2.25-5.17-5.04-5.04
									c-2.65,0.12-5.14,2.22-5.04,5.04c0.23,6.75,1.63,13.5,3.18,20.06c1.96,8.3,4.38,16.49,6.93,24.62
									c5.55,17.65,11.86,35.06,18.2,52.44c2.57,7.05,5.17,14.09,7.67,21.17c1.54,4.37,3.2,8.77,4.29,13.29
									c0.64,2.63,1.41,5.07,3.03,7.3c2.68,3.69,6.09,6.54,9.71,9.27c7.3,5.51,15.34,9.94,22.79,15.22
									c0.82,0.58,1.63,1.18,2.44,1.79c0.81,0.61-0.96-0.76-0.18-0.14c0.2,0.16,0.41,0.32,0.61,0.49c0.4,0.32,0.79,0.64,1.18,0.97
									c1.41,1.2,2.77,2.47,3.95,3.89c0.09,0.11,0.17,0.22,0.27,0.32c0.57,0.66-0.77-1.08-0.29-0.37c0.22,0.32,0.45,0.64,0.66,0.97
									c0.17,0.26,0.32,0.53,0.47,0.81c0.09,0.16,0.16,0.32,0.24,0.49c0.5,0.97-0.34-1.13-0.17-0.4c0.37,1.55,1.02,3.08,1.52,4.59
									c0.63,1.9,1.25,3.79,1.88,5.69c4.85,14.7,9.69,29.4,14.54,44.09c1.2,3.64,2.4,7.27,3.59,10.91c0.82,2.5,3.52,4.39,6.2,3.52
									C1953.72,2065.97,1955.63,2063.26,1954.75,2060.57L1954.75,2060.57z"/>
							</g>
						</g>
						<g>
							<g>
								<path class="st18" d="M2137.27,1855.85c-15.47-18.68-31.34-37.04-47.6-55.04c-4.55-5.04-9.14-10.05-13.75-15.04
									c-1.8-1.94-5.34-1.95-7.13,0c-1.91,2.08-1.91,5.06,0,7.13c16.47,17.81,32.56,35.97,48.26,54.47
									c4.39,5.18,8.76,10.39,13.09,15.62c1.69,2.04,5.41,1.88,7.13,0C2139.26,1860.81,2139.07,1858.02,2137.27,1855.85
									L2137.27,1855.85z"/>
							</g>
						</g>
						<g>
							<g>
								<path class="st18" d="M1792.99,1792.85c0.1,4.3-0.05,8.6-0.47,12.87c-0.1,1-0.22,1.99-0.34,2.99
									c-0.03,0.22-0.15,0.99,0.01-0.06c-0.03,0.21-0.06,0.43-0.09,0.64c-0.09,0.64-0.19,1.27-0.3,1.91
									c-0.34,2.05-0.74,4.09-1.2,6.11c-0.95,4.19-2.15,8.32-3.6,12.37c-0.34,0.94-0.69,1.88-1.05,2.82
									c-0.18,0.47-0.37,0.93-0.56,1.4c-0.11,0.27-0.22,0.53-0.33,0.79c0.18-0.43,0.2-0.47,0.01-0.02
									c-0.86,1.97-1.76,3.92-2.73,5.84c-2.2,4.35-4.7,8.53-7.48,12.53c-1.51,2.17-0.47,5.69,1.81,6.9
									c2.57,1.36,5.29,0.51,6.9-1.81c10.35-14.91,16.65-32.3,18.8-50.28c0.6-4.98,0.83-10,0.7-15.01
									c-0.06-2.63-2.27-5.17-5.04-5.04C1795.36,1787.93,1792.92,1790.03,1792.99,1792.85L1792.99,1792.85z"/>
							</g>
						</g>
						<g>
							<g>
								<path class="st18" d="M1899.01,1980.41c-0.01,13.13-1.23,26.25-2.78,39.28c-0.98,8.2-1.91,14.89-3.2,23.37
									c-1.33,8.71-2.77,17.39-4.29,26.07c-7.21,41.09-15.96,81.9-24.93,122.64c-9.87,44.84-20.15,89.59-30.1,134.42
									c-9.23,41.55-18.29,83.16-25.98,125.03c-5.78,31.46-11.46,63.41-12.73,95.43c-0.11,2.85-0.18,5.7-0.18,8.56
									c-0.01,6.49,10.08,6.5,10.08,0c0.01-13.13,1.23-26.25,2.78-39.28c0.98-8.2,1.91-14.89,3.2-23.37
									c1.33-8.71,2.77-17.39,4.29-26.07c7.21-41.09,15.96-81.9,24.93-122.64c9.87-44.84,20.15-89.59,30.1-134.42
									c9.23-41.55,18.29-83.16,25.98-125.03c5.78-31.46,11.46-63.41,12.73-95.43c0.11-2.85,0.18-5.7,0.18-8.56
									C1909.1,1973.93,1899.02,1973.92,1899.01,1980.41L1899.01,1980.41z"/>
							</g>
						</g>
						<g>
							<g>
								<path class="st5" d="M1782.71,1788.26c60.58-7.69,190.77-6.99,201.87-8.1c47.93-4.83,43.83-28.14,106.03-20.01
									c2.3,0.3,81.52-237.05,78.99-378.05c-2.58-143.93-35.29-188.24-35.29-188.24c-117.65-87.4-135.18-43.72-196.33-55.65
									l-166.99,37.85c-10.62,15.27-110.61,80.03-88.78,145.53c6.57,19.7,34.76,54,38.66,107.56
									c4.06,55.83-16.16,131.65-8.4,186.56C1725.82,1710.33,1751.22,1768.48,1782.71,1788.26z"/>
							</g>
							<g>
								<path class="st19" d="M1692.03,966.21c-13.43-9.33-48.69-14.34-57.96-27.74c-7.6-10.98-13.72-41.27-10.24-54.11
									c2.58-9.51,12.46-36.72,19.71-43.44c40.29-37.3,182.4-39.84,189.92-30.25c-2.7-3.16,36.23-33.38,51.9-17.47
									c7.01,7.12,8.86,17.63,10.37,27.46c4.6,29.93-8.05,64.29-3.44,94.21l-23.12,53.6L1692.03,966.21z"/>
							</g>
							<g>
								<path class="st4" d="M1688.47,913.06c-11.31,50.55-8.89,121.07,10.54,164.83c13.27,29.89,58.72,51.1,91.53,54.26
									c21.4,2.06,42.01-7.92,60.26-19.14c13.76-8.46,27.91-19.06,32.01-34.58c2.88-10.94,0.23-22.48-2.43-33.48
									c-14.79-61.29-29.58-139.39-44.38-200.68C1778,886.29,1688.47,913.06,1688.47,913.06z"/>
							</g>
							<g>
								<path class="st4" d="M1786.41,1114.87c16.73,13.68-22.02,54.25-6.32,69.08c5.23,4.94,12.99,5.96,20.19,6.52
									c32.73,2.53,65.8,0.57,97.98-5.79c12.62-2.5,27.55-8.2,29.28-20.83c0.89-6.51-0.66-19.42-3.31-25.45
									c-21.16-48.11-25.79-153.14-25.79-153.14c4.61,1.23,12.92,1.13,19.06-4.84c4.96-4.82,8.43-15.25,8.12-18.08
									c-0.68-6.22-1.78-12.5-4.54-18.13c-6.57-13.4-23.42-21.21-37.8-16.88c-14.38,4.34-24.01,20.82-19.92,35.16L1786.41,1114.87z
									"/>
							</g>
							<g>
								<path class="st5" d="M1797.01,1045.78c-0.37,8.49-7.68,16.18-16.21,17.06"/>
								<g>
									<path class="st5" d="M1793,1045.78c-0.01,0.24-0.03,0.48-0.05,0.72c-0.01,0.16-0.03,0.32-0.05,0.48
										c0.09-0.63,0.11-0.79,0.06-0.47c-0.1,0.51-0.19,1.02-0.32,1.52c-0.12,0.46-0.26,0.92-0.42,1.37
										c-0.08,0.23-0.17,0.45-0.25,0.67c-0.31,0.81,0.41-0.85,0.03-0.08c-0.45,0.9-0.91,1.78-1.47,2.61
										c-0.13,0.2-0.27,0.4-0.41,0.59c-0.58,0.8,0.48-0.55-0.04,0.05c-0.32,0.37-0.62,0.74-0.96,1.09
										c-0.33,0.35-0.68,0.69-1.04,1.01c-0.18,0.16-0.36,0.32-0.55,0.48c-0.12,0.1-0.25,0.21-0.37,0.31
										c0.14-0.11,0.29-0.22,0.43-0.33c-0.44,0.2-0.87,0.63-1.29,0.9c-0.44,0.28-0.89,0.54-1.35,0.79
										c-0.21,0.11-0.43,0.22-0.65,0.32c-0.26,0.12-1,0.37,0.08-0.02c-0.45,0.16-0.9,0.35-1.36,0.49
										c-0.46,0.15-0.92,0.27-1.39,0.38c-0.27,0.06-0.55,0.12-0.83,0.16c-1.01,0.17,0.8-0.08-0.01,0
										c-1.1,0.12-2.03,0.37-2.84,1.18c-0.7,0.7-1.22,1.84-1.18,2.84c0.09,1.98,1.78,4.26,4.01,4.01c5.35-0.59,10.28-2.92,14-6.85
										c3.69-3.88,5.95-8.87,6.22-14.22c0.11-2.1-1.92-4.11-4.01-4.01C1794.75,1041.87,1793.11,1043.53,1793,1045.78L1793,1045.78
										z"/>
								</g>
							</g>
							<g>
								<path class="st5" d="M1734.41,980.22c4.56,12.2,8.78,35.05,13.34,47.25"/>
								<g>
									<path class="st5" d="M1730.54,981.29c4.55,12.24,6.84,25.26,10.35,37.81c0.89,3.18,1.84,6.34,2.99,9.44
										c0.73,1.96,2.75,3.51,4.94,2.8c1.92-0.62,3.59-2.83,2.8-4.94c-4.55-12.24-6.84-25.26-10.35-37.81
										c-0.89-3.18-1.84-6.34-2.99-9.44c-0.73-1.96-2.75-3.51-4.94-2.8C1731.42,976.97,1729.76,979.18,1730.54,981.29
										L1730.54,981.29z"/>
								</g>
							</g>
							<g>
								<path class="st5" d="M1758.34,1031.24c-5.51,2.53-11.64,3.7-17.71,3.38"/>
								<g>
									<path class="st5" d="M1756.31,1027.77c-0.21,0.1-1.32,0.77-0.5,0.23c-0.23,0.15-0.63,0.25-0.89,0.35
										c-0.7,0.26-1.4,0.51-2.11,0.73c-1.37,0.43-2.77,0.78-4.18,1.05c-0.37,0.07-0.73,0.13-1.1,0.19
										c-0.16,0.03-1.23,0.23-0.2,0.04c-0.72,0.14-1.49,0.17-2.23,0.21c-1.49,0.1-2.98,0.1-4.47,0.03
										c-2.1-0.1-4.11,1.92-4.01,4.01c0.1,2.26,1.76,3.91,4.01,4.01c6.82,0.33,13.53-1.11,19.73-3.93
										c1.92-0.87,2.53-3.8,1.44-5.49C1760.52,1027.23,1758.36,1026.84,1756.31,1027.77L1756.31,1027.77z"/>
								</g>
							</g>
							<g>
								<path class="st5" d="M1788.44,952.8c6.06,0.32,11,6.79,9.64,12.66c-5.05-0.99-8.88-6.18-8.28-11.25"/>
								<g>
									<path class="st5" d="M1788.44,956.82c0.23,0.01,0.45,0.04,0.68,0.06c-0.36-0.05-0.71-0.1-1.07-0.14
										c0.84,0.12,1.65,0.34,2.44,0.66c-0.32-0.13-0.64-0.27-0.96-0.4c0.83,0.36,1.61,0.81,2.33,1.36
										c-0.27-0.21-0.54-0.42-0.81-0.63c0.81,0.63,1.52,1.35,2.15,2.16c-0.21-0.27-0.42-0.54-0.63-0.81
										c0.58,0.77,1.06,1.6,1.45,2.49c-0.13-0.32-0.27-0.64-0.4-0.96c0.34,0.83,0.59,1.69,0.72,2.58
										c-0.05-0.36-0.1-0.71-0.14-1.07c0.11,0.84,0.12,1.67,0.02,2.5c0.05-0.36,0.1-0.71,0.14-1.07
										c-0.04,0.28-0.09,0.56-0.15,0.83c1.65-0.93,3.29-1.87,4.94-2.8c-0.64-0.13-1.26-0.32-1.87-0.58
										c0.32,0.13,0.64,0.27,0.96,0.4c-0.82-0.36-1.58-0.81-2.29-1.35c0.27,0.21,0.54,0.42,0.81,0.63c-0.75-0.59-1.41-1.27-2-2.02
										c0.21,0.27,0.42,0.54,0.63,0.81c-0.57-0.76-1.04-1.58-1.42-2.46c0.14,0.32,0.27,0.64,0.4,0.96
										c-0.33-0.82-0.57-1.67-0.69-2.55c0.05,0.36,0.1,0.71,0.14,1.07c-0.1-0.76-0.1-1.52-0.02-2.29c0.1-0.96-0.52-2.19-1.18-2.84
										c-0.7-0.7-1.84-1.22-2.84-1.18c-1.04,0.05-2.12,0.39-2.84,1.18c-0.76,0.83-1.06,1.72-1.18,2.84
										c-0.73,6.8,4.6,13.75,11.23,15.12c1.02,0.21,2.19,0.18,3.09-0.4c0.85-0.55,1.62-1.38,1.85-2.4
										c0.93-4.21-0.14-8.51-2.76-11.9c-2.64-3.42-6.42-5.56-10.76-5.83c-2.1-0.13-4.11,1.94-4.01,4.01
										C1784.53,955.09,1786.19,956.68,1788.44,956.82L1788.44,956.82z"/>
								</g>
							</g>
							<g>
								<path class="st5" d="M1766.04,939.76c-3.9-1.01-8.05-1.04-11.97-0.11"/>
								<g>
									<path class="st5" d="M1767.11,935.89c-4.63-1.17-9.45-1.2-14.1-0.11c-2.05,0.48-3.45,2.93-2.8,4.94
										c0.69,2.14,2.75,3.32,4.94,2.8c0.8-0.19,1.6-0.34,2.42-0.45c-0.36,0.05-0.71,0.1-1.07,0.14c2.23-0.29,4.47-0.29,6.69,0
										c-0.36-0.05-0.71-0.1-1.07-0.14c0.96,0.13,1.91,0.32,2.85,0.56c2.03,0.51,4.45-0.66,4.94-2.8
										C1770.39,938.75,1769.29,936.44,1767.11,935.89L1767.11,935.89z"/>
								</g>
							</g>
							<g>
								<path class="st5" d="M1714.44,985.65c4.85,0.95,8.63,5.71,8.43,10.6c-5.54,1.26-10.89-5.82-8.1-10.73"/>
								<g>
									<path class="st5" d="M1713.37,989.52c0.65,0.13,1.27,0.33,1.88,0.58c-0.32-0.13-0.64-0.27-0.96-0.4
										c0.84,0.36,1.62,0.83,2.34,1.38c-0.27-0.21-0.54-0.42-0.81-0.63c0.76,0.6,1.43,1.28,2.02,2.04
										c-0.21-0.27-0.42-0.54-0.63-0.81c0.55,0.73,1.01,1.51,1.37,2.34c-0.13-0.32-0.27-0.64-0.4-0.96c0.35,0.84,0.6,1.7,0.73,2.6
										c-0.05-0.36-0.1-0.71-0.14-1.07c0.07,0.55,0.1,1.1,0.08,1.65c0.98-1.29,1.96-2.58,2.95-3.87c-0.18,0.04-0.35,0.07-0.53,0.1
										c0.36-0.05,0.71-0.1,1.07-0.14c-0.52,0.06-1.04,0.06-1.56,0c0.36,0.05,0.71,0.1,1.07,0.14c-0.6-0.08-1.17-0.24-1.73-0.47
										c0.32,0.13,0.64,0.27,0.96,0.4c-0.6-0.26-1.16-0.59-1.68-0.99c0.27,0.21,0.54,0.42,0.81,0.63
										c-0.6-0.46-1.12-0.99-1.59-1.58c0.21,0.27,0.42,0.54,0.63,0.81c-0.46-0.6-0.84-1.24-1.14-1.93
										c0.13,0.32,0.27,0.64,0.4,0.96c-0.27-0.64-0.46-1.3-0.56-1.99c0.05,0.36,0.1,0.71,0.14,1.07c-0.08-0.59-0.08-1.19,0-1.78
										c-0.05,0.36-0.1,0.71-0.14,1.07c0.08-0.51,0.21-1.01,0.41-1.49c-0.13,0.32-0.27,0.64-0.4,0.96c0.09-0.2,0.19-0.4,0.29-0.59
										c1.02-1.84,0.51-4.46-1.44-5.49c-1.89-1-4.41-0.52-5.49,1.44c-0.85,1.54-1.33,3.29-1.31,5.06c0.02,1.8,0.51,3.42,1.25,5.03
										c1.36,2.94,3.99,5.12,6.98,6.26c1.81,0.69,3.84,0.68,5.71,0.28c0.84-0.18,1.58-0.78,2.09-1.44
										c0.55-0.72,0.83-1.51,0.86-2.43c0.22-6.64-4.85-13.13-11.37-14.47c-1.06-0.22-2.14-0.16-3.09,0.4
										c-0.83,0.49-1.63,1.44-1.84,2.4c-0.23,1.03-0.18,2.18,0.4,3.09C1711.52,988.52,1712.35,989.31,1713.37,989.52
										L1713.37,989.52z"/>
								</g>
							</g>
							<g>
								<path class="st5" d="M1706.74,957.44c-2.31,1.57-4.63,3.14-6.94,4.71"/>
								<g>
									<path class="st5" d="M1704.71,953.97c-2.31,1.57-4.63,3.14-6.94,4.71c-0.87,0.59-1.56,1.36-1.84,2.4
										c-0.26,0.96-0.15,2.24,0.4,3.09c0.55,0.86,1.38,1.61,2.4,1.84c1.01,0.23,2.2,0.2,3.09-0.4c2.31-1.57,4.63-3.14,6.94-4.71
										c0.87-0.59,1.56-1.36,1.85-2.4c0.26-0.96,0.15-2.24-0.4-3.09c-0.55-0.86-1.38-1.61-2.4-1.84
										C1706.79,953.34,1705.6,953.37,1704.71,953.97L1704.71,953.97z"/>
								</g>
							</g>
							<g>
								<path class="st15" d="M1770.29,1174.28c-5.31,27.3,12.47,56.75,40.99,67.9c2.23,0.87,5.11,1.56,6.9,0.07
									c0.85-0.71,1.22-1.74,1.53-2.74c3.12-9.76,4.82-19.87,5.04-30c0.18-8.09-0.51-16.53,3.23-23.91l8.51,14.38
									c14.45,15.83,29.13,24.71,41.45,41.91c18.8-11.32,36.02-24.73,51.11-39.8c11.27-11.26,21.77-24.41,22.77-39.44
									c0.99-15.02-7.28-34.46-24.22-34.34l-10.08-6.72c3.85,4.79,5.23,14.77,5.72,20.64c0.95,11.39-12.46,19.19-24.27,23.75
									c-30.14,11.61-62.07,19.52-94.6,23.44c-7.16,0.86-13.47-2.3-19.62-5.65c-6.05-3.29-7.06-7-8.4-13.45L1770.29,1174.28z"/>
							</g>
							<g>
								<g>
									<path class="st5" d="M2159.77,2833.36c-12.22,0-22.96-9.9-24.88-23.75l-129.23-929.26
										c-17.33-76.23-56.02-90.58-84.26-94.31h-304.82c-35.82,7.12-59.86,27.09-75.33,62.6L1397.27,2809
										c-2.29,15.27-15.28,25.57-29.01,23.04c-13.73-2.55-23.01-16.99-20.72-32.25l144.54-964.16c0.36-2.43,1.01-4.79,1.93-7.03
										c22.65-55.17,61.78-88.22,116.31-98.23c1.36-0.25,2.73-0.37,4.11-0.37h308.4c0.92,0,1.84,0.06,2.75,0.17
										c34.51,4.22,63.25,18.99,85.4,43.9c20.32,22.85,35.08,54.48,43.88,94.01c0.18,0.81,0.33,1.63,0.44,2.45l129.41,930.53
										c2.13,15.3-7.3,29.62-21.06,31.98C2162.34,2833.25,2161.05,2833.36,2159.77,2833.36z"/>
								</g>
								<g>
									<path class="st7" d="M2084.98,2585.78c-12.01,0-22.65-9.58-24.8-23.19l-16.6-105.22c-11.36-45.52-31.85-51.43-52.19-50.98
										c-0.16,0-0.33,0.01-0.49,0.01h-440.34c-0.46,0-0.93-0.01-1.39-0.04c-21.52-1.3-35.21,7.81-46.62,31.33l-17.85,124.47
										c-2.19,15.29-15.12,25.71-28.86,23.27c-13.75-2.44-23.12-16.8-20.93-32.09l18.49-128.93c0.4-2.81,1.19-5.54,2.33-8.09
										c20.68-46.13,52.82-68.29,95.49-65.97h439.46c35.95-0.73,82.81,15.01,101.88,93.6c0.2,0.81,0.36,1.63,0.49,2.46
										l16.81,106.51c2.41,15.25-6.76,29.77-20.47,32.45C2087.89,2585.64,2086.42,2585.78,2084.98,2585.78z"/>
								</g>
							</g>
							<g>
								<g>
									<path class="st4" d="M1996.52,1755.69c-41.52,8.11-76.55,36.12-111.77,60.59c-3.31,2.3-6.76,4.63-10.67,5.35
										c-7.82,1.46-15.12-3.7-21.86-8.01c-14.4-9.21-33.7-15.2-47.77-5.2c-4.88,3.47-8.69,8.62-14.1,11.06
										c-5.42,2.44-13.49,0.13-13.87-5.98c-0.19-3.11,1.68-5.93,3.52-8.4c18.68-25.14,42.49-45.56,66.08-65.73
										c8.71-7.45,17.41-14.89,26.12-22.34c-17.37-6.8-34.49-6.94-53.2-9.17c12.21-10.95,12.64-27.77,27.23-34.84
										c5.88-2.85,12.63-2.66,19.09-2.4c33.4,1.31,66.81,2.61,100.21,3.92l26.6,7.45l20.92,34.28l4.3,26.56L1996.52,1755.69z"/>
								</g>
								<g>
									<path class="st15" d="M2047.07,1740.06c-7.09,3.52-24.9,12.35-31.99,15.86c-1.68,0.83-3.58,1.68-5.32,1.03
										c-1.6-0.6-2.53-2.3-3.33-3.87c-11.75-23.16-23.5-46.32-35.24-69.48c-0.72-1.41-1.45-2.88-1.49-4.48
										c-0.13-4.83,5.46-7.28,9.95-8.57c10.17-2.9,20.12-6.7,29.69-11.35l40.86,56.82L2047.07,1740.06z"/>
								</g>
								<g>
									<path class="st5" d="M2023.47,1139.52c28.93,1.74,57.09,14.14,81.12,31.07c24.03,16.93,44.35,38.28,63.62,60.1
										c78.16,88.52,142.32,188,189.28,293.53c6.05,13.58,11.91,27.78,11.47,42.13c-0.41,13.42-6.35,25.78-13.61,36.84
										c-31.35,47.71-86.62,75.2-141.23,97.34c-57.13,23.16-116.12,42.62-176.46,58.22c1.3-36.33-16.19-74.08-45.87-99.02
										c71.71-38.45,145.98-72.87,222.33-103.05c18.03-7.13,38.95-13.94,57.39-5.27c-11.24-1.63-22.47-3.26-33.71-4.89
										c-3.45-0.5-6.98-1.03-10.12-2.62c-4.76-2.41-7.97-6.9-10.99-11.18c-43.16-61.12-92.7-118.38-147.56-170.52
										c-24.39-23.18-50.04-45.59-69.67-72.49c-19.63-26.9-32.96-59.45-28.67-90.6s29.72-59.34,62.78-60.73"/>
								</g>
								<g>
									<g>
										<path class="st13" d="M2144.95,1437.1c-13.04-15.51-26.56-30.61-40.54-45.27c-14.04-14.73-28.54-29.01-43.47-42.84
											c-14.17-13.13-28.77-25.83-42.23-39.71c-13.13-13.54-25.17-28.25-33.78-45.12c-8.19-16.04-13.16-33.9-11.82-51.94
											c0.16-2.21,0.39-4.1,0.73-6.19c0.3-1.81-0.47-3.66-2.38-4.19c-1.63-0.45-3.89,0.55-4.19,2.38
											c-3.11,18.92,0.51,37.88,8.01,55.35c7.62,17.77,19.22,33.48,32.2,47.7c13.21,14.48,27.88,27.51,42.33,40.71
											c15.11,13.81,29.83,28.02,44.08,42.71c14.27,14.72,28.09,29.89,41.4,45.49c1.62,1.9,3.24,3.81,4.85,5.72
											c1.18,1.41,3.59,1.22,4.81,0C2146.34,1440.52,2146.13,1438.51,2144.95,1437.1L2144.95,1437.1z"/>
									</g>
								</g>
								<g>
									<g>
										<path class="st13" d="M1725.55,1395.55c-1.37-16.59-1.99-33.24-2.49-49.88c-0.58-19.48-0.87-38.99-0.4-58.47
											c0.2-8.28,0.49-16.58,1.39-24.81c0.2-1.83-1.71-3.4-3.4-3.4c-2,0-3.2,1.57-3.4,3.4c-1.78,16.4-1.67,33.07-1.58,49.55
											c0.1,19.53,0.63,39.06,1.55,58.57c0.4,8.36,0.85,16.71,1.54,25.05c0.15,1.83,1.46,3.4,3.4,3.4
											C1723.87,1398.95,1725.7,1397.39,1725.55,1395.55L1725.55,1395.55z"/>
									</g>
								</g>
								<g>
									<g>
										<path class="st13" d="M1994.25,1663.24c13.78-6.84,27.45-13.91,41.08-21.06c13.96-7.31,27.88-14.69,41.86-21.95
											c8.6-4.47,17.22-8.89,25.87-13.26c1.64-0.83,2.11-3.14,1.22-4.66c-0.98-1.67-3.01-2.05-4.66-1.22
											c-14.92,7.54-29.75,15.25-44.54,23.03c-13.62,7.16-27.22,14.35-40.9,21.41c-7.76,4-15.54,7.95-23.36,11.84
											c-1.65,0.82-2.1,3.15-1.22,4.66C1990.57,1663.69,1992.6,1664.06,1994.25,1663.24L1994.25,1663.24z"/>
									</g>
								</g>
							</g>
							<g>
								<g>
									<path class="st8" d="M1814.35,1496.65c0.28-0.12,0.56-0.24,0.84-0.36c-0.52,0.22,0.18-0.07,0.23-0.1
										c0.56-0.23,1.13-0.46,1.69-0.69c1.27-0.51,2.55-1.01,3.83-1.49c2.43-0.9,4.88-1.75,7.34-2.53
										c4.86-1.54,9.8-2.85,14.79-3.93c2.46-0.53,4.93-1,7.41-1.41c1.28-0.21,2.56-0.41,3.84-0.59c0.09-0.01,1.02-0.14,0.56-0.08
										c-0.46,0.06,0.47-0.06,0.56-0.07c0.68-0.09,1.36-0.17,2.04-0.25c5.15-0.59,10.32-0.92,15.5-1.01
										c5.79-0.1,11.58,0.14,17.34,0.67c2.25,0.21,4.41-2.13,4.31-4.31c-0.11-2.51-1.9-4.09-4.31-4.31
										c-21.14-1.96-42.73,0.31-63.02,6.56c-5.89,1.81-11.65,4-17.31,6.45c-2.08,0.9-2.7,4.11-1.55,5.9
										C1809.85,1497.26,1812.13,1497.61,1814.35,1496.65L1814.35,1496.65z"/>
								</g>
							</g>
							<g>
								<g>
									<path class="st8" d="M1847.97,1459.68c0.28-0.12,0.56-0.24,0.84-0.36c-0.52,0.22,0.18-0.07,0.23-0.1
										c0.56-0.23,1.13-0.46,1.69-0.69c1.27-0.51,2.55-1.01,3.83-1.49c2.43-0.9,4.88-1.75,7.34-2.53
										c4.86-1.54,9.8-2.85,14.79-3.93c2.46-0.53,4.93-1,7.41-1.41c1.28-0.21,2.56-0.41,3.84-0.59c0.09-0.01,1.02-0.14,0.56-0.08
										c-0.46,0.06,0.47-0.06,0.56-0.07c0.68-0.09,1.36-0.17,2.04-0.25c5.15-0.59,10.32-0.92,15.5-1.01
										c5.79-0.1,11.58,0.14,17.34,0.67c2.25,0.21,4.41-2.13,4.31-4.31c-0.11-2.51-1.9-4.09-4.31-4.31
										c-21.14-1.96-42.73,0.31-63.02,6.56c-5.89,1.81-11.65,4-17.31,6.45c-2.08,0.9-2.7,4.11-1.55,5.9
										C1843.46,1460.29,1845.74,1460.64,1847.97,1459.68L1847.97,1459.68z"/>
								</g>
							</g>
						</g>
						<g>
							<g>
								<path class="st20" d="M1773.72,1127.82c1.99,0.76,4.12,1.16,6.22,1.48c3.51,0.53,7.04,0.85,10.59,0.91
									c9,0.17,18.12-1,26.79-3.4c5.19-1.44,10.25-3.37,15.09-5.73c5-2.43,9.49-5.48,13.99-8.71c7.49-5.37,15.75-9.05,24.05-12.94
									c4.18-1.96,8.26-4.14,12-6.86c4.85-3.54,9.11-7.68,12.89-12.34c1.42-1.75,1.84-4.41,0-6.1c-1.58-1.45-4.58-1.87-6.1,0
									c-1.75,2.15-3.59,4.23-5.57,6.17c-0.79,0.78-1.61,1.54-2.44,2.27c-0.44,0.39-0.89,0.77-1.34,1.15
									c-0.18,0.15-0.36,0.29-0.54,0.44c-0.31,0.25-0.78,0.62-0.19,0.16c-3.27,2.5-6.81,4.59-10.5,6.42
									c-7.75,3.85-15.76,7.02-23.05,11.75c-4.59,2.97-8.81,6.4-13.6,9.08c-2.23,1.24-4.51,2.38-6.85,3.4
									c0.05-0.02-1.14,0.48-0.57,0.25c0.57-0.24-0.62,0.25-0.57,0.23c-0.6,0.24-1.2,0.48-1.81,0.7c-1.19,0.45-2.4,0.87-3.61,1.26
									c-4.46,1.45-9.05,2.53-13.69,3.25c-0.5,0.08-1.01,0.15-1.51,0.22c-0.69,0.1,1.07-0.13-0.02,0
									c-0.22,0.03-0.44,0.05-0.66,0.08c-1.13,0.13-2.26,0.25-3.4,0.34c-1.98,0.16-3.97,0.26-5.96,0.28
									c-2.02,0.03-4.04-0.01-6.05-0.13c-0.91-0.05-1.81-0.12-2.71-0.21c-0.39-0.04-0.77-0.08-1.16-0.12
									c-0.4-0.04-1.95-0.38-0.39-0.04c-2.37-0.52-4.76-0.72-7.05-1.6c-2.11-0.8-4.82,0.89-5.31,3.01
									C1770.15,1124.97,1771.46,1126.95,1773.72,1127.82L1773.72,1127.82z"/>
							</g>
						</g>
						<g>
							<g>
								<path class="st20" d="M1803.51,1133.49c2.68,1.02,5.58,1.41,8.41,1.78c3.92,0.51,7.88,0.69,11.83,0.6
									c10.76-0.23,21.6-2.22,31.63-6.15c6.85-2.68,13.33-6.13,19.23-10.53c1.8-1.34,2.91-3.79,1.55-5.9
									c-1.15-1.79-3.96-2.99-5.9-1.55c-4.96,3.69-10.34,6.79-16.03,9.2c0.86-0.36-0.33,0.13-0.42,0.17
									c-0.24,0.1-0.48,0.19-0.72,0.29c-0.72,0.28-1.44,0.55-2.17,0.82c-1.31,0.47-2.63,0.91-3.96,1.32
									c-2.62,0.8-5.28,1.47-7.96,2.02c-1.2,0.25-2.4,0.47-3.61,0.67c-0.62,0.1-1.24,0.2-1.86,0.28c-0.26,0.04-1.06,0.13-0.02,0
									c-0.44,0.05-0.88,0.11-1.32,0.16c-2.31,0.26-4.62,0.44-6.94,0.53c-4,0.15-8.02,0.05-12-0.4c-0.4-0.05-1.98-0.3-0.39-0.04
									c-0.41-0.07-0.82-0.12-1.23-0.18c-0.77-0.12-1.54-0.26-2.31-0.43c-1.19-0.25-2.37-0.55-3.51-0.99
									c-2.11-0.8-4.82,0.89-5.31,3.01C1799.94,1130.64,1801.25,1132.63,1803.51,1133.49L1803.51,1133.49z"/>
							</g>
						</g>
						<g>
							<g>
								<path class="st20" d="M1715.64,941.32c0.91-0.59,1.87-1.09,2.85-1.55c0.75-0.35-0.44,0.15,0.07-0.03
									c0.27-0.1,0.54-0.21,0.81-0.31c0.55-0.2,1.11-0.39,1.68-0.57c2.31-0.72,4.67-1.26,7.04-1.74c4.62-0.93,9.34-1.58,13.86-2.99
									c2.15-0.67,3.75-3.04,3.01-5.31c-0.7-2.16-3-3.73-5.31-3.01c-9.31,2.9-19.95,2.6-28.37,8.05c-1.89,1.22-2.85,3.88-1.55,5.9
									C1710.96,941.66,1713.62,942.63,1715.64,941.32L1715.64,941.32z"/>
							</g>
						</g>
						<g>
							<g>
								<path class="st20" d="M1808.54,957.12c0.91-0.59,1.87-1.09,2.85-1.55c0.75-0.35-0.44,0.15,0.07-0.03
									c0.27-0.1,0.54-0.21,0.81-0.31c0.55-0.2,1.11-0.39,1.68-0.57c2.31-0.72,4.67-1.26,7.04-1.74c4.62-0.93,9.34-1.58,13.86-2.99
									c2.15-0.67,3.75-3.04,3.01-5.31c-0.7-2.16-3-3.73-5.31-3.01c-9.31,2.9-19.95,2.6-28.37,8.05c-1.89,1.22-2.85,3.88-1.55,5.9
									C1803.86,957.46,1806.52,958.43,1808.54,957.12L1808.54,957.12z"/>
							</g>
						</g>
						<g>
							<g>
								<path class="st20" d="M1695.61,1004.71c0.72-0.47,1.43-0.95,2.15-1.42c0.26-0.17,0.52-0.37,0.8-0.49
									c-0.34,0.14-0.69,0.29-1.03,0.43c0.02-0.01,0.03-0.01,0.05-0.02c-0.38,0.05-0.76,0.1-1.15,0.15c0,0,0.01,0,0.01,0
									c-0.38-0.05-0.76-0.1-1.15-0.15c0,0,0,0,0.01,0c-0.34-0.14-0.69-0.29-1.03-0.43c0,0,0,0,0,0c-0.29-0.22-0.58-0.45-0.87-0.67
									c0,0,0,0,0,0c-0.22-0.29-0.45-0.58-0.67-0.87c0,0,0,0,0,0c-0.14-0.34-0.29-0.69-0.43-1.03c0,0,0,0,0,0.01
									c-0.05-0.38-0.1-0.76-0.15-1.15c0,0,0,0.01,0,0.01c0.05-0.38,0.1-0.76,0.15-1.15c0,0.01,0,0.02-0.01,0.03
									c0.15-0.34,0.29-0.69,0.43-1.03c-0.04,0.1-0.11,0.19-0.16,0.29c-0.2,0.38-0.38,0.8-0.5,1.21c-0.12,0.39-0.18,0.82-0.17,1.22
									c0.01,0.39,0.06,0.85,0.16,1.23c0.09,0.34,0.29,0.81,0.46,1.1c0.16,0.28,0.49,0.71,0.72,0.94c0.24,0.24,0.64,0.55,0.94,0.73
									c0.34,0.19,0.78,0.36,1.15,0.48c1.07,0.34,2.16,0.15,3.23-0.02c0.86-0.14,1.69-0.39,2.52-0.65
									c1.06-0.33,2.01-1.01,2.58-1.98c0.32-0.5,0.49-1.03,0.51-1.6c0.13-0.57,0.1-1.15-0.08-1.72c-0.34-1.04-0.98-2.05-1.98-2.58
									c-1.01-0.53-2.21-0.79-3.32-0.43c-0.86,0.27-1.74,0.54-2.64,0.67c0.38-0.05,0.76-0.1,1.15-0.15
									c-0.23,0.03-0.47,0.05-0.71,0.02c0.38,0.05,0.76,0.1,1.15,0.15c-0.06-0.01-0.12-0.02-0.18-0.05
									c0.34,0.14,0.69,0.29,1.03,0.43c-0.03-0.01-0.07-0.03-0.1-0.05c0.29,0.22,0.58,0.45,0.87,0.67
									c-0.02-0.01-0.03-0.03-0.05-0.05c0.22,0.29,0.45,0.58,0.67,0.87c-0.01-0.02-0.02-0.03-0.03-0.05
									c0.14,0.34,0.29,0.69,0.43,1.03c-0.01-0.02-0.01-0.04-0.02-0.06c0.05,0.38,0.1,0.76,0.15,1.15c0-0.03,0-0.07,0-0.1
									c-0.05,0.38-0.1,0.76-0.15,1.15c0.01-0.06,0.03-0.11,0.05-0.17c-0.15,0.34-0.29,0.69-0.43,1.03c0.04-0.1,0.1-0.2,0.16-0.3
									c0.2-0.35,0.39-0.72,0.47-1.11c0.01-0.03,0.16-1.12,0.16-1.16c0-0.02-0.15-1.14-0.15-1.15c0-0.01-0.43-1.02-0.44-1.04
									c0,0-0.67-0.87-0.68-0.87c0,0-0.87-0.67-0.88-0.68c-0.02-0.01-1.02-0.43-1.04-0.44c-0.37-0.12-0.77-0.17-1.16-0.15
									c-0.33,0.02-0.86,0.07-1.18,0.16c-0.33,0.09-0.78,0.3-1.09,0.46c-0.04,0.02-0.07,0.04-0.11,0.06
									c-0.28,0.16-0.54,0.34-0.8,0.51c-0.67,0.44-1.33,0.88-2,1.32c-0.94,0.62-1.68,1.47-1.98,2.58
									c-0.18,0.57-0.21,1.15-0.08,1.72c0.03,0.57,0.2,1.11,0.51,1.6c0.59,0.92,1.48,1.73,2.58,1.98
									C1693.38,1005.39,1694.64,1005.35,1695.61,1004.71L1695.61,1004.71z"/>
							</g>
						</g>
						<g>
							<g>
								<path class="st20" d="M1708.92,929.55c0.91-0.59,1.87-1.09,2.85-1.55c0.75-0.35-0.44,0.15,0.07-0.03
									c0.27-0.1,0.54-0.21,0.81-0.31c0.55-0.2,1.11-0.39,1.68-0.57c2.31-0.72,4.67-1.26,7.04-1.74c4.62-0.93,9.34-1.58,13.85-2.99
									c2.15-0.67,3.75-3.04,3.01-5.31c-0.7-2.16-3-3.73-5.31-3.01c-9.31,2.9-19.95,2.6-28.37,8.05c-1.89,1.22-2.85,3.88-1.55,5.9
									C1704.24,929.9,1706.89,930.86,1708.92,929.55L1708.92,929.55z"/>
							</g>
						</g>
						<g>
							<g>
								<path class="st20" d="M1776.68,1106.54c3.46,2.1,7.7,3.17,11.74,2.82c1.16-0.1,2.2-0.41,3.05-1.26
									c0.75-0.75,1.31-1.98,1.26-3.05c-0.05-1.12-0.42-2.27-1.26-3.05c-0.8-0.73-1.92-1.36-3.05-1.26
									c-1.15,0.1-2.29,0.08-3.43-0.07c0.38,0.05,0.76,0.1,1.15,0.15c-1.41-0.19-2.78-0.56-4.1-1.11c0.34,0.14,0.69,0.29,1.03,0.43
									c-0.7-0.3-1.38-0.65-2.04-1.05c-0.95-0.58-2.26-0.73-3.32-0.43c-1,0.28-2.08,1.05-2.58,1.98
									C1774.03,1102.73,1774.62,1105.29,1776.68,1106.54L1776.68,1106.54z"/>
							</g>
						</g>
					</g>
					<path class="st19" d="M1765.43,1046.24c0,0-16.23-2.32-20.87,8.5c-4.64,10.82-6.96,22.41-6.96,22.41s34.78-16.23,33.23-22.41
						c2.33,2.06,32.81-16.87,37.09-26.28c0,0-24.73-1.55-32.46,3.09S1765.43,1046.24,1765.43,1046.24z"/>
					<polygon class="st5" points="1405.56,2833.8 1343.19,2833.8 1334.02,2771.43 1414.73,2771.43 					"/>
					<polygon class="st5" points="2189.19,2833.8 2126.82,2833.8 2117.65,2771.43 2198.36,2771.43 					"/>
				</g>
				<polygon class="st11" points="1300.84,2332.36 1415.61,2345.67 1378.22,2595.06 1264.41,2575.37 				"/>
			</g>
			<g>
				<g>
					<path class="st4" d="M3111.98,1055.04c4.41,1.12,8.81,2.25,13.22,3.37c-7.72,4.53-16.49,7.26-25.42,7.92l-2.02,1.73
						c2.67,1.12,5.42,2.29,7.4,4.4s2.97,5.43,1.56,7.95c-1.62,2.91-5.58,3.54-8.87,2.99s-6.45-1.95-9.78-1.86
						c2.85,1.16,5.69,2.32,8.54,3.48c-5.13,4.97-13.09,6.78-19.86,4.51c1.57,3.69,8.49,1.31,10.4,4.83c1.78,3.3-3.04,6.15-6.73,6.77
						c-16.73,2.79-34.58,3.72-48.72,13.09L3111.98,1055.04z"/>
				</g>
				<g>
					<path class="st5" d="M3078.76,981.29c0.79-0.59,1.67-1.21,2.65-1.19c1.32,0.04,2.29,1.19,3.09,2.23
						c13.25,17.3,33.41,36.87,49.76,51.27c-33.39,23.34-64.35,60.47-97.73,83.81l-51.63-55.13
						C2984.9,1062.28,3068.02,989.33,3078.76,981.29z"/>
					<g>
						<path class="st5" d="M3080.51,984.27c0.23-0.17,0.47-0.33,0.7-0.5c1.15-0.89,0.32-0.09,0.26-0.22c0,0-0.33-0.03-0.38-0.02
							c-0.18,0.03-0.52-0.49,0.03,0.12c0.81,0.89,1.29,1.57,2.15,2.66c1.45,1.85,2.93,3.67,4.44,5.47
							c3.23,3.86,6.59,7.61,10.01,11.3c7.06,7.59,14.44,14.88,22,21.96c3.98,3.73,8.02,7.39,12.11,11c0.23-1.81,0.47-3.62,0.7-5.43
							c-13.75,9.63-26.33,20.81-38.62,32.2c-12.54,11.63-24.81,23.57-37.75,34.75c-6.95,6-13.89,11.62-21.36,16.85
							c1.4,0.18,2.79,0.36,4.19,0.54c-5.81-6.2-11.62-12.4-17.43-18.61c-9.27-9.89-18.53-19.79-27.8-29.68
							c-2.14-2.28-4.27-4.56-6.41-6.85c0,1.63,0,3.26,0,4.89c2.78-2.44,5.55-4.87,8.33-7.3c6.79-5.94,13.58-11.88,20.38-17.81
							c8.46-7.38,16.93-14.75,25.41-22.1c7.89-6.84,15.79-13.67,23.73-20.45c4.97-4.24,9.91-8.54,15.05-12.58
							c0.28-0.22,1.04-0.73-0.15,0.12C3080.23,984.49,3080.37,984.37,3080.51,984.27c1.49-1.12,2.26-2.99,1.24-4.73
							c-0.86-1.47-3.23-2.37-4.73-1.24c-4.84,3.63-9.41,7.65-14.02,11.57c-7.69,6.54-15.33,13.14-22.96,19.74
							c-8.6,7.45-17.19,14.91-25.76,22.39c-7.15,6.23-14.28,12.47-21.42,18.71c-3.41,2.98-7,5.85-10.26,8.99
							c-0.05,0.04-0.1,0.08-0.14,0.13c-1.44,1.26-1.21,3.59,0,4.89c5.81,6.2,11.62,12.4,17.43,18.61
							c9.27,9.89,18.53,19.79,27.8,29.68c2.14,2.28,4.27,4.56,6.41,6.85c0.97,1.04,2.98,1.39,4.19,0.54
							c13.75-9.63,26.33-20.81,38.62-32.2c12.54-11.63,24.81-23.57,37.75-34.75c6.95-6,13.89-11.62,21.36-16.85
							c1.7-1.19,2.49-3.84,0.7-5.43c-15.96-14.07-31.46-28.95-45.04-45.36c-1.79-2.16-3.45-4.37-5.05-6.34
							c-1.02-1.25-2.35-2.26-3.93-2.65c-2.05-0.51-4.03,0.29-5.67,1.5c-1.5,1.11-2.25,2.99-1.24,4.73
							C3076.65,984.51,3079,985.38,3080.51,984.27z"/>
					</g>
				</g>
				<g>
					<path class="st7" d="M3076.79,994.85c0.59-0.44,1.24-0.9,1.97-0.88c0.98,0.03,1.7,0.88,2.3,1.66
						c9.84,12.85,24.82,27.39,36.97,38.09c-24.81,17.34-50.85,48.72-75.66,66.06l-38.36-40.97
						C3004.01,1058.81,3068.81,1000.83,3076.79,994.85z"/>
					<g>
						<path class="st5" d="M3077.96,996.84c0.23-0.17,0.65-0.58,0.93-0.61c-0.41,0.04-0.18,0.08-0.05,0.31
							c0.36,0.68,1.07,1.34,1.55,1.95c1.12,1.42,2.26,2.82,3.42,4.21c2.37,2.81,4.82,5.56,7.33,8.25
							c5.21,5.59,10.64,10.96,16.22,16.19c2.97,2.79,5.99,5.53,9.05,8.22c0.16-1.21,0.31-2.41,0.47-3.62
							c-10.66,7.47-20.3,16.3-29.74,25.23c-9.81,9.27-19.39,18.79-29.52,27.71c-5.26,4.63-10.66,9.1-16.4,13.12
							c0.93,0.12,1.86,0.24,2.79,0.36c-4.32-4.61-8.64-9.23-12.97-13.84c-6.89-7.35-13.77-14.71-20.66-22.06
							c-1.58-1.69-3.16-3.37-4.74-5.06c0,1.09,0,2.17,0,3.26c2.15-1.92,4.3-3.85,6.46-5.77c5.29-4.72,10.58-9.44,15.88-14.15
							c6.58-5.85,13.17-11.7,19.77-17.53c6.1-5.39,12.21-10.76,18.35-16.1c3.83-3.32,7.63-6.69,11.59-9.85
							c0.12-0.09,0.24-0.18,0.35-0.28C3077.87,996.91,3077.58,997.12,3077.96,996.84c0.99-0.75,1.51-1.99,0.83-3.15
							c-0.57-0.98-2.15-1.58-3.15-0.83c-3.68,2.76-7.12,5.87-10.6,8.88c-5.97,5.16-11.89,10.37-17.8,15.59
							c-6.67,5.89-13.33,11.79-19.99,17.7c-5.58,4.96-11.15,9.92-16.72,14.89c-2.66,2.37-5.5,4.64-8.02,7.16
							c-0.04,0.04-0.08,0.07-0.12,0.11c-0.95,0.85-0.81,2.39,0,3.26c4.32,4.61,8.64,9.23,12.97,13.84
							c6.89,7.35,13.77,14.71,20.66,22.06c1.58,1.69,3.16,3.37,4.74,5.06c0.65,0.69,1.98,0.93,2.79,0.36
							c10.66-7.47,20.3-16.3,29.74-25.23c9.81-9.27,19.39-18.79,29.52-27.71c5.26-4.63,10.66-9.1,16.4-13.12
							c1.13-0.79,1.66-2.56,0.47-3.62c-11.97-10.56-23.61-21.73-33.77-34.07c-1.28-1.55-2.42-3.29-3.8-4.75
							c-1.86-1.96-4.35-1.97-6.46-0.42c-1,0.73-1.5,2-0.83,3.15C3075.38,997,3076.95,997.58,3077.96,996.84z"/>
					</g>
				</g>
				<g>
					<path class="st4" d="M3078.09,1049.03c-9.37-8.8-22.45-13.16-33.83-18.81c-8.35-4.14-14.56-11.2-23.91-10.05
						c-9.16,1.13-13.58,8.8-20.46,14.91c-7.75,6.87-17.63,12.65-22.17,21.99c-8.58,17.63-13.24,37.16-23.6,53.8
						c-8.35,13.41-20.04,24.36-31.59,35.14c-40,37.34-80.07,74.74-123.25,108.35c-6.11-23.44-27.89-166.3-26.68-214.35
						c0,0-4.52-57.42-17.19-56.37c-4.82,0.4-36.77-0.87-47.91,23.18c-18.16,39.21-24.73,117.47-24.73,117.47
						s19.11,91.45,20.64,96.28c0,0,35.03,98.64,59.87,144.07c1.51,2.77,3.14,5.64,5.78,7.37c3.45,2.27,7.92,2.14,11.99,1.43
						c22.89-4,39.83-22.86,54.85-40.58c45.91-54.16,91.83-108.32,137.74-162.48c17.89-21.1,36.08-42.48,58.93-58.07
						c-9.67-8.02-18.85-16.63-27.46-25.77c17.41-5.42,31.31-20.83,34.92-38.7C3050.02,1057.54,3067.51,1058.09,3078.09,1049.03z"/>
				</g>
			</g>
		</g>
	</g>
</g>
</svg>
