<?xml version="1.0" encoding="utf-8"?>
<!-- Generator: Adobe Illustrator 24.1.0, SVG Export Plug-In . SVG Version: 6.00 Build 0)  -->
<svg version="1.1" id="illustrations" xmlns="http://www.w3.org/2000/svg" xmlns:xlink="http://www.w3.org/1999/xlink" x="0px"
	 y="0px" viewBox="0 0 1677.5 2953.8" style="enable-background:new 0 0 1677.5 2953.8;" xml:space="preserve">
<style type="text/css">
	.st0{fill:none;stroke:#112954;stroke-width:10;stroke-linecap:round;stroke-linejoin:round;}
	.st1{fill:none;stroke:#112954;stroke-width:10;stroke-linecap:round;stroke-linejoin:round;stroke-dasharray:13.4025,19.1464;}
	.st2{fill:#112954;}
	.st3{opacity:0.5;}
	.st4{fill:none;stroke:#C5C5C5;stroke-width:9.6483;stroke-linecap:round;stroke-linejoin:round;stroke-miterlimit:10;}
	.st5{opacity:0.6;fill:#CECECE;}
	.st6{opacity:0.3;}
	.st7{fill:none;stroke:#192144;stroke-width:9.6483;stroke-linecap:round;stroke-linejoin:round;stroke-miterlimit:10;}
	.st8{fill:#192144;}
	.st9{fill:none;stroke:#112954;stroke-width:10;stroke-linecap:round;stroke-linejoin:round;stroke-dasharray:13.9221,19.8887;}
	.st10{fill:none;stroke:#C5C5C5;stroke-width:10;stroke-linecap:round;stroke-linejoin:round;}
	.st11{fill:none;stroke:#C5C5C5;stroke-width:10;stroke-linecap:round;stroke-linejoin:round;stroke-dasharray:13.9984,19.9978;}
	.st12{fill:none;stroke:#112954;stroke-width:10;stroke-linecap:round;stroke-linejoin:round;stroke-dasharray:13.7401,19.6288;}
	.st13{fill:#E6E2EF;}
	.st14{fill:#FFF3CC;}
	.st15{fill:#826DAF;}
	.st16{fill:none;stroke:#645689;stroke-width:11.6902;stroke-linecap:round;stroke-linejoin:round;stroke-miterlimit:10;}
	.st17{fill:#FDC300;}
	.st18{fill:none;stroke:#CE9800;stroke-width:11.6902;stroke-linecap:round;stroke-linejoin:round;stroke-miterlimit:10;}
	.st19{fill:none;stroke:#A53248;stroke-width:19.1233;stroke-linecap:round;stroke-linejoin:round;stroke-miterlimit:10;}
	.st20{fill:#D8EFF5;}
	.st21{fill:#D4EDE9;}
	.st22{fill:#3EB0CF;}
	.st23{fill:none;stroke:#328BA0;stroke-width:11.6902;stroke-linecap:round;stroke-linejoin:round;stroke-miterlimit:10;}
	.st24{fill:#27A491;}
	.st25{fill:none;stroke:#208473;stroke-width:11.6902;stroke-linecap:round;stroke-linejoin:round;stroke-miterlimit:10;}
	.st26{fill:#DE3E4F;}
	.st27{fill:none;stroke:#112954;stroke-width:10;stroke-linecap:round;stroke-linejoin:round;stroke-dasharray:14.0974,20.1391;}
	.st28{fill:none;stroke:#112954;stroke-width:10;stroke-linecap:round;stroke-linejoin:round;stroke-dasharray:13.8669,19.8098;}
	.st29{font-family:'GothamPro-MediumItalic';}
	.st30{font-size:80px;}
	.st31{font-family:'GothamPro-Bold';}
	.st32{font-size:70px;}
</style>
<g>
	<g>
		<line class="st11" x1="-2987.51" y1="330.4" x2="1320.01" y2="330.4"/>
		<line class="st10" x1="1330.01" y1="330.4" x2="1337.01" y2="330.4"/>
	</g>
</g>
<g>
	<g>
		<line class="st11" x1="-2987.51" y1="670.55" x2="1320.01" y2="670.55"/>
		<line class="st10" x1="1330.01" y1="670.55" x2="1337.01" y2="670.55"/>
	</g>
</g>
<g>
	<g>
		<line class="st0" x1="291.68" y1="2205.66" x2="286.73" y2="2200.71"/>
		<line class="st28" x1="272.72" y1="2186.7" x2="-410.85" y2="1503.13"/>
	</g>
</g>
<rect x="134.09" y="961.35" class="st14" width="1249.06" height="400.37"/>
<g>
	<circle class="st17" cx="1116.73" cy="868.83" r="66.12"/>
	<path class="st17" d="M1119.95,949.29c-63.76,0-118.36,47.94-118.36,130.05c0,15.59,1.46,48.22,2.2,63c0,0-0.2,41.85,48.75,36.74
		h0.52l2.07,210.42h-0.2c0,17.96,14.56,32.51,32.51,32.51c17.96,0,32.51-14.56,32.51-32.51c0,17.96,14.56,32.51,32.51,32.51
		c17.96,0,32.51-14.56,32.51-32.51h-0.2l2.07-210.42h0.52c48.95,5.11,48.75-36.74,48.75-36.74c0.74-14.77,2.2-47.41,2.2-63
		C1238.31,997.22,1183.7,949.29,1119.95,949.29z"/>
	<line class="st18" x1="1119.95" y1="1383.65" x2="1119.95" y2="1229.85"/>
	<line class="st18" x1="1053.83" y1="1165.19" x2="1053.83" y2="1041.71"/>
	<line class="st18" x1="1186.07" y1="1165.19" x2="1186.07" y2="1041.71"/>
</g>
<path class="st19" d="M1242.21,1405.19v-212.94v0.01c0-18.8-15.24-34.03-34.03-34.03s-34.03,15.24-34.03,34.03"/>
<text transform="matrix(1 0 0 1 235.6257 475.5299)"><tspan x="0" y="0" class="st8 st29 st30">Walking Party </tspan><tspan x="33.36" y="96" class="st8 st29 st30">(in the field)</tspan></text>
<text transform="matrix(1 0 0 1 947.3666 1558.972)"><tspan x="0" y="0" class="st8 st31 st32">Final user </tspan><tspan x="27.33" y="84" class="st8 st31 st32">(Senior)</tspan></text>
<text transform="matrix(1 0 0 1 250.0995 1141.4506)"><tspan x="0" y="0" class="st2 st31 st32">Cartographic &amp; </tspan><tspan x="1.72" y="84" class="st2 st31 st32">navigation app</tspan></text>
<rect x="134.09" y="2036.55" class="st21" width="1249.06" height="400.37"/>
<g>
	<circle class="st24" cx="1116.73" cy="1944.03" r="66.12"/>
	<path class="st24" d="M1119.95,2024.49c-63.76,0-118.36,47.94-118.36,130.05c0,15.59,1.46,48.22,2.2,63c0,0-0.2,41.85,48.75,36.74
		h0.52l2.07,210.42h-0.2c0,17.96,14.56,32.51,32.51,32.51c17.96,0,32.51-14.56,32.51-32.51c0,17.96,14.56,32.51,32.51,32.51
		c17.96,0,32.51-14.56,32.51-32.51h-0.2l2.07-210.42h0.52c48.95,5.11,48.75-36.74,48.75-36.74c0.74-14.77,2.2-47.41,2.2-63
		C1238.31,2072.42,1183.7,2024.49,1119.95,2024.49z"/>
	<line class="st25" x1="1119.95" y1="2458.85" x2="1119.95" y2="2305.05"/>
	<line class="st25" x1="1053.83" y1="2240.39" x2="1053.83" y2="2116.91"/>
	<line class="st25" x1="1186.07" y1="2240.39" x2="1186.07" y2="2116.91"/>
</g>
<text transform="matrix(1 0 0 1 784.4086 2634.1726)"><tspan x="0" y="0" class="st8 st31 st32">From trained turke </tspan><tspan x="1.75" y="84" class="st8 st31 st32">or engaged citizen </tspan><tspan x="139.93" y="168" class="st8 st31 st32">to mobility</tspan></text>
<text transform="matrix(1 0 0 1 331.6152 2216.6509)"><tspan x="0" y="0" class="st2 st31 st32">Weighting </tspan><tspan x="119.28" y="84" class="st2 st31 st32">app</tspan></text>
<path class="st26" d="M1116.73,603.96c-30.3,0-54.86,24.56-54.86,54.86s54.86,102.92,54.86,102.92s54.86-72.62,54.86-102.92
	S1147.02,603.96,1116.73,603.96z M1116.73,695.68c-18.43,0-33.37-14.94-33.37-33.37c0-18.43,14.94-33.37,33.37-33.37
	s33.37,14.94,33.37,33.37C1150.09,680.74,1135.15,695.68,1116.73,695.68z"/>
</svg>
