<?xml version="1.0" encoding="utf-8"?>
<!-- Generator: Adobe Illustrator 24.1.0, SVG Export Plug-In . SVG Version: 6.00 Build 0)  -->
<svg version="1.1" xmlns="http://www.w3.org/2000/svg" xmlns:xlink="http://www.w3.org/1999/xlink" x="0px" y="0px"
	 viewBox="0 0 1677.5 2440.53" style="enable-background:new 0 0 1677.5 2440.53;" xml:space="preserve">
<style type="text/css">
	.st0{fill:#FFFFFF;}
	.st1{fill:none;stroke:#FFFFFF;stroke-width:8;stroke-miterlimit:10;}
	.st2{fill:none;stroke:#FFFFFF;stroke-width:7.0116;stroke-miterlimit:10;}
	.st3{fill:#CCCCCC;}
	.st4{fill:#826DAF;}
	.st5{fill:#192144;}
	.st6{fill:#15306B;}
	.st7{fill:#47509D;}
	.st8{fill:#3B457F;}
	.st9{fill:#27A491;}
	.st10{fill:#208473;}
	.st11{fill:#FDC300;}
	.st12{fill:none;stroke:#FDC300;stroke-width:6.2011;stroke-linecap:round;stroke-linejoin:round;stroke-miterlimit:10;}
	.st13{fill:#121830;}
	.st14{fill:#9C8BD8;}
	.st15{fill:#3EB0CF;}
	.st16{fill:#2D3760;}
	.st17{fill:#D4C5FF;}
	.st18{fill:#112954;}
	.st19{fill:#B2A9D8;}
	.st20{fill:#6D5F96;}
	.st21{fill:none;stroke:#FDC300;stroke-width:4.5096;stroke-linecap:round;stroke-linejoin:round;stroke-miterlimit:10;}
</style>
<g id="Fond">
	<path class="st0" d="M-535.46,500.77c-59.4,139.71,76.72,245.8,46.67,394.94c-68.78,341.38-331.65-79.54-261.29,740.53
		s397.39,957.17,397.39,957.17h2631.59V752.62c0,0-80.47,57.91-205.11-69.23c-96.08-98.01-188.97-380.07-473.67-424.96
		C1069.93,174.82-476.06,361.07-535.46,500.77z"/>
	<path class="st2" d="M-585.46,447.26c-59.4,137.84,76.72,242.52,46.67,389.66c-65.65,321.49-335.38-121.28-261.29,730.63
		c70.37,809.11,397.39,944.38,397.39,944.38h2631.59V695.73c0,0-80.47,57.14-205.11-68.3c-96.08-96.7-188.97-375-473.67-419.29
		C1019.93,125.66-526.06,309.42-585.46,447.26z"/>
	<path class="st2" d="M-585.46,607.65c-59.4,137.84,76.72,242.52,46.67,389.66c-65.65,321.49-335.38-121.28-261.29,730.63
		c70.37,809.11,397.39,944.38,397.39,944.38h2631.59V856.13c0,0-80.47,57.14-205.11-68.3c-96.08-96.7-188.97-375-473.67-419.29
		C1019.93,286.06-526.06,469.81-585.46,607.65z"/>
	<path class="st2" d="M-555.02,354.84c-68,133.81,61.22,246.89,21.93,391.83c-85.86,316.7-327.03-142.26-306.98,712.64
		c19.04,811.94,336.85,967.63,336.85,967.63l2626.32,166.47l114.89-1812.56c0,0-83.92,51.93-200.38-81.14
		c-89.77-102.58-164.87-386.2-446.2-448.41C1067.49,135.44-487.02,221.03-555.02,354.84z"/>
	<path class="st2" d="M-668.19,759.95c-36.82,145.51,114.16,227.31,107.79,377.35c-13.9,327.83-350.35-66.64-142.27,762.79
		c197.62,787.75,541.94,869.52,541.94,869.52l2598.38-416.79L2150.01,559.55c0,0-70.41,69.16-213.34-34.96
		c-110.19-80.26-245.97-340.33-534.1-338.97C866,188.15-631.37,614.44-668.19,759.95z"/>
	<path class="st2" d="M-429.02,825.4c-36.82,145.51,114.16,227.31,107.79,377.35c-13.9,327.83-350.35-66.64-142.27,762.79
		c197.62,787.75,541.94,869.52,541.94,869.52l2598.38-416.79L2389.17,625c0,0-70.41,69.16-213.34-34.96
		c-110.19-80.26-245.97-340.33-534.1-338.97C1105.17,253.6-392.21,679.89-429.02,825.4z"/>
</g>
<g id="Personnages">
	<g>
		<g>
			<path class="st3" d="M69.47,2107.48c65.02-1.37,130.05-2.36,195.07-3.33l195.07,0.03h390.14h390.14h195.07l97.53,1.58l48.77,0.79
				l48.77,0.93l-48.77,0.93l-48.77,0.79l-97.53,1.58h-195.07H849.75H459.61l-195.07,0.03
				C199.52,2109.84,134.49,2108.85,69.47,2107.48z"/>
		</g>
		<g>
			<g>
				<g>
					<path class="st4" d="M1113.93,752.96c-4.79,0.56-19.81,11.45-33.21,46.71c-18.02,47.42-34.61,122.73-33.8,122.69
						c-7.75,15.48-15.51,30.95-23.26,46.43c-35.32-14.11-67.49-31.05-99.6-47.97c-9.27-4.88-18.65-9.85-24.8-16.86
						c-7.64-8.7-9.89-20.08-15.85-29.67c-3.15-5.08-11.42-7.12-17.68-10.18c-5.56-2.71-8.76-6.78-16.84-6.06
						c-8.24,0.74-14.49,6.08-22.35,9.95c-10.73,5.28-26.58,11.31-35.82,18.22c8.57,3.97,47.68,24.36,38.25,30.83
						c18.91,6.11,33.24,2.71,47.17,13c35.76,26.42,71.36,66.65,107.11,93.07c11.7,8.65,25,17.7,45.07,16.62
						c3.56-0.19,7.55-0.81,10.86-2.75c2.53-1.48,4.26-3.52,5.89-5.47c26.64-32.02,49.77-64.8,69.02-97.8l-1.44-0.79
						c1.84-3.23,2.98-6.49,3.34-9.6l20.27-29.4C1136.25,893.93,1125.15,751.64,1113.93,752.96z"/>
				</g>
				<g>
					<path class="st4" d="M1331.13,1402.95c-0.63,17.65-23.96,599.7-24.59,617.35c-0.02,0.69-0.08,1.46-0.54,1.92
						c-0.52,0.52-1.31,0.41-1.99,0.27c-10.1-2.08-20.21-4.15-30.31-6.23c-2.27-20.05-92.75-600.04-94.09-620.21L1331.13,1402.95z"/>
				</g>
				<g>
					<path class="st4" d="M1177.42,1440.2c3.9,16.95-28.81,562.19-24.92,579.14c-17.13-4.96-9.9,2.35-27.58,0
						c-0.79-0.1-117.94-582.04-61.03-579.14H1177.42z"/>
				</g>
				<g>
					<path class="st4" d="M1263.38,641.39c3.8-0.14,7.76,0.05,11.12,1.84c4.62,2.46,7.37,7.77,7.4,13
						c0.04,5.24-2.37,10.3-5.93,14.14c-2.62,2.83-5.99,5.12-9.79,5.75c-3.8,0.63-15.97-3.28-18.25-6.39c0,0-6.23,29.25-6.66,38.07
						c-0.61,12.39,0.01,30.75,4.36,42.37l2.3,12.64c-6.3,23.71-22.62,46.54-42.52,60.9c-5.14,3.71-52.25,60.93-58.38,62.51
						s-10.67-38.91-15.74-42.71c-7.22-5.41,9.69-52.49,11.74-61.28c2.04-8.79,8.17-24.95,16.42-28.61
						c16.44-7.3,30.74-40.02,29.88-45.96c0,0-35.53,9.01-51.71,0c-16.18-9.01-20.22-36.76-21.2-42.57
						c-3.48-20.6,9.33-61.96,13.57-82.42l-0.37-2.31c8.49-3,15.82-9.43,19.27-17.77c5.58,8.75,18.59,11.65,27.36,6.11
						c6.95-4.39,10.45-12.51,15.9-18.68c1.12-1.27,2.5-2.55,4.19-2.65c1.5-0.1,2.89,0.75,4.13,1.6c8.14,5.61,26.41,13.17,35.1,17.87
						c4.35,2.35,9.1,3.95,13.28,6.6c4.18,2.65,7.87,6.71,8.37,11.64c0.31,3.09,5.08,34.91,5.24,38.02
						c0.16,3.1-1.29,18.08,1.82,18.09L1263.38,641.39z"/>
				</g>
				<g>
					<g>
						<path class="st5" d="M1177.19,668.41c-0.08,0.12-0.16,0.24-0.24,0.36c-0.14,0.2-0.34,0.25,0.04-0.04
							c-0.19,0.15-0.34,0.4-0.51,0.58c-0.2,0.21-0.4,0.41-0.61,0.6c-0.11,0.1-0.22,0.19-0.32,0.28c-0.26,0.22-0.01-0.04,0.12-0.09
							c-0.24,0.09-0.49,0.35-0.71,0.48c-0.24,0.15-0.49,0.29-0.74,0.43c-0.1,0.05-0.2,0.1-0.31,0.15c-0.05,0.02-0.52,0.29-0.16,0.08
							c0.34-0.2-0.08,0.03-0.17,0.06c-0.13,0.05-0.27,0.1-0.41,0.14c-0.52,0.17-1.05,0.3-1.58,0.4c-0.11,0.02-0.23,0.03-0.34,0.05
							c0.66-0.14,0.26-0.04,0.09-0.02c-0.28,0.02-0.57,0.04-0.86,0.04c-0.26,0-0.51-0.01-0.77-0.02c-0.14-0.01-0.28-0.03-0.43-0.04
							c-0.33-0.03,0.56,0.11,0.09,0.01c-0.56-0.12-1.11-0.25-1.66-0.44c-1.27-0.45-2.87,0.51-3.16,1.79
							c-0.33,1.44,0.44,2.68,1.79,3.16c5.59,1.98,12.1-0.48,15.28-5.38c0.73-1.13,0.26-2.89-0.92-3.51
							C1179.42,666.81,1177.97,667.2,1177.19,668.41L1177.19,668.41z"/>
					</g>
				</g>
				<g>
					<g>
						<path class="st5" d="M1174.3,619.08c-5.04,5.06-9.36,10.9-13.31,16.83c-3.98,5.98-7.64,12.26-10.28,18.96
							c-0.51,1.29,0.56,2.82,1.79,3.16c1.46,0.4,2.65-0.5,3.16-1.79c2.42-6.15,6.05-12.16,9.76-17.74
							c3.71-5.58,7.76-11.03,12.5-15.79C1180.26,620.36,1176.63,616.73,1174.3,619.08L1174.3,619.08z"/>
					</g>
				</g>
				<g>
					<g>
						<path class="st5" d="M1159.32,657.92c-3.47-1.74-6.77-3.8-9.87-6.13c-0.5-0.37-1.41-0.42-1.98-0.26
							c-0.6,0.16-1.24,0.62-1.54,1.18c-0.31,0.6-0.47,1.32-0.26,1.98c0.22,0.68,0.62,1.11,1.18,1.54c3.1,2.34,6.4,4.39,9.87,6.13
							c1.2,0.6,2.84,0.36,3.51-0.92C1160.86,660.27,1160.6,658.57,1159.32,657.92L1159.32,657.92z"/>
					</g>
				</g>
				<g>
					<path class="st5" d="M1141.36,626.02c-0.22-1.27,1.66-2.07,2.71-1.33s1.22,2.27,0.87,3.51c-0.42,1.51-1.88,2.98-3.38,2.52
						c-1.04-0.32-1.65-1.49-1.61-2.58c0.03-1.09,0.57-2.1,1.2-2.99"/>
					<g>
						<path class="st5" d="M1143.84,625.34c0-0.02-0.01-0.04-0.01-0.07c0.03,0.23,0.06,0.46,0.09,0.68c-0.01-0.09-0.01-0.17,0-0.26
							c-0.03,0.23-0.06,0.46-0.09,0.68c0.01-0.1,0.04-0.2,0.07-0.3c-0.09,0.2-0.17,0.41-0.26,0.61c0.05-0.11,0.11-0.22,0.18-0.32
							c-0.13,0.17-0.27,0.35-0.4,0.52c0.08-0.1,0.17-0.18,0.27-0.26c-0.17,0.13-0.35,0.27-0.52,0.4c0.14-0.11,0.29-0.19,0.46-0.26
							c-0.2,0.09-0.41,0.17-0.61,0.26c0.17-0.07,0.34-0.11,0.52-0.14c-0.23,0.03-0.46,0.06-0.68,0.09c0.18-0.02,0.36-0.02,0.54,0
							c-0.23-0.03-0.46-0.06-0.68-0.09c0.13,0.02,0.26,0.06,0.39,0.1c-0.2-0.09-0.41-0.17-0.61-0.26c0.13,0.06,0.24,0.13,0.36,0.21
							c-0.17-0.13-0.35-0.27-0.52-0.4c0.15,0.12,0.28,0.25,0.39,0.39c-0.13-0.17-0.27-0.35-0.4-0.52c0.13,0.17,0.23,0.35,0.32,0.55
							c-0.09-0.2-0.17-0.41-0.26-0.61c0.11,0.28,0.19,0.57,0.23,0.86c-0.03-0.23-0.06-0.46-0.09-0.68c0.04,0.36,0.03,0.72-0.01,1.09
							c0.03-0.23,0.06-0.46,0.09-0.68c-0.06,0.37-0.15,0.72-0.29,1.07c0.09-0.2,0.17-0.41,0.26-0.61c-0.15,0.33-0.33,0.64-0.55,0.93
							c0.13-0.17,0.27-0.35,0.4-0.52c-0.19,0.23-0.39,0.44-0.62,0.63c0.17-0.13,0.35-0.27,0.52-0.4c-0.2,0.15-0.42,0.28-0.65,0.39
							c0.2-0.09,0.41-0.17,0.61-0.26c-0.18,0.07-0.36,0.12-0.55,0.15c0.23-0.03,0.46-0.06,0.68-0.09c-0.17,0.02-0.33,0.02-0.49,0
							c0.23,0.03,0.46,0.06,0.68,0.09c-0.17-0.02-0.33-0.07-0.49-0.13c0.2,0.09,0.41,0.17,0.61,0.26c-0.18-0.08-0.34-0.17-0.49-0.29
							c0.17,0.13,0.35,0.27,0.52,0.4c-0.15-0.12-0.28-0.26-0.4-0.41c0.13,0.17,0.27,0.35,0.4,0.52c-0.13-0.18-0.24-0.37-0.33-0.58
							c0.09,0.2,0.17,0.41,0.26,0.61c-0.1-0.24-0.16-0.48-0.2-0.73c0.03,0.23,0.06,0.46,0.09,0.68c-0.04-0.31-0.03-0.6,0.01-0.91
							c-0.03,0.23-0.06,0.46-0.09,0.68c0.06-0.37,0.16-0.72,0.3-1.07c-0.09,0.2-0.17,0.41-0.26,0.61c0.23-0.54,0.53-1.04,0.86-1.51
							c0.36-0.52,0.42-1.39,0.26-1.98c-0.16-0.6-0.62-1.24-1.18-1.54c-0.6-0.31-1.32-0.47-1.98-0.26c-0.66,0.22-1.14,0.61-1.54,1.18
							c-1.22,1.76-2.05,4.11-1.22,6.2c0.46,1.17,1.22,2.28,2.4,2.82c0.68,0.31,1.36,0.53,2.11,0.49c0.81-0.04,1.44-0.23,2.16-0.58
							c0.97-0.48,1.81-1.39,2.35-2.31c0.58-0.98,0.85-2.06,0.92-3.18c0.14-2.22-1.14-4.79-3.46-5.32c-1.19-0.27-2.55-0.11-3.57,0.59
							c-0.56,0.39-1.09,0.86-1.4,1.48c-0.15,0.31-0.3,0.62-0.36,0.97c-0.12,0.74-0.1,0.93,0.01,1.69c0.08,0.59,0.69,1.25,1.18,1.54
							c0.55,0.32,1.36,0.46,1.98,0.26c0.62-0.2,1.22-0.59,1.54-1.18c0.09-0.2,0.17-0.41,0.26-0.61
							C1143.96,626.25,1143.96,625.79,1143.84,625.34L1143.84,625.34z"/>
					</g>
				</g>
				<g>
					<path class="st5" d="M1194.56,640.75c0.13-0.69,0.94-1.09,1.63-0.96c0.69,0.12,1.25,0.63,1.67,1.19
						c1.25,1.68,1.47,4.16,0.26,5.87s-3.92,2.23-5.52,0.88c-1.19-1.01-1.54-2.77-1.13-4.27c0.41-1.5,1.46-2.76,2.68-3.72"/>
					<g>
						<path class="st5" d="M1197.03,641.44c0.01-0.07,0.03-0.13,0.06-0.2c-0.09,0.2-0.17,0.41-0.26,0.61
							c0.05-0.1,0.09-0.17,0.16-0.26c-0.13,0.17-0.27,0.35-0.4,0.52c0.07-0.08,0.14-0.15,0.22-0.21c-0.17,0.13-0.35,0.27-0.52,0.4
							c0.12-0.08,0.23-0.15,0.37-0.2c-0.2,0.09-0.41,0.17-0.61,0.26c0.14-0.05,0.27-0.08,0.41-0.1c-0.23,0.03-0.46,0.06-0.68,0.09
							c0.11-0.01,0.21-0.01,0.32,0c-0.23-0.03-0.46-0.06-0.68-0.09c0.2,0.03,0.38,0.08,0.57,0.16c-0.2-0.09-0.41-0.17-0.61-0.26
							c0.19,0.09,0.36,0.2,0.52,0.32c-0.17-0.13-0.35-0.27-0.52-0.4c0.23,0.19,0.42,0.4,0.61,0.63c-0.13-0.17-0.27-0.35-0.4-0.52
							c0.29,0.38,0.53,0.79,0.72,1.23c-0.09-0.2-0.17-0.41-0.26-0.61c0.18,0.45,0.3,0.9,0.37,1.38c-0.03-0.23-0.06-0.46-0.09-0.68
							c0.06,0.47,0.06,0.94,0,1.41c0.03-0.23,0.06-0.46,0.09-0.68c-0.06,0.39-0.16,0.76-0.3,1.12c0.09-0.2,0.17-0.41,0.26-0.61
							c-0.14,0.32-0.31,0.62-0.52,0.9c0.13-0.17,0.27-0.35,0.4-0.52c-0.21,0.27-0.45,0.51-0.73,0.72c0.17-0.13,0.35-0.27,0.52-0.4
							c-0.28,0.2-0.57,0.37-0.89,0.51c0.2-0.09,0.41-0.17,0.61-0.26c-0.35,0.14-0.71,0.24-1.09,0.3c0.23-0.03,0.46-0.06,0.68-0.09
							c-0.34,0.04-0.67,0.04-1.01,0.01c0.23,0.03,0.46,0.06,0.68,0.09c-0.33-0.05-0.65-0.13-0.97-0.26c0.2,0.09,0.41,0.17,0.61,0.26
							c-0.25-0.11-0.48-0.25-0.69-0.41c0.17,0.13,0.35,0.27,0.52,0.4c-0.21-0.17-0.39-0.36-0.56-0.57c0.13,0.17,0.27,0.35,0.4,0.52
							c-0.19-0.25-0.34-0.51-0.46-0.79c0.09,0.2,0.17,0.41,0.26,0.61c-0.15-0.36-0.25-0.73-0.31-1.12c0.03,0.23,0.06,0.46,0.09,0.68
							c-0.05-0.43-0.05-0.86,0-1.29c-0.03,0.23-0.06,0.46-0.09,0.68c0.07-0.45,0.19-0.87,0.36-1.28c-0.09,0.2-0.17,0.41-0.26,0.61
							c0.22-0.5,0.5-0.96,0.83-1.4c-0.13,0.17-0.27,0.35-0.4,0.52c0.47-0.6,1.01-1.13,1.61-1.61c0.48-0.38,0.75-1.23,0.75-1.82
							c0-0.63-0.28-1.38-0.75-1.82c-0.49-0.45-1.13-0.78-1.82-0.75c-0.72,0.03-1.25,0.3-1.82,0.75c-2.03,1.63-3.56,4.04-3.59,6.7
							c-0.04,2.78,1.67,5.49,4.42,6.24c2.35,0.63,5.18-0.18,6.72-2.1c1.87-2.34,2.02-5.36,0.8-8.04c-0.69-1.51-1.96-2.84-3.56-3.34
							c-2.05-0.65-4.51,0.57-5.03,2.7c-0.32,1.3,0.42,2.85,1.79,3.16C1195.2,643.53,1196.69,642.83,1197.03,641.44L1197.03,641.44z"
							/>
					</g>
				</g>
				<g>
					<g>
						<path class="st5" d="M1216.21,620.05c-1.28-5.12-5.36-9.31-10.39-10.84c-1.29-0.39-2.86,0.47-3.16,1.79
							c-0.32,1.39,0.42,2.74,1.79,3.16c0.25,0.08,0.5,0.16,0.75,0.25c0.12,0.05,0.24,0.1,0.37,0.14c-0.76-0.29-0.3-0.12-0.13-0.05
							c0.48,0.22,0.94,0.47,1.39,0.75c0.22,0.14,0.44,0.29,0.66,0.44c0.16,0.11,0.49,0.42-0.1-0.09c0.08,0.07,0.17,0.14,0.26,0.21
							c0.41,0.34,0.79,0.7,1.16,1.08c0.17,0.18,0.33,0.35,0.48,0.54c0.09,0.1,0.17,0.2,0.25,0.31c0.31,0.37-0.34-0.47-0.08-0.1
							c0.31,0.43,0.6,0.87,0.86,1.33c0.13,0.23,0.25,0.46,0.36,0.7c0.06,0.12,0.11,0.24,0.17,0.36c0.19,0.41-0.22-0.58-0.06-0.13
							c0.18,0.5,0.35,0.99,0.48,1.51c0.33,1.3,1.86,2.21,3.16,1.79C1215.77,622.77,1216.56,621.45,1216.21,620.05L1216.21,620.05z"
							/>
					</g>
				</g>
				<g>
					<g>
						<path class="st5" d="M1163.37,599.32c-5.36-1.51-11.04-1.57-16.44-0.21c-1.3,0.33-2.21,1.86-1.79,3.16
							c0.44,1.35,1.76,2.15,3.16,1.79c2.43-0.61,4.26-0.84,6.87-0.8c0.6,0.01,1.2,0.04,1.8,0.08c0.28,0.02,0.55,0.05,0.83,0.08
							c0.18,0.02,0.37,0.04,0.55,0.06c-0.18-0.02-0.18-0.02,0,0c1.24,0.18,2.45,0.45,3.66,0.79c1.29,0.36,2.85-0.45,3.16-1.79
							C1165.48,601.12,1164.76,599.71,1163.37,599.32L1163.37,599.32z"/>
					</g>
				</g>
				<g>
					<path class="st6" d="M1246.78,657.09c1.15-17.24-7.96-31.34-13.79-40.22c-8.25-12.57-14.41-52.95-16.09-52.86
						c-1.9,0.1-45.1,23.22-52.86,27.58c-9.78,5.5-41.71,18.49-57.46,16.09c-0.38-0.06,2.18-7.37,1.15-13.79
						c-1.25-7.78-5.35-15.96,4.68-30.24c18.3-26.07,13.71-47.9,67.72-52.5c54.01-4.6,46.52,23.16,63.2,31.03
						c13.93,6.57,43.93,23.39,51.71,35.62c5.07,7.98-6.46,40.94-10,47.23C1281.5,631.33,1246.78,657.09,1246.78,657.09z"/>
				</g>
				<g>
					<path class="st7" d="M1316.32,765.97c-13.27,0.24-70.68-15.79-70.68-15.79c6.59,33.25-87.2,118.03-103.42,112.61
						c-6.39-2.13,2.29-69.69,4.44-78.47s7.34-16.6,11.08-24.89c0.48-1.05,5.88-8.18,6.31-9.25c0,0-29.94,0.6-44.91,1.06
						c-16,0.5-22.46,41.52-28.28,56c-3.37,8.39-19.51,66.13-16.82,77.69c3.37,14.5,35.34,71.84,37.19,73.51
						c2.27,2.03-12.48,104.13-9.34,104.29c44.36,2.17,98.54-39.29,142.94-39.37c12.23-40.01,52.21-59.09,46.72-103.19
						c8.71-19.28,12.39-40.55,10.64-61.47c-1.43-17.06-18.86-37.9-18.46-54.99c0.4-17.1,11.88-26.16,28.16-33.83L1316.32,765.97z"/>
				</g>
				<g>
					<g>
						<path class="st8" d="M1176.08,947.72c13.57,4.81,28.17,6.62,42.51,5.41c1.43-0.12,2.65-1.13,2.65-2.65
							c0-1.34-1.22-2.78-2.65-2.65c-13.92,1.17-27.92-0.55-41.1-5.22c-1.35-0.48-2.91,0.54-3.27,1.85
							C1173.82,945.92,1174.72,947.24,1176.08,947.72L1176.08,947.72z"/>
					</g>
				</g>
				<g>
					<path class="st9" d="M1276.52,2014.09c9.68,0.4,19.37,0.8,29.05,1.2c1.57,0.07,3.24,0.17,4.49,1.12
						c1.04,0.79,1.6,2.04,2.1,3.24c2.89,7.01,4.89,14.39,5.93,21.9c0.69,4.98,1.01,10.21,3.52,14.57
						c4.08,7.09,12.63,9.94,19.55,14.32c11.83,7.48,19.69,20.88,20.46,34.85c-16.52-1.32-75.2,1.4-81.71-3.1
						c-4.9-3.39-5.65-10.2-5.95-16.15c-0.56-11.23-1.12-22.47-1.67-33.7c-0.67-13.59-1.25-27.78,4.32-40.19"/>
				</g>
				<g>
					<g>
						<path class="st10" d="M1314.69,2031.95c-5.2-1.65-10.91-1.66-16.12-0.05c-1.28,0.4-2.23,1.81-1.79,3.16
							c0.42,1.29,1.79,2.22,3.16,1.79c4.52-1.4,8.89-1.39,13.39,0.05c1.28,0.41,2.86-0.48,3.16-1.79
							C1316.8,2033.71,1316.06,2032.38,1314.69,2031.95L1314.69,2031.95z"/>
					</g>
				</g>
				<g>
					<g>
						<path class="st10" d="M1318.17,2043.01c-5.41-0.24-10.82-0.48-16.23-0.72c-1.34-0.06-2.63,1.22-2.57,2.57
							c0.06,1.44,1.13,2.5,2.57,2.57c5.41,0.24,10.82,0.48,16.23,0.72c1.34,0.06,2.63-1.22,2.57-2.57
							C1320.67,2044.14,1319.61,2043.07,1318.17,2043.01L1318.17,2043.01z"/>
					</g>
				</g>
				<g>
					<path class="st10" d="M1273.06,2059.53c3.33-2.68,8.36-0.25,11.26,2.9c3.87,4.21,6.37,10.32,4.43,15.69
						c-1.95,5.38-9.66,8.35-13.77,4.38L1273.06,2059.53z"/>
				</g>
				<g>
					<path class="st9" d="M1151.27,2014.09c-9.68,0.4-19.37,0.8-29.05,1.2c-1.57,0.07-3.24,0.17-4.49,1.12
						c-1.04,0.79-1.6,2.04-2.1,3.24c-2.89,7.01-4.89,14.39-5.93,21.9c-0.69,4.98-1.01,10.21-3.52,14.57
						c-4.08,7.09-40.73,11.07-47.65,15.44c-11.83,7.48-19.69,20.88-20.46,34.85c16.52-1.32,103.3,0.28,109.81-4.23
						c4.9-3.39,5.65-10.2,5.95-16.15c0.56-11.23,1.12-22.47,1.67-33.7c0.67-13.59,1.25-27.78-4.32-40.19"/>
				</g>
				<g>
					<g>
						<path class="st10" d="M1114.47,2036.9c4.51-1.43,8.88-1.45,13.39-0.05c1.28,0.4,2.86-0.47,3.16-1.79
							c0.32-1.39-0.42-2.73-1.79-3.16c-5.21-1.62-10.92-1.61-16.12,0.05c-1.28,0.41-2.23,1.8-1.79,3.16
							C1111.73,2036.39,1113.1,2037.34,1114.47,2036.9L1114.47,2036.9z"/>
					</g>
				</g>
				<g>
					<g>
						<path class="st10" d="M1109.63,2048.15c5.41-0.24,10.82-0.48,16.23-0.72c1.34-0.06,2.63-1.14,2.57-2.57
							c-0.06-1.34-1.13-2.63-2.57-2.57c-5.41,0.24-10.82,0.48-16.23,0.72c-1.34,0.06-2.63,1.14-2.57,2.57
							C1107.12,2046.92,1108.19,2048.21,1109.63,2048.15L1109.63,2048.15z"/>
					</g>
				</g>
				<g>
					<path class="st10" d="M1154.73,2059.53c-3.33-2.68-8.36-0.25-11.26,2.9c-3.87,4.21-6.37,10.32-4.43,15.69
						c1.95,5.38,9.66,8.35,13.77,4.38L1154.73,2059.53z"/>
				</g>
				<g>
					<path class="st5" d="M1106.59,1000.68c-5.56-6.65-119.3,404.83-153.01,504.42c-18.59,54.91,439.07,82.54,438.57,61.09
						c-3.26-140.28-31.67-279.98-71.47-415.02c-17.44-59.17-28.14-107.55-68.77-151.22
						C1256.48,1009.53,1124.57,1022.17,1106.59,1000.68z"/>
				</g>
				<g>
					<g>
						<path class="st11" d="M1161.26,621.68c0.89,0.07,1.04,0.09,1.91,0.25c0.84,0.15,1.68,0.34,2.51,0.54
							c1.84,0.46,3.66,1.01,5.46,1.6c3.36,1.1,6.68,2.35,10.06,3.39c3.13,0.96,4.46-3.93,1.35-4.89c-7-2.16-13.9-5.4-21.29-5.96
							c-1.37-0.1-2.54,1.24-2.54,2.54C1158.73,620.61,1159.89,621.58,1161.26,621.68L1161.26,621.68z"/>
					</g>
				</g>
				<g>
					<g>
						<path class="st11" d="M1225.35,637.29c6.4,0.94,12.84,1.41,19.25,2.2c6.6,0.81,13.04,2.35,19.32,4.54
							c1.29,0.45,2.77-0.51,3.12-1.77c0.38-1.4-0.47-2.67-1.77-3.12c-6.49-2.26-13.13-3.75-19.94-4.63
							c-6.2-0.8-12.44-1.2-18.63-2.11c-1.35-0.2-2.73,0.34-3.12,1.77C1223.25,635.36,1223.99,637.09,1225.35,637.29L1225.35,637.29z
							"/>
					</g>
				</g>
				<circle class="st21" cx="1136.74" cy="622.09" r="24.24"/>
				<circle class="st21" cx="1200.9" cy="641.96" r="24.24"/>
				<g>
					<g>
						<path class="st13" d="M1170.19,1174.09c-0.67,4.48-0.98,9.01-1.36,13.52c-0.69,8.23-1.29,16.46-1.89,24.7
							c-0.82,11.27-1.6,22.54-2.36,33.82c-0.9,13.27-1.79,26.53-2.66,39.8c-0.95,14.4-1.89,28.8-2.82,43.21
							c-0.94,14.52-1.87,29.05-2.81,43.57c-0.88,13.63-1.75,27.26-2.62,40.89c-0.76,11.84-1.52,23.68-2.3,35.52
							c-0.6,9.12-1.19,18.25-1.82,27.37c-0.37,5.39-0.72,10.79-1.17,16.17c-0.05,0.64-0.11,1.27-0.17,1.91
							c-0.13,1.38,1.28,2.57,2.57,2.57c1.5,0,2.44-1.18,2.57-2.57c0.41-4.33,0.68-8.68,0.98-13.02c0.57-8.23,1.12-16.46,1.66-24.69
							c0.74-11.29,1.47-22.58,2.2-33.87c0.86-13.28,1.71-26.55,2.56-39.83c0.92-14.35,1.84-28.7,2.77-43.05
							c0.93-14.47,1.87-28.94,2.82-43.4c0.89-13.63,1.79-27.27,2.71-40.9c0.8-11.88,1.61-23.77,2.46-35.65
							c0.64-9.06,1.3-18.12,2.02-27.17c0.43-5.41,0.83-10.84,1.45-16.24c0.04-0.35,0.08-0.69,0.12-1.04c0.1-0.8-0.1,0.69,0.04-0.25
							c0.2-1.37-0.34-2.76-1.79-3.16C1172.14,1171.96,1170.4,1172.71,1170.19,1174.09L1170.19,1174.09z"/>
					</g>
				</g>
				<g>
					<g>
						<path class="st13" d="M1139.16,1248.78c-0.59,3.9-1.13,7.81-1.68,11.72c-1,7.15-2,14.31-2.99,21.47
							c-1.34,9.66-2.66,19.32-3.99,28.98c-1.54,11.25-3.08,22.49-4.61,33.74c-1.67,12.22-3.33,24.44-4.98,36.67
							c-1.66,12.22-3.31,24.44-4.95,36.66c-1.58,11.76-3.16,23.52-4.73,35.28c-1.35,10.1-2.68,20.2-4.01,30.31
							c-1.03,7.83-2.05,15.67-3.04,23.51c-0.6,4.78-1.22,9.55-1.74,14.34c-0.07,0.61-0.13,1.22-0.19,1.83
							c-0.13,1.38,1.28,2.57,2.57,2.57c1.5,0,2.44-1.18,2.57-2.57c0.38-3.93,0.89-7.84,1.38-11.76c0.89-7.17,1.82-14.33,2.76-21.5
							c1.25-9.58,2.51-19.16,3.79-28.75c1.5-11.29,3.01-22.58,4.52-33.87c0.76-5.67,1.57-11.65,2.37-17.61
							c0.83-6.17,1.67-12.35,2.5-18.52c1.65-12.22,3.31-24.44,4.97-36.66c1.58-11.57,3.15-23.15,4.74-34.72
							c1.38-10.09,2.77-20.18,4.16-30.27c1.07-7.79,2.15-15.58,3.24-23.37c0.67-4.77,1.33-9.54,2.02-14.31
							c0.09-0.61,0.18-1.22,0.27-1.82c0.21-1.37-0.34-2.76-1.79-3.16C1141.11,1246.65,1139.37,1247.4,1139.16,1248.78
							L1139.16,1248.78z"/>
					</g>
				</g>
				<g>
					<g>
						<path class="st13" d="M1242.49,1227.63c0.09,3.87,0.36,7.73,0.59,11.59c0.43,7,0.9,13.99,1.38,20.99
							c0.65,9.37,1.31,18.74,1.99,28.11c0.79,10.93,1.59,21.87,2.4,32.8c0.88,11.83,1.76,23.65,2.65,35.48
							c0.9,11.92,1.8,23.84,2.7,35.76c0.85,11.21,1.71,22.41,2.56,33.62c0.75,9.83,1.51,19.65,2.26,29.48
							c0.59,7.64,1.18,15.27,1.76,22.91c0.36,4.69,0.72,9.37,1.08,14.06c0.05,0.61,0.09,1.21,0.14,1.82
							c0.11,1.38,1.1,2.57,2.57,2.57c1.31,0,2.67-1.18,2.57-2.57c-0.29-3.86-0.59-7.72-0.89-11.57c-0.54-6.99-1.08-13.98-1.62-20.98
							c-0.72-9.37-1.44-18.73-2.16-28.1c-0.84-10.93-1.67-21.86-2.51-32.79c-0.9-11.83-1.8-23.65-2.69-35.48
							c-0.9-11.92-1.79-23.84-2.68-35.76c-0.83-11.21-1.66-22.41-2.48-33.62c-0.72-9.83-1.42-19.65-2.11-29.48
							c-0.53-7.64-1.06-15.28-1.55-22.92c-0.3-4.69-0.61-9.38-0.8-14.07c-0.03-0.61-0.05-1.21-0.06-1.82
							C1247.55,1224.33,1242.42,1224.32,1242.49,1227.63L1242.49,1227.63z"/>
					</g>
				</g>
				<g>
					<g>
						<path class="st14" d="M1241.8,1674.04c-0.99,9.63-1.25,19.32-0.78,28.99c0.16,3.22,5.18,3.24,5.02,0
							c-0.47-9.67-0.21-19.36,0.78-28.99c0.14-1.35-1.25-2.51-2.51-2.51C1242.84,1671.52,1241.94,1672.68,1241.8,1674.04
							L1241.8,1674.04z"/>
					</g>
				</g>
				<g>
					<g>
						<path class="st14" d="M1074.31,1688.05c-0.41,4.4,0.97,8.38,3.06,12.19c1.92,3.5,3.79,6.59,4.04,10.66
							c0.08,1.35,1.1,2.51,2.51,2.51c1.3,0,2.59-1.15,2.51-2.51c-0.27-4.5-2.01-8.34-4.18-12.22c-1.98-3.53-3.31-6.51-2.92-10.63
							c0.13-1.35-1.25-2.51-2.51-2.51C1075.36,1685.54,1074.44,1686.69,1074.31,1688.05L1074.31,1688.05z"/>
					</g>
				</g>
			</g>
			<g>
				<g>
					<g>
						<g>
							<g>
								<path class="st4" d="M340.73,930.14c-10.16-13.29-13.63-30.73-12.9-47.44c0.73-16.71,5.3-32.98,9.85-49.07
									c-8.81,5.94-17.61,11.89-26.42,17.83c-2.33,1.57-4.89,3.21-7.7,3c-3.31-0.24-5.83-2.95-7.99-5.47
									c-11.82-13.78-23.64-27.55-35.46-41.33c-4.97,6.91-0.83,16.48,3.65,23.71s9.41,16.08,5.63,23.7
									c-11.7-16.67-25.54-31.85-41.08-45.03c1.35,21.53,23.46,36.33,28.55,57.3c-2.79,1.67-6.28-0.31-8.92-2.22
									c-15.37-11.18-30.74-22.36-46.11-33.53c-2.27,6.77,1.32,14.17,6.07,19.48s10.76,9.51,14.89,15.33
									c1.49,2.09,2.75,4.65,2.13,7.14c-2.24,8.98-19.57,0.48-24.38,8.39c28.58,20.22,57.16,40.45,85.74,60.67
									c3.26,2.31,6.63,4.66,10.51,5.59c3.61,0.86,7.4,0.42,11.04-0.31c12.43-2.51,24.14-8.48,33.47-17.07"/>
							</g>
							<g>
								<path class="st15" d="M301.17,966.88c-2.18-4.35-7.65-15.28-9.82-19.63c-0.52-1.03-1.04-2.2-0.69-3.29
									c0.32-1.01,1.29-1.62,2.19-2.15c13.29-7.77,26.57-15.54,39.86-23.3c0.81-0.47,1.65-0.96,2.59-1.02
									c2.82-0.17,4.34,3.26,5.17,6.03c1.87,6.28,4.27,12.4,7.15,18.28l-32.38,26.56L301.17,966.88z"/>
							</g>
							<g>
								<path class="st5" d="M650.73,940.56c-0.49,18.06-7.21,35.85-16.64,51.15c-9.43,15.3-21.51,28.37-33.88,40.81
									c-50.17,50.41-106.99,92.31-167.64,123.61c-7.81,4.03-15.98,7.96-24.35,7.96c-7.83,0-15.14-3.46-21.71-7.77
									c-28.37-18.61-45.39-52.52-59.28-86.12c-14.53-35.15-26.94-71.53-37.12-108.82c21.19,0.11,42.88-11.52,56.88-30.49
									c23.7,43.94,45.11,89.55,64.08,136.54c4.48,11.09,8.83,24,4.11,35.66c0.75-7.03,1.49-14.06,2.24-21.1
									c0.23-2.16,0.47-4.37,1.34-6.36c1.32-3.01,3.88-5.1,6.32-7.06c34.84-28.07,67.31-60.05,96.71-95.24
									c13.07-15.65,25.67-32.06,40.99-44.81c15.32-12.75,34.05-21.68,52.28-19.61c18.23,2.07,35.12,17.37,36.53,37.94"/>
							</g>
							<g>
								<g>
									<path class="st13" d="M344.9,932.39c8.59,17.14,17.74,33.99,26.63,50.98c2.74,5.23,5.45,10.47,8.13,15.73
										c1.2,2.35,4.74,0.28,3.54-2.07c-8.97-17.6-18.39-34.97-27.5-52.5c-2.45-4.72-4.88-9.45-7.26-14.21
										C347.26,927.95,343.72,930.03,344.9,932.39L344.9,932.39z"/>
								</g>
							</g>
						</g>
						<g>
							<g>
								<path class="st13" d="M798.69,2111.12c-8.89,0-16.69-7.2-18.1-17.27l-93.98-675.78c-12.61-55.43-40.74-65.87-61.28-68.58
									H403.66c-26.05,5.18-43.53,19.7-54.78,45.53l-104.7,698.39c-1.66,11.1-11.11,18.6-21.1,16.75
									c-9.99-1.85-16.74-12.35-15.07-23.46l105.11-701.16c0.26-1.76,0.74-3.48,1.41-5.11c16.47-40.12,44.93-64.16,84.58-71.44
									c0.99-0.18,1.99-0.27,2.99-0.27h224.28c0.67,0,1.34,0.04,2,0.12c25.1,3.07,45.99,13.81,62.1,31.92
									c14.78,16.62,25.51,39.62,31.91,68.37c0.13,0.59,0.24,1.18,0.32,1.78l94.11,676.7c1.55,11.12-5.31,21.54-15.32,23.26
									C800.56,2111.04,799.62,2111.12,798.69,2111.12z"/>
							</g>
							<g>
								<path class="st16" d="M744.3,1931.07c-8.74,0-16.47-6.97-18.04-16.86l-12.07-76.52c-8.26-33.1-23.16-37.4-37.95-37.07
									c-0.12,0-0.24,0-0.36,0H355.65c-0.34,0-0.67-0.01-1.01-0.03c-15.65-0.94-25.61,5.68-33.91,22.79l-12.98,90.52
									c-1.59,11.12-11,18.69-20.99,16.92c-10-1.77-16.81-12.22-15.22-23.34l13.44-93.76c0.29-2.05,0.87-4.03,1.7-5.88
									c15.04-33.54,38.42-49.67,69.44-47.98h319.58c26.14-0.53,60.22,10.92,74.09,68.07c0.14,0.59,0.26,1.18,0.36,1.79
									l12.22,77.45c1.75,11.09-4.92,21.65-14.89,23.6C746.42,1930.97,745.35,1931.07,744.3,1931.07z"/>
							</g>
							<polygon class="st13" points="251.27,2111.35 205.91,2111.35 199.24,2065.99 257.94,2065.99 							"/>
							<polygon class="st13" points="821.14,2111.35 775.79,2111.35 769.12,2065.99 827.81,2065.99 							"/>
						</g>
						<g>
							<path class="st6" d="M898.08,1883.17c-15.48-64.17-10.4-277.92-14.83-343.78c13.12-61.34-16.04-146.13-35.21-237.28
								l-153.89-15.5l8.52,39.17l-94.09-5.98l-26.33,254.08c6.72,78.75-28.23,265.98-21.51,344.73l96.56,4.89
								c16.23-34.5,78.51-350.36,69.67-387.45c0,0,50.58,304.58,66.31,338.14c7.34,15.66,16.05,35.96,25.36,50.53
								C834.05,1948.86,898.08,1883.17,898.08,1883.17z"/>
						</g>
						<g>
							<path class="st17" d="M635.75,1957.94c-21.44,0.75-42.89,1.51-64.33,2.26l6.28,63.6l44.67,2.37c0,0,30.56-64.82,27.78-67.86
								C647.37,1955.28,635.75,1957.94,635.75,1957.94z"/>
						</g>
						<g>
							<path class="st17" d="M898.82,1918.46c-20.39,10.51-40.46,21.62-60.15,33.29l37.01,52.03l41.49-22.37l-13.54-63.48
								L898.82,1918.46z"/>
						</g>
						<g>
							<path class="st6" d="M625.45,2019.87c5.3,20.94,8.67,42.36,10.05,63.92c0.2,3.19,0.36,6.46-0.49,9.54
								c-2.47,8.95-12.16,13.5-20.8,16.92c-2.42,0.96-5.2,1.91-7.53,0.75c-2.51-1.25-120-1.79-137.61-4.8
								c-4.56-0.78-9.76-2.43-11.35-6.77c-1.81-4.92,2.14-9.98,6.08-13.44c7.46-6.55,16.01-11.85,25.19-15.62
								c12.37-5.09,59.65-7.45,71.13-14.31c11.48-6.86,20.71-20.45,16.7-33.21L625.45,2019.87z"/>
						</g>
						<g>
							<path class="st6" d="M915.33,1968.14c1.44,8.05,12.18,22.81,18.21,28.32c6.03,5.52,12.57,11.03,15.6,18.62
								s0.98,17.96-6.56,21.11c-4.92,2.06-68.14,63.1-93.37,78.46c-5.44,3.31-11.19,6.62-17.55,7c-6.35,0.38-13.41-3.15-14.87-9.34
								c-0.92-3.91,0.5-8,2.42-11.52c6.83-12.55,19.51-20.61,29.27-31.05c15.71-16.79,19.02-48.93,16.71-71.8
								C864.71,1999.51,915.33,1968.14,915.33,1968.14z"/>
						</g>
						<g>
							<path class="st18" d="M561.48,1909.64c33.96,8.92,70.23,10.05,104.38,3.25c-0.31,14.32-1.25,30.06-12.21,40.22
								c-8.49,7.86-21.23,10.6-33.41,12.11c-18.59,2.32-37.54,2.61-56.31,0.86c-2.86-0.27-5.87-0.64-8.15-2.24
								c-3.66-2.57-4.15-7.36-3.54-11.43s2-8.2,0.93-12.24c-0.79-2.97-2.83-5.56-4.08-8.42c-4.01-9.2,2.21-20.67,12.64-23.31"/>
							<g>
								<path class="st18" d="M560.71,1912.42c26.84,7.02,54.96,9.32,82.58,6.67c7.83-0.75,15.62-1.89,23.33-3.42
									c-1.22-0.93-2.43-1.85-3.65-2.78c-0.26,11.74-0.68,24.81-8.05,34.56c-7.71,10.21-21.5,13.14-33.47,14.74
									c-15.79,2.11-31.83,2.62-47.72,1.74c-3.83-0.21-7.71-0.39-11.51-0.9c-2.81-0.38-5.39-1.23-6.59-3.74
									c-1.02-2.14-0.82-5.11-0.39-7.47c0.69-3.83,1.61-7.62,0.9-11.52c-0.38-2.07-1.34-4.01-2.36-5.84
									c-0.86-1.54-1.91-3.28-2.38-4.67c-0.86-2.56-0.87-4.92-0.21-7.42c1.43-5.39,5.78-9.69,11.29-11.14
									c3.59-0.95,2.07-6.51-1.53-5.56c-5.97,1.57-11.22,5.78-13.89,11.37c-2.83,5.94-2.65,12.31,0.47,18.09
									c0.82,1.52,1.81,3,2.45,4.62c0.69,1.75,0.76,3.54,0.58,5.4c-0.35,3.64-1.6,7.15-1.44,10.85c0.14,3.34,1.18,6.74,3.64,9.11
									c2.9,2.8,6.88,3.46,10.74,3.84c17.06,1.67,34.33,1.55,51.38-0.21c14.2-1.47,30.25-3.55,41.07-13.83
									c10.07-9.57,12.12-23.93,12.63-37.14c0.06-1.62,0.11-3.24,0.14-4.86c0.04-1.99-1.87-3.13-3.65-2.78
									c-26.39,5.22-53.81,5.69-80.37,1.47c-7.56-1.2-15.06-2.78-22.47-4.72C558.65,1905.92,557.12,1911.48,560.71,1912.42
									L560.71,1912.42z"/>
							</g>
						</g>
						<g>
							<path class="st18" d="M836.49,1916.5c-4.22,2.09-8.44,4.17-12.66,6.26c-1.06,0.53-2.18,1.1-2.8,2.12
								c-0.76,1.25-0.55,2.84-0.32,4.28c1.9,11.9,3.81,23.81,5.71,35.71c0.16,1.01,0.34,2.07,0.97,2.88
								c1.88,2.44,5.72,0.91,8.38-0.65c24.07-14.09,55.31-16.03,74.9-35.89c3.89-3.94,7.23-8.63,8.58-14
								c1.86-7.41-0.33-15.4-4.43-21.85c-4.1-6.45-9.97-11.56-16-16.25c-0.72-0.56-1.52-1.14-2.43-1.15
								c-0.88-0.01-1.66,0.52-2.37,1.03c-2.82,2-5.64,4-8.45,6L836.49,1916.5z"/>
							<g>
								<path class="st18" d="M835.11,1914.15c-3.35,1.65-6.69,3.31-10.04,4.96c-2.99,1.48-6.52,2.81-7.16,6.52
									c-0.31,1.76,0.05,3.5,0.33,5.24c0.31,1.96,0.63,3.91,0.94,5.87c0.6,3.75,1.2,7.5,1.8,11.25s1.2,7.5,1.8,11.25
									c0.29,1.79,0.57,3.59,0.86,5.38c0.29,1.83,0.58,3.61,1.83,5.07c4.32,5.06,11.32-0.15,15.64-2.39
									c20.37-10.57,44.32-13.58,63.21-27.13c10.15-7.28,19.65-17.93,18.18-31.31c-1.53-13.85-11.79-24.25-22.45-32.21
									c-1.42-1.06-3.14-1.7-4.93-1.23c-1.7,0.44-3.09,1.67-4.49,2.66c-2.16,1.53-4.3,3.13-6.5,4.61
									c-0.98,0.66-1.99,1.27-2.98,1.91c-5.05,3.24-10.1,6.48-15.15,9.73c-10.1,6.48-20.2,12.97-30.31,19.45
									C835.5,1913.9,835.3,1914.02,835.11,1914.15c-2.95,1.89-0.21,6.62,2.76,4.72c8.11-5.21,16.22-10.41,24.33-15.62
									c8.24-5.29,16.59-10.45,24.74-15.88c2.6-1.73,5.11-3.62,7.65-5.43c0.3-0.21,1.41-1.26,1.8-1.21
									c0.13,0.02,0.6,0.41,0.74,0.52c1.2,0.88,2.34,1.85,3.48,2.8c4.73,3.94,9.24,8.3,12.41,13.62
									c2.97,4.99,4.78,10.93,4.01,16.76c-0.76,5.8-4.28,10.8-8.29,14.86c-15.35,15.58-38.04,19.91-57.69,27.62
									c-5.13,2.01-10.2,4.23-15.02,6.92c-1.14,0.64-2.26,1.38-3.47,1.89c-0.43,0.18-0.88,0.33-1.33,0.44
									c0.09-0.02-0.96,0.17-0.58,0.13c-0.08,0.01-0.9,0-0.51,0.05c-0.1-0.01-0.72-0.32-0.45-0.12c0.23,0.17-0.14-0.09-0.16-0.14
									c-0.12-0.43-0.29-0.88-0.38-1.35c-0.34-1.81-0.59-3.64-0.88-5.46c-1.12-7.01-2.24-14.02-3.36-21.03
									c-0.54-3.4-1.29-6.83-1.63-10.26c-0.1-0.96-0.15-1.6,0.66-2.16c1.43-0.98,3.21-1.64,4.76-2.41
									c3.06-1.51,6.11-3.02,9.17-4.53c1.32-0.65,1.69-2.53,0.98-3.74C838.06,1913.78,836.43,1913.49,835.11,1914.15z"/>
							</g>
						</g>
						<g>
							<g>
								<path class="st18" d="M734.51,1549.13c-3.53-10.71-7.06-21.41-10.59-32.12c-1.68-5.11-3.2-10.31-5.07-15.36
									c-1-2.69-2.84-4.9-4.95-6.8c-4.97-4.45-10.88-7.77-16.43-11.41c-1.38-0.91-2.75-1.83-4.09-2.79c-0.3-0.22-0.6-0.44-0.9-0.66
									c-0.26-0.19-0.97-0.76-0.34-0.25c-0.61-0.49-1.21-0.97-1.8-1.49c-0.48-0.43-0.96-0.87-1.41-1.33
									c-0.39-0.39-1.15-0.98-1.34-1.5c0.01,0.03,0.53,0.75,0.19,0.24c-0.08-0.11-0.16-0.22-0.24-0.33
									c-0.15-0.22-0.29-0.44-0.42-0.67c-0.13-0.22-0.23-0.45-0.36-0.67c-0.23-0.38,0.26-0.02,0.15,0.37
									c0.02-0.09-0.13-0.33-0.15-0.42c-0.77-2.81-1.51-5.6-2.46-8.37c-1.63-4.77-3.37-9.49-5.1-14.23
									c-4.54-12.43-9.09-24.86-13.2-37.44c-2-6.14-3.91-12.31-5.56-18.55c-0.7-2.65-1.35-5.32-1.9-8
									c-0.25-1.21-0.48-2.42-0.68-3.64c-0.09-0.53-0.17-1.07-0.25-1.6c-0.13-0.87,0.1,0.87,0,0.02c-0.03-0.28-0.07-0.56-0.1-0.84
									c-0.11-0.97-0.18-1.94-0.21-2.92c-0.07-1.98-1.64-3.67-3.67-3.67c-1.93,0-3.74,1.68-3.67,3.67
									c0.17,4.88,1.17,9.76,2.29,14.5c1.42,6.02,3.17,11.96,5.02,17.86c4.04,12.85,8.62,25.51,13.24,38.16
									c1.87,5.12,3.75,10.24,5.57,15.38c1.13,3.21,2.35,6.44,3.15,9.75c0.47,1.91,1.02,3.7,2.2,5.32
									c1.91,2.63,4.32,4.67,6.89,6.62c5.28,4.02,11.11,7.23,16.53,11.05c0.64,0.45,1.27,0.92,1.9,1.38
									c0.15,0.11,0.54,0.43-0.11-0.09c0.14,0.11,0.27,0.22,0.41,0.32c0.3,0.24,0.6,0.48,0.89,0.73c1.01,0.85,1.98,1.75,2.83,2.76
									c0.09,0.11,0.17,0.22,0.27,0.32c0.31,0.33-0.4-0.65-0.2-0.26c0.12,0.22,0.31,0.43,0.45,0.65c0.15,0.24,0.3,0.48,0.43,0.73
									c0.06,0.11,0.1,0.22,0.16,0.32c0.29,0.51-0.22-0.71-0.13-0.31c0.59,2.55,1.68,5.08,2.5,7.56
									c3.5,10.63,7.01,21.26,10.51,31.89c0.88,2.68,1.76,5.35,2.65,8.03c0.62,1.88,2.53,3.1,4.51,2.56
									C733.79,1553.13,735.13,1551.02,734.51,1549.13L734.51,1549.13z"/>
							</g>
						</g>
						<g>
							<g>
								<path class="st18" d="M867.24,1400.25c-11.21-13.54-22.71-26.84-34.49-39.89c-3.35-3.71-6.72-7.4-10.12-11.07
									c-1.34-1.45-3.82-1.36-5.19,0c-1.45,1.45-1.35,3.73,0,5.19c11.94,12.91,23.6,26.07,34.98,39.47
									c3.24,3.81,6.45,7.64,9.64,11.5c1.26,1.53,3.88,1.31,5.19,0C868.75,1403.92,868.51,1401.78,867.24,1400.25L867.24,1400.25z"
									/>
							</g>
						</g>
						<g>
							<g>
								<path class="st18" d="M616.87,1354.44c0.36,15.61-4.21,30.83-13.18,43.78c-1.13,1.63-0.3,4.07,1.32,5.02
									c1.82,1.07,3.89,0.32,5.02-1.32c9.57-13.81,14.58-30.69,14.19-47.48c-0.05-1.98-1.65-3.67-3.67-3.67
									C618.59,1350.77,616.82,1352.45,616.87,1354.44L616.87,1354.44z"/>
							</g>
						</g>
						<g>
							<g>
								<path class="st18" d="M693.97,1490.84c-0.01,9.55-0.9,19.09-2.02,28.56c-0.71,5.96-1.39,10.83-2.33,16.99
									c-0.97,6.33-2.02,12.65-3.12,18.96c-5.24,29.88-11.61,59.56-18.13,89.19c-7.18,32.61-14.65,65.15-21.89,97.75
									c-6.71,30.22-13.3,60.48-18.89,90.92c-4.21,22.88-8.33,46.11-9.25,69.4c-0.08,2.07-0.13,4.15-0.13,6.22
									c0,4.72,7.33,4.73,7.33,0c0.01-9.55,0.9-19.09,2.02-28.56c0.71-5.96,1.39-10.83,2.33-16.99c0.97-6.33,2.02-12.65,3.12-18.96
									c5.24-29.88,11.61-59.56,18.13-89.19c7.18-32.61,14.65-65.15,21.89-97.75c6.71-30.22,13.3-60.48,18.89-90.92
									c4.2-22.88,8.33-46.11,9.25-69.4c0.08-2.07,0.13-4.15,0.13-6.22C701.31,1486.12,693.98,1486.11,693.97,1490.84
									L693.97,1490.84z"/>
							</g>
						</g>
						<g>
							<g>
								<path class="st5" d="M609.39,1351.1c44.05-5.59,138.73-5.08,146.8-5.89c34.86-3.52,31.87-20.46,77.11-14.55
									c1.68,0.22,59.28-172.39,57.44-274.93c-1.88-104.67-25.67-136.89-25.67-136.89c-85.56-63.56-98.31-31.79-142.78-40.47
									l-121.44,27.53c-7.72,11.11-80.44,58.2-64.56,105.83c4.78,14.33,25.28,39.27,28.11,78.22c2.95,40.6-11.75,95.74-6.11,135.67
									C568.02,1294.42,586.49,1336.71,609.39,1351.1z"/>
							</g>
							<g>
								<path class="st19" d="M543.45,753.28c-9.77-6.78-35.41-10.43-42.15-20.18c-5.52-7.99-9.98-30.01-7.45-39.35
									c1.87-6.91,9.06-26.7,14.34-31.59c29.3-27.13,132.64-28.97,138.11-22c-1.96-2.3,26.35-24.28,37.74-12.71
									c5.1,5.18,6.44,12.82,7.54,19.97c3.35,21.76-5.85,46.75-2.5,68.52l-16.82,38.98L543.45,753.28z"/>
							</g>
							<g>
								<path class="st4" d="M540.86,714.63c-8.22,36.76-6.46,88.04,7.67,119.87c9.65,21.74,42.71,37.16,66.56,39.46
									c15.56,1.5,30.55-5.76,43.83-13.92c10.01-6.15,20.3-13.86,23.28-25.15c2.1-7.95,0.17-16.35-1.76-24.35
									c-10.76-44.57-21.51-101.37-32.27-145.94C605.97,695.17,540.86,714.63,540.86,714.63z"/>
							</g>
							<g>
								<path class="st4" d="M612.08,861.39c12.17,9.95-16.01,39.45-4.6,50.24c3.8,3.59,9.45,4.34,14.69,4.74
									c23.8,1.84,47.85,0.42,71.25-4.21c9.18-1.81,20.03-5.96,21.29-15.15c0.65-4.74-0.48-14.13-2.41-18.51
									c-15.39-34.99-18.75-111.37-18.75-111.37c3.35,0.9,9.39,0.83,13.86-3.52c3.61-3.51,6.13-11.09,5.91-13.15
									c-0.49-4.52-1.29-9.09-3.3-13.18c-4.78-9.75-17.03-15.43-27.49-12.27s-17.46,15.14-14.49,25.57L612.08,861.39z"/>
							</g>
							<g>
								<path class="st5" d="M619.8,811.15c-0.27,6.18-5.58,11.77-11.79,12.4"/>
								<g>
									<path class="st5" d="M616.88,811.15c-0.01,0.17-0.02,0.35-0.03,0.52c-0.01,0.12-0.02,0.23-0.04,0.35
										c0.06-0.46,0.08-0.57,0.04-0.35c-0.07,0.37-0.14,0.74-0.23,1.11c-0.09,0.34-0.19,0.67-0.3,1
										c-0.06,0.16-0.12,0.33-0.18,0.49c-0.22,0.59,0.3-0.62,0.02-0.06c-0.32,0.66-0.66,1.29-1.07,1.9
										c-0.1,0.15-0.2,0.29-0.3,0.43c-0.42,0.58,0.35-0.4-0.03,0.03c-0.23,0.27-0.45,0.53-0.7,0.79c-0.24,0.25-0.49,0.5-0.75,0.74
										c-0.13,0.12-0.26,0.23-0.4,0.35c-0.09,0.08-0.18,0.15-0.27,0.22c0.1-0.08,0.21-0.16,0.31-0.24
										c-0.32,0.14-0.64,0.46-0.94,0.65c-0.32,0.2-0.65,0.4-0.99,0.57c-0.16,0.08-0.31,0.16-0.47,0.23
										c-0.19,0.09-0.73,0.27,0.06-0.01c-0.33,0.12-0.65,0.25-0.99,0.36c-0.33,0.11-0.67,0.2-1.01,0.27
										c-0.2,0.04-0.4,0.08-0.6,0.12c-0.73,0.13,0.58-0.06-0.01,0c-0.8,0.09-1.48,0.27-2.06,0.86c-0.51,0.51-0.89,1.34-0.86,2.06
										c0.06,1.44,1.29,3.1,2.92,2.92c3.89-0.43,7.47-2.13,10.18-4.98c2.68-2.82,4.32-6.45,4.52-10.34
										c0.08-1.53-1.4-2.99-2.92-2.92C618.15,808.3,616.96,809.51,616.88,811.15L616.88,811.15z"/>
								</g>
							</g>
							<g>
								<path class="st5" d="M574.27,763.47c3.32,8.87,6.38,25.49,9.7,34.36"/>
								<g>
									<path class="st5" d="M571.45,764.25c4.14,11.18,5.56,23.19,9.7,34.36c0.55,1.48,1.98,2.48,3.59,2.04
										c1.42-0.39,2.59-2.11,2.04-3.59c-4.14-11.18-5.56-23.19-9.7-34.36c-0.55-1.48-1.98-2.48-3.59-2.04
										C572.07,761.05,570.9,762.76,571.45,764.25L571.45,764.25z"/>
								</g>
							</g>
							<g>
								<path class="st5" d="M591.67,800.57c-4,1.84-8.47,2.69-12.88,2.46"/>
								<g>
									<path class="st5" d="M590.2,798.05c-0.16,0.07-0.96,0.56-0.37,0.17c-0.17,0.11-0.46,0.18-0.65,0.25
										c-0.51,0.19-1.02,0.37-1.54,0.53c-1,0.31-2.01,0.56-3.04,0.76c-0.27,0.05-0.53,0.1-0.8,0.14c-0.12,0.02-0.9,0.17-0.14,0.03
										c-0.53,0.1-1.08,0.12-1.62,0.16c-1.08,0.07-2.17,0.08-3.25,0.02c-1.53-0.07-2.99,1.4-2.92,2.92
										c0.07,1.65,1.28,2.84,2.92,2.92c4.96,0.24,9.84-0.81,14.35-2.85c1.4-0.63,1.84-2.76,1.05-3.99
										C593.26,797.66,591.69,797.37,590.2,798.05L590.2,798.05z"/>
								</g>
							</g>
							<g>
								<path class="st5" d="M613.56,743.53c4.41,0.23,8,4.94,7.01,9.2c-3.67-0.72-6.46-4.5-6.02-8.18"/>
								<g>
									<path class="st5" d="M613.56,746.45c0.17,0.01,0.33,0.03,0.5,0.05c-0.26-0.03-0.52-0.07-0.78-0.1
										c0.61,0.09,1.2,0.25,1.77,0.48c-0.23-0.1-0.46-0.2-0.7-0.29c0.61,0.26,1.17,0.59,1.69,0.99c-0.2-0.15-0.39-0.3-0.59-0.46
										c0.59,0.46,1.11,0.98,1.56,1.57c-0.15-0.2-0.3-0.39-0.46-0.59c0.42,0.56,0.77,1.16,1.05,1.81c-0.1-0.23-0.2-0.46-0.29-0.7
										c0.25,0.61,0.43,1.23,0.53,1.88c-0.03-0.26-0.07-0.52-0.1-0.78c0.08,0.61,0.09,1.21,0.02,1.82
										c0.03-0.26,0.07-0.52,0.1-0.78c-0.03,0.2-0.06,0.4-0.11,0.61c1.2-0.68,2.39-1.36,3.59-2.04c-0.47-0.1-0.92-0.24-1.36-0.42
										c0.23,0.1,0.46,0.2,0.7,0.29c-0.6-0.26-1.15-0.59-1.66-0.98c0.2,0.15,0.39,0.3,0.59,0.46c-0.54-0.43-1.03-0.92-1.45-1.47
										c0.15,0.2,0.3,0.39,0.46,0.59c-0.42-0.55-0.76-1.15-1.03-1.79c0.1,0.23,0.2,0.46,0.29,0.7c-0.24-0.6-0.41-1.21-0.5-1.85
										c0.03,0.26,0.07,0.52,0.1,0.78c-0.07-0.56-0.08-1.11-0.02-1.67c0.07-0.7-0.38-1.59-0.86-2.06
										c-0.51-0.51-1.34-0.89-2.06-0.86c-0.76,0.03-1.54,0.28-2.06,0.86c-0.55,0.6-0.77,1.25-0.86,2.06
										c-0.53,4.95,3.34,10,8.17,10.99c0.74,0.15,1.59,0.13,2.25-0.29c0.62-0.4,1.18-1,1.34-1.74c0.67-3.06-0.1-6.19-2.01-8.66
										c-1.92-2.49-4.67-4.04-7.82-4.24c-1.53-0.1-2.99,1.41-2.92,2.92C610.71,745.2,611.92,746.35,613.56,746.45L613.56,746.45z"
										/>
								</g>
							</g>
							<g>
								<path class="st5" d="M597.27,734.05c-2.84-0.73-5.85-0.76-8.7-0.08"/>
								<g>
									<path class="st5" d="M598.05,731.23c-3.37-0.85-6.87-0.87-10.25-0.08c-1.49,0.35-2.51,2.13-2.04,3.59
										c0.5,1.55,2,2.41,3.59,2.04c0.58-0.14,1.17-0.24,1.76-0.33c-0.26,0.03-0.52,0.07-0.78,0.1c1.62-0.21,3.25-0.21,4.87,0
										c-0.26-0.03-0.52-0.07-0.78-0.1c0.7,0.1,1.39,0.23,2.08,0.41c1.48,0.37,3.24-0.48,3.59-2.04
										C600.43,733.31,599.63,731.63,598.05,731.23L598.05,731.23z"/>
								</g>
							</g>
							<g>
								<path class="st5" d="M559.75,767.42c3.52,0.69,6.27,4.15,6.13,7.71c-4.03,0.92-7.92-4.23-5.89-7.8"/>
								<g>
									<path class="st5" d="M558.97,770.23c0.47,0.1,0.93,0.24,1.37,0.42c-0.23-0.1-0.46-0.2-0.7-0.29c0.61,0.26,1.18,0.6,1.7,1
										c-0.2-0.15-0.39-0.3-0.59-0.46c0.55,0.43,1.04,0.93,1.47,1.49c-0.15-0.2-0.3-0.39-0.46-0.59c0.4,0.53,0.73,1.1,1,1.7
										c-0.1-0.23-0.2-0.46-0.29-0.7c0.26,0.61,0.43,1.24,0.53,1.89c-0.03-0.26-0.07-0.52-0.1-0.78c0.05,0.4,0.07,0.8,0.06,1.2
										c0.71-0.94,1.43-1.88,2.14-2.82c-0.13,0.03-0.25,0.05-0.38,0.07c0.26-0.03,0.52-0.07,0.78-0.1c-0.38,0.05-0.75,0.05-1.13,0
										c0.26,0.03,0.52,0.07,0.78,0.1c-0.44-0.06-0.85-0.18-1.26-0.35c0.23,0.1,0.46,0.2,0.7,0.29c-0.44-0.19-0.84-0.43-1.22-0.72
										c0.2,0.15,0.39,0.3,0.59,0.46c-0.43-0.34-0.82-0.72-1.16-1.15c0.15,0.2,0.3,0.39,0.46,0.59c-0.33-0.43-0.61-0.9-0.83-1.4
										c0.1,0.23,0.2,0.46,0.29,0.7c-0.2-0.47-0.34-0.95-0.41-1.45c0.03,0.26,0.07,0.52,0.1,0.78c-0.06-0.43-0.06-0.86,0-1.3
										c-0.03,0.26-0.07,0.52-0.1,0.78c0.06-0.37,0.15-0.73,0.3-1.08c-0.1,0.23-0.2,0.46-0.29,0.7c0.06-0.15,0.14-0.29,0.21-0.43
										c0.74-1.34,0.37-3.25-1.05-3.99c-1.37-0.72-3.2-0.38-3.99,1.05c-0.62,1.12-0.97,2.39-0.95,3.68
										c0.02,1.31,0.37,2.48,0.91,3.66c0.99,2.14,2.9,3.73,5.07,4.55c1.32,0.5,2.79,0.5,4.15,0.2c0.61-0.13,1.15-0.57,1.52-1.05
										c0.4-0.52,0.6-1.1,0.63-1.77c0.16-4.83-3.53-9.55-8.27-10.52c-0.77-0.16-1.55-0.11-2.25,0.29
										c-0.61,0.35-1.18,1.05-1.34,1.74c-0.17,0.75-0.13,1.59,0.29,2.25C557.62,769.51,558.23,770.08,558.97,770.23L558.97,770.23
										z"/>
								</g>
							</g>
							<g>
								<path class="st5" d="M554.15,746.9c-1.68,1.14-3.37,2.28-5.05,3.42"/>
								<g>
									<path class="st5" d="M552.67,744.38c-1.68,1.14-3.37,2.28-5.05,3.42c-0.63,0.43-1.13,0.99-1.34,1.74
										c-0.19,0.7-0.11,1.63,0.29,2.25c0.4,0.62,1,1.17,1.74,1.34c0.74,0.17,1.6,0.14,2.25-0.29c1.68-1.14,3.37-2.28,5.05-3.42
										c0.63-0.43,1.13-0.99,1.34-1.74c0.19-0.7,0.11-1.63-0.29-2.25c-0.4-0.62-1-1.17-1.74-1.34
										C554.19,743.92,553.32,743.94,552.67,744.38L552.67,744.38z"/>
								</g>
							</g>
							<g>
								<path class="st15" d="M600.36,904.59c-3.86,19.85,9.07,41.27,29.81,49.38c1.63,0.63,3.72,1.13,5.02,0.05
									c0.62-0.51,0.88-1.27,1.11-1.99c2.27-7.1,3.51-14.45,3.67-21.82c0.13-5.88-0.37-12.02,2.35-17.39l6.19,10.46
									c10.51,11.51,21.18,17.97,30.14,30.48c13.67-8.23,26.19-17.98,37.17-28.95c8.2-8.19,15.83-17.75,16.56-28.68
									c0.72-10.92-5.29-25.06-17.61-24.97l-7.33-4.89c2.8,3.48,3.8,10.74,4.16,15.01c0.69,8.29-9.06,13.96-17.65,17.27
									c-21.92,8.44-45.14,14.2-68.79,17.05c-5.21,0.63-9.8-1.67-14.27-4.11c-4.4-2.4-5.14-5.09-6.11-9.78L600.36,904.59z"/>
							</g>
							<g>
								<g>
									<path class="st5" d="M883.6,2111.12c-8.89,0-16.69-7.2-18.1-17.27l-93.98-675.78c-12.61-55.43-40.74-65.87-61.28-68.58
										H488.57c-26.05,5.18-43.53,19.7-54.78,45.53l-104.7,698.39c-1.66,11.1-11.11,18.6-21.1,16.75
										c-9.99-1.85-16.74-12.35-15.07-23.46l105.11-701.16c0.26-1.76,0.74-3.48,1.41-5.11c16.47-40.12,44.93-64.16,84.58-71.44
										c0.99-0.18,1.99-0.27,2.99-0.27h224.28c0.67,0,1.34,0.04,2,0.12c25.1,3.07,45.99,13.81,62.1,31.92
										c14.78,16.62,25.51,39.62,31.91,68.37c0.13,0.59,0.24,1.18,0.32,1.78l94.11,676.7c1.55,11.12-5.31,21.54-15.32,23.26
										C885.47,2111.04,884.53,2111.12,883.6,2111.12z"/>
								</g>
								<g>
									<path class="st7" d="M829.21,1931.07c-8.74,0-16.47-6.97-18.04-16.86l-12.07-76.52c-8.26-33.1-23.16-37.4-37.95-37.07
										c-0.12,0-0.24,0-0.36,0H440.56c-0.34,0-0.67-0.01-1.01-0.03c-15.65-0.94-25.61,5.68-33.91,22.79l-12.98,90.52
										c-1.59,11.12-11,18.69-20.99,16.92c-10-1.77-16.81-12.22-15.22-23.34l13.44-93.76c0.29-2.05,0.87-4.03,1.7-5.88
										c15.04-33.54,38.42-49.67,69.44-47.98h319.58c26.14-0.53,60.22,10.92,74.09,68.07c0.14,0.59,0.26,1.18,0.36,1.79
										l12.22,77.45c1.75,11.09-4.92,21.65-14.89,23.6C831.33,1930.97,830.26,1931.07,829.21,1931.07z"/>
								</g>
							</g>
							<g>
								<g>
									<path class="st4" d="M764.88,1327.41c-30.19,5.9-55.67,26.27-81.29,44.06c-2.41,1.67-4.91,3.36-7.76,3.89
										c-5.69,1.06-11-2.69-15.89-5.82c-10.47-6.69-24.5-11.06-34.74-3.78c-3.55,2.52-6.32,6.27-10.26,8.05
										c-3.94,1.78-9.81,0.09-10.09-4.35c-0.14-2.26,1.22-4.31,2.56-6.11c13.58-18.29,30.9-33.13,48.06-47.8
										c6.33-5.42,12.66-10.83,19-16.25c-12.63-4.95-25.08-5.04-38.69-6.67c8.88-7.96,9.19-20.19,19.8-25.34
										c4.28-2.07,9.19-1.93,13.89-1.75c24.29,0.95,48.58,1.9,72.88,2.85l19.35,5.42l15.21,24.93l3.13,19.32L764.88,1327.41z"/>
								</g>
								<g>
									<path class="st15" d="M801.65,1316.04c-5.16,2.56-18.11,8.98-23.27,11.54c-1.22,0.6-2.61,1.22-3.87,0.75
										c-1.17-0.44-1.84-1.67-2.42-2.81c-8.54-16.84-17.09-33.69-25.63-50.53c-0.52-1.03-1.05-2.1-1.08-3.26
										c-0.09-3.52,3.97-5.3,7.24-6.23c7.4-2.11,14.63-4.87,21.59-8.25l29.71,41.32L801.65,1316.04z"/>
								</g>
								<g>
									<path class="st5" d="M784.48,879.32c21.04,1.27,41.52,10.28,58.99,22.6c17.47,12.31,32.25,27.84,46.27,43.71
										c56.84,64.37,103.5,136.72,137.65,213.46c4.4,9.88,8.66,20.2,8.34,30.64c-0.3,9.76-4.62,18.75-9.9,26.79
										c-22.8,34.7-62.99,54.69-102.71,70.79c-41.55,16.84-84.44,31-128.32,42.34c0.94-26.42-11.77-53.87-33.36-72.01
										c52.15-27.96,106.16-52.99,161.68-74.94c13.11-5.18,28.33-10.14,41.74-3.83c-8.17-1.18-16.34-2.37-24.51-3.55
										c-2.51-0.36-5.08-0.75-7.36-1.9c-3.46-1.75-5.79-5.02-7.99-8.13c-31.38-44.45-67.41-86.09-107.31-124
										c-17.74-16.86-36.39-33.16-50.67-52.72s-23.97-43.23-20.85-65.89c3.12-22.66,21.61-43.16,45.66-44.16"/>
								</g>
								<g>
									<g>
										<path class="st13" d="M872.82,1095.72c-18.96-22.53-39.31-43.89-60.91-63.9c-20.17-18.7-42.56-36.73-55.36-61.64
											c-6.66-12.97-10.56-27.9-8.18-42.49c0.22-1.32-0.34-2.66-1.73-3.04c-1.18-0.32-2.83,0.4-3.04,1.73
											c-4.62,28.25,10.75,54.63,29.09,74.78c9.58,10.52,20.23,19.99,30.72,29.57c11.06,10.11,21.84,20.51,32.27,31.26
											c11.64,12.01,22.86,24.43,33.63,37.23c0.86,1.02,2.61,0.89,3.5,0C873.84,1098.21,873.69,1096.75,872.82,1095.72
											L872.82,1095.72z"/>
									</g>
								</g>
								<g>
									<g>
										<path class="st13" d="M567.83,1065.51c-0.99-12.03-1.45-24.12-1.81-36.19c-0.42-14.14-0.64-28.31-0.3-42.46
											c0.14-6.07,0.36-12.16,1.01-18.19c0.14-1.33-1.24-2.47-2.47-2.47c-1.46,0-2.33,1.14-2.47,2.47
											c-1.29,11.9-1.21,23.99-1.15,35.95c0.07,14.18,0.45,28.36,1.12,42.52c0.29,6.13,0.62,12.25,1.13,18.37
											c0.11,1.33,1.06,2.47,2.47,2.47C566.61,1067.98,567.94,1066.85,567.83,1065.51L567.83,1065.51z"/>
									</g>
								</g>
								<g>
									<g>
										<path class="st13" d="M763.23,1260.18c20.31-10.08,40.26-20.86,60.38-31.31c6.23-3.24,12.48-6.44,18.75-9.61
											c2.84-1.44,0.34-5.71-2.5-4.27c-20.86,10.54-41.43,21.64-62.2,32.34c-5.62,2.9-11.26,5.76-16.93,8.58
											C757.88,1257.32,760.38,1261.59,763.23,1260.18L763.23,1260.18z"/>
									</g>
								</g>
							</g>
							<g>
								<g>
									<path class="st8" d="M632.41,1139.03c17.33-7.47,36.49-10.33,55.26-8.6c1.69,0.16,3.14-1.55,3.14-3.14
										c0-1.83-1.44-2.98-3.14-3.14c-15.34-1.41-31.01,0.22-45.74,4.74c-4.32,1.33-8.53,2.93-12.68,4.71
										c-1.56,0.67-1.91,2.96-1.12,4.29C629.06,1139.51,630.85,1139.7,632.41,1139.03L632.41,1139.03z"/>
								</g>
							</g>
							<g>
								<g>
									<path class="st8" d="M656.85,1112.14c17.33-7.47,36.49-10.33,55.26-8.6c1.69,0.16,3.14-1.55,3.14-3.14
										c0-1.83-1.44-2.98-3.14-3.14c-15.34-1.41-31.01,0.22-45.74,4.74c-4.32,1.33-8.53,2.93-12.68,4.71
										c-1.56,0.67-1.91,2.96-1.12,4.29C653.5,1112.62,655.29,1112.82,656.85,1112.14L656.85,1112.14z"/>
								</g>
							</g>
						</g>
						<g>
							<g>
								<path class="st20" d="M602.86,870.81c3.79,1.43,8.2,1.66,12.21,1.74c6.47,0.12,13.04-0.71,19.28-2.41
									c3.78-1.03,7.47-2.43,11.01-4.14c3.66-1.77,6.97-3.99,10.26-6.35c5.46-3.93,11.48-6.62,17.54-9.46
									c7.11-3.34,13.17-7.87,18.15-13.99c1.07-1.31,1.28-3.15,0-4.44c-1.1-1.1-3.36-1.32-4.44,0c-4.35,5.34-8.89,9.06-14.99,12.1
									c-5.56,2.76-11.3,5.04-16.55,8.41c-3.35,2.15-6.43,4.67-9.91,6.63c-3.14,1.77-6.29,3.15-9.7,4.27
									c-6.31,2.08-12.05,3.01-18.52,3.11c-1.47,0.02-2.94,0-4.4-0.09c-0.66-0.04-1.32-0.09-1.97-0.15
									c-0.31-0.03-0.62-0.06-0.92-0.1c-0.22-0.02-1.17-0.16-0.26-0.02c-1.73-0.26-3.47-0.54-5.11-1.16
									c-1.58-0.6-3.44,0.67-3.86,2.19C600.18,868.71,601.27,870.2,602.86,870.81L602.86,870.81z"/>
							</g>
						</g>
						<g>
							<g>
								<path class="st20" d="M624.52,874.93c1.83,0.69,3.81,0.99,5.74,1.24c2.95,0.39,5.92,0.55,8.89,0.49
									c7.87-0.16,15.81-1.61,23.14-4.5c4.96-1.95,9.65-4.45,13.93-7.63c1.36-1.01,2.05-2.72,1.13-4.29
									c-0.78-1.34-2.92-2.14-4.29-1.13c-6.81,5.06-14.47,8.35-22.76,10.05c-1.76,0.36-3.58,0.65-4.91,0.8
									c-1.68,0.19-3.36,0.32-5.04,0.39c-2.89,0.11-5.79,0.04-8.67-0.28c-0.25-0.03-1.29-0.17-0.37-0.04
									c-0.31-0.05-0.61-0.09-0.92-0.14c-0.55-0.09-1.11-0.19-1.65-0.31c-0.86-0.18-1.72-0.4-2.54-0.71
									c-1.58-0.6-3.44,0.67-3.86,2.19C621.85,872.84,622.93,874.33,624.52,874.93L624.52,874.93z"/>
							</g>
						</g>
						<g>
							<g>
								<path class="st20" d="M560.62,735.18c0.66-0.42,1.34-0.78,2.05-1.11c0.27-0.13,0.27-0.11,0,0c0.22-0.08,0.43-0.17,0.64-0.25
									c0.4-0.15,0.8-0.28,1.2-0.41c1.7-0.53,3.44-0.93,5.18-1.28c3.36-0.68,6.78-1.15,10.06-2.17c1.56-0.49,2.72-2.21,2.19-3.86
									c-0.51-1.57-2.18-2.71-3.86-2.19c-6.77,2.11-14.51,1.9-20.63,5.85c-1.38,0.89-2.07,2.82-1.13,4.29
									C557.22,735.43,559.15,736.13,560.62,735.18L560.62,735.18z"/>
							</g>
						</g>
						<g>
							<g>
								<path class="st20" d="M628.18,746.67c0.66-0.42,1.34-0.78,2.05-1.11c0.27-0.13,0.27-0.11,0,0c0.22-0.08,0.43-0.17,0.64-0.25
									c0.4-0.15,0.8-0.28,1.2-0.41c1.7-0.53,3.44-0.93,5.18-1.28c3.36-0.68,6.78-1.15,10.06-2.17c1.56-0.49,2.72-2.21,2.19-3.86
									c-0.51-1.57-2.18-2.71-3.86-2.19c-6.77,2.11-14.51,1.9-20.63,5.85c-1.38,0.89-2.07,2.82-1.13,4.29
									C624.78,746.92,626.71,747.62,628.18,746.67L628.18,746.67z"/>
							</g>
						</g>
						<g>
							<g>
								<path class="st20" d="M546.05,781.28c0.52-0.34,1.04-0.69,1.56-1.03c0.19-0.12,0.38-0.27,0.58-0.36
									c-0.25,0.11-0.5,0.21-0.75,0.32c0.01,0,0.02-0.01,0.04-0.01c-0.28,0.04-0.56,0.07-0.83,0.11c0,0,0,0,0.01,0
									c-0.28-0.04-0.56-0.07-0.83-0.11c0,0,0,0,0,0c-0.25-0.11-0.5-0.21-0.75-0.32c0,0,0,0,0,0c-0.21-0.16-0.42-0.33-0.63-0.49
									c0,0,0,0,0,0c-0.16-0.21-0.33-0.42-0.49-0.63c0,0,0,0,0,0c-0.11-0.25-0.21-0.5-0.32-0.75c0,0,0,0,0,0
									c-0.04-0.28-0.07-0.56-0.11-0.83c0,0,0,0,0,0.01c0.04-0.28,0.07-0.56,0.11-0.83c0,0.01,0,0.01-0.01,0.02
									c0.11-0.25,0.21-0.5,0.32-0.75c-0.03,0.07-0.08,0.14-0.12,0.21c-0.14,0.28-0.27,0.58-0.37,0.88
									c-0.09,0.28-0.13,0.6-0.12,0.89c0.01,0.28,0.04,0.62,0.11,0.89c0.06,0.25,0.21,0.59,0.33,0.8c0.12,0.2,0.36,0.52,0.53,0.68
									c0.18,0.17,0.47,0.4,0.69,0.53c0.24,0.14,0.57,0.26,0.84,0.35c0.78,0.24,1.57,0.11,2.35-0.01c0.62-0.1,1.23-0.28,1.83-0.47
									c0.77-0.24,1.46-0.74,1.87-1.44c0.23-0.36,0.35-0.75,0.37-1.17c0.09-0.42,0.07-0.83-0.06-1.25
									c-0.25-0.76-0.72-1.49-1.44-1.87c-0.73-0.39-1.61-0.57-2.42-0.32c-0.63,0.2-1.27,0.39-1.92,0.49
									c0.28-0.04,0.56-0.07,0.83-0.11c-0.17,0.02-0.34,0.04-0.51,0.02c0.28,0.04,0.56,0.07,0.83,0.11
									c-0.05-0.01-0.09-0.02-0.13-0.03c0.25,0.11,0.5,0.21,0.75,0.32c-0.03-0.01-0.05-0.02-0.07-0.04
									c0.21,0.16,0.42,0.33,0.63,0.49c-0.01-0.01-0.02-0.02-0.03-0.03c0.16,0.21,0.33,0.42,0.49,0.63
									c-0.01-0.01-0.02-0.02-0.02-0.04c0.11,0.25,0.21,0.5,0.32,0.75c-0.01-0.01-0.01-0.03-0.01-0.04
									c0.04,0.28,0.07,0.56,0.11,0.83c0-0.02,0-0.05,0-0.07c-0.04,0.28-0.07,0.56-0.11,0.83c0.01-0.04,0.02-0.08,0.04-0.12
									c-0.11,0.25-0.21,0.5-0.32,0.75c0.03-0.08,0.08-0.14,0.12-0.22c0.14-0.25,0.28-0.53,0.34-0.81c0-0.02,0.11-0.82,0.11-0.84
									c0-0.01-0.11-0.83-0.11-0.84c0-0.01-0.31-0.75-0.32-0.75c0,0-0.49-0.63-0.49-0.64c0,0-0.63-0.49-0.64-0.49
									c-0.01-0.01-0.74-0.31-0.75-0.32c-0.27-0.09-0.56-0.13-0.84-0.11c-0.24,0.01-0.62,0.05-0.86,0.12
									c-0.24,0.07-0.57,0.22-0.79,0.34c-0.03,0.01-0.05,0.03-0.08,0.04c-0.2,0.12-0.39,0.25-0.58,0.37
									c-0.49,0.32-0.97,0.64-1.45,0.96c-0.68,0.45-1.22,1.07-1.44,1.87c-0.13,0.42-0.15,0.83-0.06,1.25
									c0.02,0.42,0.14,0.81,0.37,1.17c0.43,0.67,1.07,1.26,1.87,1.44C544.43,781.78,545.35,781.75,546.05,781.28L546.05,781.28z"
									/>
							</g>
						</g>
						<g>
							<g>
								<path class="st20" d="M555.73,726.62c0.66-0.42,1.34-0.78,2.05-1.11c0.27-0.13,0.27-0.11,0,0c0.22-0.08,0.43-0.17,0.64-0.25
									c0.4-0.15,0.8-0.28,1.2-0.41c1.7-0.53,3.44-0.93,5.18-1.28c3.36-0.68,6.78-1.15,10.06-2.17c1.56-0.49,2.72-2.21,2.19-3.86
									c-0.51-1.57-2.18-2.71-3.86-2.19c-6.77,2.11-14.51,1.9-20.63,5.85c-1.38,0.89-2.07,2.82-1.13,4.29
									C552.33,726.87,554.26,727.58,555.73,726.62L555.73,726.62z"/>
							</g>
						</g>
						<g>
							<g>
								<path class="st20" d="M605.01,855.33c2.51,1.53,5.6,2.31,8.54,2.05c0.85-0.07,1.6-0.3,2.22-0.92
									c0.54-0.54,0.95-1.44,0.92-2.22c-0.04-0.81-0.3-1.65-0.92-2.22c-0.58-0.53-1.4-0.99-2.22-0.92
									c-0.83,0.07-1.67,0.06-2.49-0.05c0.28,0.04,0.56,0.07,0.83,0.11c-1.03-0.14-2.02-0.41-2.98-0.81
									c0.25,0.11,0.5,0.21,0.75,0.32c-0.51-0.22-1-0.47-1.48-0.76c-0.69-0.42-1.65-0.53-2.42-0.32c-0.73,0.2-1.52,0.76-1.87,1.44
									C603.08,852.57,603.51,854.42,605.01,855.33L605.01,855.33z"/>
							</g>
						</g>
					</g>
					<path class="st19" d="M596.83,811.48c0,0-11.8-1.69-15.17,6.18c-3.37,7.87-5.06,16.3-5.06,16.3s25.29-11.8,24.17-16.3
						c1.69,1.5,23.86-12.27,26.98-19.11c0,0-17.98-1.12-23.6,2.25C598.51,804.17,596.83,811.48,596.83,811.48z"/>
					<polygon class="st5" points="335.12,2111.44 289.77,2111.44 283.1,2066.08 341.79,2066.08 					"/>
					<polygon class="st5" points="905,2111.44 859.64,2111.44 852.97,2066.08 911.67,2066.08 					"/>
				</g>
				<polygon class="st11" points="258.97,1746.78 342.43,1756.46 315.24,1937.82 232.48,1923.5 				"/>
			</g>
			<g>
				<g>
					<path class="st4" d="M1576.07,817.88c3.2,0.82,6.41,1.64,9.61,2.45c-5.62,3.29-11.99,5.28-18.48,5.76l-1.47,1.26
						c1.94,0.81,3.94,1.66,5.38,3.2c1.44,1.53,2.16,3.95,1.14,5.79c-1.18,2.11-4.06,2.58-6.45,2.18c-2.39-0.4-4.69-1.42-7.11-1.35
						c2.07,0.84,4.14,1.69,6.21,2.53c-3.73,3.61-9.52,4.93-14.44,3.28c1.14,2.68,6.18,0.95,7.56,3.51c1.3,2.4-2.21,4.47-4.9,4.92
						c-12.17,2.03-25.15,2.7-35.43,9.52L1576.07,817.88z"/>
				</g>
				<g>
					<path class="st5" d="M1551.92,764.25c0.58-0.43,1.21-0.88,1.93-0.86c0.96,0.03,1.67,0.86,2.25,1.62
						c9.63,12.58,24.3,26.81,36.18,37.28c-24.28,16.97-46.79,43.98-71.07,60.95l-37.55-40.09
						C1483.66,823.14,1544.1,770.1,1551.92,764.25z"/>
					<g>
						<path class="st5" d="M1553.18,766.41c0.08-0.06,0.91-0.6,0.91-0.6c0,0.01-0.49,0.1-0.49,0.13c-0.01,0.1,0.67,0.79,0.76,0.89
							c0.31,0.39,0.61,0.79,0.92,1.18c1.04,1.32,2.1,2.62,3.17,3.91c2.37,2.82,4.82,5.57,7.34,8.27
							c5.07,5.44,10.37,10.68,15.79,15.77c2.93,2.75,5.91,5.45,8.92,8.11c0.17-1.32,0.34-2.63,0.51-3.95
							c-20.18,14.15-36.86,32.54-55.44,48.6c-5.03,4.35-10.19,8.53-15.64,12.34c1.01,0.13,2.03,0.26,3.04,0.39
							c-4.24-4.53-8.49-9.06-12.73-13.59c-6.73-7.18-13.45-14.37-20.18-21.55c-1.55-1.65-3.09-3.3-4.64-4.96c0,1.18,0,2.37,0,3.55
							c6.93-6.08,13.86-12.14,20.81-18.2c11.88-10.36,23.76-20.72,35.74-30.95c2.42-2.06,4.84-4.12,7.28-6.16
							c0.85-0.71,1.71-1.42,2.57-2.12c0.33-0.27,0.66-0.53,0.99-0.8c0.15-0.12,0.3-0.23,0.45-0.35
							C1552.48,766.99,1552.99,766.56,1553.18,766.41c1.08-0.81,1.64-2.17,0.9-3.44c-0.62-1.07-2.35-1.72-3.44-0.9
							c-3.53,2.65-6.86,5.58-10.22,8.43c-5.58,4.75-11.13,9.54-16.67,14.33c-11.48,9.94-22.92,19.92-34.34,29.92
							c-2.51,2.2-5.03,4.4-7.54,6.6c-1.04,0.92-0.88,2.61,0,3.55c4.24,4.53,8.49,9.06,12.73,13.59
							c6.73,7.18,13.45,14.37,20.18,21.55c1.55,1.65,3.09,3.3,4.64,4.96c0.71,0.75,2.16,1.01,3.04,0.39
							c20.18-14.15,36.86-32.54,55.44-48.6c5.03-4.35,10.19-8.53,15.64-12.34c1.24-0.87,1.81-2.8,0.51-3.95
							c-11.74-10.35-23.15-21.3-33.1-33.4c-1.26-1.53-2.39-3.33-3.8-4.72c-1.92-1.88-4.41-1.86-6.51-0.31
							c-1.09,0.8-1.64,2.18-0.9,3.44C1550.38,766.59,1552.08,767.22,1553.18,766.41z"/>
					</g>
				</g>
				<g>
					<path class="st7" d="M1550.48,774.11c0.43-0.32,0.9-0.66,1.43-0.64c0.71,0.02,1.24,0.64,1.67,1.21
						c7.16,9.35,18.05,19.92,26.89,27.7c-18.04,12.61-36.98,35.43-55.02,48.04l-27.9-29.79
						C1497.55,820.62,1544.68,778.46,1550.48,774.11z"/>
					<g>
						<path class="st5" d="M1551.33,775.55c0.47-0.34,0.23-0.44,0.61-0.26c0.26,0.13,0.52,0.63,0.7,0.86
							c0.48,0.62,0.97,1.24,1.46,1.85c1.03,1.27,2.09,2.53,3.17,3.76c2.32,2.65,4.72,5.23,7.18,7.74
							c4.76,4.87,9.73,9.54,14.84,14.05c0.11-0.88,0.23-1.75,0.34-2.63c-15.79,11.09-28.66,25.78-43.08,38.48
							c-3.83,3.37-7.76,6.62-11.94,9.55c0.68,0.09,1.35,0.17,2.03,0.26c-8.14-8.7-16.29-17.39-24.43-26.09
							c-1.16-1.23-2.31-2.47-3.47-3.7c0,0.79,0,1.58,0,2.37c5.4-4.83,10.81-9.65,16.22-14.46c9.22-8.2,18.44-16.4,27.76-24.49
							c1.83-1.59,3.67-3.18,5.52-4.75c0.67-0.57,1.34-1.13,2.02-1.69c0.24-0.2,0.49-0.4,0.74-0.6c0.1-0.08,0.21-0.16,0.31-0.24
							C1551.61,775.33,1550.95,775.84,1551.33,775.55c1.7-1.28,0.03-4.19-1.69-2.89c-2.67,2.01-5.18,4.26-7.7,6.45
							c-4.35,3.77-8.68,7.57-12.99,11.38c-8.9,7.85-17.76,15.73-26.62,23.63c-1.99,1.77-3.97,3.54-5.95,5.32
							c-0.69,0.62-0.59,1.74,0,2.37c8.14,8.7,16.29,17.39,24.43,26.09c1.16,1.23,2.31,2.47,3.47,3.7c0.47,0.5,1.44,0.67,2.03,0.26
							c15.79-11.09,28.66-25.78,43.08-38.48c3.83-3.37,7.76-6.62,11.94-9.55c0.82-0.58,1.21-1.86,0.34-2.63
							c-5.65-4.99-11.14-10.17-16.36-15.62c-2.6-2.71-5.13-5.49-7.55-8.37c-1.09-1.31-2.09-2.7-3.2-4
							c-1.37-1.59-3.22-1.76-4.91-0.54C1547.9,773.91,1549.57,776.82,1551.33,775.55z"/>
					</g>
				</g>
				<g>
					<path class="st4" d="M1551.42,813.51c-6.81-6.4-16.32-9.57-24.61-13.68c-6.07-3.01-10.59-8.15-17.39-7.31
						c-6.66,0.82-9.88,6.4-14.88,10.84c-5.63,5-12.82,9.2-16.13,15.99c-6.24,12.82-9.63,27.02-17.16,39.13
						c-6.07,9.75-14.57,17.72-22.97,25.56c-29.09,27.16-58.23,54.35-89.63,78.79c-4.45-17.05-20.28-120.94-19.4-155.88
						c0,0-3.29-41.75-12.5-41c-3.5,0.29-26.74-0.63-34.84,16.86c-13.21,28.51-17.98,85.43-17.98,85.43s13.9,66.51,15.01,70.02
						c0,0,25.47,71.73,43.54,104.77c1.1,2.01,2.28,4.1,4.2,5.36c2.51,1.65,5.76,1.56,8.72,1.04c16.65-2.91,28.96-16.62,39.89-29.51
						c33.39-39.39,66.78-78.78,100.17-118.16c13.01-15.35,26.24-30.89,42.86-42.23c-7.03-5.83-13.71-12.09-19.97-18.74
						c12.66-3.94,22.77-15.15,25.4-28.14C1531.01,819.7,1543.73,820.1,1551.42,813.51z"/>
				</g>
			</g>
		</g>
	</g>
</g>
</svg>
