<?xml version="1.0" encoding="utf-8"?>
<!-- Generator: Adobe Illustrator 23.0.2, SVG Export Plug-In . SVG Version: 6.00 Build 0)  -->
<svg version="1.1" id="Calque_1" xmlns="http://www.w3.org/2000/svg" xmlns:xlink="http://www.w3.org/1999/xlink" x="0px" y="0px"
	 viewBox="0 0 500 500" style="enable-background:new 0 0 500 500;" xml:space="preserve">
<style type="text/css">
	.st0{fill:none;}
	.st1{fill:#3C3C3B;}
	.st2{font-family:'Avenir-Light';}
	.st3{font-size:124px;}
	.st4{fill:#644F9C;}
	.st5{fill:url(#SVGID_1_);}
	.st6{fill:#706F6F;}
	.st7{font-family:'Avenir-LightOblique';}
	.st8{font-size:16px;}
</style>
<rect x="-39.86" y="160.54" class="st0" width="500.57" height="108.34"/>
<text transform="matrix(1 0 0 1 5.8301 254.2859)" class="st1 st2 st3">M  DoS</text>
<g>
	<path class="st4" d="M147.49,276.72c-3.12-3.24-6.3-6.39-9.31-9.7c-6.34-6.98-12.04-14.46-16.59-22.75
		c-3.17-5.78-5.63-11.82-6.81-18.35c-3.16-17.58,7.67-34.64,25.21-38.86c17.3-4.16,34.55,5.58,40,22.4
		c2.42,7.45,1.97,14.89-0.19,22.3c-2.43,8.35-6.66,15.78-11.72,22.76c-5.73,7.91-12.34,15.04-19.69,21.48
		C148.16,276.2,147.91,276.39,147.49,276.72z M147.94,234.36c9.84,0,17.91-7.98,17.92-17.73c0-10.05-7.94-18.1-17.87-18.13
		c-9.85-0.02-17.97,8.02-17.97,17.81C130.02,226.36,137.96,234.36,147.94,234.36z"/>
</g>
<g>
	<g>
		<linearGradient id="SVGID_1_" gradientUnits="userSpaceOnUse" x1="151.8571" y1="250.5195" x2="470.3036" y2="250.5195">
			<stop  offset="0" style="stop-color:#644F9C"/>
			<stop  offset="0.4256" style="stop-color:#477884"/>
			<stop  offset="0.8235" style="stop-color:#1A9052"/>
			<stop  offset="1" style="stop-color:#00983A"/>
		</linearGradient>
		<path class="st5" d="M417.52,216.99c9.54,0,19.08,0,28.63,0c5.86,0,11.71,0,17.57,0c2.4,0,6.23,0.61,8.28-1.02
			c-1.43-0.05-2.86-0.11-4.28-0.16c-18.96,20.45-37.92,40.91-56.88,61.36c-2.49,2.69-5.58,5.31-7.57,8.41
			c1.2-0.49,2.4-0.99,3.61-1.48c-28.71,0-57.42,0-86.13,0c-45.4,0-90.8,0-136.21,0c-10.53,0-21.06,0-31.59,0
			c-1.53,0-5.54,2.26-2.17,2.26c15.34,0,30.69,0,46.03,0c32.46,0,64.92,0,97.38,0c29.21,0,58.43,0,87.64,0
			c7.01,0,14.02,0.04,21.03,0c5.17-0.03,7.37-3.68,10.72-7.29c19.08-20.58,38.16-41.16,57.23-61.74c0.51-0.55,1.02-1.1,1.53-1.65
			c1.32-1.43-3.59-0.71-4.28-0.16c0.66-0.52,3.81-0.25,2.29-0.79c-0.41-0.15-1.1,0-1.53,0c-1.89,0-3.78,0-5.67,0
			c-5.94,0-11.87,0-17.81,0c-8.55,0-17.09,0-25.64,0C418.16,214.73,414.16,216.99,417.52,216.99L417.52,216.99z"/>
	</g>
</g>
<rect x="149.63" y="292.37" class="st0" width="250.06" height="67.66"/>
<text transform="matrix(1 0 0 1 149.6286 304.4675)" class="st6 st7 st8">Mobilité Douce des Seniors</text>
</svg>
