<?xml version="1.0" encoding="utf-8"?>
<!-- Generator: Adobe Illustrator 24.1.0, SVG Export Plug-In . SVG Version: 6.00 Build 0)  -->
<svg version="1.1" id="illustrations" xmlns="http://www.w3.org/2000/svg" xmlns:xlink="http://www.w3.org/1999/xlink" x="0px"
	 y="0px" viewBox="0 0 1677.5 2953.8" style="enable-background:new 0 0 1677.5 2953.8;" xml:space="preserve">
<style type="text/css">
	.st0{fill:none;stroke:#112954;stroke-width:10;stroke-linecap:round;stroke-linejoin:round;}
	.st1{fill:none;stroke:#112954;stroke-width:10;stroke-linecap:round;stroke-linejoin:round;stroke-dasharray:13.4025,19.1464;}
	.st2{fill:#112954;}
	.st3{opacity:0.5;}
	.st4{fill:none;stroke:#C5C5C5;stroke-width:9.6483;stroke-linecap:round;stroke-linejoin:round;stroke-miterlimit:10;}
	.st5{opacity:0.6;fill:#CECECE;}
	.st6{opacity:0.3;}
	.st7{fill:none;stroke:#192144;stroke-width:9.6483;stroke-linecap:round;stroke-linejoin:round;stroke-miterlimit:10;}
	.st8{fill:#192144;}
	.st9{fill:none;stroke:#112954;stroke-width:10;stroke-linecap:round;stroke-linejoin:round;stroke-dasharray:13.9221,19.8887;}
	.st10{fill:none;stroke:#C5C5C5;stroke-width:10;stroke-linecap:round;stroke-linejoin:round;}
	.st11{fill:none;stroke:#C5C5C5;stroke-width:10;stroke-linecap:round;stroke-linejoin:round;stroke-dasharray:13.9984,19.9978;}
	.st12{fill:none;stroke:#112954;stroke-width:10;stroke-linecap:round;stroke-linejoin:round;stroke-dasharray:13.7401,19.6288;}
	.st13{fill:#E6E2EF;}
	.st14{fill:#FFF3CC;}
	.st15{fill:#826DAF;}
	.st16{fill:none;stroke:#645689;stroke-width:11.6902;stroke-linecap:round;stroke-linejoin:round;stroke-miterlimit:10;}
	.st17{fill:#FDC300;}
	.st18{fill:none;stroke:#CE9800;stroke-width:11.6902;stroke-linecap:round;stroke-linejoin:round;stroke-miterlimit:10;}
	.st19{fill:none;stroke:#A53248;stroke-width:19.1233;stroke-linecap:round;stroke-linejoin:round;stroke-miterlimit:10;}
	.st20{fill:#D8EFF5;}
	.st21{fill:#D4EDE9;}
	.st22{fill:#3EB0CF;}
	.st23{fill:none;stroke:#328BA0;stroke-width:11.6902;stroke-linecap:round;stroke-linejoin:round;stroke-miterlimit:10;}
	.st24{fill:#27A491;}
	.st25{fill:none;stroke:#208473;stroke-width:11.6902;stroke-linecap:round;stroke-linejoin:round;stroke-miterlimit:10;}
	.st26{fill:#DE3E4F;}
	.st27{fill:none;stroke:#112954;stroke-width:10;stroke-linecap:round;stroke-linejoin:round;stroke-dasharray:14.0974,20.1391;}
	.st28{fill:none;stroke:#112954;stroke-width:10;stroke-linecap:round;stroke-linejoin:round;stroke-dasharray:13.8669,19.8098;}
	.st29{font-family:'GothamPro-Bold';}
	.st30{font-size:106.8785px;}
	.st31{font-family:'GothamPro-MediumItalic';}
	.st32{font-size:80px;}
	.st33{fill:#FFFFFF;}
	.st34{font-size:70px;}
</style>
<g>
	<g>
		<line class="st0" x1="825.39" y1="1907.89" x2="825.39" y2="1900.89"/>
		<line class="st1" x1="825.39" y1="1881.74" x2="825.39" y2="1630.92"/>
		<line class="st0" x1="825.39" y1="1621.35" x2="825.39" y2="1614.35"/>
		<g>
			<polygon class="st2" points="866.29,1647.48 858.96,1654.3 825.4,1618.19 791.82,1654.3 784.5,1647.48 825.4,1603.5 			"/>
		</g>
	</g>
</g>
<g class="st3">
	<path class="st4" d="M1121.87,2278.29c0-8.05-0.33-16.03-0.96-23.92l52.77-4.09c-1.76-22.22-5.61-43.84-11.34-64.69l-50.66,15.44
		c-4.31-16.02-9.92-31.5-16.73-46.32l48.2-21.89c-9.19-20.04-20.21-39.08-32.86-56.87l-42.32,31.84
		c-9.48-13.46-20.05-26.09-31.58-37.78l37.79-37.05c-15.38-15.59-32.21-29.74-50.28-42.24l-28.87,44.38
		c-13.42-9.38-27.65-17.68-42.56-24.76l22.85-47.75c-19.63-9.34-40.27-16.91-61.72-22.49l-11.96,51.6
		c-15.69-4.16-31.89-7.07-48.48-8.61l5.14-52.68c-10.83-1.01-21.8-1.55-32.9-1.55c-11.05,0-21.98,0.54-32.77,1.54l6.41,52.56
		c-16.6,1.46-32.82,4.28-48.53,8.37l-13.19-51.27c-21.45,5.57-42.09,13.13-61.72,22.47l24.01,47.21
		c-14.95,7.02-29.22,15.24-42.68,24.56l-29.92-43.66c-18.07,12.49-34.91,26.63-50.3,42.22l38.68,36.13
		c-11.59,11.63-22.22,24.21-31.76,37.63l-43.05-30.79c-12.66,17.78-23.69,36.81-32.89,56.85l48.74,20.74
		c-6.88,14.79-12.57,30.24-16.96,46.23l-50.99-14.21c-5.73,20.85-9.59,42.47-11.36,64.69l52.88,2.81
		c-0.71,8.35-1.09,16.79-1.09,25.32c0,8.05,0.33,16.03,0.96,23.92l-52.77,4.09c1.76,22.22,5.61,43.84,11.34,64.69l50.66-15.44
		c4.31,16.02,9.92,31.5,16.73,46.32l-48.2,21.89c9.19,20.04,20.21,39.08,32.86,56.87l42.33-31.84
		c9.48,13.46,20.05,26.09,31.58,37.77l-37.79,37.05c15.38,15.59,32.21,29.74,50.28,42.24l28.87-44.38
		c13.42,9.38,27.65,17.68,42.56,24.76l-22.85,47.75c19.63,9.34,40.27,16.91,61.72,22.49l11.96-51.6
		c15.69,4.16,31.89,7.07,48.48,8.61l-5.14,52.68c10.83,1.01,21.8,1.55,32.9,1.55c11.05,0,21.98-0.54,32.77-1.54l-6.41-52.56
		c16.6-1.46,32.82-4.28,48.53-8.37l13.19,51.27c21.45-5.57,42.09-13.13,61.72-22.47l-24.01-47.21
		c14.95-7.02,29.22-15.24,42.68-24.56l29.92,43.66c18.07-12.49,34.91-26.63,50.3-42.22l-38.68-36.13
		c11.59-11.63,22.22-24.21,31.76-37.63l43.05,30.79c12.66-17.78,23.69-36.81,32.89-56.85l-48.74-20.74
		c6.88-14.79,12.57-30.24,16.96-46.23l50.99,14.21c5.73-20.85,9.59-42.47,11.36-64.69l-52.88-2.81
		C1121.49,2295.26,1121.87,2286.82,1121.87,2278.29z"/>
</g>
<circle class="st5" cx="825.39" cy="2278.29" r="260.42"/>
<g class="st6">
	<path class="st7" d="M1121.87,1185.65c0-8.05-0.33-16.03-0.96-23.92l52.77-4.09c-1.76-22.22-5.61-43.84-11.34-64.69l-50.66,15.44
		c-4.31-16.02-9.92-31.5-16.73-46.32l48.2-21.89c-9.19-20.04-20.21-39.08-32.86-56.87l-42.32,31.84
		c-9.48-13.46-20.05-26.09-31.58-37.78l37.79-37.05c-15.38-15.59-32.21-29.74-50.28-42.24l-28.87,44.38
		c-13.42-9.38-27.65-17.68-42.56-24.76l22.85-47.75c-19.63-9.34-40.27-16.91-61.72-22.49l-11.96,51.6
		c-15.69-4.16-31.89-7.07-48.48-8.61l5.14-52.68c-10.83-1.01-21.8-1.55-32.9-1.55c-11.05,0-21.98,0.54-32.77,1.54l6.41,52.56
		c-16.6,1.46-32.82,4.28-48.53,8.37l-13.19-51.27c-21.45,5.57-42.09,13.13-61.72,22.47l24.01,47.21
		c-14.95,7.02-29.22,15.24-42.68,24.56l-29.92-43.66c-18.07,12.49-34.91,26.63-50.3,42.22l38.68,36.13
		c-11.59,11.63-22.22,24.21-31.76,37.63l-43.05-30.79c-12.66,17.78-23.69,36.81-32.89,56.85l48.74,20.74
		c-6.88,14.79-12.57,30.24-16.96,46.23l-50.99-14.21c-5.73,20.85-9.59,42.47-11.36,64.69l52.88,2.81
		c-0.71,8.35-1.09,16.79-1.09,25.32c0,8.05,0.33,16.03,0.96,23.92l-52.77,4.09c1.76,22.22,5.61,43.84,11.34,64.69l50.66-15.44
		c4.31,16.02,9.92,31.49,16.73,46.32l-48.2,21.89c9.19,20.04,20.21,39.08,32.86,56.87l42.33-31.84
		c9.48,13.46,20.05,26.09,31.58,37.77l-37.79,37.05c15.38,15.59,32.21,29.74,50.28,42.24l28.87-44.38
		c13.42,9.38,27.65,17.68,42.56,24.76l-22.85,47.75c19.63,9.34,40.27,16.91,61.72,22.49l11.96-51.6
		c15.69,4.16,31.89,7.07,48.48,8.61l-5.14,52.68c10.83,1.01,21.8,1.55,32.9,1.55c11.05,0,21.98-0.54,32.77-1.54l-6.41-52.56
		c16.6-1.46,32.82-4.28,48.53-8.37l13.19,51.27c21.45-5.57,42.09-13.13,61.72-22.47l-24.01-47.21
		c14.95-7.02,29.22-15.24,42.68-24.56l29.92,43.66c18.07-12.49,34.91-26.63,50.3-42.22l-38.68-36.13
		c11.59-11.63,22.22-24.21,31.76-37.63l43.05,30.79c12.66-17.78,23.69-36.81,32.89-56.85l-48.74-20.74
		c6.88-14.79,12.57-30.24,16.96-46.23l50.99,14.21c5.73-20.85,9.59-42.47,11.36-64.69l-52.88-2.82
		C1121.49,1202.62,1121.87,1194.18,1121.87,1185.65z"/>
</g>
<circle class="st8" cx="825.39" cy="1185.65" r="260.42"/>
<g>
	<g>
		<line class="st0" x1="-0.81" y1="1161.53" x2="6.19" y2="1161.53"/>
		<line class="st9" x1="26.08" y1="1161.53" x2="388.05" y2="1161.53"/>
		<line class="st0" x1="397.99" y1="1161.53" x2="404.99" y2="1161.53"/>
		<g>
			<polygon class="st2" points="371.86,1202.43 365.04,1195.11 401.16,1161.54 365.04,1127.97 371.86,1120.64 415.84,1161.54 			"/>
		</g>
	</g>
</g>
<g>
	<g>
		<line class="st11" x1="-1310.01" y1="330.4" x2="2997.51" y2="330.4"/>
	</g>
</g>
<g>
	<g>
		<line class="st11" x1="-1310.01" y1="670.55" x2="2997.51" y2="670.55"/>
	</g>
</g>
<g>
	<g>
		<line class="st27" x1="-203.83" y1="2125.55" x2="418.48" y2="1503.24"/>
		<line class="st0" x1="425.6" y1="1496.12" x2="430.55" y2="1491.17"/>
		<g>
			<polygon class="st2" points="436.04,1543.52 426.03,1543.17 427.84,1493.89 378.56,1495.69 378.2,1485.69 438.22,1483.51 			"/>
		</g>
	</g>
</g>
<g>
	<g>
		<line class="st28" x1="1950.22" y1="2186.7" x2="1266.65" y2="1503.13"/>
		<line class="st0" x1="1259.64" y1="1496.12" x2="1254.69" y2="1491.17"/>
		<g>
			<polygon class="st2" points="1307.04,1485.68 1306.69,1495.68 1257.42,1493.88 1259.21,1543.16 1249.21,1543.51 1247.03,1483.5 
							"/>
		</g>
	</g>
</g>
<g>
	<g>
		<line class="st0" x1="1166.74" y1="1161.53" x2="1173.74" y2="1161.53"/>
		<line class="st9" x1="1193.63" y1="1161.53" x2="1555.6" y2="1161.53"/>
		<line class="st0" x1="1565.54" y1="1161.53" x2="1572.54" y2="1161.53"/>
		<g>
			<polygon class="st2" points="1539.41,1202.43 1532.59,1195.11 1568.71,1161.54 1532.59,1127.97 1539.41,1120.64 1583.39,1161.54 
							"/>
		</g>
	</g>
</g>
<text transform="matrix(1 0 0 1 358.5552 223.3019)" class="st8 st29 st30">User Engagement</text>
<text transform="matrix(1 0 0 1 511.6172 475.5299)"><tspan x="0" y="0" class="st8 st31 st32">Weighting Party </tspan><tspan x="57.68" y="96" class="st8 st31 st32">(in your sofa)</tspan></text>
<text transform="matrix(1 0 0 1 665.7545 1126.4086)"><tspan x="0" y="0" class="st33 st29 st34">GeoDB &amp; </tspan><tspan x="29.44" y="84" class="st33 st29 st34">routing </tspan><tspan x="38.92" y="168" class="st33 st29 st34">engine</tspan></text>
<text transform="matrix(1 0 0 1 780.8433 2243.1873)"><tspan x="0" y="0" class="st8 st29 st34">ML </tspan><tspan x="-68.67" y="84" class="st8 st29 st34">engine</tspan></text>
</svg>
