<?xml version="1.0" encoding="utf-8"?>
<!-- Generator: Adobe Illustrator 24.1.0, SVG Export Plug-In . SVG Version: 6.00 Build 0)  -->
<svg version="1.1" id="illustrations" xmlns="http://www.w3.org/2000/svg" xmlns:xlink="http://www.w3.org/1999/xlink" x="0px"
	 y="0px" viewBox="0 0 1677.5 2953.8" style="enable-background:new 0 0 1677.5 2953.8;" xml:space="preserve">
<style type="text/css">
	.st0{fill:none;stroke:#112954;stroke-width:10;stroke-linecap:round;stroke-linejoin:round;}
	.st1{fill:none;stroke:#112954;stroke-width:10;stroke-linecap:round;stroke-linejoin:round;stroke-dasharray:13.4025,19.1464;}
	.st2{fill:#112954;}
	.st3{opacity:0.5;}
	.st4{fill:none;stroke:#C5C5C5;stroke-width:9.6483;stroke-linecap:round;stroke-linejoin:round;stroke-miterlimit:10;}
	.st5{opacity:0.6;fill:#CECECE;}
	.st6{opacity:0.3;}
	.st7{fill:none;stroke:#192144;stroke-width:9.6483;stroke-linecap:round;stroke-linejoin:round;stroke-miterlimit:10;}
	.st8{fill:#192144;}
	.st9{fill:none;stroke:#112954;stroke-width:10;stroke-linecap:round;stroke-linejoin:round;stroke-dasharray:13.9221,19.8887;}
	.st10{fill:none;stroke:#C5C5C5;stroke-width:10;stroke-linecap:round;stroke-linejoin:round;}
	.st11{fill:none;stroke:#C5C5C5;stroke-width:10;stroke-linecap:round;stroke-linejoin:round;stroke-dasharray:13.9984,19.9978;}
	.st12{fill:none;stroke:#112954;stroke-width:10;stroke-linecap:round;stroke-linejoin:round;stroke-dasharray:13.7401,19.6288;}
	.st13{fill:#E6E2EF;}
	.st14{fill:#FFF3CC;}
	.st15{fill:#826DAF;}
	.st16{fill:none;stroke:#645689;stroke-width:11.6902;stroke-linecap:round;stroke-linejoin:round;stroke-miterlimit:10;}
	.st17{fill:#FDC300;}
	.st18{fill:none;stroke:#CE9800;stroke-width:11.6902;stroke-linecap:round;stroke-linejoin:round;stroke-miterlimit:10;}
	.st19{fill:none;stroke:#A53248;stroke-width:19.1233;stroke-linecap:round;stroke-linejoin:round;stroke-miterlimit:10;}
	.st20{fill:#D8EFF5;}
	.st21{fill:#D4EDE9;}
	.st22{fill:#3EB0CF;}
	.st23{fill:none;stroke:#328BA0;stroke-width:11.6902;stroke-linecap:round;stroke-linejoin:round;stroke-miterlimit:10;}
	.st24{fill:#27A491;}
	.st25{fill:none;stroke:#208473;stroke-width:11.6902;stroke-linecap:round;stroke-linejoin:round;stroke-miterlimit:10;}
	.st26{fill:#DE3E4F;}
	.st27{fill:none;stroke:#112954;stroke-width:10;stroke-linecap:round;stroke-linejoin:round;stroke-dasharray:14.0974,20.1391;}
	.st28{fill:none;stroke:#112954;stroke-width:10;stroke-linecap:round;stroke-linejoin:round;stroke-dasharray:13.8669,19.8098;}
	.st29{font-family:'GothamPro-Bold';}
	.st30{font-size:70px;}
	.st31{font-family:'GothamPro-MediumItalic';}
	.st32{font-size:80px;}
</style>
<g>
	<g>
		<line class="st0" x1="1676.69" y1="1161.53" x2="1683.69" y2="1161.53"/>
	</g>
</g>
<g>
	<g>
		<line class="st10" x1="340.49" y1="330.4" x2="347.49" y2="330.4"/>
		<line class="st11" x1="367.49" y1="330.4" x2="4675.01" y2="330.4"/>
	</g>
</g>
<g>
	<g>
		<line class="st10" x1="340.49" y1="670.55" x2="347.49" y2="670.55"/>
		<line class="st11" x1="367.49" y1="670.55" x2="4675.01" y2="670.55"/>
	</g>
</g>
<g>
	<g>
		<line class="st0" x1="1454.48" y1="2144.74" x2="1459.43" y2="2139.79"/>
		<line class="st27" x1="1473.67" y1="2125.55" x2="2095.98" y2="1503.24"/>
	</g>
</g>
<rect x="327.63" y="961.35" class="st13" width="1239.06" height="400.37"/>
<g>
	<circle class="st15" cx="592.6" cy="868.83" r="66.12"/>
	<path class="st15" d="M595.83,949.29c-63.76,0-118.36,47.94-118.36,130.05c0,15.59,1.46,48.22,2.2,63c0,0-0.2,41.85,48.75,36.74
		h0.52l2.07,210.42h-0.2c0,17.96,14.56,32.51,32.51,32.51s32.51-14.56,32.51-32.51c0,17.96,14.56,32.51,32.51,32.51
		s32.51-14.56,32.51-32.51h-0.2l2.07-210.42h0.52c48.95,5.11,48.75-36.74,48.75-36.74c0.74-14.77,2.2-47.41,2.2-63
		C714.19,997.22,659.58,949.29,595.83,949.29z"/>
	<line class="st16" x1="595.83" y1="1383.65" x2="595.83" y2="1229.85"/>
	<line class="st16" x1="529.7" y1="1165.19" x2="529.7" y2="1041.71"/>
	<line class="st16" x1="661.95" y1="1165.19" x2="661.95" y2="1041.71"/>
</g>
<text transform="matrix(1 0 0 1 434.2997 1558.972)"><tspan x="0" y="0" class="st8 st29 st30">Engaged </tspan><tspan x="39.69" y="84" class="st8 st29 st30">citizen</tspan></text>
<text transform="matrix(1 0 0 1 927.8798 475.5299)"><tspan x="0" y="0" class="st8 st31 st32">Mapping Party </tspan><tspan x="42.88" y="96" class="st8 st31 st32">(in the field)</tspan></text>
<text transform="matrix(1 0 0 1 1077.7401 1141.4506)"><tspan x="0" y="0" class="st2 st29 st30">Citizen </tspan><tspan x="-109.34" y="84" class="st2 st29 st30">surveyor app</tspan></text>
<rect x="327.63" y="2036.55" class="st20" width="1239.06" height="400.37"/>
<g>
	<circle class="st22" cx="592.6" cy="1944.03" r="66.12"/>
	<path class="st22" d="M595.83,2024.49c-63.76,0-118.36,47.94-118.36,130.05c0,15.59,1.46,48.22,2.2,63c0,0-0.2,41.85,48.75,36.74
		h0.52l2.07,210.42h-0.2c0,17.96,14.56,32.51,32.51,32.51s32.51-14.56,32.51-32.51c0,17.96,14.56,32.51,32.51,32.51
		s32.51-14.56,32.51-32.51h-0.2l2.07-210.42h0.52c48.95,5.11,48.75-36.74,48.75-36.74c0.74-14.77,2.2-47.41,2.2-63
		C714.19,2072.42,659.58,2024.49,595.83,2024.49z"/>
	<line class="st23" x1="595.83" y1="2458.85" x2="595.83" y2="2305.05"/>
	<line class="st23" x1="529.7" y1="2240.39" x2="529.7" y2="2116.91"/>
	<line class="st23" x1="661.95" y1="2240.39" x2="661.95" y2="2116.91"/>
</g>
<text transform="matrix(1 0 0 1 378.4394 2634.1726)"><tspan x="0" y="0" class="st8 st29 st30">MoDoS R&amp;D </tspan><tspan x="-59.67" y="84" class="st8 st29 st30">Team members</tspan></text>
<text transform="matrix(1 0 0 1 968.7148 2216.6509)"><tspan x="0" y="0" class="st2 st29 st30">Mass capture </tspan><tspan x="2.07" y="84" class="st2 st29 st30">device &amp; app</tspan></text>
</svg>
