<?xml version="1.0" encoding="utf-8"?>
<!-- Generator: Adobe Illustrator 24.1.0, SVG Export Plug-In . SVG Version: 6.00 Build 0)  -->
<svg version="1.1" id="pictos" xmlns="http://www.w3.org/2000/svg" xmlns:xlink="http://www.w3.org/1999/xlink" x="0px" y="0px"
	 viewBox="0 0 1772 1653" style="enable-background:new 0 0 1772 1653;" xml:space="preserve">
<style type="text/css">
	.st0{fill:#121830;}
	.st1{fill:#FDC300;}
	.st2{fill:#112954;}
	.st3{fill:#15306B;}
	.st4{fill:#47509D;}
	.st5{fill:#D4C5FF;}
	.st6{fill:none;stroke:#FFFFFF;stroke-width:18.6461;stroke-linecap:round;stroke-miterlimit:10;}
	.st7{fill:#FFFFFF;}
	.st8{fill:#8784A5;}
	.st9{fill:#B3B2B1;}
	.st10{fill:#B2A9D8;}
	.st11{fill:#208473;}
	.st12{fill:#6F7070;}
	.st13{fill:#27A491;}
	.st14{fill:#826DAF;}
	.st15{fill:#DE3E4F;}
	.st16{fill:#192144;}
	.st17{fill:none;stroke:#B2A9D8;stroke-width:22.039;stroke-linecap:round;stroke-miterlimit:10;}
	.st18{filter:url(#Adobe_OpacityMaskFilter);}
	.st19{mask:url(#SVGID_1_);}
	.st20{fill:#C5C5C5;}
	.st21{fill:#FDC303;}
	.st22{filter:url(#Adobe_OpacityMaskFilter_1_);}
	.st23{mask:url(#SVGID_2_);}
	.st24{fill:none;stroke:#FDC300;stroke-width:3.6732;stroke-miterlimit:10;}
	.st25{fill:#FDC303;stroke:#FDC300;stroke-width:0.9183;stroke-miterlimit:10;}
	.st26{fill:#27A491;stroke:#FDC300;stroke-width:0.9183;stroke-miterlimit:10;}
	.st27{fill:none;stroke:#B2A9D8;stroke-width:24.2248;stroke-linecap:round;stroke-miterlimit:10;}
	.st28{fill:none;stroke:#826DAF;stroke-width:20.0371;stroke-linecap:round;stroke-miterlimit:10;}
	.st29{fill:#FDC300;stroke:#112954;stroke-width:11.9381;stroke-linecap:round;stroke-linejoin:round;stroke-miterlimit:10;}
	.st30{fill:none;stroke:#121830;stroke-width:5.9816;stroke-linecap:round;stroke-miterlimit:10;}
	.st31{opacity:0.74;fill:#D4C5FF;}
	.st32{fill:none;stroke:#CE9800;stroke-width:13.4488;stroke-linecap:round;stroke-linejoin:round;stroke-miterlimit:10;}
	.st33{fill:none;stroke:#FDC300;stroke-width:17.8163;stroke-linecap:round;stroke-linejoin:round;stroke-miterlimit:10;}
	.st34{fill:none;stroke:#DE3E4F;stroke-width:17.8163;stroke-linecap:round;stroke-linejoin:round;stroke-miterlimit:10;}
	.st35{fill:none;stroke:#27A491;stroke-width:17.8163;stroke-linecap:round;stroke-linejoin:round;stroke-miterlimit:10;}
	.st36{fill:none;stroke:#B2A9D8;stroke-width:22.8116;stroke-linecap:round;stroke-miterlimit:10;}
	.st37{opacity:0.7;fill:#DE3E4F;}
</style>
<g>
	<path class="st5" d="M874.07,1343.46c-80.5,0-156.59-13.14-214.25-37.01c-65.06-26.93-100.89-65.62-100.89-108.94
		c0-43.32,35.83-82.01,100.89-108.94c57.66-23.87,133.75-37.01,214.25-37.01s156.59,13.14,214.25,37.01
		c65.06,26.93,100.89,65.62,100.89,108.94c0,43.32-35.83,82.01-100.89,108.94C1030.66,1330.31,954.57,1343.46,874.07,1343.46z"/>
	<path class="st13" d="M874.07,1078.02c159.44,0,288.69,53.5,288.69,119.49S1033.51,1317,874.07,1317
		c-159.44,0-288.69-53.5-288.69-119.49S714.63,1078.02,874.07,1078.02 M874.07,1025.11c-83.89,0-163.58,13.86-224.37,39.02
		c-32.79,13.57-59.25,30.08-78.64,49.05c-31.9,31.21-38.59,63.09-38.59,84.33s6.7,53.12,38.59,84.33
		c19.39,18.98,45.85,35.48,78.64,49.05c60.79,25.16,140.48,39.02,224.37,39.02c83.9,0,163.58-13.86,224.37-39.02
		c32.79-13.57,59.25-30.08,78.64-49.05c31.9-31.21,38.59-63.09,38.59-84.33s-6.7-53.12-38.59-84.33
		c-19.39-18.98-45.85-35.48-78.64-49.05C1037.65,1038.96,957.96,1025.11,874.07,1025.11L874.07,1025.11z"/>
</g>
<ellipse class="st15" cx="874.07" cy="1197.51" rx="209.93" ry="63.85"/>
<g>
	<path class="st16" d="M1067.44,1092.58H679.95c-20.44,0-37.17-16.73-37.17-37.17V359.42c0-20.44,16.73-37.17,37.17-37.17h387.49
		c20.44,0,37.17,16.73,37.17,37.17v695.99C1104.61,1075.86,1087.88,1092.58,1067.44,1092.58z"/>
	<rect x="690.64" y="449.56" class="st4" width="366.12" height="515.72"/>
	<circle class="st5" cx="798.58" cy="390.09" r="19.98"/>
	<line class="st17" x1="856.66" y1="389.62" x2="948.65" y2="389.62"/>
	<circle class="st4" cx="873.7" cy="1026.61" r="37.63"/>
</g>
<g>
	<circle class="st1" cx="870.99" cy="572.99" r="76.07"/>
	<path class="st1" d="M874.7,665.55c-73.35,0-136.17,55.15-136.17,149.62c0,17.93,1.68,55.48,2.54,72.47c0,0-0.23,48.15,56.09,42.26
		h0.6l2.38,242.08h-0.23c0,20.66,16.75,37.4,37.4,37.4c20.66,0,37.4-16.75,37.4-37.4c0,20.66,16.75,37.4,37.4,37.4
		c20.66,0,37.4-16.75,37.4-37.4h-0.23l2.38-242.08h0.6c56.32,5.88,56.09-42.26,56.09-42.26c0.85-17,2.54-54.54,2.54-72.47
		C1010.87,720.7,948.05,665.55,874.7,665.55z"/>
	<line class="st32" x1="874.7" y1="1165.25" x2="874.7" y2="988.32"/>
	<line class="st32" x1="798.63" y1="913.93" x2="798.63" y2="771.88"/>
	<line class="st32" x1="950.77" y1="913.93" x2="950.77" y2="771.88"/>
</g>
</svg>
