<?xml version="1.0" encoding="utf-8"?>
<!-- Generator: Adobe Illustrator 24.1.0, SVG Export Plug-In . SVG Version: 6.00 Build 0)  -->
<svg version="1.1" id="pictos" xmlns="http://www.w3.org/2000/svg" xmlns:xlink="http://www.w3.org/1999/xlink" x="0px" y="0px"
	 viewBox="0 0 1772 1653" style="enable-background:new 0 0 1772 1653;" xml:space="preserve">
<style type="text/css">
	.st0{fill:#121830;}
	.st1{fill:#FDC300;}
	.st2{fill:#112954;}
	.st3{fill:#15306B;}
	.st4{fill:#47509D;}
	.st5{fill:#D4C5FF;}
	.st6{fill:none;stroke:#FFFFFF;stroke-width:18.6461;stroke-linecap:round;stroke-miterlimit:10;}
	.st7{fill:#FFFFFF;}
	.st8{fill:#8784A5;}
	.st9{fill:#B3B2B1;}
	.st10{fill:#B2A9D8;}
	.st11{fill:#208473;}
	.st12{fill:#6F7070;}
	.st13{fill:#27A491;}
	.st14{fill:#826DAF;}
	.st15{fill:#DE3E4F;}
	.st16{fill:#192144;}
	.st17{fill:none;stroke:#B2A9D8;stroke-width:22.039;stroke-linecap:round;stroke-miterlimit:10;}
	.st18{filter:url(#Adobe_OpacityMaskFilter);}
	.st19{mask:url(#SVGID_1_);}
	.st20{fill:#C5C5C5;}
	.st21{fill:#FDC303;}
	.st22{filter:url(#Adobe_OpacityMaskFilter_1_);}
	.st23{mask:url(#SVGID_2_);}
	.st24{fill:none;stroke:#FDC300;stroke-width:3.6732;stroke-miterlimit:10;}
	.st25{fill:#FDC303;stroke:#FDC300;stroke-width:0.9183;stroke-miterlimit:10;}
	.st26{fill:#27A491;stroke:#FDC300;stroke-width:0.9183;stroke-miterlimit:10;}
	.st27{fill:none;stroke:#B2A9D8;stroke-width:24.2248;stroke-linecap:round;stroke-miterlimit:10;}
	.st28{fill:none;stroke:#826DAF;stroke-width:20.0371;stroke-linecap:round;stroke-miterlimit:10;}
	.st29{fill:#FDC300;stroke:#112954;stroke-width:11.9381;stroke-linecap:round;stroke-linejoin:round;stroke-miterlimit:10;}
	.st30{fill:none;stroke:#121830;stroke-width:5.9816;stroke-linecap:round;stroke-miterlimit:10;}
	.st31{opacity:0.74;fill:#D4C5FF;}
	.st32{fill:none;stroke:#CE9800;stroke-width:13.4488;stroke-linecap:round;stroke-linejoin:round;stroke-miterlimit:10;}
	.st33{fill:none;stroke:#FDC300;stroke-width:17.8163;stroke-linecap:round;stroke-linejoin:round;stroke-miterlimit:10;}
	.st34{fill:none;stroke:#DE3E4F;stroke-width:17.8163;stroke-linecap:round;stroke-linejoin:round;stroke-miterlimit:10;}
	.st35{fill:none;stroke:#27A491;stroke-width:17.8163;stroke-linecap:round;stroke-linejoin:round;stroke-miterlimit:10;}
	.st36{fill:none;stroke:#B2A9D8;stroke-width:22.8116;stroke-linecap:round;stroke-miterlimit:10;}
	.st37{opacity:0.7;fill:#DE3E4F;}
</style>
<g>
	<path class="st14" d="M657.97,679.24c-10.49-6.41-21.46-11.74-32.76-15.98l-9.59,27.78c-8.56-3.26-17.35-5.79-26.25-7.57
		l5.89-28.77c-11.95-2.4-24.09-3.67-36.24-3.8l0.49,29.37c-9.11-0.14-18.23,0.46-27.26,1.83l-4.3-29.05
		c-11.98,1.8-23.82,4.73-35.37,8.79l10.51,27.44c-8.55,2.96-16.91,6.64-24.99,11.05l-13.98-25.83c-10.53,5.75-20.65,12.54-30.2,20.4
		l19.26,22.19c-3.6,2.94-7.12,6.04-10.52,9.33c-3.21,3.1-6.27,6.31-9.18,9.6l-21.97-19.49c-8.19,9.27-15.33,19.14-21.45,29.46
		l25.69,14.27c-4.73,7.89-8.75,16.1-12.04,24.53l-27.31-10.8c-4.46,11.39-7.81,23.13-10.03,35.04l29.02,4.62
		c-1.72,8.97-2.69,18.06-2.9,27.16L363.13,840c-0.3,12.15,0.54,24.32,2.52,36.35l28.84-5.58c1.43,8.97,3.6,17.85,6.52,26.53
		l-27.87,9.28c3.84,11.44,8.77,22.59,14.81,33.3l25.2-15.12c4.39,7.87,9.47,15.45,15.25,22.67l-23,18.25
		c3.77,4.71,7.78,9.3,12.06,13.73c4.26,4.41,8.69,8.57,13.25,12.49l18.51-22.82c6.98,6.06,14.36,11.45,22.04,16.14l-15.38,25.03
		c10.49,6.41,21.46,11.74,32.76,15.98l9.59-27.78c8.56,3.26,17.35,5.79,26.25,7.57l-5.89,28.77c11.95,2.4,24.09,3.67,36.24,3.8
		l-0.49-29.37c9.11,0.14,18.23-0.46,27.26-1.83l4.3,29.05c11.98-1.8,23.82-4.73,35.37-8.79l-10.51-27.44
		c8.55-2.96,16.91-6.64,24.99-11.05l13.98,25.83c10.53-5.75,20.65-12.54,30.2-20.4l-19.26-22.19c3.6-2.94,7.12-6.04,10.52-9.32
		c3.21-3.1,6.27-6.31,9.18-9.6l21.97,19.49c8.19-9.27,15.33-19.14,21.45-29.46l-25.69-14.27c4.73-7.89,8.75-16.1,12.04-24.53
		l27.31,10.8c4.46-11.39,7.81-23.13,10.03-35.03l-29.02-4.62"/>
	<g>
		<path class="st4" d="M619.17,879.75c-4.78,0.79-9.48,1.76-14.1,2.9l-7.57-30.91c-13.01,3.21-25.47,7.6-37.28,13.03l14.1,28.55
			c-9.08,4.12-17.72,8.96-25.85,14.44l-17.69-26.46c-11,7.41-21.22,15.8-30.54,25.04l23.02,22.01
			c-7.06,6.94-13.53,14.44-19.34,22.42l-25.67-18.81c-7.75,10.64-14.51,22.01-20.16,33.95l29.15,12.81
			c-4.26,8.88-7.79,18.13-10.54,27.67l-30.56-8.9c-3.63,12.56-6.11,25.54-7.33,38.81l31.78,2.06c-0.94,9.71-1.09,19.61-0.38,29.61
			l-31.76,2.09c0.46,6.53,1.2,13.09,2.29,19.67c1.08,6.56,2.46,12.99,4.11,19.29l30.56-8.93c2.49,9.71,5.74,19.06,9.7,27.98
			l-29.13,12.82c5.4,12.18,11.89,23.69,19.35,34.43l25.67-18.85c5.62,8.19,11.89,15.85,18.73,22.93l-22.99,22.01
			c9.17,9.51,19.21,18.12,29.96,25.73l17.67-26.48c8.03,5.74,16.53,10.83,25.42,15.18l-14.07,28.55
			c11.79,5.78,24.15,10.47,36.94,13.97l7.55-30.94c9.45,2.64,19.17,4.51,29.09,5.55l-3.46,31.64c12.93,1.37,26.14,1.55,39.49,0.43
			l-3.48-31.65c5.02-0.4,10.07-0.99,15.13-1.82c4.78-0.79,9.48-1.76,14.1-2.9l7.57,30.91c13.01-3.21,25.47-7.6,37.28-13.03
			l-14.1-28.55c9.08-4.12,17.72-8.96,25.85-14.44l17.69,26.46c11-7.41,21.22-15.8,30.54-25.04l-23.02-22.01
			c7.06-6.94,13.53-14.44,19.34-22.42l25.67,18.81c7.75-10.64,14.51-22.01,20.16-33.95l-29.15-12.81
			c4.26-8.88,7.79-18.13,10.54-27.67l30.56,8.9c3.63-12.56,6.11-25.54,7.33-38.81l-31.78-2.07c0.94-9.71,1.09-19.61,0.38-29.61
			l31.76-2.09c-0.46-6.53-1.2-13.09-2.29-19.67c-1.08-6.56-2.46-12.99-4.11-19.29l-30.56,8.93c-2.49-9.71-5.74-19.06-9.7-27.98
			l29.13-12.82c-5.4-12.18-11.89-23.69-19.35-34.43l-25.67,18.85c-5.62-8.19-11.89-15.85-18.73-22.93l22.99-22.01
			c-9.17-9.51-19.21-18.12-29.96-25.73l-17.67,26.48c-8.03-5.74-16.53-10.83-25.42-15.18l14.07-28.55
			c-11.79-5.78-24.15-10.47-36.94-13.97l-7.55,30.94c-9.45-2.64-19.17-4.51-29.09-5.55l3.46-31.64
			c-12.93-1.37-26.14-1.55-39.49-0.43l3.49,31.65C629.28,878.32,624.23,878.92,619.17,879.75z"/>
	</g>
	<g>
		<path class="st5" d="M752.76,892.54c-3.21-1.83-6.47-3.51-9.76-5.06l10.37-21.97c-9.26-4.35-18.76-7.73-28.37-10.19l-5.36,23.71
			c-7.37-1.92-14.82-3.2-22.27-3.86l2.23-24.2c-10.08-0.89-20.18-0.83-30.15,0.17l3.07,24.12c-7.52,0.72-14.96,2.06-22.24,4
			l-6.18-23.49c-9.72,2.59-19.19,6.08-28.28,10.44l11.13,21.61c-6.79,3.22-13.33,7-19.55,11.34l-13.84-19.97
			c-8.19,5.71-15.9,12.21-23,19.5l17.86,16.5c-5.23,5.31-10.07,11.11-14.46,17.37l-19.84-14.03c-2.87,4.09-5.58,8.34-8.1,12.77
			c-2.51,4.41-4.78,8.89-6.84,13.42l22.42,9.4c-3.19,6.95-5.76,14.06-7.7,21.25l-23.44-6.4c-2.66,9.82-4.33,19.77-5.08,29.72
			l24.28,1.16c-0.6,7.56-0.57,15.12,0.09,22.6l-24.21,2c0.87,10.05,2.68,19.98,5.4,29.66l23.2-7.21c2,7.26,4.6,14.37,7.78,21.22
			l-22.07,10.16c4.21,9.09,9.29,17.82,15.19,26.04l19.35-14.72c4.33,6.11,9.2,11.89,14.58,17.27l-17.26,17.1
			c7.01,7.03,14.76,13.48,23.21,19.24l13.15-20.45c3.17,2.18,6.45,4.25,9.85,6.19c3.21,1.83,6.47,3.51,9.76,5.06l-10.37,21.97
			c9.26,4.35,18.76,7.73,28.37,10.19l5.36-23.71c7.37,1.92,14.82,3.2,22.27,3.86l-2.23,24.2c10.08,0.89,20.18,0.83,30.15-0.17
			l-3.07-24.12c7.52-0.72,14.96-2.06,22.24-4l6.18,23.49c9.71-2.59,19.19-6.08,28.28-10.44l-11.13-21.61
			c6.79-3.22,13.33-7,19.55-11.34l13.85,19.97c8.19-5.71,15.9-12.21,23-19.5l-17.86-16.5c5.23-5.31,10.07-11.11,14.46-17.37
			l19.84,14.03c2.87-4.09,5.58-8.34,8.1-12.77c2.51-4.41,4.78-8.89,6.84-13.42l-22.42-9.4c3.19-6.95,5.76-14.06,7.7-21.25l23.44,6.4
			c2.66-9.82,4.33-19.77,5.08-29.72l-24.28-1.16c0.6-7.56,0.57-15.12-0.09-22.6l24.21-2c-0.87-10.05-2.68-19.98-5.4-29.66
			l-23.2,7.21c-2-7.27-4.6-14.37-7.78-21.22l22.07-10.16c-4.21-9.09-9.29-17.82-15.19-26.04l-19.35,14.72
			c-4.33-6.11-9.2-11.89-14.58-17.27l17.26-17.1c-7.01-7.03-14.76-13.48-23.21-19.24l-13.15,20.45
			C759.44,896.55,756.16,894.48,752.76,892.54z M600.36,947.56c-3.38-10.5,2.39-21.76,12.89-25.14c10.5-3.38,21.76,2.39,25.14,12.89
			c3.38,10.5-2.39,21.76-12.89,25.14C615,963.84,603.74,958.07,600.36,947.56z M599.03,1078.26c-3.38-10.5,2.39-21.76,12.89-25.14
			c10.5-3.38,21.76,2.39,25.14,12.89c3.38,10.5-2.39,21.76-12.89,25.14C613.67,1094.54,602.41,1088.77,599.03,1078.26z
			 M700.9,1108.99c-5.03,9.82-17.07,13.7-26.89,8.66c-9.82-5.03-13.7-17.07-8.66-26.89c5.03-9.82,17.07-13.7,26.89-8.66
			C702.05,1087.13,705.93,1099.17,700.9,1108.99z M582.53,1024.29c-9.82-5.03-13.7-17.07-8.66-26.89
			c5.03-9.82,17.07-13.7,26.89-8.66c9.82,5.03,13.7,17.07,8.66,26.89C604.38,1025.45,592.34,1029.32,582.53,1024.29z
			 M767.76,1067.34c3.38,10.5-2.39,21.76-12.89,25.14c-10.5,3.38-21.76-2.39-25.14-12.89c-3.38-10.5,2.39-21.76,12.89-25.14
			C753.12,1051.07,764.38,1056.84,767.76,1067.34z M711.65,1021.6c-7.81,15.23-26.49,21.25-41.73,13.44
			c-15.23-7.81-21.25-26.49-13.44-41.73c7.81-15.23,26.49-21.25,41.73-13.44C713.44,987.68,719.46,1006.36,711.65,1021.6z
			 M794.26,1017.51c-5.03,9.82-17.07,13.7-26.89,8.66c-9.82-5.03-13.7-17.07-8.66-26.89c5.03-9.82,17.07-13.7,26.89-8.66
			C795.41,995.65,799.29,1007.69,794.26,1017.51z"/>
	</g>
</g>
<polyline class="st16" points="1098.14,1240.9 1098.14,1036.89 1137.09,997.95 1256.82,997.95 1344,910.77 1344,566.69 
	1148.71,371.4 688.39,371.4 483.8,575.99 483.8,759.65 620.97,896.82 834.85,896.82 956.91,1018.88 956.91,1138.61 "/>
<polyline class="st33" points="531.06,410.94 744.5,624.38 744.5,918 "/>
<polyline class="st34" points="576.28,712.72 668.26,804.7 806.22,804.7 904.25,706.67 "/>
<polyline class="st34" points="775.7,992.54 1089.41,678.84 1089.41,560.24 "/>
<polyline class="st35" points="743.29,475.52 864.31,596.54 982.91,596.54 "/>
<polyline class="st33" points="878.83,475.52 1125.71,475.52 1228.58,578.39 "/>
<polyline class="st35" points="1270.94,678.84 1183.8,678.84 1034.95,827.69 1034.95,935.4 "/>
<polyline class="st33" points="1198.32,775.65 1198.32,882.15 1148.71,931.77 "/>
<circle class="st15" cx="576.19" cy="714.43" r="35.12"/>
<circle class="st15" cx="904.71" cy="702.54" r="35.12"/>
<circle class="st1" cx="744.78" cy="918.27" r="35.12"/>
<circle class="st1" cx="531.47" cy="411.43" r="35.12"/>
<circle class="st13" cx="744.78" cy="475.6" r="35.12"/>
<circle class="st13" cx="982.52" cy="596.64" r="35.12"/>
<circle class="st15" cx="1089.51" cy="560.98" r="35.12"/>
<circle class="st15" cx="770.6" cy="997.68" r="35.12"/>
<circle class="st13" cx="1035.47" cy="934.88" r="35.12"/>
<circle class="st1" cx="1148.94" cy="931.64" r="35.12"/>
<circle class="st1" cx="1198.65" cy="776.03" r="35.12"/>
<circle class="st13" cx="1271.06" cy="678.77" r="35.12"/>
<circle class="st1" cx="1228.91" cy="578.27" r="35.12"/>
<circle class="st1" cx="878.78" cy="475.6" r="35.12"/>
</svg>
