<?xml version="1.0" encoding="utf-8"?>
<!-- Generator: Adobe Illustrator 24.1.0, SVG Export Plug-In . SVG Version: 6.00 Build 0)  -->
<svg version="1.1" id="pictos" xmlns="http://www.w3.org/2000/svg" xmlns:xlink="http://www.w3.org/1999/xlink" x="0px" y="0px"
	 viewBox="0 0 1772 1653" style="enable-background:new 0 0 1772 1653;" xml:space="preserve">
<style type="text/css">
	.st0{fill:#27A491;}
	.st1{fill:#E6E6E6;}
	.st2{fill:#208473;}
	.st3{fill:#B3B2B1;}
	.st4{fill:#121830;}
	.st5{fill:#FDC300;}
	.st6{fill:#192144;}
	.st7{fill:#15306B;}
	.st8{fill:#47509D;}
	.st9{fill:#D4C5FF;}
	.st10{fill:none;stroke:#FFFFFF;stroke-width:23.7176;stroke-linecap:round;stroke-miterlimit:10;}
	.st11{fill:#FFFFFF;}
	.st12{fill:#DE3E4F;}
	.st13{fill:none;stroke:#CE9800;stroke-width:16;stroke-linecap:round;stroke-linejoin:round;stroke-miterlimit:10;}
	.st14{fill:#8784A5;}
	.st15{fill:#B2A9D8;}
	.st16{fill:none;stroke:#B2A9D8;stroke-width:26.1667;stroke-linecap:round;stroke-miterlimit:10;}
	.st17{fill:#C5C5C5;}
	.st18{fill:#6F7070;}
	.st19{fill:#A53248;}
	.st20{fill:none;stroke:#B2A9D8;stroke-width:29.9545;stroke-linecap:round;stroke-miterlimit:10;}
	.st21{filter:url(#Adobe_OpacityMaskFilter);}
	.st22{mask:url(#SVGID_1_);}
	.st23{fill:#FDC303;}
	.st24{opacity:0.74;fill:#D4C5FF;}
	.st25{fill:none;stroke:#FFFFFF;stroke-width:33.111;stroke-linecap:round;stroke-miterlimit:10;}
</style>
<g>
	<g>
		
			<rect x="826.41" y="371.5" transform="matrix(0.9996 0.0278 -0.0278 0.9996 16.6242 -32.3258)" class="st14" width="692" height="422"/>
		
			<rect x="879.91" y="425.5" transform="matrix(0.9996 0.0278 -0.0278 0.9996 16.6242 -32.3258)" class="st3" width="585" height="314"/>
		<polygon class="st7" points="1466.83,622 881.93,495.9 884.1,417.93 1469,434.18 		"/>
	</g>
	<g>
		
			<rect x="691.41" y="526.5" transform="matrix(0.9788 0.205 -0.205 0.9788 173.2211 -197.0075)" class="st15" width="692" height="422"/>
		
			<rect x="744.91" y="580.5" transform="matrix(0.9788 0.205 -0.205 0.9788 173.2211 -197.0075)" class="st2" width="585" height="314"/>
		
			<rect x="768.73" y="583.45" transform="matrix(0.9788 0.205 -0.205 0.9788 150.1436 -204.3472)" class="st8" width="585.13" height="78"/>
	</g>
	<g>
		<path class="st6" d="M950.64,1170.39l-452.55,82.79c-23.88,4.37-46.98-11.59-51.35-35.47L298.02,404.86
			c-4.37-23.88,11.59-46.98,35.47-51.35l452.55-82.79c23.88-4.37,46.98,11.59,51.35,35.47l148.71,812.85
			C990.47,1142.92,974.51,1166.03,950.64,1170.39z"/>
		
			<rect x="424.72" y="455.8" transform="matrix(0.9837 -0.18 0.18 0.9837 -126.6384 127.9851)" class="st0" width="434.69" height="612.31"/>
		<circle class="st9" cx="486.54" cy="407.39" r="23.72"/>
		<line class="st16" x1="554.27" y1="394.44" x2="661.71" y2="374.78"/>
		<circle class="st8" cx="710.26" cy="1134.74" r="44.68"/>
		<polygon class="st17" points="879.92,856.39 911.58,1023.32 854.26,1034.93 419.58,491.98 567.17,464.98 		"/>
		<polygon class="st17" points="816.29,779.82 476.75,1068.1 449.75,920.51 731.97,680.63 		"/>
	</g>
	<g>
		
			<rect x="783.41" y="644.5" transform="matrix(0.9554 -0.2952 0.2952 0.9554 -202.2303 371.5784)" class="st9" width="692" height="422"/>
		
			<rect x="836.91" y="698.5" transform="matrix(0.9554 -0.2952 0.2952 0.9554 -202.2303 371.5784)" class="st18" width="585" height="314"/>
		
			<rect x="1053.52" y="792.36" transform="matrix(0.9554 -0.2952 0.2952 0.9554 -191.623 393.5623)" class="st5" width="308" height="78"/>
		
			<rect x="1018.83" y="680.1" transform="matrix(0.9554 -0.2952 0.2952 0.9554 -160.0254 378.3162)" class="st5" width="308" height="78"/>
		
			<rect x="1088.21" y="904.63" transform="matrix(0.9554 -0.2952 0.2952 0.9554 -223.2206 408.8083)" class="st5" width="308" height="78"/>
	</g>
	<g>
		
			<rect x="1054.23" y="639.07" transform="matrix(0.9339 0.3575 -0.3575 0.9339 419.4723 -325.3459)" class="st12" width="70.94" height="665.59"/>
		<path class="st19" d="M1241.8,673.75l-66.25-25.36l20.51-53.59c13.42-35.06,79.67-9.7,66.25,25.36L1241.8,673.75z"/>
		<polygon class="st19" points="936.03,1373.28 1003.84,1295.35 937.59,1269.99 		"/>
	</g>
	<g>
		<path class="st6" d="M704.79,1366.87c13.13,2.63,26.62,2.94,39.68,0.93c3.26-0.53,6.5-1.13,9.69-1.95
			c1.61-0.39,3.15-0.84,4.79-1.29c1.68-0.46,3.52-0.99,5.75-0.96c1.11,0.02,2.33,0.21,3.5,0.69c1.18,0.48,2.25,1.25,3.05,2.08
			c1.62,1.67,2.48,3.4,3.32,4.75c1.59,2.57,3.54,4.96,5.81,6.87c2.24,1.95,4.79,3.41,7.37,4.19c1.29,0.36,2.59,0.53,3.85,0.54
			c1.26-0.08,2.47-0.22,3.69-0.65c2.45-0.81,4.97-2.51,7.79-4.41c2.78-1.91,6.28-3.92,9.82-5.21c7.17-2.6,14.94-3.11,22.45-1.85
			c7.49,1.33,14.8,4.58,20.78,9.85l-8.54,0.37c3.1-3.66,6.88-6.74,11.13-8.97c2.12-1.13,4.35-2.04,6.67-2.71
			c2.31-0.69,4.71-1.15,7.04-1.36c2.35-0.24,4.61-0.21,6.84-0.16c2.2,0.09,4.36,0.3,6.42,0.55c4.15,0.47,8.03,1.12,11.77,1.43
			c1.86,0.17,3.68,0.24,5.46,0.22c1.76-0.04,3.52-0.19,5.36-0.5c3.68-0.57,7.53-1.58,11.55-2.48c4.02-0.88,8.23-1.75,12.61-1.75
			c4.35-0.05,8.91,1.16,12.3,3.71l-0.57,1.06c-3.8-1.24-7.6-1.11-11.25-0.25c-3.66,0.93-7.24,2.38-10.9,3.98
			c-3.67,1.6-7.45,3.27-11.64,4.58c-2.08,0.66-4.32,1.16-6.58,1.52c-2.24,0.32-4.47,0.46-6.65,0.52
			c-8.68,0.14-16.63-1.09-23.35-0.12c-0.85,0.11-1.65,0.27-2.47,0.4c-0.79,0.17-1.59,0.36-2.36,0.61c-1.56,0.49-3.08,1.1-4.56,1.81
			c-2.93,1.48-5.66,3.42-7.93,5.79l-4.42,4.61l-4.12-4.24c-3.85-3.96-9.02-6.9-14.69-8.34c-5.68-1.38-11.79-1.28-17.38,0.43
			c-2.83,0.9-5.29,2.1-8.15,3.85c-2.85,1.68-6.03,3.74-10.05,4.89c-2,0.58-4.17,0.8-6.26,0.74c-2.1-0.14-4.14-0.56-6.05-1.23
			c-3.79-1.41-7.03-3.64-9.71-6.27c-2.71-2.61-4.89-5.64-6.64-8.9c-0.81-1.57-1.46-2.89-2.16-3.69c-0.35-0.4-0.66-0.65-1.02-0.86
			c-0.37-0.19-0.83-0.32-1.4-0.38c-1.14-0.12-2.62,0.11-4.2,0.45c-1.63,0.33-3.36,0.7-5.04,0.98c-3.39,0.62-6.8,1.01-10.22,1.31
			c-13.67,1.14-27.47-0.19-40.47-4.01L704.79,1366.87z"/>
	</g>
</g>
</svg>
