<?xml version="1.0" encoding="utf-8"?>
<!-- Generator: Adobe Illustrator 24.1.0, SVG Export Plug-In . SVG Version: 6.00 Build 0)  -->
<svg version="1.1" id="pictos" xmlns="http://www.w3.org/2000/svg" xmlns:xlink="http://www.w3.org/1999/xlink" x="0px" y="0px"
	 viewBox="0 0 1772 1653" style="enable-background:new 0 0 1772 1653;" xml:space="preserve">
<style type="text/css">
	.st0{fill:#27A491;}
	.st1{fill:#E6E6E6;}
	.st2{fill:#208473;}
	.st3{fill:#B3B2B1;}
	.st4{fill:#121830;}
	.st5{fill:#FDC300;}
	.st6{fill:#192144;}
	.st7{fill:#15306B;}
	.st8{fill:#47509D;}
	.st9{fill:#D4C5FF;}
	.st10{fill:none;stroke:#FFFFFF;stroke-width:23.7176;stroke-linecap:round;stroke-miterlimit:10;}
	.st11{fill:#FFFFFF;}
	.st12{fill:#DE3E4F;}
	.st13{fill:none;stroke:#CE9800;stroke-width:16;stroke-linecap:round;stroke-linejoin:round;stroke-miterlimit:10;}
	.st14{fill:#8784A5;}
	.st15{fill:#B2A9D8;}
	.st16{fill:none;stroke:#B2A9D8;stroke-width:26.1667;stroke-linecap:round;stroke-miterlimit:10;}
	.st17{fill:#C5C5C5;}
	.st18{fill:#6F7070;}
	.st19{fill:#A53248;}
	.st20{fill:none;stroke:#B2A9D8;stroke-width:29.9545;stroke-linecap:round;stroke-miterlimit:10;}
	.st21{filter:url(#Adobe_OpacityMaskFilter);}
	.st22{mask:url(#SVGID_1_);}
	.st23{fill:#FDC303;}
	.st24{opacity:0.74;fill:#D4C5FF;}
	.st25{fill:none;stroke:#FFFFFF;stroke-width:33.111;stroke-linecap:round;stroke-miterlimit:10;}
</style>
<polygon class="st0" points="660.5,1264.5 385.5,1370.5 469.5,830.5 690.5,740.5 "/>
<polygon class="st1" points="673.5,1040.5 421.5,1137.5 439.5,1019.5 680.5,921.5 "/>
<polygon class="st2" points="660.5,1264.5 918.5,1367.5 923.5,826.5 690.5,740.5 "/>
<polygon class="st3" points="853.5,1341.5 918.5,1367.5 919.5,1246.5 785.5,1023.5 921.62,1047.25 922.5,956.5 680.5,921.5 
	673.5,1040.5 "/>
<polygon class="st2" points="1179.5,1264.5 1454.5,1370.5 1370.5,830.5 1149.5,740.5 "/>
<polygon class="st3" points="1161.5,952.5 1404.5,1351.5 1454.5,1370.5 1432.88,1231.48 1250.5,933.5 1381.5,903.5 1370.5,830.5 
	1156.5,867.5 "/>
<polygon class="st0" points="1179.5,1264.5 918.5,1367.5 923.5,826.5 1149.5,740.5 "/>
<polygon class="st1" points="1029.5,1323.5 918.5,1367.5 919.5,1246.5 "/>
<polygon class="st1" points="1161.5,952.5 921.5,1047.5 923.5,956.5 1156.5,867.5 "/>
<g>
	<polygon class="st4" points="795.69,461.75 461.67,548.43 481.83,390.05 701.07,333.16 	"/>
	
		<rect x="523.17" y="402.64" transform="matrix(0.9679 -0.2512 0.2512 0.9679 -83.997 165.0188)" class="st5" width="162.47" height="17.79"/>
	<path class="st6" d="M1076.17,820.21L390.9,998.05c-15.78,4.1-32.05-5.47-36.14-21.25L251.99,580.79
		c-4.1-15.78,5.47-32.05,21.25-36.14l685.27-177.84c15.78-4.1,32.05,5.47,36.14,21.25l102.77,396.01
		C1101.52,799.85,1091.96,816.12,1076.17,820.21z"/>
	
		<rect x="290.33" y="570.46" transform="matrix(0.9679 -0.2512 0.2512 0.9679 -149.0932 191.0849)" class="st7" width="767.26" height="218.2"/>
	<circle class="st8" cx="673.98" cy="682.01" r="203.97"/>
	<circle class="st9" cx="673.98" cy="682.01" r="130.45"/>
	<path class="st10" d="M611.26,678.97c0,0,9.55-34.29,40.23-50.02"/>
	<circle class="st11" cx="688.23" cy="618.35" r="9.49"/>
	
		<rect x="293.51" y="480.5" transform="matrix(0.9679 -0.2512 0.2512 0.9679 -115.332 102.5177)" class="st8" width="100.8" height="45.06"/>
</g>
<g>
	
		<ellipse transform="matrix(0.067 -0.9978 0.9978 0.067 20.4221 2125.6118)" class="st12" cx="1146.79" cy="1051.89" rx="91.5" ry="175"/>
	<circle class="st5" cx="1227.42" cy="341" r="90.5"/>
	<path class="st5" d="M1219.62,444.9l-14.97-1.01c-87.06-5.85-163.75,80.32-171.28,192.46c-1.43,21.29-0.26,41.98,3.16,61.57
		c0,0-4.11,57.13,63.21,54.64l0.71,0.05l-32.34,240.24c0,0-25.79,77.58,30.74,86.38c39.84,6.21,52.36-36.27,56.28-61.9
		c-1.96,26.53-0.12,72.69,36.04,75.12c50.89,3.42,55.53-87.61,55.53-87.61l32.34-240.24l3.28,0.22
		c66.38,11.47,69.94-45.69,69.94-45.69c6.01-18.96,9.93-39.31,11.36-60.6C1371.16,546.39,1306.69,450.75,1219.62,444.9z
		 M1153.64,1017.64l29.23-219.4"/>
	<line class="st13" x1="1153.39" y1="1018.06" x2="1185.96" y2="779.51"/>
	<line class="st13" x1="1112.75" y1="586.17" x2="1096.45" y2="731.6"/>
	<line class="st13" x1="1291.35" y1="598.16" x2="1275.32" y2="739.61"/>
</g>
</svg>
