<?xml version="1.0" encoding="iso-8859-1"?>
<!-- Generator: Adobe Illustrator 18.0.0, SVG Export Plug-In . SVG Version: 6.00 Build 0)  -->
<!DOCTYPE svg PUBLIC "-//W3C//DTD SVG 1.1//EN" "http://www.w3.org/Graphics/SVG/1.1/DTD/svg11.dtd">
<svg version="1.1" id="Capa_1" xmlns="http://www.w3.org/2000/svg" xmlns:xlink="http://www.w3.org/1999/xlink" x="0px" y="0px"
	 viewBox="0 0 293.765 293.765" style="enable-background:new 0 0 293.765 293.765;" xml:space="preserve">
<g>
	<path d="M81.415,203.792c-1.022-1.542-2.749-2.47-4.6-2.47h-4.398c-1.83,0-3.542,0.908-4.568,2.424l-55.134,81.407
		c-1.145,1.691-1.264,3.877-0.307,5.681c0.957,1.804,2.832,2.932,4.875,2.932h25.073c2.216,0,4.218-1.326,5.081-3.367l34.459-81.407
		C82.618,207.287,82.438,205.335,81.415,203.792z"/>
	<path d="M90.247,233.93l0.706-2.777l-21.003,55.13c-0.646,1.696-0.417,3.602,0.612,5.096c1.03,1.494,2.729,2.387,4.544,2.387
		h26.329c2.75,0,5.08-2.024,5.464-4.747l3.231-22.904c-0.285-0.063-0.572-0.117-0.856-0.189
		C95.209,262.349,86.673,247.998,90.247,233.93z"/>
	<path d="M163.346,266.282c-1.562,0.294-3.16,0.457-4.788,0.457c-1.877,0-3.766-0.204-5.629-0.609
		c-6.612-1.444-12.103-5.272-15.765-10.385c-1.727,2.413-3.85,4.499-6.254,6.192l-2.9,25.691c-0.176,1.561,0.322,3.124,1.368,4.296
		c1.047,1.171,2.544,1.841,4.115,1.841h26.778c1.571,0,3.068-0.67,4.115-1.841c1.047-1.172,1.544-2.734,1.368-4.296L163.346,266.282
		z"/>
	<path d="M281.051,285.153l-55.135-81.407c-1.026-1.516-2.738-2.424-4.568-2.424h-4.398c-1.851,0-3.577,0.928-4.6,2.47
		c-1.021,1.543-1.203,3.495-0.482,5.199l34.46,81.407c0.863,2.041,2.864,3.367,5.081,3.367h25.072c2.042,0,3.918-1.128,4.875-2.932
		C282.314,289.03,282.196,286.844,281.051,285.153z"/>
	<path d="M193.086,205.622l-8.824,40.408c-0.523,2.398-1.387,4.655-2.51,6.746l5.113,36.242c0.385,2.723,2.714,4.747,5.464,4.747
		h26.329c1.815,0,3.514-0.893,4.544-2.387c1.029-1.494,1.259-3.399,0.612-5.095L193.086,205.622z"/>
	<path d="M148.242,47.699c13.143,0.521,24.257-9.708,24.78-22.888c0.522-13.179-9.729-24.27-22.889-24.792
		c-13.175-0.522-24.275,9.721-24.798,22.899C124.814,36.088,135.089,47.176,148.242,47.699z"/>
	<path d="M180.629,181.135l-16.502-27.602c0.25-6.319,1.058-26.694,1.31-33.034c16.365,13.109,9.614,7.701,25.874,20.727
		c4.4,3.524,10.823,2.811,14.345-1.585c3.523-4.398,2.813-10.82-1.585-14.345l-23.975-19.205l-12.761-10.223l-0.846-1.92
		l0.708-17.852c0.31-7.795-3.766-14.747-10.027-18.477c-2.846-1.696-6.145-2.726-9.688-2.866c-0.004,0-0.014,0-0.027-0.001
		c-5.88-0.239-11.637,1.235-16.689,4.251c-7.088,4.231-21.91,13.176-34.245,20.635c-7.275,4.4-10.651,13.157-8.22,21.305
		l9.905,33.185c1.626,5.399,7.317,8.452,12.714,6.829c5.396-1.625,8.454-7.317,6.829-12.714L109.214,99.9
		c-0.657-2.183,0.234-4.536,2.173-5.735l19.525-10.988c1.85-1.131,4.342-0.336,5.128,1.823c0.572,1.57-0.133,3.329-1.559,4.2
		l-18.64,10.292l7.77,26.984c2.41,8.002-1.622,16.402-9.1,19.661c-0.451,0.196-0.917,0.369-1.393,0.527
		c-1.146,2.142-1.663,4.586-1.359,7.159l4.225,35.98l-2.927,11.518l-9.168,36.075c-1.689,6.649,2.429,13.257,8.853,14.885
		c6.561,1.666,13.221-2.302,14.885-8.852l9.665-38.033l1.035-4.074l1.952-7.681c0.277-1.088,0.402-2.207,0.374-3.326
		c-0.01-0.373-0.036-0.746-0.08-1.117l-3.243-27.621c1.525,0.061,0.855,0.033,3.145,0.124v0.001l16.645,27.84l-2.572,11.78
		c-8.7,39.842-8.659,38.048-8.042,41.341c1.07,5.717,6.062,9.999,12.053,9.999c5.583,0,10.693-3.876,11.952-9.636l5.993-27.446
		l3.113-14.258l2.466-11.291C182.746,186.989,182.227,183.807,180.629,181.135z"/>
</g>
<g>
</g>
<g>
</g>
<g>
</g>
<g>
</g>
<g>
</g>
<g>
</g>
<g>
</g>
<g>
</g>
<g>
</g>
<g>
</g>
<g>
</g>
<g>
</g>
<g>
</g>
<g>
</g>
<g>
</g>
</svg>
